<?xml version="1.0" encoding="utf-8" standalone="no"?>
<!DOCTYPE svg PUBLIC "-//W3C//DTD SVG 1.1//EN"
  "http://www.w3.org/Graphics/SVG/1.1/DTD/svg11.dtd">
<!-- Created with matplotlib (https://matplotlib.org/) -->
<svg height="273.43875pt" version="1.1" viewBox="0 0 370.249375 273.43875" width="370.249375pt" xmlns="http://www.w3.org/2000/svg" xmlns:xlink="http://www.w3.org/1999/xlink">
 <defs>
  <style type="text/css">
*{stroke-linecap:butt;stroke-linejoin:round;}
  </style>
 </defs>
 <g id="figure_1">
  <g id="patch_1">
   <path d="M -0 273.43875 
L 370.249375 273.43875 
L 370.249375 0 
L -0 0 
z
" style="fill:#ffffff;"/>
  </g>
  <g id="axes_1">
   <g id="patch_2">
    <path d="M 24.749375 228.14 
L 359.549375 228.14 
L 359.549375 10.7 
L 24.749375 10.7 
z
" style="fill:#ffffff;"/>
   </g>
   <g id="matplotlib.axis_1">
    <g id="xtick_1">
     <g id="line2d_1">
      <defs>
       <path d="M 0 0 
L 0 3.5 
" id="m33c4d6ca63" style="stroke:#000000;stroke-width:0.8;"/>
      </defs>
      <g>
       <use style="stroke:#000000;stroke-width:0.8;" x="121.765284" xlink:href="#m33c4d6ca63" y="228.14"/>
      </g>
     </g>
     <g id="text_1">
      <!-- $f_1$ -->
      <defs>
       <path d="M 47.796875 75.984375 
L 46.390625 68.5 
L 37.796875 68.5 
Q 32.90625 68.5 30.6875 66.578125 
Q 28.46875 64.65625 27.390625 59.515625 
L 26.421875 54.6875 
L 41.21875 54.6875 
L 39.890625 47.703125 
L 25.09375 47.703125 
L 15.828125 0 
L 6.78125 0 
L 16.109375 47.703125 
L 7.515625 47.703125 
L 8.796875 54.6875 
L 17.390625 54.6875 
L 18.109375 58.5 
Q 19.96875 68.171875 24.625 72.078125 
Q 29.296875 75.984375 39.3125 75.984375 
z
" id="DejaVuSans-Oblique-102"/>
       <path d="M 12.40625 8.296875 
L 28.515625 8.296875 
L 28.515625 63.921875 
L 10.984375 60.40625 
L 10.984375 69.390625 
L 28.421875 72.90625 
L 38.28125 72.90625 
L 38.28125 8.296875 
L 54.390625 8.296875 
L 54.390625 0 
L 12.40625 0 
z
" id="DejaVuSans-49"/>
      </defs>
      <g transform="translate(115.955284 245.777812)scale(0.14 -0.14)">
       <use transform="translate(0 0.015625)" xlink:href="#DejaVuSans-Oblique-102"/>
       <use transform="translate(35.205078 -16.390625)scale(0.7)" xlink:href="#DejaVuSans-49"/>
      </g>
     </g>
    </g>
    <g id="xtick_2">
     <g id="line2d_2">
      <g>
       <use style="stroke:#000000;stroke-width:0.8;" x="249.217557" xlink:href="#m33c4d6ca63" y="228.14"/>
      </g>
     </g>
     <g id="text_2">
      <!-- $f_2$ -->
      <defs>
       <path d="M 19.1875 8.296875 
L 53.609375 8.296875 
L 53.609375 0 
L 7.328125 0 
L 7.328125 8.296875 
Q 12.9375 14.109375 22.625 23.890625 
Q 32.328125 33.6875 34.8125 36.53125 
Q 39.546875 41.84375 41.421875 45.53125 
Q 43.3125 49.21875 43.3125 52.78125 
Q 43.3125 58.59375 39.234375 62.25 
Q 35.15625 65.921875 28.609375 65.921875 
Q 23.96875 65.921875 18.8125 64.3125 
Q 13.671875 62.703125 7.8125 59.421875 
L 7.8125 69.390625 
Q 13.765625 71.78125 18.9375 73 
Q 24.125 74.21875 28.421875 74.21875 
Q 39.75 74.21875 46.484375 68.546875 
Q 53.21875 62.890625 53.21875 53.421875 
Q 53.21875 48.921875 51.53125 44.890625 
Q 49.859375 40.875 45.40625 35.40625 
Q 44.1875 33.984375 37.640625 27.21875 
Q 31.109375 20.453125 19.1875 8.296875 
z
" id="DejaVuSans-50"/>
      </defs>
      <g transform="translate(243.407557 245.777812)scale(0.14 -0.14)">
       <use transform="translate(0 0.015625)" xlink:href="#DejaVuSans-Oblique-102"/>
       <use transform="translate(35.205078 -16.390625)scale(0.7)" xlink:href="#DejaVuSans-50"/>
      </g>
     </g>
    </g>
    <g id="text_3">
     <!-- frequency -->
     <defs>
      <path d="M 37.109375 75.984375 
L 37.109375 68.5 
L 28.515625 68.5 
Q 23.6875 68.5 21.796875 66.546875 
Q 19.921875 64.59375 19.921875 59.515625 
L 19.921875 54.6875 
L 34.71875 54.6875 
L 34.71875 47.703125 
L 19.921875 47.703125 
L 19.921875 0 
L 10.890625 0 
L 10.890625 47.703125 
L 2.296875 47.703125 
L 2.296875 54.6875 
L 10.890625 54.6875 
L 10.890625 58.5 
Q 10.890625 67.625 15.140625 71.796875 
Q 19.390625 75.984375 28.609375 75.984375 
z
" id="DejaVuSans-102"/>
      <path d="M 41.109375 46.296875 
Q 39.59375 47.171875 37.8125 47.578125 
Q 36.03125 48 33.890625 48 
Q 26.265625 48 22.1875 43.046875 
Q 18.109375 38.09375 18.109375 28.8125 
L 18.109375 0 
L 9.078125 0 
L 9.078125 54.6875 
L 18.109375 54.6875 
L 18.109375 46.1875 
Q 20.953125 51.171875 25.484375 53.578125 
Q 30.03125 56 36.53125 56 
Q 37.453125 56 38.578125 55.875 
Q 39.703125 55.765625 41.0625 55.515625 
z
" id="DejaVuSans-114"/>
      <path d="M 56.203125 29.59375 
L 56.203125 25.203125 
L 14.890625 25.203125 
Q 15.484375 15.921875 20.484375 11.0625 
Q 25.484375 6.203125 34.421875 6.203125 
Q 39.59375 6.203125 44.453125 7.46875 
Q 49.3125 8.734375 54.109375 11.28125 
L 54.109375 2.78125 
Q 49.265625 0.734375 44.1875 -0.34375 
Q 39.109375 -1.421875 33.890625 -1.421875 
Q 20.796875 -1.421875 13.15625 6.1875 
Q 5.515625 13.8125 5.515625 26.8125 
Q 5.515625 40.234375 12.765625 48.109375 
Q 20.015625 56 32.328125 56 
Q 43.359375 56 49.78125 48.890625 
Q 56.203125 41.796875 56.203125 29.59375 
z
M 47.21875 32.234375 
Q 47.125 39.59375 43.09375 43.984375 
Q 39.0625 48.390625 32.421875 48.390625 
Q 24.90625 48.390625 20.390625 44.140625 
Q 15.875 39.890625 15.1875 32.171875 
z
" id="DejaVuSans-101"/>
      <path d="M 14.796875 27.296875 
Q 14.796875 17.390625 18.875 11.75 
Q 22.953125 6.109375 30.078125 6.109375 
Q 37.203125 6.109375 41.296875 11.75 
Q 45.40625 17.390625 45.40625 27.296875 
Q 45.40625 37.203125 41.296875 42.84375 
Q 37.203125 48.484375 30.078125 48.484375 
Q 22.953125 48.484375 18.875 42.84375 
Q 14.796875 37.203125 14.796875 27.296875 
z
M 45.40625 8.203125 
Q 42.578125 3.328125 38.25 0.953125 
Q 33.9375 -1.421875 27.875 -1.421875 
Q 17.96875 -1.421875 11.734375 6.484375 
Q 5.515625 14.40625 5.515625 27.296875 
Q 5.515625 40.1875 11.734375 48.09375 
Q 17.96875 56 27.875 56 
Q 33.9375 56 38.25 53.625 
Q 42.578125 51.265625 45.40625 46.390625 
L 45.40625 54.6875 
L 54.390625 54.6875 
L 54.390625 -20.796875 
L 45.40625 -20.796875 
z
" id="DejaVuSans-113"/>
      <path d="M 8.5 21.578125 
L 8.5 54.6875 
L 17.484375 54.6875 
L 17.484375 21.921875 
Q 17.484375 14.15625 20.5 10.265625 
Q 23.53125 6.390625 29.59375 6.390625 
Q 36.859375 6.390625 41.078125 11.03125 
Q 45.3125 15.671875 45.3125 23.6875 
L 45.3125 54.6875 
L 54.296875 54.6875 
L 54.296875 0 
L 45.3125 0 
L 45.3125 8.40625 
Q 42.046875 3.421875 37.71875 1 
Q 33.40625 -1.421875 27.6875 -1.421875 
Q 18.265625 -1.421875 13.375 4.4375 
Q 8.5 10.296875 8.5 21.578125 
z
M 31.109375 56 
z
" id="DejaVuSans-117"/>
      <path d="M 54.890625 33.015625 
L 54.890625 0 
L 45.90625 0 
L 45.90625 32.71875 
Q 45.90625 40.484375 42.875 44.328125 
Q 39.84375 48.1875 33.796875 48.1875 
Q 26.515625 48.1875 22.3125 43.546875 
Q 18.109375 38.921875 18.109375 30.90625 
L 18.109375 0 
L 9.078125 0 
L 9.078125 54.6875 
L 18.109375 54.6875 
L 18.109375 46.1875 
Q 21.34375 51.125 25.703125 53.5625 
Q 30.078125 56 35.796875 56 
Q 45.21875 56 50.046875 50.171875 
Q 54.890625 44.34375 54.890625 33.015625 
z
" id="DejaVuSans-110"/>
      <path d="M 48.78125 52.59375 
L 48.78125 44.1875 
Q 44.96875 46.296875 41.140625 47.34375 
Q 37.3125 48.390625 33.40625 48.390625 
Q 24.65625 48.390625 19.8125 42.84375 
Q 14.984375 37.3125 14.984375 27.296875 
Q 14.984375 17.28125 19.8125 11.734375 
Q 24.65625 6.203125 33.40625 6.203125 
Q 37.3125 6.203125 41.140625 7.25 
Q 44.96875 8.296875 48.78125 10.40625 
L 48.78125 2.09375 
Q 45.015625 0.34375 40.984375 -0.53125 
Q 36.96875 -1.421875 32.421875 -1.421875 
Q 20.0625 -1.421875 12.78125 6.34375 
Q 5.515625 14.109375 5.515625 27.296875 
Q 5.515625 40.671875 12.859375 48.328125 
Q 20.21875 56 33.015625 56 
Q 37.15625 56 41.109375 55.140625 
Q 45.0625 54.296875 48.78125 52.59375 
z
" id="DejaVuSans-99"/>
      <path d="M 32.171875 -5.078125 
Q 28.375 -14.84375 24.75 -17.8125 
Q 21.140625 -20.796875 15.09375 -20.796875 
L 7.90625 -20.796875 
L 7.90625 -13.28125 
L 13.1875 -13.28125 
Q 16.890625 -13.28125 18.9375 -11.515625 
Q 21 -9.765625 23.484375 -3.21875 
L 25.09375 0.875 
L 2.984375 54.6875 
L 12.5 54.6875 
L 29.59375 11.921875 
L 46.6875 54.6875 
L 56.203125 54.6875 
z
" id="DejaVuSans-121"/>
     </defs>
     <g transform="translate(156.886875 263.327187)scale(0.14 -0.14)">
      <use xlink:href="#DejaVuSans-102"/>
      <use x="35.205078" xlink:href="#DejaVuSans-114"/>
      <use x="76.287109" xlink:href="#DejaVuSans-101"/>
      <use x="137.810547" xlink:href="#DejaVuSans-113"/>
      <use x="201.287109" xlink:href="#DejaVuSans-117"/>
      <use x="264.666016" xlink:href="#DejaVuSans-101"/>
      <use x="326.189453" xlink:href="#DejaVuSans-110"/>
      <use x="389.568359" xlink:href="#DejaVuSans-99"/>
      <use x="444.548828" xlink:href="#DejaVuSans-121"/>
     </g>
    </g>
   </g>
   <g id="matplotlib.axis_2">
    <g id="ytick_1"/>
    <g id="ytick_2"/>
    <g id="ytick_3"/>
    <g id="ytick_4"/>
    <g id="ytick_5"/>
    <g id="text_4">
     <!-- amplitude -->
     <defs>
      <path d="M 34.28125 27.484375 
Q 23.390625 27.484375 19.1875 25 
Q 14.984375 22.515625 14.984375 16.5 
Q 14.984375 11.71875 18.140625 8.90625 
Q 21.296875 6.109375 26.703125 6.109375 
Q 34.1875 6.109375 38.703125 11.40625 
Q 43.21875 16.703125 43.21875 25.484375 
L 43.21875 27.484375 
z
M 52.203125 31.203125 
L 52.203125 0 
L 43.21875 0 
L 43.21875 8.296875 
Q 40.140625 3.328125 35.546875 0.953125 
Q 30.953125 -1.421875 24.3125 -1.421875 
Q 15.921875 -1.421875 10.953125 3.296875 
Q 6 8.015625 6 15.921875 
Q 6 25.140625 12.171875 29.828125 
Q 18.359375 34.515625 30.609375 34.515625 
L 43.21875 34.515625 
L 43.21875 35.40625 
Q 43.21875 41.609375 39.140625 45 
Q 35.0625 48.390625 27.6875 48.390625 
Q 23 48.390625 18.546875 47.265625 
Q 14.109375 46.140625 10.015625 43.890625 
L 10.015625 52.203125 
Q 14.9375 54.109375 19.578125 55.046875 
Q 24.21875 56 28.609375 56 
Q 40.484375 56 46.34375 49.84375 
Q 52.203125 43.703125 52.203125 31.203125 
z
" id="DejaVuSans-97"/>
      <path d="M 52 44.1875 
Q 55.375 50.25 60.0625 53.125 
Q 64.75 56 71.09375 56 
Q 79.640625 56 84.28125 50.015625 
Q 88.921875 44.046875 88.921875 33.015625 
L 88.921875 0 
L 79.890625 0 
L 79.890625 32.71875 
Q 79.890625 40.578125 77.09375 44.375 
Q 74.3125 48.1875 68.609375 48.1875 
Q 61.625 48.1875 57.5625 43.546875 
Q 53.515625 38.921875 53.515625 30.90625 
L 53.515625 0 
L 44.484375 0 
L 44.484375 32.71875 
Q 44.484375 40.625 41.703125 44.40625 
Q 38.921875 48.1875 33.109375 48.1875 
Q 26.21875 48.1875 22.15625 43.53125 
Q 18.109375 38.875 18.109375 30.90625 
L 18.109375 0 
L 9.078125 0 
L 9.078125 54.6875 
L 18.109375 54.6875 
L 18.109375 46.1875 
Q 21.1875 51.21875 25.484375 53.609375 
Q 29.78125 56 35.6875 56 
Q 41.65625 56 45.828125 52.96875 
Q 50 49.953125 52 44.1875 
z
" id="DejaVuSans-109"/>
      <path d="M 18.109375 8.203125 
L 18.109375 -20.796875 
L 9.078125 -20.796875 
L 9.078125 54.6875 
L 18.109375 54.6875 
L 18.109375 46.390625 
Q 20.953125 51.265625 25.265625 53.625 
Q 29.59375 56 35.59375 56 
Q 45.5625 56 51.78125 48.09375 
Q 58.015625 40.1875 58.015625 27.296875 
Q 58.015625 14.40625 51.78125 6.484375 
Q 45.5625 -1.421875 35.59375 -1.421875 
Q 29.59375 -1.421875 25.265625 0.953125 
Q 20.953125 3.328125 18.109375 8.203125 
z
M 48.6875 27.296875 
Q 48.6875 37.203125 44.609375 42.84375 
Q 40.53125 48.484375 33.40625 48.484375 
Q 26.265625 48.484375 22.1875 42.84375 
Q 18.109375 37.203125 18.109375 27.296875 
Q 18.109375 17.390625 22.1875 11.75 
Q 26.265625 6.109375 33.40625 6.109375 
Q 40.53125 6.109375 44.609375 11.75 
Q 48.6875 17.390625 48.6875 27.296875 
z
" id="DejaVuSans-112"/>
      <path d="M 9.421875 75.984375 
L 18.40625 75.984375 
L 18.40625 0 
L 9.421875 0 
z
" id="DejaVuSans-108"/>
      <path d="M 9.421875 54.6875 
L 18.40625 54.6875 
L 18.40625 0 
L 9.421875 0 
z
M 9.421875 75.984375 
L 18.40625 75.984375 
L 18.40625 64.59375 
L 9.421875 64.59375 
z
" id="DejaVuSans-105"/>
      <path d="M 18.3125 70.21875 
L 18.3125 54.6875 
L 36.8125 54.6875 
L 36.8125 47.703125 
L 18.3125 47.703125 
L 18.3125 18.015625 
Q 18.3125 11.328125 20.140625 9.421875 
Q 21.96875 7.515625 27.59375 7.515625 
L 36.8125 7.515625 
L 36.8125 0 
L 27.59375 0 
Q 17.1875 0 13.234375 3.875 
Q 9.28125 7.765625 9.28125 18.015625 
L 9.28125 47.703125 
L 2.6875 47.703125 
L 2.6875 54.6875 
L 9.28125 54.6875 
L 9.28125 70.21875 
z
" id="DejaVuSans-116"/>
      <path d="M 45.40625 46.390625 
L 45.40625 75.984375 
L 54.390625 75.984375 
L 54.390625 0 
L 45.40625 0 
L 45.40625 8.203125 
Q 42.578125 3.328125 38.25 0.953125 
Q 33.9375 -1.421875 27.875 -1.421875 
Q 17.96875 -1.421875 11.734375 6.484375 
Q 5.515625 14.40625 5.515625 27.296875 
Q 5.515625 40.1875 11.734375 48.09375 
Q 17.96875 56 27.875 56 
Q 33.9375 56 38.25 53.625 
Q 42.578125 51.265625 45.40625 46.390625 
z
M 14.796875 27.296875 
Q 14.796875 17.390625 18.875 11.75 
Q 22.953125 6.109375 30.078125 6.109375 
Q 37.203125 6.109375 41.296875 11.75 
Q 45.40625 17.390625 45.40625 27.296875 
Q 45.40625 37.203125 41.296875 42.84375 
Q 37.203125 48.484375 30.078125 48.484375 
Q 22.953125 48.484375 18.875 42.84375 
Q 14.796875 37.203125 14.796875 27.296875 
z
" id="DejaVuSans-100"/>
     </defs>
     <g transform="translate(17.837813 154.792969)rotate(-90)scale(0.14 -0.14)">
      <use xlink:href="#DejaVuSans-97"/>
      <use x="61.279297" xlink:href="#DejaVuSans-109"/>
      <use x="158.691406" xlink:href="#DejaVuSans-112"/>
      <use x="222.167969" xlink:href="#DejaVuSans-108"/>
      <use x="249.951172" xlink:href="#DejaVuSans-105"/>
      <use x="277.734375" xlink:href="#DejaVuSans-116"/>
      <use x="316.943359" xlink:href="#DejaVuSans-117"/>
      <use x="380.322266" xlink:href="#DejaVuSans-100"/>
      <use x="443.798828" xlink:href="#DejaVuSans-101"/>
     </g>
    </g>
   </g>
   <g id="line2d_3">
    <path clip-path="url(#paf6b8c1e75)" d="M 39.967557 218.226648 
L 73.210715 218.023748 
L 86.788048 217.739643 
L 94.276891 217.377682 
L 99.086799 216.936698 
L 102.435469 216.42013 
L 104.93175 215.822403 
L 106.880067 215.137278 
L 108.463074 214.351327 
L 109.802542 213.436715 
L 110.959355 212.369214 
L 111.933514 211.177196 
L 112.846787 209.70749 
L 113.699176 207.893353 
L 114.49068 205.655615 
L 115.221298 202.904146 
L 115.891032 199.543016 
L 116.560766 195.007776 
L 117.169615 189.387251 
L 117.778464 181.642026 
L 118.387313 170.702099 
L 118.935278 156.774206 
L 119.483242 137.244972 
L 120.092091 106.82963 
L 121.614213 21.822936 
L 121.735983 20.630556 
L 121.796868 20.638106 
L 121.918638 21.860222 
L 122.162178 28.831429 
L 122.527487 47.935113 
L 124.04961 137.337455 
L 124.719344 160.346692 
L 125.389077 175.588973 
L 126.058811 185.858813 
L 126.728545 192.977593 
L 127.459164 198.448469 
L 128.189783 202.36339 
L 128.981287 205.45258 
L 129.833675 207.887701 
L 130.746949 209.810411 
L 131.721108 211.333809 
L 132.756151 212.546456 
L 133.912964 213.563538 
L 135.252432 214.438178 
L 136.835439 215.19224 
L 138.722872 215.834071 
L 141.097383 216.392591 
L 144.141628 216.866367 
L 148.220917 217.262736 
L 154.004982 217.584993 
L 162.711524 217.828469 
L 176.715052 217.977173 
L 196.746185 217.963154 
L 211.662987 217.755357 
L 220.125989 217.434129 
L 225.48386 217.021289 
L 229.136954 216.52922 
L 231.81589 215.955948 
L 233.885977 215.295237 
L 235.529869 214.548038 
L 236.930222 213.667869 
L 238.087035 212.685661 
L 239.122079 211.51847 
L 240.035352 210.161875 
L 240.887741 208.498882 
L 241.679245 206.463106 
L 242.409863 203.980502 
L 243.140482 200.65655 
L 243.810216 196.526738 
L 244.47995 190.850787 
L 245.088799 183.680231 
L 245.697648 173.608891 
L 246.245612 160.840021 
L 246.793577 142.944774 
L 247.402426 114.811092 
L 248.133044 69.084152 
L 248.863663 27.197608 
L 249.168088 20.717225 
L 249.228973 20.590765 
L 249.350743 21.548227 
L 249.533397 25.88824 
L 249.837822 39.585399 
L 250.629326 90.808596 
L 251.359944 131.142906 
L 252.029678 156.235505 
L 252.699412 172.857268 
L 253.369146 183.999834 
L 254.03888 191.675155 
L 254.769499 197.53621 
L 255.500118 201.705115 
L 256.291622 204.976905 
L 257.14401 207.543116 
L 257.996399 209.443865 
L 258.909673 210.977709 
L 259.944716 212.284239 
L 261.101529 213.373436 
L 262.380112 214.268455 
L 263.902235 215.051247 
L 265.728782 215.725253 
L 267.981523 216.304945 
L 270.843114 216.79951 
L 274.678863 217.221725 
L 280.036734 217.57088 
L 288.012657 217.849733 
L 301.163796 218.062839 
L 326.126607 218.211846 
L 344.331193 218.256364 
L 344.331193 218.256364 
" style="fill:none;stroke:#1f77b4;stroke-dasharray:1.5,2.475;stroke-dashoffset:0;stroke-width:1.5;"/>
   </g>
   <g id="line2d_4">
    <path clip-path="url(#paf6b8c1e75)" d="M 39.967557 218.226648 
L 58.990284 218.148697 
L 78.013011 217.952396 
L 97.035739 217.155903 
L 106.547102 215.272839 
L 111.302784 211.985144 
L 113.680625 207.938612 
L 116.058466 198.537301 
L 117.247386 188.534155 
L 117.841847 180.675049 
L 118.436307 169.637963 
L 118.733537 162.45474 
L 119.030767 153.827555 
L 119.327997 143.458102 
L 119.625227 131.036785 
L 119.773842 123.971692 
L 119.922457 116.308321 
L 120.071072 108.04556 
L 120.219687 99.208333 
L 120.368303 89.857912 
L 120.516918 80.10359 
L 120.665533 70.114428 
L 120.814148 60.128724 
L 120.962763 50.457652 
L 121.111378 41.478744 
L 121.408608 27.298975 
L 122.003068 23.625351 
L 122.300298 35.076927 
L 122.448913 43.198304 
L 122.597528 52.34826 
L 122.746143 62.110331 
L 122.894759 72.119099 
L 123.043374 82.077834 
L 123.191989 91.762623 
L 123.340604 101.017232 
L 123.489219 109.742937 
L 123.637834 117.886638 
L 123.786449 125.429386 
L 124.083679 138.749162 
L 124.380909 149.902773 
L 124.678139 159.189139 
L 124.975369 166.915827 
L 125.56983 178.758638 
L 126.16429 187.153774 
L 126.75875 193.244302 
L 127.94767 201.200927 
L 130.325511 208.994686 
L 135.081193 214.340512 
L 154.10392 217.589006 
L 173.126648 217.955512 
L 192.149375 217.986093 
L 211.172102 217.767324 
L 220.683466 217.401892 
L 225.439148 217.025944 
L 230.19483 216.331381 
L 239.706193 210.693741 
L 242.084034 205.173668 
L 244.461875 191.030322 
L 245.650795 174.517027 
L 246.245256 160.849806 
L 246.542486 151.899353 
L 246.839716 141.144258 
L 247.136946 128.278777 
L 247.434176 113.071968 
L 247.582791 104.574849 
L 247.731406 95.522779 
L 247.880021 85.994793 
L 248.028636 76.122745 
L 248.177251 66.102489 
L 248.325866 56.201503 
L 248.474482 46.759007 
L 248.623097 38.174165 
L 248.920327 25.295589 
L 249.217557 20.583636 
L 249.514787 25.296 
L 249.812017 38.174986 
L 249.960632 46.760034 
L 250.109247 56.202735 
L 250.257862 66.103926 
L 250.406477 76.124388 
L 250.555092 85.996642 
L 250.703707 95.524833 
L 250.852322 104.577109 
L 251.000937 113.074434 
L 251.298168 128.281653 
L 251.595398 141.147546 
L 251.892628 151.903052 
L 252.189858 160.853917 
L 252.784318 174.521963 
L 253.378778 184.131065 
L 253.973239 191.036912 
L 256.35108 205.183587 
L 258.72892 210.707031 
L 268.240284 216.358876 
L 272.995966 217.06121 
L 277.751648 217.445586 
L 287.263011 217.830672 
L 306.285739 218.109404 
L 325.308466 218.209096 
L 344.331193 218.256364 
" style="fill:none;"/>
    <defs>
     <path d="M 0 2 
C 0.530406 2 1.03916 1.789267 1.414214 1.414214 
C 1.789267 1.03916 2 0.530406 2 0 
C 2 -0.530406 1.789267 -1.03916 1.414214 -1.414214 
C 1.03916 -1.789267 0.530406 -2 0 -2 
C -0.530406 -2 -1.03916 -1.789267 -1.414214 -1.414214 
C -1.789267 -1.03916 -2 -0.530406 -2 0 
C -2 0.530406 -1.789267 1.03916 -1.414214 1.414214 
C -1.03916 1.789267 -0.530406 2 0 2 
z
" id="m6f5ea61b14" style="stroke:#ff7f0e;"/>
    </defs>
    <g clip-path="url(#paf6b8c1e75)">
     <use style="fill:#ff7f0e;stroke:#ff7f0e;" x="39.967557" xlink:href="#m6f5ea61b14" y="218.226648"/>
     <use style="fill:#ff7f0e;stroke:#ff7f0e;" x="58.990284" xlink:href="#m6f5ea61b14" y="218.148697"/>
     <use style="fill:#ff7f0e;stroke:#ff7f0e;" x="78.013011" xlink:href="#m6f5ea61b14" y="217.952396"/>
     <use style="fill:#ff7f0e;stroke:#ff7f0e;" x="97.035739" xlink:href="#m6f5ea61b14" y="217.155903"/>
     <use style="fill:#ff7f0e;stroke:#ff7f0e;" x="106.547102" xlink:href="#m6f5ea61b14" y="215.272839"/>
     <use style="fill:#ff7f0e;stroke:#ff7f0e;" x="111.302784" xlink:href="#m6f5ea61b14" y="211.985144"/>
     <use style="fill:#ff7f0e;stroke:#ff7f0e;" x="113.680625" xlink:href="#m6f5ea61b14" y="207.938612"/>
     <use style="fill:#ff7f0e;stroke:#ff7f0e;" x="116.058466" xlink:href="#m6f5ea61b14" y="198.537301"/>
     <use style="fill:#ff7f0e;stroke:#ff7f0e;" x="117.247386" xlink:href="#m6f5ea61b14" y="188.534155"/>
     <use style="fill:#ff7f0e;stroke:#ff7f0e;" x="117.841847" xlink:href="#m6f5ea61b14" y="180.675049"/>
     <use style="fill:#ff7f0e;stroke:#ff7f0e;" x="118.436307" xlink:href="#m6f5ea61b14" y="169.637963"/>
     <use style="fill:#ff7f0e;stroke:#ff7f0e;" x="118.733537" xlink:href="#m6f5ea61b14" y="162.45474"/>
     <use style="fill:#ff7f0e;stroke:#ff7f0e;" x="119.030767" xlink:href="#m6f5ea61b14" y="153.827555"/>
     <use style="fill:#ff7f0e;stroke:#ff7f0e;" x="119.327997" xlink:href="#m6f5ea61b14" y="143.458102"/>
     <use style="fill:#ff7f0e;stroke:#ff7f0e;" x="119.625227" xlink:href="#m6f5ea61b14" y="131.036785"/>
     <use style="fill:#ff7f0e;stroke:#ff7f0e;" x="119.773842" xlink:href="#m6f5ea61b14" y="123.971692"/>
     <use style="fill:#ff7f0e;stroke:#ff7f0e;" x="119.922457" xlink:href="#m6f5ea61b14" y="116.308321"/>
     <use style="fill:#ff7f0e;stroke:#ff7f0e;" x="120.071072" xlink:href="#m6f5ea61b14" y="108.04556"/>
     <use style="fill:#ff7f0e;stroke:#ff7f0e;" x="120.219687" xlink:href="#m6f5ea61b14" y="99.208333"/>
     <use style="fill:#ff7f0e;stroke:#ff7f0e;" x="120.368303" xlink:href="#m6f5ea61b14" y="89.857912"/>
     <use style="fill:#ff7f0e;stroke:#ff7f0e;" x="120.516918" xlink:href="#m6f5ea61b14" y="80.10359"/>
     <use style="fill:#ff7f0e;stroke:#ff7f0e;" x="120.665533" xlink:href="#m6f5ea61b14" y="70.114428"/>
     <use style="fill:#ff7f0e;stroke:#ff7f0e;" x="120.814148" xlink:href="#m6f5ea61b14" y="60.128724"/>
     <use style="fill:#ff7f0e;stroke:#ff7f0e;" x="120.962763" xlink:href="#m6f5ea61b14" y="50.457652"/>
     <use style="fill:#ff7f0e;stroke:#ff7f0e;" x="121.111378" xlink:href="#m6f5ea61b14" y="41.478744"/>
     <use style="fill:#ff7f0e;stroke:#ff7f0e;" x="121.408608" xlink:href="#m6f5ea61b14" y="27.298975"/>
     <use style="fill:#ff7f0e;stroke:#ff7f0e;" x="122.003068" xlink:href="#m6f5ea61b14" y="23.625351"/>
     <use style="fill:#ff7f0e;stroke:#ff7f0e;" x="122.300298" xlink:href="#m6f5ea61b14" y="35.076927"/>
     <use style="fill:#ff7f0e;stroke:#ff7f0e;" x="122.448913" xlink:href="#m6f5ea61b14" y="43.198304"/>
     <use style="fill:#ff7f0e;stroke:#ff7f0e;" x="122.597528" xlink:href="#m6f5ea61b14" y="52.34826"/>
     <use style="fill:#ff7f0e;stroke:#ff7f0e;" x="122.746143" xlink:href="#m6f5ea61b14" y="62.110331"/>
     <use style="fill:#ff7f0e;stroke:#ff7f0e;" x="122.894759" xlink:href="#m6f5ea61b14" y="72.119099"/>
     <use style="fill:#ff7f0e;stroke:#ff7f0e;" x="123.043374" xlink:href="#m6f5ea61b14" y="82.077834"/>
     <use style="fill:#ff7f0e;stroke:#ff7f0e;" x="123.191989" xlink:href="#m6f5ea61b14" y="91.762623"/>
     <use style="fill:#ff7f0e;stroke:#ff7f0e;" x="123.340604" xlink:href="#m6f5ea61b14" y="101.017232"/>
     <use style="fill:#ff7f0e;stroke:#ff7f0e;" x="123.489219" xlink:href="#m6f5ea61b14" y="109.742937"/>
     <use style="fill:#ff7f0e;stroke:#ff7f0e;" x="123.637834" xlink:href="#m6f5ea61b14" y="117.886638"/>
     <use style="fill:#ff7f0e;stroke:#ff7f0e;" x="123.786449" xlink:href="#m6f5ea61b14" y="125.429386"/>
     <use style="fill:#ff7f0e;stroke:#ff7f0e;" x="124.083679" xlink:href="#m6f5ea61b14" y="138.749162"/>
     <use style="fill:#ff7f0e;stroke:#ff7f0e;" x="124.380909" xlink:href="#m6f5ea61b14" y="149.902773"/>
     <use style="fill:#ff7f0e;stroke:#ff7f0e;" x="124.678139" xlink:href="#m6f5ea61b14" y="159.189139"/>
     <use style="fill:#ff7f0e;stroke:#ff7f0e;" x="124.975369" xlink:href="#m6f5ea61b14" y="166.915827"/>
     <use style="fill:#ff7f0e;stroke:#ff7f0e;" x="125.56983" xlink:href="#m6f5ea61b14" y="178.758638"/>
     <use style="fill:#ff7f0e;stroke:#ff7f0e;" x="126.16429" xlink:href="#m6f5ea61b14" y="187.153774"/>
     <use style="fill:#ff7f0e;stroke:#ff7f0e;" x="126.75875" xlink:href="#m6f5ea61b14" y="193.244302"/>
     <use style="fill:#ff7f0e;stroke:#ff7f0e;" x="127.94767" xlink:href="#m6f5ea61b14" y="201.200927"/>
     <use style="fill:#ff7f0e;stroke:#ff7f0e;" x="130.325511" xlink:href="#m6f5ea61b14" y="208.994686"/>
     <use style="fill:#ff7f0e;stroke:#ff7f0e;" x="135.081193" xlink:href="#m6f5ea61b14" y="214.340512"/>
     <use style="fill:#ff7f0e;stroke:#ff7f0e;" x="154.10392" xlink:href="#m6f5ea61b14" y="217.589006"/>
     <use style="fill:#ff7f0e;stroke:#ff7f0e;" x="173.126648" xlink:href="#m6f5ea61b14" y="217.955512"/>
     <use style="fill:#ff7f0e;stroke:#ff7f0e;" x="192.149375" xlink:href="#m6f5ea61b14" y="217.986093"/>
     <use style="fill:#ff7f0e;stroke:#ff7f0e;" x="211.172102" xlink:href="#m6f5ea61b14" y="217.767324"/>
     <use style="fill:#ff7f0e;stroke:#ff7f0e;" x="220.683466" xlink:href="#m6f5ea61b14" y="217.401892"/>
     <use style="fill:#ff7f0e;stroke:#ff7f0e;" x="225.439148" xlink:href="#m6f5ea61b14" y="217.025944"/>
     <use style="fill:#ff7f0e;stroke:#ff7f0e;" x="230.19483" xlink:href="#m6f5ea61b14" y="216.331381"/>
     <use style="fill:#ff7f0e;stroke:#ff7f0e;" x="239.706193" xlink:href="#m6f5ea61b14" y="210.693741"/>
     <use style="fill:#ff7f0e;stroke:#ff7f0e;" x="242.084034" xlink:href="#m6f5ea61b14" y="205.173668"/>
     <use style="fill:#ff7f0e;stroke:#ff7f0e;" x="244.461875" xlink:href="#m6f5ea61b14" y="191.030322"/>
     <use style="fill:#ff7f0e;stroke:#ff7f0e;" x="245.650795" xlink:href="#m6f5ea61b14" y="174.517027"/>
     <use style="fill:#ff7f0e;stroke:#ff7f0e;" x="246.245256" xlink:href="#m6f5ea61b14" y="160.849806"/>
     <use style="fill:#ff7f0e;stroke:#ff7f0e;" x="246.542486" xlink:href="#m6f5ea61b14" y="151.899353"/>
     <use style="fill:#ff7f0e;stroke:#ff7f0e;" x="246.839716" xlink:href="#m6f5ea61b14" y="141.144258"/>
     <use style="fill:#ff7f0e;stroke:#ff7f0e;" x="247.136946" xlink:href="#m6f5ea61b14" y="128.278777"/>
     <use style="fill:#ff7f0e;stroke:#ff7f0e;" x="247.434176" xlink:href="#m6f5ea61b14" y="113.071968"/>
     <use style="fill:#ff7f0e;stroke:#ff7f0e;" x="247.582791" xlink:href="#m6f5ea61b14" y="104.574849"/>
     <use style="fill:#ff7f0e;stroke:#ff7f0e;" x="247.731406" xlink:href="#m6f5ea61b14" y="95.522779"/>
     <use style="fill:#ff7f0e;stroke:#ff7f0e;" x="247.880021" xlink:href="#m6f5ea61b14" y="85.994793"/>
     <use style="fill:#ff7f0e;stroke:#ff7f0e;" x="248.028636" xlink:href="#m6f5ea61b14" y="76.122745"/>
     <use style="fill:#ff7f0e;stroke:#ff7f0e;" x="248.177251" xlink:href="#m6f5ea61b14" y="66.102489"/>
     <use style="fill:#ff7f0e;stroke:#ff7f0e;" x="248.325866" xlink:href="#m6f5ea61b14" y="56.201503"/>
     <use style="fill:#ff7f0e;stroke:#ff7f0e;" x="248.474482" xlink:href="#m6f5ea61b14" y="46.759007"/>
     <use style="fill:#ff7f0e;stroke:#ff7f0e;" x="248.623097" xlink:href="#m6f5ea61b14" y="38.174165"/>
     <use style="fill:#ff7f0e;stroke:#ff7f0e;" x="248.920327" xlink:href="#m6f5ea61b14" y="25.295589"/>
     <use style="fill:#ff7f0e;stroke:#ff7f0e;" x="249.217557" xlink:href="#m6f5ea61b14" y="20.583636"/>
     <use style="fill:#ff7f0e;stroke:#ff7f0e;" x="249.514787" xlink:href="#m6f5ea61b14" y="25.296"/>
     <use style="fill:#ff7f0e;stroke:#ff7f0e;" x="249.812017" xlink:href="#m6f5ea61b14" y="38.174986"/>
     <use style="fill:#ff7f0e;stroke:#ff7f0e;" x="249.960632" xlink:href="#m6f5ea61b14" y="46.760034"/>
     <use style="fill:#ff7f0e;stroke:#ff7f0e;" x="250.109247" xlink:href="#m6f5ea61b14" y="56.202735"/>
     <use style="fill:#ff7f0e;stroke:#ff7f0e;" x="250.257862" xlink:href="#m6f5ea61b14" y="66.103926"/>
     <use style="fill:#ff7f0e;stroke:#ff7f0e;" x="250.406477" xlink:href="#m6f5ea61b14" y="76.124388"/>
     <use style="fill:#ff7f0e;stroke:#ff7f0e;" x="250.555092" xlink:href="#m6f5ea61b14" y="85.996642"/>
     <use style="fill:#ff7f0e;stroke:#ff7f0e;" x="250.703707" xlink:href="#m6f5ea61b14" y="95.524833"/>
     <use style="fill:#ff7f0e;stroke:#ff7f0e;" x="250.852322" xlink:href="#m6f5ea61b14" y="104.577109"/>
     <use style="fill:#ff7f0e;stroke:#ff7f0e;" x="251.000937" xlink:href="#m6f5ea61b14" y="113.074434"/>
     <use style="fill:#ff7f0e;stroke:#ff7f0e;" x="251.298168" xlink:href="#m6f5ea61b14" y="128.281653"/>
     <use style="fill:#ff7f0e;stroke:#ff7f0e;" x="251.595398" xlink:href="#m6f5ea61b14" y="141.147546"/>
     <use style="fill:#ff7f0e;stroke:#ff7f0e;" x="251.892628" xlink:href="#m6f5ea61b14" y="151.903052"/>
     <use style="fill:#ff7f0e;stroke:#ff7f0e;" x="252.189858" xlink:href="#m6f5ea61b14" y="160.853917"/>
     <use style="fill:#ff7f0e;stroke:#ff7f0e;" x="252.784318" xlink:href="#m6f5ea61b14" y="174.521963"/>
     <use style="fill:#ff7f0e;stroke:#ff7f0e;" x="253.378778" xlink:href="#m6f5ea61b14" y="184.131065"/>
     <use style="fill:#ff7f0e;stroke:#ff7f0e;" x="253.973239" xlink:href="#m6f5ea61b14" y="191.036912"/>
     <use style="fill:#ff7f0e;stroke:#ff7f0e;" x="256.35108" xlink:href="#m6f5ea61b14" y="205.183587"/>
     <use style="fill:#ff7f0e;stroke:#ff7f0e;" x="258.72892" xlink:href="#m6f5ea61b14" y="210.707031"/>
     <use style="fill:#ff7f0e;stroke:#ff7f0e;" x="268.240284" xlink:href="#m6f5ea61b14" y="216.358876"/>
     <use style="fill:#ff7f0e;stroke:#ff7f0e;" x="272.995966" xlink:href="#m6f5ea61b14" y="217.06121"/>
     <use style="fill:#ff7f0e;stroke:#ff7f0e;" x="277.751648" xlink:href="#m6f5ea61b14" y="217.445586"/>
     <use style="fill:#ff7f0e;stroke:#ff7f0e;" x="287.263011" xlink:href="#m6f5ea61b14" y="217.830672"/>
     <use style="fill:#ff7f0e;stroke:#ff7f0e;" x="306.285739" xlink:href="#m6f5ea61b14" y="218.109404"/>
     <use style="fill:#ff7f0e;stroke:#ff7f0e;" x="325.308466" xlink:href="#m6f5ea61b14" y="218.209096"/>
     <use style="fill:#ff7f0e;stroke:#ff7f0e;" x="344.331193" xlink:href="#m6f5ea61b14" y="218.256364"/>
    </g>
   </g>
   <g id="patch_3">
    <path d="M 24.749375 228.14 
L 24.749375 10.7 
" style="fill:none;stroke:#000000;stroke-linecap:square;stroke-linejoin:miter;stroke-width:0.8;"/>
   </g>
   <g id="patch_4">
    <path d="M 359.549375 228.14 
L 359.549375 10.7 
" style="fill:none;stroke:#000000;stroke-linecap:square;stroke-linejoin:miter;stroke-width:0.8;"/>
   </g>
   <g id="patch_5">
    <path d="M 24.749375 228.14 
L 359.549375 228.14 
" style="fill:none;stroke:#000000;stroke-linecap:square;stroke-linejoin:miter;stroke-width:0.8;"/>
   </g>
   <g id="patch_6">
    <path d="M 24.749375 10.7 
L 359.549375 10.7 
" style="fill:none;stroke:#000000;stroke-linecap:square;stroke-linejoin:miter;stroke-width:0.8;"/>
   </g>
  </g>
 </g>
 <defs>
  <clipPath id="paf6b8c1e75">
   <rect height="217.44" width="334.8" x="24.749375" y="10.7"/>
  </clipPath>
 </defs>
</svg>
