<?xml version="1.0" encoding="utf-8" standalone="no"?>
<!DOCTYPE svg PUBLIC "-//W3C//DTD SVG 1.1//EN"
  "http://www.w3.org/Graphics/SVG/1.1/DTD/svg11.dtd">
<!-- Created with matplotlib (https://matplotlib.org/) -->
<svg height="273.43875pt" version="1.1" viewBox="0 0 370.249375 273.43875" width="370.249375pt" xmlns="http://www.w3.org/2000/svg" xmlns:xlink="http://www.w3.org/1999/xlink">
 <defs>
  <style type="text/css">
*{stroke-linecap:butt;stroke-linejoin:round;}
  </style>
 </defs>
 <g id="figure_1">
  <g id="patch_1">
   <path d="M -0 273.43875 
L 370.249375 273.43875 
L 370.249375 0 
L -0 0 
z
" style="fill:#ffffff;"/>
  </g>
  <g id="axes_1">
   <g id="patch_2">
    <path d="M 24.749375 228.14 
L 359.549375 228.14 
L 359.549375 10.7 
L 24.749375 10.7 
z
" style="fill:#ffffff;"/>
   </g>
   <g id="matplotlib.axis_1">
    <g id="xtick_1">
     <g id="line2d_1">
      <defs>
       <path d="M 0 0 
L 0 3.5 
" id="m99844e75a2" style="stroke:#000000;stroke-width:0.8;"/>
      </defs>
      <g>
       <use style="stroke:#000000;stroke-width:0.8;" x="121.765284" xlink:href="#m99844e75a2" y="228.14"/>
      </g>
     </g>
     <g id="text_1">
      <!-- $f_1$ -->
      <defs>
       <path d="M 47.796875 75.984375 
L 46.390625 68.5 
L 37.796875 68.5 
Q 32.90625 68.5 30.6875 66.578125 
Q 28.46875 64.65625 27.390625 59.515625 
L 26.421875 54.6875 
L 41.21875 54.6875 
L 39.890625 47.703125 
L 25.09375 47.703125 
L 15.828125 0 
L 6.78125 0 
L 16.109375 47.703125 
L 7.515625 47.703125 
L 8.796875 54.6875 
L 17.390625 54.6875 
L 18.109375 58.5 
Q 19.96875 68.171875 24.625 72.078125 
Q 29.296875 75.984375 39.3125 75.984375 
z
" id="DejaVuSans-Oblique-102"/>
       <path d="M 12.40625 8.296875 
L 28.515625 8.296875 
L 28.515625 63.921875 
L 10.984375 60.40625 
L 10.984375 69.390625 
L 28.421875 72.90625 
L 38.28125 72.90625 
L 38.28125 8.296875 
L 54.390625 8.296875 
L 54.390625 0 
L 12.40625 0 
z
" id="DejaVuSans-49"/>
      </defs>
      <g transform="translate(115.955284 245.777812)scale(0.14 -0.14)">
       <use transform="translate(0 0.015625)" xlink:href="#DejaVuSans-Oblique-102"/>
       <use transform="translate(35.205078 -16.390625)scale(0.7)" xlink:href="#DejaVuSans-49"/>
      </g>
     </g>
    </g>
    <g id="xtick_2">
     <g id="line2d_2">
      <g>
       <use style="stroke:#000000;stroke-width:0.8;" x="249.217557" xlink:href="#m99844e75a2" y="228.14"/>
      </g>
     </g>
     <g id="text_2">
      <!-- $f_2$ -->
      <defs>
       <path d="M 19.1875 8.296875 
L 53.609375 8.296875 
L 53.609375 0 
L 7.328125 0 
L 7.328125 8.296875 
Q 12.9375 14.109375 22.625 23.890625 
Q 32.328125 33.6875 34.8125 36.53125 
Q 39.546875 41.84375 41.421875 45.53125 
Q 43.3125 49.21875 43.3125 52.78125 
Q 43.3125 58.59375 39.234375 62.25 
Q 35.15625 65.921875 28.609375 65.921875 
Q 23.96875 65.921875 18.8125 64.3125 
Q 13.671875 62.703125 7.8125 59.421875 
L 7.8125 69.390625 
Q 13.765625 71.78125 18.9375 73 
Q 24.125 74.21875 28.421875 74.21875 
Q 39.75 74.21875 46.484375 68.546875 
Q 53.21875 62.890625 53.21875 53.421875 
Q 53.21875 48.921875 51.53125 44.890625 
Q 49.859375 40.875 45.40625 35.40625 
Q 44.1875 33.984375 37.640625 27.21875 
Q 31.109375 20.453125 19.1875 8.296875 
z
" id="DejaVuSans-50"/>
      </defs>
      <g transform="translate(243.407557 245.777812)scale(0.14 -0.14)">
       <use transform="translate(0 0.015625)" xlink:href="#DejaVuSans-Oblique-102"/>
       <use transform="translate(35.205078 -16.390625)scale(0.7)" xlink:href="#DejaVuSans-50"/>
      </g>
     </g>
    </g>
    <g id="text_3">
     <!-- frequency -->
     <defs>
      <path d="M 37.109375 75.984375 
L 37.109375 68.5 
L 28.515625 68.5 
Q 23.6875 68.5 21.796875 66.546875 
Q 19.921875 64.59375 19.921875 59.515625 
L 19.921875 54.6875 
L 34.71875 54.6875 
L 34.71875 47.703125 
L 19.921875 47.703125 
L 19.921875 0 
L 10.890625 0 
L 10.890625 47.703125 
L 2.296875 47.703125 
L 2.296875 54.6875 
L 10.890625 54.6875 
L 10.890625 58.5 
Q 10.890625 67.625 15.140625 71.796875 
Q 19.390625 75.984375 28.609375 75.984375 
z
" id="DejaVuSans-102"/>
      <path d="M 41.109375 46.296875 
Q 39.59375 47.171875 37.8125 47.578125 
Q 36.03125 48 33.890625 48 
Q 26.265625 48 22.1875 43.046875 
Q 18.109375 38.09375 18.109375 28.8125 
L 18.109375 0 
L 9.078125 0 
L 9.078125 54.6875 
L 18.109375 54.6875 
L 18.109375 46.1875 
Q 20.953125 51.171875 25.484375 53.578125 
Q 30.03125 56 36.53125 56 
Q 37.453125 56 38.578125 55.875 
Q 39.703125 55.765625 41.0625 55.515625 
z
" id="DejaVuSans-114"/>
      <path d="M 56.203125 29.59375 
L 56.203125 25.203125 
L 14.890625 25.203125 
Q 15.484375 15.921875 20.484375 11.0625 
Q 25.484375 6.203125 34.421875 6.203125 
Q 39.59375 6.203125 44.453125 7.46875 
Q 49.3125 8.734375 54.109375 11.28125 
L 54.109375 2.78125 
Q 49.265625 0.734375 44.1875 -0.34375 
Q 39.109375 -1.421875 33.890625 -1.421875 
Q 20.796875 -1.421875 13.15625 6.1875 
Q 5.515625 13.8125 5.515625 26.8125 
Q 5.515625 40.234375 12.765625 48.109375 
Q 20.015625 56 32.328125 56 
Q 43.359375 56 49.78125 48.890625 
Q 56.203125 41.796875 56.203125 29.59375 
z
M 47.21875 32.234375 
Q 47.125 39.59375 43.09375 43.984375 
Q 39.0625 48.390625 32.421875 48.390625 
Q 24.90625 48.390625 20.390625 44.140625 
Q 15.875 39.890625 15.1875 32.171875 
z
" id="DejaVuSans-101"/>
      <path d="M 14.796875 27.296875 
Q 14.796875 17.390625 18.875 11.75 
Q 22.953125 6.109375 30.078125 6.109375 
Q 37.203125 6.109375 41.296875 11.75 
Q 45.40625 17.390625 45.40625 27.296875 
Q 45.40625 37.203125 41.296875 42.84375 
Q 37.203125 48.484375 30.078125 48.484375 
Q 22.953125 48.484375 18.875 42.84375 
Q 14.796875 37.203125 14.796875 27.296875 
z
M 45.40625 8.203125 
Q 42.578125 3.328125 38.25 0.953125 
Q 33.9375 -1.421875 27.875 -1.421875 
Q 17.96875 -1.421875 11.734375 6.484375 
Q 5.515625 14.40625 5.515625 27.296875 
Q 5.515625 40.1875 11.734375 48.09375 
Q 17.96875 56 27.875 56 
Q 33.9375 56 38.25 53.625 
Q 42.578125 51.265625 45.40625 46.390625 
L 45.40625 54.6875 
L 54.390625 54.6875 
L 54.390625 -20.796875 
L 45.40625 -20.796875 
z
" id="DejaVuSans-113"/>
      <path d="M 8.5 21.578125 
L 8.5 54.6875 
L 17.484375 54.6875 
L 17.484375 21.921875 
Q 17.484375 14.15625 20.5 10.265625 
Q 23.53125 6.390625 29.59375 6.390625 
Q 36.859375 6.390625 41.078125 11.03125 
Q 45.3125 15.671875 45.3125 23.6875 
L 45.3125 54.6875 
L 54.296875 54.6875 
L 54.296875 0 
L 45.3125 0 
L 45.3125 8.40625 
Q 42.046875 3.421875 37.71875 1 
Q 33.40625 -1.421875 27.6875 -1.421875 
Q 18.265625 -1.421875 13.375 4.4375 
Q 8.5 10.296875 8.5 21.578125 
z
M 31.109375 56 
z
" id="DejaVuSans-117"/>
      <path d="M 54.890625 33.015625 
L 54.890625 0 
L 45.90625 0 
L 45.90625 32.71875 
Q 45.90625 40.484375 42.875 44.328125 
Q 39.84375 48.1875 33.796875 48.1875 
Q 26.515625 48.1875 22.3125 43.546875 
Q 18.109375 38.921875 18.109375 30.90625 
L 18.109375 0 
L 9.078125 0 
L 9.078125 54.6875 
L 18.109375 54.6875 
L 18.109375 46.1875 
Q 21.34375 51.125 25.703125 53.5625 
Q 30.078125 56 35.796875 56 
Q 45.21875 56 50.046875 50.171875 
Q 54.890625 44.34375 54.890625 33.015625 
z
" id="DejaVuSans-110"/>
      <path d="M 48.78125 52.59375 
L 48.78125 44.1875 
Q 44.96875 46.296875 41.140625 47.34375 
Q 37.3125 48.390625 33.40625 48.390625 
Q 24.65625 48.390625 19.8125 42.84375 
Q 14.984375 37.3125 14.984375 27.296875 
Q 14.984375 17.28125 19.8125 11.734375 
Q 24.65625 6.203125 33.40625 6.203125 
Q 37.3125 6.203125 41.140625 7.25 
Q 44.96875 8.296875 48.78125 10.40625 
L 48.78125 2.09375 
Q 45.015625 0.34375 40.984375 -0.53125 
Q 36.96875 -1.421875 32.421875 -1.421875 
Q 20.0625 -1.421875 12.78125 6.34375 
Q 5.515625 14.109375 5.515625 27.296875 
Q 5.515625 40.671875 12.859375 48.328125 
Q 20.21875 56 33.015625 56 
Q 37.15625 56 41.109375 55.140625 
Q 45.0625 54.296875 48.78125 52.59375 
z
" id="DejaVuSans-99"/>
      <path d="M 32.171875 -5.078125 
Q 28.375 -14.84375 24.75 -17.8125 
Q 21.140625 -20.796875 15.09375 -20.796875 
L 7.90625 -20.796875 
L 7.90625 -13.28125 
L 13.1875 -13.28125 
Q 16.890625 -13.28125 18.9375 -11.515625 
Q 21 -9.765625 23.484375 -3.21875 
L 25.09375 0.875 
L 2.984375 54.6875 
L 12.5 54.6875 
L 29.59375 11.921875 
L 46.6875 54.6875 
L 56.203125 54.6875 
z
" id="DejaVuSans-121"/>
     </defs>
     <g transform="translate(156.886875 263.327187)scale(0.14 -0.14)">
      <use xlink:href="#DejaVuSans-102"/>
      <use x="35.205078" xlink:href="#DejaVuSans-114"/>
      <use x="76.287109" xlink:href="#DejaVuSans-101"/>
      <use x="137.810547" xlink:href="#DejaVuSans-113"/>
      <use x="201.287109" xlink:href="#DejaVuSans-117"/>
      <use x="264.666016" xlink:href="#DejaVuSans-101"/>
      <use x="326.189453" xlink:href="#DejaVuSans-110"/>
      <use x="389.568359" xlink:href="#DejaVuSans-99"/>
      <use x="444.548828" xlink:href="#DejaVuSans-121"/>
     </g>
    </g>
   </g>
   <g id="matplotlib.axis_2">
    <g id="ytick_1"/>
    <g id="ytick_2"/>
    <g id="ytick_3"/>
    <g id="ytick_4"/>
    <g id="ytick_5"/>
    <g id="text_4">
     <!-- amplitude -->
     <defs>
      <path d="M 34.28125 27.484375 
Q 23.390625 27.484375 19.1875 25 
Q 14.984375 22.515625 14.984375 16.5 
Q 14.984375 11.71875 18.140625 8.90625 
Q 21.296875 6.109375 26.703125 6.109375 
Q 34.1875 6.109375 38.703125 11.40625 
Q 43.21875 16.703125 43.21875 25.484375 
L 43.21875 27.484375 
z
M 52.203125 31.203125 
L 52.203125 0 
L 43.21875 0 
L 43.21875 8.296875 
Q 40.140625 3.328125 35.546875 0.953125 
Q 30.953125 -1.421875 24.3125 -1.421875 
Q 15.921875 -1.421875 10.953125 3.296875 
Q 6 8.015625 6 15.921875 
Q 6 25.140625 12.171875 29.828125 
Q 18.359375 34.515625 30.609375 34.515625 
L 43.21875 34.515625 
L 43.21875 35.40625 
Q 43.21875 41.609375 39.140625 45 
Q 35.0625 48.390625 27.6875 48.390625 
Q 23 48.390625 18.546875 47.265625 
Q 14.109375 46.140625 10.015625 43.890625 
L 10.015625 52.203125 
Q 14.9375 54.109375 19.578125 55.046875 
Q 24.21875 56 28.609375 56 
Q 40.484375 56 46.34375 49.84375 
Q 52.203125 43.703125 52.203125 31.203125 
z
" id="DejaVuSans-97"/>
      <path d="M 52 44.1875 
Q 55.375 50.25 60.0625 53.125 
Q 64.75 56 71.09375 56 
Q 79.640625 56 84.28125 50.015625 
Q 88.921875 44.046875 88.921875 33.015625 
L 88.921875 0 
L 79.890625 0 
L 79.890625 32.71875 
Q 79.890625 40.578125 77.09375 44.375 
Q 74.3125 48.1875 68.609375 48.1875 
Q 61.625 48.1875 57.5625 43.546875 
Q 53.515625 38.921875 53.515625 30.90625 
L 53.515625 0 
L 44.484375 0 
L 44.484375 32.71875 
Q 44.484375 40.625 41.703125 44.40625 
Q 38.921875 48.1875 33.109375 48.1875 
Q 26.21875 48.1875 22.15625 43.53125 
Q 18.109375 38.875 18.109375 30.90625 
L 18.109375 0 
L 9.078125 0 
L 9.078125 54.6875 
L 18.109375 54.6875 
L 18.109375 46.1875 
Q 21.1875 51.21875 25.484375 53.609375 
Q 29.78125 56 35.6875 56 
Q 41.65625 56 45.828125 52.96875 
Q 50 49.953125 52 44.1875 
z
" id="DejaVuSans-109"/>
      <path d="M 18.109375 8.203125 
L 18.109375 -20.796875 
L 9.078125 -20.796875 
L 9.078125 54.6875 
L 18.109375 54.6875 
L 18.109375 46.390625 
Q 20.953125 51.265625 25.265625 53.625 
Q 29.59375 56 35.59375 56 
Q 45.5625 56 51.78125 48.09375 
Q 58.015625 40.1875 58.015625 27.296875 
Q 58.015625 14.40625 51.78125 6.484375 
Q 45.5625 -1.421875 35.59375 -1.421875 
Q 29.59375 -1.421875 25.265625 0.953125 
Q 20.953125 3.328125 18.109375 8.203125 
z
M 48.6875 27.296875 
Q 48.6875 37.203125 44.609375 42.84375 
Q 40.53125 48.484375 33.40625 48.484375 
Q 26.265625 48.484375 22.1875 42.84375 
Q 18.109375 37.203125 18.109375 27.296875 
Q 18.109375 17.390625 22.1875 11.75 
Q 26.265625 6.109375 33.40625 6.109375 
Q 40.53125 6.109375 44.609375 11.75 
Q 48.6875 17.390625 48.6875 27.296875 
z
" id="DejaVuSans-112"/>
      <path d="M 9.421875 75.984375 
L 18.40625 75.984375 
L 18.40625 0 
L 9.421875 0 
z
" id="DejaVuSans-108"/>
      <path d="M 9.421875 54.6875 
L 18.40625 54.6875 
L 18.40625 0 
L 9.421875 0 
z
M 9.421875 75.984375 
L 18.40625 75.984375 
L 18.40625 64.59375 
L 9.421875 64.59375 
z
" id="DejaVuSans-105"/>
      <path d="M 18.3125 70.21875 
L 18.3125 54.6875 
L 36.8125 54.6875 
L 36.8125 47.703125 
L 18.3125 47.703125 
L 18.3125 18.015625 
Q 18.3125 11.328125 20.140625 9.421875 
Q 21.96875 7.515625 27.59375 7.515625 
L 36.8125 7.515625 
L 36.8125 0 
L 27.59375 0 
Q 17.1875 0 13.234375 3.875 
Q 9.28125 7.765625 9.28125 18.015625 
L 9.28125 47.703125 
L 2.6875 47.703125 
L 2.6875 54.6875 
L 9.28125 54.6875 
L 9.28125 70.21875 
z
" id="DejaVuSans-116"/>
      <path d="M 45.40625 46.390625 
L 45.40625 75.984375 
L 54.390625 75.984375 
L 54.390625 0 
L 45.40625 0 
L 45.40625 8.203125 
Q 42.578125 3.328125 38.25 0.953125 
Q 33.9375 -1.421875 27.875 -1.421875 
Q 17.96875 -1.421875 11.734375 6.484375 
Q 5.515625 14.40625 5.515625 27.296875 
Q 5.515625 40.1875 11.734375 48.09375 
Q 17.96875 56 27.875 56 
Q 33.9375 56 38.25 53.625 
Q 42.578125 51.265625 45.40625 46.390625 
z
M 14.796875 27.296875 
Q 14.796875 17.390625 18.875 11.75 
Q 22.953125 6.109375 30.078125 6.109375 
Q 37.203125 6.109375 41.296875 11.75 
Q 45.40625 17.390625 45.40625 27.296875 
Q 45.40625 37.203125 41.296875 42.84375 
Q 37.203125 48.484375 30.078125 48.484375 
Q 22.953125 48.484375 18.875 42.84375 
Q 14.796875 37.203125 14.796875 27.296875 
z
" id="DejaVuSans-100"/>
     </defs>
     <g transform="translate(17.837813 154.792969)rotate(-90)scale(0.14 -0.14)">
      <use xlink:href="#DejaVuSans-97"/>
      <use x="61.279297" xlink:href="#DejaVuSans-109"/>
      <use x="158.691406" xlink:href="#DejaVuSans-112"/>
      <use x="222.167969" xlink:href="#DejaVuSans-108"/>
      <use x="249.951172" xlink:href="#DejaVuSans-105"/>
      <use x="277.734375" xlink:href="#DejaVuSans-116"/>
      <use x="316.943359" xlink:href="#DejaVuSans-117"/>
      <use x="380.322266" xlink:href="#DejaVuSans-100"/>
      <use x="443.798828" xlink:href="#DejaVuSans-101"/>
     </g>
    </g>
   </g>
   <g id="line2d_3">
    <path clip-path="url(#p7271f2ace7)" d="M 39.967557 218.226646 
L 73.210715 218.023739 
L 86.788048 217.739624 
L 94.276891 217.37765 
L 99.086799 216.93665 
L 102.435469 216.420064 
L 104.93175 215.822315 
L 106.880067 215.137165 
L 108.463074 214.351186 
L 109.802542 213.436541 
L 110.959355 212.369002 
L 111.933514 211.17694 
L 112.846787 209.707182 
L 113.699176 207.892979 
L 114.49068 205.655161 
L 115.221298 202.903592 
L 115.891032 199.542341 
L 116.560766 195.006937 
L 117.169615 189.38621 
L 117.778464 181.640706 
L 118.387313 170.700384 
L 118.935278 156.771989 
L 119.483242 137.242051 
L 120.092091 106.825611 
L 121.614213 21.815852 
L 121.735983 20.623429 
L 121.796868 20.630979 
L 121.918638 21.853139 
L 122.162178 28.824598 
L 122.527487 47.928971 
L 124.04961 137.334537 
L 124.719344 160.344604 
L 125.389077 175.587435 
L 126.058811 185.857645 
L 126.728545 192.976682 
L 127.459164 198.447755 
L 128.189783 202.362817 
L 128.981287 205.452118 
L 129.833675 207.887327 
L 130.746949 209.810106 
L 131.721108 211.333559 
L 132.756151 212.54625 
L 133.912964 213.563368 
L 135.252432 214.438041 
L 136.835439 215.192129 
L 138.722872 215.833984 
L 141.097383 216.392524 
L 144.141628 216.866316 
L 148.220917 217.2627 
L 154.004982 217.584969 
L 162.711524 217.828453 
L 176.715052 217.977163 
L 196.746185 217.963144 
L 211.662987 217.755339 
L 220.125989 217.434099 
L 225.48386 217.021245 
L 229.136954 216.529158 
L 231.81589 215.955865 
L 233.885977 215.29513 
L 235.529869 214.547904 
L 236.930222 213.667704 
L 238.087035 212.68546 
L 239.122079 211.518227 
L 240.035352 210.161583 
L 240.887741 208.49853 
L 241.679245 206.462681 
L 242.409863 203.979987 
L 243.140482 200.655915 
L 243.810216 196.525954 
L 244.47995 190.849799 
L 245.088799 183.678984 
L 245.697648 173.607281 
L 246.245612 160.83795 
L 246.793577 142.942058 
L 247.402426 114.807361 
L 248.133044 69.078772 
L 248.863663 27.190718 
L 249.168088 20.710102 
L 249.228973 20.583636 
L 249.350743 21.541133 
L 249.533397 25.881303 
L 249.837822 39.578956 
L 250.629326 90.804 
L 251.359944 131.139764 
L 252.029678 156.233268 
L 252.699412 172.855631 
L 253.369146 183.998599 
L 254.03888 191.674196 
L 254.769499 197.535463 
L 255.500118 201.704518 
L 256.291622 204.976426 
L 257.14401 207.54273 
L 257.996399 209.443547 
L 258.909673 210.977446 
L 259.944716 212.284024 
L 261.101529 213.37326 
L 262.380112 214.268312 
L 263.902235 215.051132 
L 265.728782 215.725161 
L 267.981523 216.304875 
L 270.843114 216.799458 
L 274.678863 217.221687 
L 280.036734 217.570855 
L 288.012657 217.849718 
L 301.163796 218.062832 
L 326.126607 218.211845 
L 344.331193 218.256364 
L 344.331193 218.256364 
" style="fill:none;stroke:#1f77b4;stroke-dasharray:1.5,2.475;stroke-dashoffset:0;stroke-width:1.5;"/>
   </g>
   <g id="line2d_4">
    <path clip-path="url(#p7271f2ace7)" d="M 39.967557 218.226646 
L 43.041937 218.217649 
L 46.116317 218.207573 
L 49.190697 218.196233 
L 52.265077 218.183404 
L 55.339458 218.168807 
L 58.413838 218.152096 
L 61.488218 218.132832 
L 64.562598 218.110459 
L 67.636978 218.084257 
L 70.711358 218.053285 
L 73.785739 218.016292 
L 76.860119 217.971587 
L 79.934499 217.916839 
L 83.008879 217.848761 
L 86.083259 217.762602 
L 89.157639 217.651283 
L 92.23202 217.503888 
L 95.3064 217.302869 
L 98.38078 217.018566 
L 101.45516 216.597617 
L 104.52954 215.936125 
L 107.60392 214.809583 
L 110.678301 212.658158 
L 113.752681 207.760799 
L 116.827061 192.759348 
L 119.901441 117.424992 
L 122.975821 77.568228 
L 126.050201 185.748621 
L 129.124582 205.916441 
L 132.198962 211.93641 
L 135.273342 214.449719 
L 138.347722 215.723398 
L 141.422102 216.453708 
L 144.496482 216.909522 
L 147.570863 217.211989 
L 150.645243 217.422088 
L 153.719623 217.573176 
L 156.794003 217.684721 
L 159.868383 217.768678 
L 162.942763 217.8327 
L 166.017144 217.881844 
L 169.091524 217.919541 
L 172.165904 217.94815 
L 175.240284 217.96931 
L 178.314664 217.984146 
L 181.389044 217.993402 
L 184.463425 217.997526 
L 187.537805 217.996712 
L 190.612185 217.990921 
L 193.686565 217.97988 
L 196.760945 217.963048 
L 199.835325 217.939567 
L 202.909706 217.908159 
L 205.984086 217.866976 
L 209.058466 217.813348 
L 212.132846 217.743386 
L 215.207226 217.651305 
L 218.281606 217.528268 
L 221.355987 217.360296 
L 224.430367 217.124264 
L 227.504747 216.779759 
L 230.579127 216.251018 
L 233.653507 215.382469 
L 236.727887 213.812883 
L 239.802268 210.543674 
L 242.876648 201.974824 
L 245.951028 168.228676 
L 249.025408 22.573439 
L 252.099788 158.311313 
L 255.174168 200.010081 
L 258.248549 209.911218 
L 261.322929 213.5481 
L 264.397309 215.257529 
L 267.471689 216.191932 
L 270.546069 216.757082 
L 273.620449 217.124572 
L 276.69483 217.376886 
L 279.76921 217.557609 
L 282.84359 217.691515 
L 285.91797 217.79352 
L 288.99235 217.873043 
L 292.06673 217.936265 
L 295.141111 217.987377 
L 298.215491 218.029306 
L 301.289871 218.064143 
L 304.364251 218.093413 
L 307.438631 218.118255 
L 310.513011 218.139527 
L 313.587392 218.15789 
L 316.661772 218.173858 
L 319.736152 218.187834 
L 322.810532 218.200142 
L 325.884912 218.211041 
L 328.959292 218.220741 
L 332.033673 218.229415 
L 335.108053 218.237206 
L 338.182433 218.24423 
L 341.256813 218.250589 
L 344.331193 218.256364 
" style="fill:none;"/>
    <defs>
     <path d="M 0 2 
C 0.530406 2 1.03916 1.789267 1.414214 1.414214 
C 1.789267 1.03916 2 0.530406 2 0 
C 2 -0.530406 1.789267 -1.03916 1.414214 -1.414214 
C 1.03916 -1.789267 0.530406 -2 0 -2 
C -0.530406 -2 -1.03916 -1.789267 -1.414214 -1.414214 
C -1.789267 -1.03916 -2 -0.530406 -2 0 
C -2 0.530406 -1.789267 1.03916 -1.414214 1.414214 
C -1.03916 1.789267 -0.530406 2 0 2 
z
" id="m5cf2641b26" style="stroke:#ff7f0e;"/>
    </defs>
    <g clip-path="url(#p7271f2ace7)">
     <use style="fill:#ff7f0e;stroke:#ff7f0e;" x="39.967557" xlink:href="#m5cf2641b26" y="218.226646"/>
     <use style="fill:#ff7f0e;stroke:#ff7f0e;" x="43.041937" xlink:href="#m5cf2641b26" y="218.217649"/>
     <use style="fill:#ff7f0e;stroke:#ff7f0e;" x="46.116317" xlink:href="#m5cf2641b26" y="218.207573"/>
     <use style="fill:#ff7f0e;stroke:#ff7f0e;" x="49.190697" xlink:href="#m5cf2641b26" y="218.196233"/>
     <use style="fill:#ff7f0e;stroke:#ff7f0e;" x="52.265077" xlink:href="#m5cf2641b26" y="218.183404"/>
     <use style="fill:#ff7f0e;stroke:#ff7f0e;" x="55.339458" xlink:href="#m5cf2641b26" y="218.168807"/>
     <use style="fill:#ff7f0e;stroke:#ff7f0e;" x="58.413838" xlink:href="#m5cf2641b26" y="218.152096"/>
     <use style="fill:#ff7f0e;stroke:#ff7f0e;" x="61.488218" xlink:href="#m5cf2641b26" y="218.132832"/>
     <use style="fill:#ff7f0e;stroke:#ff7f0e;" x="64.562598" xlink:href="#m5cf2641b26" y="218.110459"/>
     <use style="fill:#ff7f0e;stroke:#ff7f0e;" x="67.636978" xlink:href="#m5cf2641b26" y="218.084257"/>
     <use style="fill:#ff7f0e;stroke:#ff7f0e;" x="70.711358" xlink:href="#m5cf2641b26" y="218.053285"/>
     <use style="fill:#ff7f0e;stroke:#ff7f0e;" x="73.785739" xlink:href="#m5cf2641b26" y="218.016292"/>
     <use style="fill:#ff7f0e;stroke:#ff7f0e;" x="76.860119" xlink:href="#m5cf2641b26" y="217.971587"/>
     <use style="fill:#ff7f0e;stroke:#ff7f0e;" x="79.934499" xlink:href="#m5cf2641b26" y="217.916839"/>
     <use style="fill:#ff7f0e;stroke:#ff7f0e;" x="83.008879" xlink:href="#m5cf2641b26" y="217.848761"/>
     <use style="fill:#ff7f0e;stroke:#ff7f0e;" x="86.083259" xlink:href="#m5cf2641b26" y="217.762602"/>
     <use style="fill:#ff7f0e;stroke:#ff7f0e;" x="89.157639" xlink:href="#m5cf2641b26" y="217.651283"/>
     <use style="fill:#ff7f0e;stroke:#ff7f0e;" x="92.23202" xlink:href="#m5cf2641b26" y="217.503888"/>
     <use style="fill:#ff7f0e;stroke:#ff7f0e;" x="95.3064" xlink:href="#m5cf2641b26" y="217.302869"/>
     <use style="fill:#ff7f0e;stroke:#ff7f0e;" x="98.38078" xlink:href="#m5cf2641b26" y="217.018566"/>
     <use style="fill:#ff7f0e;stroke:#ff7f0e;" x="101.45516" xlink:href="#m5cf2641b26" y="216.597617"/>
     <use style="fill:#ff7f0e;stroke:#ff7f0e;" x="104.52954" xlink:href="#m5cf2641b26" y="215.936125"/>
     <use style="fill:#ff7f0e;stroke:#ff7f0e;" x="107.60392" xlink:href="#m5cf2641b26" y="214.809583"/>
     <use style="fill:#ff7f0e;stroke:#ff7f0e;" x="110.678301" xlink:href="#m5cf2641b26" y="212.658158"/>
     <use style="fill:#ff7f0e;stroke:#ff7f0e;" x="113.752681" xlink:href="#m5cf2641b26" y="207.760799"/>
     <use style="fill:#ff7f0e;stroke:#ff7f0e;" x="116.827061" xlink:href="#m5cf2641b26" y="192.759348"/>
     <use style="fill:#ff7f0e;stroke:#ff7f0e;" x="119.901441" xlink:href="#m5cf2641b26" y="117.424992"/>
     <use style="fill:#ff7f0e;stroke:#ff7f0e;" x="122.975821" xlink:href="#m5cf2641b26" y="77.568228"/>
     <use style="fill:#ff7f0e;stroke:#ff7f0e;" x="126.050201" xlink:href="#m5cf2641b26" y="185.748621"/>
     <use style="fill:#ff7f0e;stroke:#ff7f0e;" x="129.124582" xlink:href="#m5cf2641b26" y="205.916441"/>
     <use style="fill:#ff7f0e;stroke:#ff7f0e;" x="132.198962" xlink:href="#m5cf2641b26" y="211.93641"/>
     <use style="fill:#ff7f0e;stroke:#ff7f0e;" x="135.273342" xlink:href="#m5cf2641b26" y="214.449719"/>
     <use style="fill:#ff7f0e;stroke:#ff7f0e;" x="138.347722" xlink:href="#m5cf2641b26" y="215.723398"/>
     <use style="fill:#ff7f0e;stroke:#ff7f0e;" x="141.422102" xlink:href="#m5cf2641b26" y="216.453708"/>
     <use style="fill:#ff7f0e;stroke:#ff7f0e;" x="144.496482" xlink:href="#m5cf2641b26" y="216.909522"/>
     <use style="fill:#ff7f0e;stroke:#ff7f0e;" x="147.570863" xlink:href="#m5cf2641b26" y="217.211989"/>
     <use style="fill:#ff7f0e;stroke:#ff7f0e;" x="150.645243" xlink:href="#m5cf2641b26" y="217.422088"/>
     <use style="fill:#ff7f0e;stroke:#ff7f0e;" x="153.719623" xlink:href="#m5cf2641b26" y="217.573176"/>
     <use style="fill:#ff7f0e;stroke:#ff7f0e;" x="156.794003" xlink:href="#m5cf2641b26" y="217.684721"/>
     <use style="fill:#ff7f0e;stroke:#ff7f0e;" x="159.868383" xlink:href="#m5cf2641b26" y="217.768678"/>
     <use style="fill:#ff7f0e;stroke:#ff7f0e;" x="162.942763" xlink:href="#m5cf2641b26" y="217.8327"/>
     <use style="fill:#ff7f0e;stroke:#ff7f0e;" x="166.017144" xlink:href="#m5cf2641b26" y="217.881844"/>
     <use style="fill:#ff7f0e;stroke:#ff7f0e;" x="169.091524" xlink:href="#m5cf2641b26" y="217.919541"/>
     <use style="fill:#ff7f0e;stroke:#ff7f0e;" x="172.165904" xlink:href="#m5cf2641b26" y="217.94815"/>
     <use style="fill:#ff7f0e;stroke:#ff7f0e;" x="175.240284" xlink:href="#m5cf2641b26" y="217.96931"/>
     <use style="fill:#ff7f0e;stroke:#ff7f0e;" x="178.314664" xlink:href="#m5cf2641b26" y="217.984146"/>
     <use style="fill:#ff7f0e;stroke:#ff7f0e;" x="181.389044" xlink:href="#m5cf2641b26" y="217.993402"/>
     <use style="fill:#ff7f0e;stroke:#ff7f0e;" x="184.463425" xlink:href="#m5cf2641b26" y="217.997526"/>
     <use style="fill:#ff7f0e;stroke:#ff7f0e;" x="187.537805" xlink:href="#m5cf2641b26" y="217.996712"/>
     <use style="fill:#ff7f0e;stroke:#ff7f0e;" x="190.612185" xlink:href="#m5cf2641b26" y="217.990921"/>
     <use style="fill:#ff7f0e;stroke:#ff7f0e;" x="193.686565" xlink:href="#m5cf2641b26" y="217.97988"/>
     <use style="fill:#ff7f0e;stroke:#ff7f0e;" x="196.760945" xlink:href="#m5cf2641b26" y="217.963048"/>
     <use style="fill:#ff7f0e;stroke:#ff7f0e;" x="199.835325" xlink:href="#m5cf2641b26" y="217.939567"/>
     <use style="fill:#ff7f0e;stroke:#ff7f0e;" x="202.909706" xlink:href="#m5cf2641b26" y="217.908159"/>
     <use style="fill:#ff7f0e;stroke:#ff7f0e;" x="205.984086" xlink:href="#m5cf2641b26" y="217.866976"/>
     <use style="fill:#ff7f0e;stroke:#ff7f0e;" x="209.058466" xlink:href="#m5cf2641b26" y="217.813348"/>
     <use style="fill:#ff7f0e;stroke:#ff7f0e;" x="212.132846" xlink:href="#m5cf2641b26" y="217.743386"/>
     <use style="fill:#ff7f0e;stroke:#ff7f0e;" x="215.207226" xlink:href="#m5cf2641b26" y="217.651305"/>
     <use style="fill:#ff7f0e;stroke:#ff7f0e;" x="218.281606" xlink:href="#m5cf2641b26" y="217.528268"/>
     <use style="fill:#ff7f0e;stroke:#ff7f0e;" x="221.355987" xlink:href="#m5cf2641b26" y="217.360296"/>
     <use style="fill:#ff7f0e;stroke:#ff7f0e;" x="224.430367" xlink:href="#m5cf2641b26" y="217.124264"/>
     <use style="fill:#ff7f0e;stroke:#ff7f0e;" x="227.504747" xlink:href="#m5cf2641b26" y="216.779759"/>
     <use style="fill:#ff7f0e;stroke:#ff7f0e;" x="230.579127" xlink:href="#m5cf2641b26" y="216.251018"/>
     <use style="fill:#ff7f0e;stroke:#ff7f0e;" x="233.653507" xlink:href="#m5cf2641b26" y="215.382469"/>
     <use style="fill:#ff7f0e;stroke:#ff7f0e;" x="236.727887" xlink:href="#m5cf2641b26" y="213.812883"/>
     <use style="fill:#ff7f0e;stroke:#ff7f0e;" x="239.802268" xlink:href="#m5cf2641b26" y="210.543674"/>
     <use style="fill:#ff7f0e;stroke:#ff7f0e;" x="242.876648" xlink:href="#m5cf2641b26" y="201.974824"/>
     <use style="fill:#ff7f0e;stroke:#ff7f0e;" x="245.951028" xlink:href="#m5cf2641b26" y="168.228676"/>
     <use style="fill:#ff7f0e;stroke:#ff7f0e;" x="249.025408" xlink:href="#m5cf2641b26" y="22.573439"/>
     <use style="fill:#ff7f0e;stroke:#ff7f0e;" x="252.099788" xlink:href="#m5cf2641b26" y="158.311313"/>
     <use style="fill:#ff7f0e;stroke:#ff7f0e;" x="255.174168" xlink:href="#m5cf2641b26" y="200.010081"/>
     <use style="fill:#ff7f0e;stroke:#ff7f0e;" x="258.248549" xlink:href="#m5cf2641b26" y="209.911218"/>
     <use style="fill:#ff7f0e;stroke:#ff7f0e;" x="261.322929" xlink:href="#m5cf2641b26" y="213.5481"/>
     <use style="fill:#ff7f0e;stroke:#ff7f0e;" x="264.397309" xlink:href="#m5cf2641b26" y="215.257529"/>
     <use style="fill:#ff7f0e;stroke:#ff7f0e;" x="267.471689" xlink:href="#m5cf2641b26" y="216.191932"/>
     <use style="fill:#ff7f0e;stroke:#ff7f0e;" x="270.546069" xlink:href="#m5cf2641b26" y="216.757082"/>
     <use style="fill:#ff7f0e;stroke:#ff7f0e;" x="273.620449" xlink:href="#m5cf2641b26" y="217.124572"/>
     <use style="fill:#ff7f0e;stroke:#ff7f0e;" x="276.69483" xlink:href="#m5cf2641b26" y="217.376886"/>
     <use style="fill:#ff7f0e;stroke:#ff7f0e;" x="279.76921" xlink:href="#m5cf2641b26" y="217.557609"/>
     <use style="fill:#ff7f0e;stroke:#ff7f0e;" x="282.84359" xlink:href="#m5cf2641b26" y="217.691515"/>
     <use style="fill:#ff7f0e;stroke:#ff7f0e;" x="285.91797" xlink:href="#m5cf2641b26" y="217.79352"/>
     <use style="fill:#ff7f0e;stroke:#ff7f0e;" x="288.99235" xlink:href="#m5cf2641b26" y="217.873043"/>
     <use style="fill:#ff7f0e;stroke:#ff7f0e;" x="292.06673" xlink:href="#m5cf2641b26" y="217.936265"/>
     <use style="fill:#ff7f0e;stroke:#ff7f0e;" x="295.141111" xlink:href="#m5cf2641b26" y="217.987377"/>
     <use style="fill:#ff7f0e;stroke:#ff7f0e;" x="298.215491" xlink:href="#m5cf2641b26" y="218.029306"/>
     <use style="fill:#ff7f0e;stroke:#ff7f0e;" x="301.289871" xlink:href="#m5cf2641b26" y="218.064143"/>
     <use style="fill:#ff7f0e;stroke:#ff7f0e;" x="304.364251" xlink:href="#m5cf2641b26" y="218.093413"/>
     <use style="fill:#ff7f0e;stroke:#ff7f0e;" x="307.438631" xlink:href="#m5cf2641b26" y="218.118255"/>
     <use style="fill:#ff7f0e;stroke:#ff7f0e;" x="310.513011" xlink:href="#m5cf2641b26" y="218.139527"/>
     <use style="fill:#ff7f0e;stroke:#ff7f0e;" x="313.587392" xlink:href="#m5cf2641b26" y="218.15789"/>
     <use style="fill:#ff7f0e;stroke:#ff7f0e;" x="316.661772" xlink:href="#m5cf2641b26" y="218.173858"/>
     <use style="fill:#ff7f0e;stroke:#ff7f0e;" x="319.736152" xlink:href="#m5cf2641b26" y="218.187834"/>
     <use style="fill:#ff7f0e;stroke:#ff7f0e;" x="322.810532" xlink:href="#m5cf2641b26" y="218.200142"/>
     <use style="fill:#ff7f0e;stroke:#ff7f0e;" x="325.884912" xlink:href="#m5cf2641b26" y="218.211041"/>
     <use style="fill:#ff7f0e;stroke:#ff7f0e;" x="328.959292" xlink:href="#m5cf2641b26" y="218.220741"/>
     <use style="fill:#ff7f0e;stroke:#ff7f0e;" x="332.033673" xlink:href="#m5cf2641b26" y="218.229415"/>
     <use style="fill:#ff7f0e;stroke:#ff7f0e;" x="335.108053" xlink:href="#m5cf2641b26" y="218.237206"/>
     <use style="fill:#ff7f0e;stroke:#ff7f0e;" x="338.182433" xlink:href="#m5cf2641b26" y="218.24423"/>
     <use style="fill:#ff7f0e;stroke:#ff7f0e;" x="341.256813" xlink:href="#m5cf2641b26" y="218.250589"/>
     <use style="fill:#ff7f0e;stroke:#ff7f0e;" x="344.331193" xlink:href="#m5cf2641b26" y="218.256364"/>
    </g>
   </g>
   <g id="patch_3">
    <path d="M 24.749375 228.14 
L 24.749375 10.7 
" style="fill:none;stroke:#000000;stroke-linecap:square;stroke-linejoin:miter;stroke-width:0.8;"/>
   </g>
   <g id="patch_4">
    <path d="M 359.549375 228.14 
L 359.549375 10.7 
" style="fill:none;stroke:#000000;stroke-linecap:square;stroke-linejoin:miter;stroke-width:0.8;"/>
   </g>
   <g id="patch_5">
    <path d="M 24.749375 228.14 
L 359.549375 228.14 
" style="fill:none;stroke:#000000;stroke-linecap:square;stroke-linejoin:miter;stroke-width:0.8;"/>
   </g>
   <g id="patch_6">
    <path d="M 24.749375 10.7 
L 359.549375 10.7 
" style="fill:none;stroke:#000000;stroke-linecap:square;stroke-linejoin:miter;stroke-width:0.8;"/>
   </g>
  </g>
 </g>
 <defs>
  <clipPath id="p7271f2ace7">
   <rect height="217.44" width="334.8" x="24.749375" y="10.7"/>
  </clipPath>
 </defs>
</svg>
