<?xml version="1.0" encoding="utf-8" standalone="no"?>
<!DOCTYPE svg PUBLIC "-//W3C//DTD SVG 1.1//EN"
  "http://www.w3.org/Graphics/SVG/1.1/DTD/svg11.dtd">
<!-- Created with matplotlib (https://matplotlib.org/) -->
<svg height="273.43875pt" version="1.1" viewBox="0 0 370.249375 273.43875" width="370.249375pt" xmlns="http://www.w3.org/2000/svg" xmlns:xlink="http://www.w3.org/1999/xlink">
 <defs>
  <style type="text/css">
*{stroke-linecap:butt;stroke-linejoin:round;}
  </style>
 </defs>
 <g id="figure_1">
  <g id="patch_1">
   <path d="M -0 273.43875 
L 370.249375 273.43875 
L 370.249375 0 
L -0 0 
z
" style="fill:#ffffff;"/>
  </g>
  <g id="axes_1">
   <g id="patch_2">
    <path d="M 24.749375 228.14 
L 359.549375 228.14 
L 359.549375 10.7 
L 24.749375 10.7 
z
" style="fill:#ffffff;"/>
   </g>
   <g id="matplotlib.axis_1">
    <g id="xtick_1">
     <g id="line2d_1">
      <defs>
       <path d="M 0 0 
L 0 3.5 
" id="m4bfb4f28d3" style="stroke:#000000;stroke-width:0.8;"/>
      </defs>
      <g>
       <use style="stroke:#000000;stroke-width:0.8;" x="121.765284" xlink:href="#m4bfb4f28d3" y="228.14"/>
      </g>
     </g>
     <g id="text_1">
      <!-- $f_1$ -->
      <defs>
       <path d="M 47.796875 75.984375 
L 46.390625 68.5 
L 37.796875 68.5 
Q 32.90625 68.5 30.6875 66.578125 
Q 28.46875 64.65625 27.390625 59.515625 
L 26.421875 54.6875 
L 41.21875 54.6875 
L 39.890625 47.703125 
L 25.09375 47.703125 
L 15.828125 0 
L 6.78125 0 
L 16.109375 47.703125 
L 7.515625 47.703125 
L 8.796875 54.6875 
L 17.390625 54.6875 
L 18.109375 58.5 
Q 19.96875 68.171875 24.625 72.078125 
Q 29.296875 75.984375 39.3125 75.984375 
z
" id="DejaVuSans-Oblique-102"/>
       <path d="M 12.40625 8.296875 
L 28.515625 8.296875 
L 28.515625 63.921875 
L 10.984375 60.40625 
L 10.984375 69.390625 
L 28.421875 72.90625 
L 38.28125 72.90625 
L 38.28125 8.296875 
L 54.390625 8.296875 
L 54.390625 0 
L 12.40625 0 
z
" id="DejaVuSans-49"/>
      </defs>
      <g transform="translate(115.955284 245.777812)scale(0.14 -0.14)">
       <use transform="translate(0 0.015625)" xlink:href="#DejaVuSans-Oblique-102"/>
       <use transform="translate(35.205078 -16.390625)scale(0.7)" xlink:href="#DejaVuSans-49"/>
      </g>
     </g>
    </g>
    <g id="xtick_2">
     <g id="line2d_2">
      <g>
       <use style="stroke:#000000;stroke-width:0.8;" x="249.217557" xlink:href="#m4bfb4f28d3" y="228.14"/>
      </g>
     </g>
     <g id="text_2">
      <!-- $f_2$ -->
      <defs>
       <path d="M 19.1875 8.296875 
L 53.609375 8.296875 
L 53.609375 0 
L 7.328125 0 
L 7.328125 8.296875 
Q 12.9375 14.109375 22.625 23.890625 
Q 32.328125 33.6875 34.8125 36.53125 
Q 39.546875 41.84375 41.421875 45.53125 
Q 43.3125 49.21875 43.3125 52.78125 
Q 43.3125 58.59375 39.234375 62.25 
Q 35.15625 65.921875 28.609375 65.921875 
Q 23.96875 65.921875 18.8125 64.3125 
Q 13.671875 62.703125 7.8125 59.421875 
L 7.8125 69.390625 
Q 13.765625 71.78125 18.9375 73 
Q 24.125 74.21875 28.421875 74.21875 
Q 39.75 74.21875 46.484375 68.546875 
Q 53.21875 62.890625 53.21875 53.421875 
Q 53.21875 48.921875 51.53125 44.890625 
Q 49.859375 40.875 45.40625 35.40625 
Q 44.1875 33.984375 37.640625 27.21875 
Q 31.109375 20.453125 19.1875 8.296875 
z
" id="DejaVuSans-50"/>
      </defs>
      <g transform="translate(243.407557 245.777812)scale(0.14 -0.14)">
       <use transform="translate(0 0.015625)" xlink:href="#DejaVuSans-Oblique-102"/>
       <use transform="translate(35.205078 -16.390625)scale(0.7)" xlink:href="#DejaVuSans-50"/>
      </g>
     </g>
    </g>
    <g id="text_3">
     <!-- frequency -->
     <defs>
      <path d="M 37.109375 75.984375 
L 37.109375 68.5 
L 28.515625 68.5 
Q 23.6875 68.5 21.796875 66.546875 
Q 19.921875 64.59375 19.921875 59.515625 
L 19.921875 54.6875 
L 34.71875 54.6875 
L 34.71875 47.703125 
L 19.921875 47.703125 
L 19.921875 0 
L 10.890625 0 
L 10.890625 47.703125 
L 2.296875 47.703125 
L 2.296875 54.6875 
L 10.890625 54.6875 
L 10.890625 58.5 
Q 10.890625 67.625 15.140625 71.796875 
Q 19.390625 75.984375 28.609375 75.984375 
z
" id="DejaVuSans-102"/>
      <path d="M 41.109375 46.296875 
Q 39.59375 47.171875 37.8125 47.578125 
Q 36.03125 48 33.890625 48 
Q 26.265625 48 22.1875 43.046875 
Q 18.109375 38.09375 18.109375 28.8125 
L 18.109375 0 
L 9.078125 0 
L 9.078125 54.6875 
L 18.109375 54.6875 
L 18.109375 46.1875 
Q 20.953125 51.171875 25.484375 53.578125 
Q 30.03125 56 36.53125 56 
Q 37.453125 56 38.578125 55.875 
Q 39.703125 55.765625 41.0625 55.515625 
z
" id="DejaVuSans-114"/>
      <path d="M 56.203125 29.59375 
L 56.203125 25.203125 
L 14.890625 25.203125 
Q 15.484375 15.921875 20.484375 11.0625 
Q 25.484375 6.203125 34.421875 6.203125 
Q 39.59375 6.203125 44.453125 7.46875 
Q 49.3125 8.734375 54.109375 11.28125 
L 54.109375 2.78125 
Q 49.265625 0.734375 44.1875 -0.34375 
Q 39.109375 -1.421875 33.890625 -1.421875 
Q 20.796875 -1.421875 13.15625 6.1875 
Q 5.515625 13.8125 5.515625 26.8125 
Q 5.515625 40.234375 12.765625 48.109375 
Q 20.015625 56 32.328125 56 
Q 43.359375 56 49.78125 48.890625 
Q 56.203125 41.796875 56.203125 29.59375 
z
M 47.21875 32.234375 
Q 47.125 39.59375 43.09375 43.984375 
Q 39.0625 48.390625 32.421875 48.390625 
Q 24.90625 48.390625 20.390625 44.140625 
Q 15.875 39.890625 15.1875 32.171875 
z
" id="DejaVuSans-101"/>
      <path d="M 14.796875 27.296875 
Q 14.796875 17.390625 18.875 11.75 
Q 22.953125 6.109375 30.078125 6.109375 
Q 37.203125 6.109375 41.296875 11.75 
Q 45.40625 17.390625 45.40625 27.296875 
Q 45.40625 37.203125 41.296875 42.84375 
Q 37.203125 48.484375 30.078125 48.484375 
Q 22.953125 48.484375 18.875 42.84375 
Q 14.796875 37.203125 14.796875 27.296875 
z
M 45.40625 8.203125 
Q 42.578125 3.328125 38.25 0.953125 
Q 33.9375 -1.421875 27.875 -1.421875 
Q 17.96875 -1.421875 11.734375 6.484375 
Q 5.515625 14.40625 5.515625 27.296875 
Q 5.515625 40.1875 11.734375 48.09375 
Q 17.96875 56 27.875 56 
Q 33.9375 56 38.25 53.625 
Q 42.578125 51.265625 45.40625 46.390625 
L 45.40625 54.6875 
L 54.390625 54.6875 
L 54.390625 -20.796875 
L 45.40625 -20.796875 
z
" id="DejaVuSans-113"/>
      <path d="M 8.5 21.578125 
L 8.5 54.6875 
L 17.484375 54.6875 
L 17.484375 21.921875 
Q 17.484375 14.15625 20.5 10.265625 
Q 23.53125 6.390625 29.59375 6.390625 
Q 36.859375 6.390625 41.078125 11.03125 
Q 45.3125 15.671875 45.3125 23.6875 
L 45.3125 54.6875 
L 54.296875 54.6875 
L 54.296875 0 
L 45.3125 0 
L 45.3125 8.40625 
Q 42.046875 3.421875 37.71875 1 
Q 33.40625 -1.421875 27.6875 -1.421875 
Q 18.265625 -1.421875 13.375 4.4375 
Q 8.5 10.296875 8.5 21.578125 
z
M 31.109375 56 
z
" id="DejaVuSans-117"/>
      <path d="M 54.890625 33.015625 
L 54.890625 0 
L 45.90625 0 
L 45.90625 32.71875 
Q 45.90625 40.484375 42.875 44.328125 
Q 39.84375 48.1875 33.796875 48.1875 
Q 26.515625 48.1875 22.3125 43.546875 
Q 18.109375 38.921875 18.109375 30.90625 
L 18.109375 0 
L 9.078125 0 
L 9.078125 54.6875 
L 18.109375 54.6875 
L 18.109375 46.1875 
Q 21.34375 51.125 25.703125 53.5625 
Q 30.078125 56 35.796875 56 
Q 45.21875 56 50.046875 50.171875 
Q 54.890625 44.34375 54.890625 33.015625 
z
" id="DejaVuSans-110"/>
      <path d="M 48.78125 52.59375 
L 48.78125 44.1875 
Q 44.96875 46.296875 41.140625 47.34375 
Q 37.3125 48.390625 33.40625 48.390625 
Q 24.65625 48.390625 19.8125 42.84375 
Q 14.984375 37.3125 14.984375 27.296875 
Q 14.984375 17.28125 19.8125 11.734375 
Q 24.65625 6.203125 33.40625 6.203125 
Q 37.3125 6.203125 41.140625 7.25 
Q 44.96875 8.296875 48.78125 10.40625 
L 48.78125 2.09375 
Q 45.015625 0.34375 40.984375 -0.53125 
Q 36.96875 -1.421875 32.421875 -1.421875 
Q 20.0625 -1.421875 12.78125 6.34375 
Q 5.515625 14.109375 5.515625 27.296875 
Q 5.515625 40.671875 12.859375 48.328125 
Q 20.21875 56 33.015625 56 
Q 37.15625 56 41.109375 55.140625 
Q 45.0625 54.296875 48.78125 52.59375 
z
" id="DejaVuSans-99"/>
      <path d="M 32.171875 -5.078125 
Q 28.375 -14.84375 24.75 -17.8125 
Q 21.140625 -20.796875 15.09375 -20.796875 
L 7.90625 -20.796875 
L 7.90625 -13.28125 
L 13.1875 -13.28125 
Q 16.890625 -13.28125 18.9375 -11.515625 
Q 21 -9.765625 23.484375 -3.21875 
L 25.09375 0.875 
L 2.984375 54.6875 
L 12.5 54.6875 
L 29.59375 11.921875 
L 46.6875 54.6875 
L 56.203125 54.6875 
z
" id="DejaVuSans-121"/>
     </defs>
     <g transform="translate(156.886875 263.327187)scale(0.14 -0.14)">
      <use xlink:href="#DejaVuSans-102"/>
      <use x="35.205078" xlink:href="#DejaVuSans-114"/>
      <use x="76.287109" xlink:href="#DejaVuSans-101"/>
      <use x="137.810547" xlink:href="#DejaVuSans-113"/>
      <use x="201.287109" xlink:href="#DejaVuSans-117"/>
      <use x="264.666016" xlink:href="#DejaVuSans-101"/>
      <use x="326.189453" xlink:href="#DejaVuSans-110"/>
      <use x="389.568359" xlink:href="#DejaVuSans-99"/>
      <use x="444.548828" xlink:href="#DejaVuSans-121"/>
     </g>
    </g>
   </g>
   <g id="matplotlib.axis_2">
    <g id="ytick_1"/>
    <g id="ytick_2"/>
    <g id="ytick_3"/>
    <g id="ytick_4"/>
    <g id="ytick_5"/>
    <g id="text_4">
     <!-- amplitude -->
     <defs>
      <path d="M 34.28125 27.484375 
Q 23.390625 27.484375 19.1875 25 
Q 14.984375 22.515625 14.984375 16.5 
Q 14.984375 11.71875 18.140625 8.90625 
Q 21.296875 6.109375 26.703125 6.109375 
Q 34.1875 6.109375 38.703125 11.40625 
Q 43.21875 16.703125 43.21875 25.484375 
L 43.21875 27.484375 
z
M 52.203125 31.203125 
L 52.203125 0 
L 43.21875 0 
L 43.21875 8.296875 
Q 40.140625 3.328125 35.546875 0.953125 
Q 30.953125 -1.421875 24.3125 -1.421875 
Q 15.921875 -1.421875 10.953125 3.296875 
Q 6 8.015625 6 15.921875 
Q 6 25.140625 12.171875 29.828125 
Q 18.359375 34.515625 30.609375 34.515625 
L 43.21875 34.515625 
L 43.21875 35.40625 
Q 43.21875 41.609375 39.140625 45 
Q 35.0625 48.390625 27.6875 48.390625 
Q 23 48.390625 18.546875 47.265625 
Q 14.109375 46.140625 10.015625 43.890625 
L 10.015625 52.203125 
Q 14.9375 54.109375 19.578125 55.046875 
Q 24.21875 56 28.609375 56 
Q 40.484375 56 46.34375 49.84375 
Q 52.203125 43.703125 52.203125 31.203125 
z
" id="DejaVuSans-97"/>
      <path d="M 52 44.1875 
Q 55.375 50.25 60.0625 53.125 
Q 64.75 56 71.09375 56 
Q 79.640625 56 84.28125 50.015625 
Q 88.921875 44.046875 88.921875 33.015625 
L 88.921875 0 
L 79.890625 0 
L 79.890625 32.71875 
Q 79.890625 40.578125 77.09375 44.375 
Q 74.3125 48.1875 68.609375 48.1875 
Q 61.625 48.1875 57.5625 43.546875 
Q 53.515625 38.921875 53.515625 30.90625 
L 53.515625 0 
L 44.484375 0 
L 44.484375 32.71875 
Q 44.484375 40.625 41.703125 44.40625 
Q 38.921875 48.1875 33.109375 48.1875 
Q 26.21875 48.1875 22.15625 43.53125 
Q 18.109375 38.875 18.109375 30.90625 
L 18.109375 0 
L 9.078125 0 
L 9.078125 54.6875 
L 18.109375 54.6875 
L 18.109375 46.1875 
Q 21.1875 51.21875 25.484375 53.609375 
Q 29.78125 56 35.6875 56 
Q 41.65625 56 45.828125 52.96875 
Q 50 49.953125 52 44.1875 
z
" id="DejaVuSans-109"/>
      <path d="M 18.109375 8.203125 
L 18.109375 -20.796875 
L 9.078125 -20.796875 
L 9.078125 54.6875 
L 18.109375 54.6875 
L 18.109375 46.390625 
Q 20.953125 51.265625 25.265625 53.625 
Q 29.59375 56 35.59375 56 
Q 45.5625 56 51.78125 48.09375 
Q 58.015625 40.1875 58.015625 27.296875 
Q 58.015625 14.40625 51.78125 6.484375 
Q 45.5625 -1.421875 35.59375 -1.421875 
Q 29.59375 -1.421875 25.265625 0.953125 
Q 20.953125 3.328125 18.109375 8.203125 
z
M 48.6875 27.296875 
Q 48.6875 37.203125 44.609375 42.84375 
Q 40.53125 48.484375 33.40625 48.484375 
Q 26.265625 48.484375 22.1875 42.84375 
Q 18.109375 37.203125 18.109375 27.296875 
Q 18.109375 17.390625 22.1875 11.75 
Q 26.265625 6.109375 33.40625 6.109375 
Q 40.53125 6.109375 44.609375 11.75 
Q 48.6875 17.390625 48.6875 27.296875 
z
" id="DejaVuSans-112"/>
      <path d="M 9.421875 75.984375 
L 18.40625 75.984375 
L 18.40625 0 
L 9.421875 0 
z
" id="DejaVuSans-108"/>
      <path d="M 9.421875 54.6875 
L 18.40625 54.6875 
L 18.40625 0 
L 9.421875 0 
z
M 9.421875 75.984375 
L 18.40625 75.984375 
L 18.40625 64.59375 
L 9.421875 64.59375 
z
" id="DejaVuSans-105"/>
      <path d="M 18.3125 70.21875 
L 18.3125 54.6875 
L 36.8125 54.6875 
L 36.8125 47.703125 
L 18.3125 47.703125 
L 18.3125 18.015625 
Q 18.3125 11.328125 20.140625 9.421875 
Q 21.96875 7.515625 27.59375 7.515625 
L 36.8125 7.515625 
L 36.8125 0 
L 27.59375 0 
Q 17.1875 0 13.234375 3.875 
Q 9.28125 7.765625 9.28125 18.015625 
L 9.28125 47.703125 
L 2.6875 47.703125 
L 2.6875 54.6875 
L 9.28125 54.6875 
L 9.28125 70.21875 
z
" id="DejaVuSans-116"/>
      <path d="M 45.40625 46.390625 
L 45.40625 75.984375 
L 54.390625 75.984375 
L 54.390625 0 
L 45.40625 0 
L 45.40625 8.203125 
Q 42.578125 3.328125 38.25 0.953125 
Q 33.9375 -1.421875 27.875 -1.421875 
Q 17.96875 -1.421875 11.734375 6.484375 
Q 5.515625 14.40625 5.515625 27.296875 
Q 5.515625 40.1875 11.734375 48.09375 
Q 17.96875 56 27.875 56 
Q 33.9375 56 38.25 53.625 
Q 42.578125 51.265625 45.40625 46.390625 
z
M 14.796875 27.296875 
Q 14.796875 17.390625 18.875 11.75 
Q 22.953125 6.109375 30.078125 6.109375 
Q 37.203125 6.109375 41.296875 11.75 
Q 45.40625 17.390625 45.40625 27.296875 
Q 45.40625 37.203125 41.296875 42.84375 
Q 37.203125 48.484375 30.078125 48.484375 
Q 22.953125 48.484375 18.875 42.84375 
Q 14.796875 37.203125 14.796875 27.296875 
z
" id="DejaVuSans-100"/>
     </defs>
     <g transform="translate(17.837813 154.792969)rotate(-90)scale(0.14 -0.14)">
      <use xlink:href="#DejaVuSans-97"/>
      <use x="61.279297" xlink:href="#DejaVuSans-109"/>
      <use x="158.691406" xlink:href="#DejaVuSans-112"/>
      <use x="222.167969" xlink:href="#DejaVuSans-108"/>
      <use x="249.951172" xlink:href="#DejaVuSans-105"/>
      <use x="277.734375" xlink:href="#DejaVuSans-116"/>
      <use x="316.943359" xlink:href="#DejaVuSans-117"/>
      <use x="380.322266" xlink:href="#DejaVuSans-100"/>
      <use x="443.798828" xlink:href="#DejaVuSans-101"/>
     </g>
    </g>
   </g>
   <g id="line2d_3">
    <path clip-path="url(#p34d85953ee)" d="M 39.967557 218.226344 
L 43.041937 218.217256 
L 46.116317 218.207077 
L 49.190697 218.195621 
L 52.265077 218.182662 
L 55.339458 218.167917 
L 58.413838 218.151035 
L 61.488218 218.131576 
L 64.562598 218.108976 
L 67.636978 218.082507 
L 70.711358 218.05122 
L 73.785739 218.013851 
L 76.860119 217.968691 
L 79.934499 217.913386 
L 83.008879 217.844616 
L 86.083259 217.757581 
L 89.157639 217.64513 
L 92.23202 217.496236 
L 95.3064 217.293174 
L 98.38078 217.005979 
L 101.45516 216.58075 
L 104.52954 215.912532 
L 107.60392 214.774535 
L 110.678301 212.601232 
L 113.752681 207.654075 
L 116.827061 192.500082 
L 119.901441 116.399688 
L 122.975821 76.137641 
L 126.050201 185.418066 
L 129.124582 205.790963 
L 132.198962 211.872146 
L 135.273342 214.411012 
L 138.347722 215.697641 
L 141.422102 216.435377 
L 144.496482 216.895826 
L 147.570863 217.201369 
L 150.645243 217.413604 
L 153.719623 217.566229 
L 156.794003 217.678908 
L 159.868383 217.763719 
L 162.942763 217.828392 
L 166.017144 217.878036 
L 169.091524 217.916116 
L 172.165904 217.945016 
L 175.240284 217.966391 
L 178.314664 217.981378 
L 181.389044 217.990728 
L 184.463425 217.994894 
L 187.537805 217.994072 
L 190.612185 217.988222 
L 193.686565 217.977068 
L 196.760945 217.960065 
L 199.835325 217.936345 
L 202.909706 217.904618 
L 205.984086 217.863016 
L 209.058466 217.808844 
L 212.132846 217.73817 
L 215.207226 217.645152 
L 218.281606 217.520865 
L 221.355987 217.351184 
L 224.430367 217.112752 
L 227.504747 216.764744 
L 230.579127 216.230627 
L 233.653507 215.353246 
L 236.727887 213.7677 
L 239.802268 210.465248 
L 242.876648 201.809265 
L 245.951028 167.71997 
L 249.025408 20.583636 
L 252.099788 157.701761 
L 255.174168 199.824544 
L 258.248549 209.82636 
L 261.322929 213.500224 
L 264.397309 215.227036 
L 267.471689 216.17094 
L 270.546069 216.741836 
L 273.620449 217.113064 
L 276.69483 217.367943 
L 279.76921 217.550504 
L 282.84359 217.685771 
L 285.91797 217.788814 
L 288.99235 217.869146 
L 292.06673 217.93301 
L 295.141111 217.984642 
L 298.215491 218.026998 
L 301.289871 218.062188 
L 304.364251 218.091757 
L 307.438631 218.116851 
L 310.513011 218.138339 
L 313.587392 218.156889 
L 316.661772 218.173019 
L 319.736152 218.187137 
L 322.810532 218.19957 
L 325.884912 218.21058 
L 328.959292 218.220379 
L 332.033673 218.229141 
L 335.108053 218.237011 
L 338.182433 218.244107 
L 341.256813 218.25053 
L 344.331193 218.256364 
" style="fill:none;"/>
    <defs>
     <path d="M 0 2 
C 0.530406 2 1.03916 1.789267 1.414214 1.414214 
C 1.789267 1.03916 2 0.530406 2 0 
C 2 -0.530406 1.789267 -1.03916 1.414214 -1.414214 
C 1.03916 -1.789267 0.530406 -2 0 -2 
C -0.530406 -2 -1.03916 -1.789267 -1.414214 -1.414214 
C -1.789267 -1.03916 -2 -0.530406 -2 0 
C -2 0.530406 -1.789267 1.03916 -1.414214 1.414214 
C -1.03916 1.789267 -0.530406 2 0 2 
z
" id="m6c14288adb" style="stroke:#1f77b4;"/>
    </defs>
    <g clip-path="url(#p34d85953ee)">
     <use style="fill:#1f77b4;stroke:#1f77b4;" x="39.967557" xlink:href="#m6c14288adb" y="218.226344"/>
     <use style="fill:#1f77b4;stroke:#1f77b4;" x="43.041937" xlink:href="#m6c14288adb" y="218.217256"/>
     <use style="fill:#1f77b4;stroke:#1f77b4;" x="46.116317" xlink:href="#m6c14288adb" y="218.207077"/>
     <use style="fill:#1f77b4;stroke:#1f77b4;" x="49.190697" xlink:href="#m6c14288adb" y="218.195621"/>
     <use style="fill:#1f77b4;stroke:#1f77b4;" x="52.265077" xlink:href="#m6c14288adb" y="218.182662"/>
     <use style="fill:#1f77b4;stroke:#1f77b4;" x="55.339458" xlink:href="#m6c14288adb" y="218.167917"/>
     <use style="fill:#1f77b4;stroke:#1f77b4;" x="58.413838" xlink:href="#m6c14288adb" y="218.151035"/>
     <use style="fill:#1f77b4;stroke:#1f77b4;" x="61.488218" xlink:href="#m6c14288adb" y="218.131576"/>
     <use style="fill:#1f77b4;stroke:#1f77b4;" x="64.562598" xlink:href="#m6c14288adb" y="218.108976"/>
     <use style="fill:#1f77b4;stroke:#1f77b4;" x="67.636978" xlink:href="#m6c14288adb" y="218.082507"/>
     <use style="fill:#1f77b4;stroke:#1f77b4;" x="70.711358" xlink:href="#m6c14288adb" y="218.05122"/>
     <use style="fill:#1f77b4;stroke:#1f77b4;" x="73.785739" xlink:href="#m6c14288adb" y="218.013851"/>
     <use style="fill:#1f77b4;stroke:#1f77b4;" x="76.860119" xlink:href="#m6c14288adb" y="217.968691"/>
     <use style="fill:#1f77b4;stroke:#1f77b4;" x="79.934499" xlink:href="#m6c14288adb" y="217.913386"/>
     <use style="fill:#1f77b4;stroke:#1f77b4;" x="83.008879" xlink:href="#m6c14288adb" y="217.844616"/>
     <use style="fill:#1f77b4;stroke:#1f77b4;" x="86.083259" xlink:href="#m6c14288adb" y="217.757581"/>
     <use style="fill:#1f77b4;stroke:#1f77b4;" x="89.157639" xlink:href="#m6c14288adb" y="217.64513"/>
     <use style="fill:#1f77b4;stroke:#1f77b4;" x="92.23202" xlink:href="#m6c14288adb" y="217.496236"/>
     <use style="fill:#1f77b4;stroke:#1f77b4;" x="95.3064" xlink:href="#m6c14288adb" y="217.293174"/>
     <use style="fill:#1f77b4;stroke:#1f77b4;" x="98.38078" xlink:href="#m6c14288adb" y="217.005979"/>
     <use style="fill:#1f77b4;stroke:#1f77b4;" x="101.45516" xlink:href="#m6c14288adb" y="216.58075"/>
     <use style="fill:#1f77b4;stroke:#1f77b4;" x="104.52954" xlink:href="#m6c14288adb" y="215.912532"/>
     <use style="fill:#1f77b4;stroke:#1f77b4;" x="107.60392" xlink:href="#m6c14288adb" y="214.774535"/>
     <use style="fill:#1f77b4;stroke:#1f77b4;" x="110.678301" xlink:href="#m6c14288adb" y="212.601232"/>
     <use style="fill:#1f77b4;stroke:#1f77b4;" x="113.752681" xlink:href="#m6c14288adb" y="207.654075"/>
     <use style="fill:#1f77b4;stroke:#1f77b4;" x="116.827061" xlink:href="#m6c14288adb" y="192.500082"/>
     <use style="fill:#1f77b4;stroke:#1f77b4;" x="119.901441" xlink:href="#m6c14288adb" y="116.399688"/>
     <use style="fill:#1f77b4;stroke:#1f77b4;" x="122.975821" xlink:href="#m6c14288adb" y="76.137641"/>
     <use style="fill:#1f77b4;stroke:#1f77b4;" x="126.050201" xlink:href="#m6c14288adb" y="185.418066"/>
     <use style="fill:#1f77b4;stroke:#1f77b4;" x="129.124582" xlink:href="#m6c14288adb" y="205.790963"/>
     <use style="fill:#1f77b4;stroke:#1f77b4;" x="132.198962" xlink:href="#m6c14288adb" y="211.872146"/>
     <use style="fill:#1f77b4;stroke:#1f77b4;" x="135.273342" xlink:href="#m6c14288adb" y="214.411012"/>
     <use style="fill:#1f77b4;stroke:#1f77b4;" x="138.347722" xlink:href="#m6c14288adb" y="215.697641"/>
     <use style="fill:#1f77b4;stroke:#1f77b4;" x="141.422102" xlink:href="#m6c14288adb" y="216.435377"/>
     <use style="fill:#1f77b4;stroke:#1f77b4;" x="144.496482" xlink:href="#m6c14288adb" y="216.895826"/>
     <use style="fill:#1f77b4;stroke:#1f77b4;" x="147.570863" xlink:href="#m6c14288adb" y="217.201369"/>
     <use style="fill:#1f77b4;stroke:#1f77b4;" x="150.645243" xlink:href="#m6c14288adb" y="217.413604"/>
     <use style="fill:#1f77b4;stroke:#1f77b4;" x="153.719623" xlink:href="#m6c14288adb" y="217.566229"/>
     <use style="fill:#1f77b4;stroke:#1f77b4;" x="156.794003" xlink:href="#m6c14288adb" y="217.678908"/>
     <use style="fill:#1f77b4;stroke:#1f77b4;" x="159.868383" xlink:href="#m6c14288adb" y="217.763719"/>
     <use style="fill:#1f77b4;stroke:#1f77b4;" x="162.942763" xlink:href="#m6c14288adb" y="217.828392"/>
     <use style="fill:#1f77b4;stroke:#1f77b4;" x="166.017144" xlink:href="#m6c14288adb" y="217.878036"/>
     <use style="fill:#1f77b4;stroke:#1f77b4;" x="169.091524" xlink:href="#m6c14288adb" y="217.916116"/>
     <use style="fill:#1f77b4;stroke:#1f77b4;" x="172.165904" xlink:href="#m6c14288adb" y="217.945016"/>
     <use style="fill:#1f77b4;stroke:#1f77b4;" x="175.240284" xlink:href="#m6c14288adb" y="217.966391"/>
     <use style="fill:#1f77b4;stroke:#1f77b4;" x="178.314664" xlink:href="#m6c14288adb" y="217.981378"/>
     <use style="fill:#1f77b4;stroke:#1f77b4;" x="181.389044" xlink:href="#m6c14288adb" y="217.990728"/>
     <use style="fill:#1f77b4;stroke:#1f77b4;" x="184.463425" xlink:href="#m6c14288adb" y="217.994894"/>
     <use style="fill:#1f77b4;stroke:#1f77b4;" x="187.537805" xlink:href="#m6c14288adb" y="217.994072"/>
     <use style="fill:#1f77b4;stroke:#1f77b4;" x="190.612185" xlink:href="#m6c14288adb" y="217.988222"/>
     <use style="fill:#1f77b4;stroke:#1f77b4;" x="193.686565" xlink:href="#m6c14288adb" y="217.977068"/>
     <use style="fill:#1f77b4;stroke:#1f77b4;" x="196.760945" xlink:href="#m6c14288adb" y="217.960065"/>
     <use style="fill:#1f77b4;stroke:#1f77b4;" x="199.835325" xlink:href="#m6c14288adb" y="217.936345"/>
     <use style="fill:#1f77b4;stroke:#1f77b4;" x="202.909706" xlink:href="#m6c14288adb" y="217.904618"/>
     <use style="fill:#1f77b4;stroke:#1f77b4;" x="205.984086" xlink:href="#m6c14288adb" y="217.863016"/>
     <use style="fill:#1f77b4;stroke:#1f77b4;" x="209.058466" xlink:href="#m6c14288adb" y="217.808844"/>
     <use style="fill:#1f77b4;stroke:#1f77b4;" x="212.132846" xlink:href="#m6c14288adb" y="217.73817"/>
     <use style="fill:#1f77b4;stroke:#1f77b4;" x="215.207226" xlink:href="#m6c14288adb" y="217.645152"/>
     <use style="fill:#1f77b4;stroke:#1f77b4;" x="218.281606" xlink:href="#m6c14288adb" y="217.520865"/>
     <use style="fill:#1f77b4;stroke:#1f77b4;" x="221.355987" xlink:href="#m6c14288adb" y="217.351184"/>
     <use style="fill:#1f77b4;stroke:#1f77b4;" x="224.430367" xlink:href="#m6c14288adb" y="217.112752"/>
     <use style="fill:#1f77b4;stroke:#1f77b4;" x="227.504747" xlink:href="#m6c14288adb" y="216.764744"/>
     <use style="fill:#1f77b4;stroke:#1f77b4;" x="230.579127" xlink:href="#m6c14288adb" y="216.230627"/>
     <use style="fill:#1f77b4;stroke:#1f77b4;" x="233.653507" xlink:href="#m6c14288adb" y="215.353246"/>
     <use style="fill:#1f77b4;stroke:#1f77b4;" x="236.727887" xlink:href="#m6c14288adb" y="213.7677"/>
     <use style="fill:#1f77b4;stroke:#1f77b4;" x="239.802268" xlink:href="#m6c14288adb" y="210.465248"/>
     <use style="fill:#1f77b4;stroke:#1f77b4;" x="242.876648" xlink:href="#m6c14288adb" y="201.809265"/>
     <use style="fill:#1f77b4;stroke:#1f77b4;" x="245.951028" xlink:href="#m6c14288adb" y="167.71997"/>
     <use style="fill:#1f77b4;stroke:#1f77b4;" x="249.025408" xlink:href="#m6c14288adb" y="20.583636"/>
     <use style="fill:#1f77b4;stroke:#1f77b4;" x="252.099788" xlink:href="#m6c14288adb" y="157.701761"/>
     <use style="fill:#1f77b4;stroke:#1f77b4;" x="255.174168" xlink:href="#m6c14288adb" y="199.824544"/>
     <use style="fill:#1f77b4;stroke:#1f77b4;" x="258.248549" xlink:href="#m6c14288adb" y="209.82636"/>
     <use style="fill:#1f77b4;stroke:#1f77b4;" x="261.322929" xlink:href="#m6c14288adb" y="213.500224"/>
     <use style="fill:#1f77b4;stroke:#1f77b4;" x="264.397309" xlink:href="#m6c14288adb" y="215.227036"/>
     <use style="fill:#1f77b4;stroke:#1f77b4;" x="267.471689" xlink:href="#m6c14288adb" y="216.17094"/>
     <use style="fill:#1f77b4;stroke:#1f77b4;" x="270.546069" xlink:href="#m6c14288adb" y="216.741836"/>
     <use style="fill:#1f77b4;stroke:#1f77b4;" x="273.620449" xlink:href="#m6c14288adb" y="217.113064"/>
     <use style="fill:#1f77b4;stroke:#1f77b4;" x="276.69483" xlink:href="#m6c14288adb" y="217.367943"/>
     <use style="fill:#1f77b4;stroke:#1f77b4;" x="279.76921" xlink:href="#m6c14288adb" y="217.550504"/>
     <use style="fill:#1f77b4;stroke:#1f77b4;" x="282.84359" xlink:href="#m6c14288adb" y="217.685771"/>
     <use style="fill:#1f77b4;stroke:#1f77b4;" x="285.91797" xlink:href="#m6c14288adb" y="217.788814"/>
     <use style="fill:#1f77b4;stroke:#1f77b4;" x="288.99235" xlink:href="#m6c14288adb" y="217.869146"/>
     <use style="fill:#1f77b4;stroke:#1f77b4;" x="292.06673" xlink:href="#m6c14288adb" y="217.93301"/>
     <use style="fill:#1f77b4;stroke:#1f77b4;" x="295.141111" xlink:href="#m6c14288adb" y="217.984642"/>
     <use style="fill:#1f77b4;stroke:#1f77b4;" x="298.215491" xlink:href="#m6c14288adb" y="218.026998"/>
     <use style="fill:#1f77b4;stroke:#1f77b4;" x="301.289871" xlink:href="#m6c14288adb" y="218.062188"/>
     <use style="fill:#1f77b4;stroke:#1f77b4;" x="304.364251" xlink:href="#m6c14288adb" y="218.091757"/>
     <use style="fill:#1f77b4;stroke:#1f77b4;" x="307.438631" xlink:href="#m6c14288adb" y="218.116851"/>
     <use style="fill:#1f77b4;stroke:#1f77b4;" x="310.513011" xlink:href="#m6c14288adb" y="218.138339"/>
     <use style="fill:#1f77b4;stroke:#1f77b4;" x="313.587392" xlink:href="#m6c14288adb" y="218.156889"/>
     <use style="fill:#1f77b4;stroke:#1f77b4;" x="316.661772" xlink:href="#m6c14288adb" y="218.173019"/>
     <use style="fill:#1f77b4;stroke:#1f77b4;" x="319.736152" xlink:href="#m6c14288adb" y="218.187137"/>
     <use style="fill:#1f77b4;stroke:#1f77b4;" x="322.810532" xlink:href="#m6c14288adb" y="218.19957"/>
     <use style="fill:#1f77b4;stroke:#1f77b4;" x="325.884912" xlink:href="#m6c14288adb" y="218.21058"/>
     <use style="fill:#1f77b4;stroke:#1f77b4;" x="328.959292" xlink:href="#m6c14288adb" y="218.220379"/>
     <use style="fill:#1f77b4;stroke:#1f77b4;" x="332.033673" xlink:href="#m6c14288adb" y="218.229141"/>
     <use style="fill:#1f77b4;stroke:#1f77b4;" x="335.108053" xlink:href="#m6c14288adb" y="218.237011"/>
     <use style="fill:#1f77b4;stroke:#1f77b4;" x="338.182433" xlink:href="#m6c14288adb" y="218.244107"/>
     <use style="fill:#1f77b4;stroke:#1f77b4;" x="341.256813" xlink:href="#m6c14288adb" y="218.25053"/>
     <use style="fill:#1f77b4;stroke:#1f77b4;" x="344.331193" xlink:href="#m6c14288adb" y="218.256364"/>
    </g>
   </g>
   <g id="patch_3">
    <path d="M 24.749375 228.14 
L 24.749375 10.7 
" style="fill:none;stroke:#000000;stroke-linecap:square;stroke-linejoin:miter;stroke-width:0.8;"/>
   </g>
   <g id="patch_4">
    <path d="M 359.549375 228.14 
L 359.549375 10.7 
" style="fill:none;stroke:#000000;stroke-linecap:square;stroke-linejoin:miter;stroke-width:0.8;"/>
   </g>
   <g id="patch_5">
    <path d="M 24.749375 228.14 
L 359.549375 228.14 
" style="fill:none;stroke:#000000;stroke-linecap:square;stroke-linejoin:miter;stroke-width:0.8;"/>
   </g>
   <g id="patch_6">
    <path d="M 24.749375 10.7 
L 359.549375 10.7 
" style="fill:none;stroke:#000000;stroke-linecap:square;stroke-linejoin:miter;stroke-width:0.8;"/>
   </g>
  </g>
 </g>
 <defs>
  <clipPath id="p34d85953ee">
   <rect height="217.44" width="334.8" x="24.749375" y="10.7"/>
  </clipPath>
 </defs>
</svg>
