<svg height="850" version="1.1" width="1200" xmlns="http://www.w3.org/2000/svg" xmlns:xlink="http://www.w3.org/1999/xlink" style="overflow: hidden; position: relative;"><desc style="-webkit-tap-highlight-color: rgba(0, 0, 0, 0);">Created with Raphal 2.2.0</desc><defs style="-webkit-tap-highlight-color: rgba(0, 0, 0, 0);"></defs><rect x="0" y="0" width="4000" height="4000" rx="0" ry="0" fill="#ffffff" stroke="#ffffff" style="-webkit-tap-highlight-color: rgba(0, 0, 0, 0);"></rect><rect x="0" y="0" width="400" height="400" rx="0" ry="0" fill="#ffffff" stroke="#ffffff" style="-webkit-tap-highlight-color: rgba(0, 0, 0, 0);"></rect><circle cx="20" cy="20" r="4" fill="#000000" stroke="#000000" style="-webkit-tap-highlight-color: rgba(0, 0, 0, 0);"></circle><circle cx="380" cy="20" r="4" fill="#000000" stroke="#000000" style="-webkit-tap-highlight-color: rgba(0, 0, 0, 0);"></circle><circle cx="380" cy="380" r="4" fill="#000000" stroke="#000000" style="-webkit-tap-highlight-color: rgba(0, 0, 0, 0);"></circle><circle cx="20" cy="380" r="4" fill="#000000" stroke="#000000" style="-webkit-tap-highlight-color: rgba(0, 0, 0, 0);"></circle><circle cx="220" cy="100" r="4" fill="#000000" stroke="#000000" style="-webkit-tap-highlight-color: rgba(0, 0, 0, 0);"></circle><circle cx="130" cy="180" r="4" fill="#000000" stroke="#000000" style="-webkit-tap-highlight-color: rgba(0, 0, 0, 0);"></circle><circle cx="100" cy="280" r="4" fill="#000000" stroke="#000000" style="-webkit-tap-highlight-color: rgba(0, 0, 0, 0);"></circle><circle cx="250" cy="260" r="4" fill="#000000" stroke="#000000" style="-webkit-tap-highlight-color: rgba(0, 0, 0, 0);"></circle><circle cx="330" cy="180" r="4" fill="#000000" stroke="#000000" style="-webkit-tap-highlight-color: rgba(0, 0, 0, 0);"></circle><circle cx="180" cy="380" r="4" fill="#000000" stroke="#000000" style="-webkit-tap-highlight-color: rgba(0, 0, 0, 0);"></circle><circle cx="200" cy="200" r="4" fill="#ff0000" stroke="#ff0000" style="-webkit-tap-highlight-color: rgba(0, 0, 0, 0);"></circle><path fill="none" stroke="#000000" d="M20,20L380,20" style="-webkit-tap-highlight-color: rgba(0, 0, 0, 0);"></path><path fill="none" stroke="#000000" d="M20,20L20,380" style="-webkit-tap-highlight-color: rgba(0, 0, 0, 0);"></path><path fill="none" stroke="#000000" d="M20,20L220,100" style="-webkit-tap-highlight-color: rgba(0, 0, 0, 0);"></path><path fill="none" stroke="#000000" d="M20,20L130,180" style="-webkit-tap-highlight-color: rgba(0, 0, 0, 0);"></path><path fill="none" stroke="#000000" d="M20,20L100,280" style="-webkit-tap-highlight-color: rgba(0, 0, 0, 0);"></path><path fill="none" stroke="#000000" d="M380,20L220,100" style="-webkit-tap-highlight-color: rgba(0, 0, 0, 0);"></path><path fill="none" stroke="#000000" d="M380,20L330,180" style="-webkit-tap-highlight-color: rgba(0, 0, 0, 0);"></path><path fill="none" stroke="#000000" d="M380,20L380,380" style="-webkit-tap-highlight-color: rgba(0, 0, 0, 0);"></path><path fill="none" stroke="#000000" d="M380,380L330,180" style="-webkit-tap-highlight-color: rgba(0, 0, 0, 0);"></path><path fill="none" stroke="#000000" d="M380,380L250,260" style="-webkit-tap-highlight-color: rgba(0, 0, 0, 0);"></path><path fill="none" stroke="#000000" d="M380,380L20,380" style="-webkit-tap-highlight-color: rgba(0, 0, 0, 0);"></path><path fill="none" stroke="#000000" d="M20,380L100,280" style="-webkit-tap-highlight-color: rgba(0, 0, 0, 0);"></path><path fill="none" stroke="#000000" d="M220,100L130,180" style="-webkit-tap-highlight-color: rgba(0, 0, 0, 0);"></path><path fill="none" stroke="#000000" d="M220,100L330,180" style="-webkit-tap-highlight-color: rgba(0, 0, 0, 0);"></path><path fill="none" stroke="#000000" d="M220,100L250,260" style="-webkit-tap-highlight-color: rgba(0, 0, 0, 0);"></path><path fill="none" stroke="#000000" d="M130,180L250,260" style="-webkit-tap-highlight-color: rgba(0, 0, 0, 0);"></path><path fill="none" stroke="#000000" d="M130,180L100,280" style="-webkit-tap-highlight-color: rgba(0, 0, 0, 0);"></path><path fill="none" stroke="#000000" d="M100,280L250,260" style="-webkit-tap-highlight-color: rgba(0, 0, 0, 0);"></path><path fill="none" stroke="#000000" d="M100,280L180,380" style="-webkit-tap-highlight-color: rgba(0, 0, 0, 0);"></path><path fill="none" stroke="#000000" d="M250,260L330,180" style="-webkit-tap-highlight-color: rgba(0, 0, 0, 0);"></path><path fill="none" stroke="#000000" d="M250,260L180,380" style="-webkit-tap-highlight-color: rgba(0, 0, 0, 0);"></path><rect x="400" y="0" width="400" height="400" rx="0" ry="0" fill="#ffffff" stroke="#ffffff" style="-webkit-tap-highlight-color: rgba(0, 0, 0, 0);"></rect><path fill="#888888" stroke="#888888" d="M620,100L530,180L650,260Z" style="-webkit-tap-highlight-color: rgba(0, 0, 0, 0);"></path><circle cx="420" cy="20" r="4" fill="#000000" stroke="#000000" style="-webkit-tap-highlight-color: rgba(0, 0, 0, 0);"></circle><circle cx="780" cy="20" r="4" fill="#000000" stroke="#000000" style="-webkit-tap-highlight-color: rgba(0, 0, 0, 0);"></circle><circle cx="780" cy="380" r="4" fill="#000000" stroke="#000000" style="-webkit-tap-highlight-color: rgba(0, 0, 0, 0);"></circle><circle cx="420" cy="380" r="4" fill="#000000" stroke="#000000" style="-webkit-tap-highlight-color: rgba(0, 0, 0, 0);"></circle><circle cx="620" cy="100" r="4" fill="#000000" stroke="#000000" style="-webkit-tap-highlight-color: rgba(0, 0, 0, 0);"></circle><circle cx="530" cy="180" r="4" fill="#000000" stroke="#000000" style="-webkit-tap-highlight-color: rgba(0, 0, 0, 0);"></circle><circle cx="500" cy="280" r="4" fill="#000000" stroke="#000000" style="-webkit-tap-highlight-color: rgba(0, 0, 0, 0);"></circle><circle cx="650" cy="260" r="4" fill="#000000" stroke="#000000" style="-webkit-tap-highlight-color: rgba(0, 0, 0, 0);"></circle><circle cx="730" cy="180" r="4" fill="#000000" stroke="#000000" style="-webkit-tap-highlight-color: rgba(0, 0, 0, 0);"></circle><circle cx="580" cy="380" r="4" fill="#000000" stroke="#000000" style="-webkit-tap-highlight-color: rgba(0, 0, 0, 0);"></circle><circle cx="600" cy="200" r="4" fill="#ff0000" stroke="#ff0000" style="-webkit-tap-highlight-color: rgba(0, 0, 0, 0);"></circle><path fill="none" stroke="#000000" d="M420,20L780,20" style="-webkit-tap-highlight-color: rgba(0, 0, 0, 0);"></path><path fill="none" stroke="#000000" d="M420,20L420,380" style="-webkit-tap-highlight-color: rgba(0, 0, 0, 0);"></path><path fill="none" stroke="#000000" d="M420,20L620,100" style="-webkit-tap-highlight-color: rgba(0, 0, 0, 0);"></path><path fill="none" stroke="#000000" d="M420,20L530,180" style="-webkit-tap-highlight-color: rgba(0, 0, 0, 0);"></path><path fill="none" stroke="#000000" d="M420,20L500,280" style="-webkit-tap-highlight-color: rgba(0, 0, 0, 0);"></path><path fill="none" stroke="#000000" d="M780,20L620,100" style="-webkit-tap-highlight-color: rgba(0, 0, 0, 0);"></path><path fill="none" stroke="#000000" d="M780,20L730,180" style="-webkit-tap-highlight-color: rgba(0, 0, 0, 0);"></path><path fill="none" stroke="#000000" d="M780,20L780,380" style="-webkit-tap-highlight-color: rgba(0, 0, 0, 0);"></path><path fill="none" stroke="#000000" d="M780,380L730,180" style="-webkit-tap-highlight-color: rgba(0, 0, 0, 0);"></path><path fill="none" stroke="#000000" d="M780,380L650,260" style="-webkit-tap-highlight-color: rgba(0, 0, 0, 0);"></path><path fill="none" stroke="#000000" d="M780,380L420,380" style="-webkit-tap-highlight-color: rgba(0, 0, 0, 0);"></path><path fill="none" stroke="#000000" d="M420,380L500,280" style="-webkit-tap-highlight-color: rgba(0, 0, 0, 0);"></path><path fill="none" stroke="#000000" d="M620,100L530,180" style="-webkit-tap-highlight-color: rgba(0, 0, 0, 0);"></path><path fill="none" stroke="#000000" d="M620,100L730,180" style="-webkit-tap-highlight-color: rgba(0, 0, 0, 0);"></path><path fill="none" stroke="#000000" d="M620,100L650,260" style="-webkit-tap-highlight-color: rgba(0, 0, 0, 0);"></path><path fill="none" stroke="#000000" d="M530,180L650,260" style="-webkit-tap-highlight-color: rgba(0, 0, 0, 0);"></path><path fill="none" stroke="#000000" d="M530,180L500,280" style="-webkit-tap-highlight-color: rgba(0, 0, 0, 0);"></path><path fill="none" stroke="#000000" d="M500,280L650,260" style="-webkit-tap-highlight-color: rgba(0, 0, 0, 0);"></path><path fill="none" stroke="#000000" d="M500,280L580,380" style="-webkit-tap-highlight-color: rgba(0, 0, 0, 0);"></path><path fill="none" stroke="#000000" d="M650,260L730,180" style="-webkit-tap-highlight-color: rgba(0, 0, 0, 0);"></path><path fill="none" stroke="#000000" d="M650,260L580,380" style="-webkit-tap-highlight-color: rgba(0, 0, 0, 0);"></path><circle cx="614.047619047619" cy="183.92857142857142" r="84.13938400679605" fill="none" stroke="#000000" stroke-dasharray="8,3" style="-webkit-tap-highlight-color: rgba(0, 0, 0, 0);"></circle><rect x="800" y="0" width="400" height="400" rx="0" ry="0" fill="#ffffff" stroke="#ffffff" style="-webkit-tap-highlight-color: rgba(0, 0, 0, 0);"></rect><path fill="#888888" stroke="#888888" d="M930,180L900,280L1050,260Z" style="-webkit-tap-highlight-color: rgba(0, 0, 0, 0);"></path><path fill="#dddddd" stroke="#dddddd" d="M1020,100L930,180L1050,260Z" style="-webkit-tap-highlight-color: rgba(0, 0, 0, 0);"></path><circle cx="820" cy="20" r="4" fill="#000000" stroke="#000000" style="-webkit-tap-highlight-color: rgba(0, 0, 0, 0);"></circle><circle cx="1180" cy="20" r="4" fill="#000000" stroke="#000000" style="-webkit-tap-highlight-color: rgba(0, 0, 0, 0);"></circle><circle cx="1180" cy="380" r="4" fill="#000000" stroke="#000000" style="-webkit-tap-highlight-color: rgba(0, 0, 0, 0);"></circle><circle cx="820" cy="380" r="4" fill="#000000" stroke="#000000" style="-webkit-tap-highlight-color: rgba(0, 0, 0, 0);"></circle><circle cx="1020" cy="100" r="4" fill="#000000" stroke="#000000" style="-webkit-tap-highlight-color: rgba(0, 0, 0, 0);"></circle><circle cx="930" cy="180" r="4" fill="#000000" stroke="#000000" style="-webkit-tap-highlight-color: rgba(0, 0, 0, 0);"></circle><circle cx="900" cy="280" r="4" fill="#000000" stroke="#000000" style="-webkit-tap-highlight-color: rgba(0, 0, 0, 0);"></circle><circle cx="1050" cy="260" r="4" fill="#000000" stroke="#000000" style="-webkit-tap-highlight-color: rgba(0, 0, 0, 0);"></circle><circle cx="1130" cy="180" r="4" fill="#000000" stroke="#000000" style="-webkit-tap-highlight-color: rgba(0, 0, 0, 0);"></circle><circle cx="980" cy="380" r="4" fill="#000000" stroke="#000000" style="-webkit-tap-highlight-color: rgba(0, 0, 0, 0);"></circle><circle cx="1000" cy="200" r="4" fill="#ff0000" stroke="#ff0000" style="-webkit-tap-highlight-color: rgba(0, 0, 0, 0);"></circle><path fill="none" stroke="#000000" d="M820,20L1180,20" style="-webkit-tap-highlight-color: rgba(0, 0, 0, 0);"></path><path fill="none" stroke="#000000" d="M820,20L820,380" style="-webkit-tap-highlight-color: rgba(0, 0, 0, 0);"></path><path fill="none" stroke="#000000" d="M820,20L1020,100" style="-webkit-tap-highlight-color: rgba(0, 0, 0, 0);"></path><path fill="none" stroke="#000000" d="M820,20L930,180" style="-webkit-tap-highlight-color: rgba(0, 0, 0, 0);"></path><path fill="none" stroke="#000000" d="M820,20L900,280" style="-webkit-tap-highlight-color: rgba(0, 0, 0, 0);"></path><path fill="none" stroke="#000000" d="M1180,20L1020,100" style="-webkit-tap-highlight-color: rgba(0, 0, 0, 0);"></path><path fill="none" stroke="#000000" d="M1180,20L1130,180" style="-webkit-tap-highlight-color: rgba(0, 0, 0, 0);"></path><path fill="none" stroke="#000000" d="M1180,20L1180,380" style="-webkit-tap-highlight-color: rgba(0, 0, 0, 0);"></path><path fill="none" stroke="#000000" d="M1180,380L1130,180" style="-webkit-tap-highlight-color: rgba(0, 0, 0, 0);"></path><path fill="none" stroke="#000000" d="M1180,380L1050,260" style="-webkit-tap-highlight-color: rgba(0, 0, 0, 0);"></path><path fill="none" stroke="#000000" d="M1180,380L820,380" style="-webkit-tap-highlight-color: rgba(0, 0, 0, 0);"></path><path fill="none" stroke="#000000" d="M820,380L900,280" style="-webkit-tap-highlight-color: rgba(0, 0, 0, 0);"></path><path fill="none" stroke="#000000" d="M1020,100L930,180" style="-webkit-tap-highlight-color: rgba(0, 0, 0, 0);"></path><path fill="none" stroke="#000000" d="M1020,100L1130,180" style="-webkit-tap-highlight-color: rgba(0, 0, 0, 0);"></path><path fill="none" stroke="#000000" d="M1020,100L1050,260" style="-webkit-tap-highlight-color: rgba(0, 0, 0, 0);"></path><path fill="none" stroke="#000000" d="M930,180L1050,260" style="-webkit-tap-highlight-color: rgba(0, 0, 0, 0);"></path><path fill="none" stroke="#000000" d="M930,180L900,280" style="-webkit-tap-highlight-color: rgba(0, 0, 0, 0);"></path><path fill="none" stroke="#000000" d="M900,280L1050,260" style="-webkit-tap-highlight-color: rgba(0, 0, 0, 0);"></path><path fill="none" stroke="#000000" d="M900,280L980,380" style="-webkit-tap-highlight-color: rgba(0, 0, 0, 0);"></path><path fill="none" stroke="#000000" d="M1050,260L1130,180" style="-webkit-tap-highlight-color: rgba(0, 0, 0, 0);"></path><path fill="none" stroke="#000000" d="M1050,260L980,380" style="-webkit-tap-highlight-color: rgba(0, 0, 0, 0);"></path><circle cx="971.9444444444445" cy="247.08333333333334" r="79.11706535801363" fill="none" stroke="#000000" stroke-dasharray="8,3" style="-webkit-tap-highlight-color: rgba(0, 0, 0, 0);"></circle><rect x="0" y="450" width="400" height="400" rx="0" ry="0" fill="#ffffff" stroke="#ffffff" style="-webkit-tap-highlight-color: rgba(0, 0, 0, 0);"></rect><path fill="#888888" stroke="#888888" d="M220,550L250,710L330,630Z" style="-webkit-tap-highlight-color: rgba(0, 0, 0, 0);"></path><path fill="#dddddd" stroke="#dddddd" d="M220,550L130,630L250,710Z" style="-webkit-tap-highlight-color: rgba(0, 0, 0, 0);"></path><path fill="#dddddd" stroke="#dddddd" d="M130,630L100,730L250,710Z" style="-webkit-tap-highlight-color: rgba(0, 0, 0, 0);"></path><circle cx="20" cy="470" r="4" fill="#000000" stroke="#000000" style="-webkit-tap-highlight-color: rgba(0, 0, 0, 0);"></circle><circle cx="380" cy="470" r="4" fill="#000000" stroke="#000000" style="-webkit-tap-highlight-color: rgba(0, 0, 0, 0);"></circle><circle cx="380" cy="830" r="4" fill="#000000" stroke="#000000" style="-webkit-tap-highlight-color: rgba(0, 0, 0, 0);"></circle><circle cx="20" cy="830" r="4" fill="#000000" stroke="#000000" style="-webkit-tap-highlight-color: rgba(0, 0, 0, 0);"></circle><circle cx="220" cy="550" r="4" fill="#000000" stroke="#000000" style="-webkit-tap-highlight-color: rgba(0, 0, 0, 0);"></circle><circle cx="130" cy="630" r="4" fill="#000000" stroke="#000000" style="-webkit-tap-highlight-color: rgba(0, 0, 0, 0);"></circle><circle cx="100" cy="730" r="4" fill="#000000" stroke="#000000" style="-webkit-tap-highlight-color: rgba(0, 0, 0, 0);"></circle><circle cx="250" cy="710" r="4" fill="#000000" stroke="#000000" style="-webkit-tap-highlight-color: rgba(0, 0, 0, 0);"></circle><circle cx="330" cy="630" r="4" fill="#000000" stroke="#000000" style="-webkit-tap-highlight-color: rgba(0, 0, 0, 0);"></circle><circle cx="180" cy="830" r="4" fill="#000000" stroke="#000000" style="-webkit-tap-highlight-color: rgba(0, 0, 0, 0);"></circle><circle cx="200" cy="650" r="4" fill="#ff0000" stroke="#ff0000" style="-webkit-tap-highlight-color: rgba(0, 0, 0, 0);"></circle><path fill="none" stroke="#000000" d="M20,470L380,470" style="-webkit-tap-highlight-color: rgba(0, 0, 0, 0);"></path><path fill="none" stroke="#000000" d="M20,470L20,830" style="-webkit-tap-highlight-color: rgba(0, 0, 0, 0);"></path><path fill="none" stroke="#000000" d="M20,470L220,550" style="-webkit-tap-highlight-color: rgba(0, 0, 0, 0);"></path><path fill="none" stroke="#000000" d="M20,470L130,630" style="-webkit-tap-highlight-color: rgba(0, 0, 0, 0);"></path><path fill="none" stroke="#000000" d="M20,470L100,730" style="-webkit-tap-highlight-color: rgba(0, 0, 0, 0);"></path><path fill="none" stroke="#000000" d="M380,470L220,550" style="-webkit-tap-highlight-color: rgba(0, 0, 0, 0);"></path><path fill="none" stroke="#000000" d="M380,470L330,630" style="-webkit-tap-highlight-color: rgba(0, 0, 0, 0);"></path><path fill="none" stroke="#000000" d="M380,470L380,830" style="-webkit-tap-highlight-color: rgba(0, 0, 0, 0);"></path><path fill="none" stroke="#000000" d="M380,830L330,630" style="-webkit-tap-highlight-color: rgba(0, 0, 0, 0);"></path><path fill="none" stroke="#000000" d="M380,830L250,710" style="-webkit-tap-highlight-color: rgba(0, 0, 0, 0);"></path><path fill="none" stroke="#000000" d="M380,830L20,830" style="-webkit-tap-highlight-color: rgba(0, 0, 0, 0);"></path><path fill="none" stroke="#000000" d="M20,830L100,730" style="-webkit-tap-highlight-color: rgba(0, 0, 0, 0);"></path><path fill="none" stroke="#000000" d="M220,550L130,630" style="-webkit-tap-highlight-color: rgba(0, 0, 0, 0);"></path><path fill="none" stroke="#000000" d="M220,550L330,630" style="-webkit-tap-highlight-color: rgba(0, 0, 0, 0);"></path><path fill="none" stroke="#000000" d="M220,550L250,710" style="-webkit-tap-highlight-color: rgba(0, 0, 0, 0);"></path><path fill="none" stroke="#000000" d="M130,630L250,710" style="-webkit-tap-highlight-color: rgba(0, 0, 0, 0);"></path><path fill="none" stroke="#000000" d="M130,630L100,730" style="-webkit-tap-highlight-color: rgba(0, 0, 0, 0);"></path><path fill="none" stroke="#000000" d="M100,730L250,710" style="-webkit-tap-highlight-color: rgba(0, 0, 0, 0);"></path><path fill="none" stroke="#000000" d="M100,730L180,830" style="-webkit-tap-highlight-color: rgba(0, 0, 0, 0);"></path><path fill="none" stroke="#000000" d="M250,710L330,630" style="-webkit-tap-highlight-color: rgba(0, 0, 0, 0);"></path><path fill="none" stroke="#000000" d="M250,710L180,830" style="-webkit-tap-highlight-color: rgba(0, 0, 0, 0);"></path><circle cx="247.6315789473684" cy="627.6315789473684" r="82.40246479921673" fill="none" stroke="#000000" stroke-dasharray="8,3" style="-webkit-tap-highlight-color: rgba(0, 0, 0, 0);"></circle><rect x="400" y="450" width="400" height="400" rx="0" ry="0" fill="#ffffff" stroke="#ffffff" style="-webkit-tap-highlight-color: rgba(0, 0, 0, 0);"></rect><circle cx="420" cy="470" r="4" fill="#000000" stroke="#000000" style="-webkit-tap-highlight-color: rgba(0, 0, 0, 0);"></circle><circle cx="780" cy="470" r="4" fill="#000000" stroke="#000000" style="-webkit-tap-highlight-color: rgba(0, 0, 0, 0);"></circle><circle cx="780" cy="830" r="4" fill="#000000" stroke="#000000" style="-webkit-tap-highlight-color: rgba(0, 0, 0, 0);"></circle><circle cx="420" cy="830" r="4" fill="#000000" stroke="#000000" style="-webkit-tap-highlight-color: rgba(0, 0, 0, 0);"></circle><circle cx="620" cy="550" r="4" fill="#000000" stroke="#000000" style="-webkit-tap-highlight-color: rgba(0, 0, 0, 0);"></circle><circle cx="530" cy="630" r="4" fill="#000000" stroke="#000000" style="-webkit-tap-highlight-color: rgba(0, 0, 0, 0);"></circle><circle cx="500" cy="730" r="4" fill="#000000" stroke="#000000" style="-webkit-tap-highlight-color: rgba(0, 0, 0, 0);"></circle><circle cx="650" cy="710" r="4" fill="#000000" stroke="#000000" style="-webkit-tap-highlight-color: rgba(0, 0, 0, 0);"></circle><circle cx="730" cy="630" r="4" fill="#000000" stroke="#000000" style="-webkit-tap-highlight-color: rgba(0, 0, 0, 0);"></circle><circle cx="580" cy="830" r="4" fill="#000000" stroke="#000000" style="-webkit-tap-highlight-color: rgba(0, 0, 0, 0);"></circle><circle cx="600" cy="650" r="4" fill="#ff0000" stroke="#ff0000" style="-webkit-tap-highlight-color: rgba(0, 0, 0, 0);"></circle><path fill="none" stroke="#000000" d="M420,470L780,470" style="-webkit-tap-highlight-color: rgba(0, 0, 0, 0);"></path><path fill="none" stroke="#000000" d="M420,470L420,830" style="-webkit-tap-highlight-color: rgba(0, 0, 0, 0);"></path><path fill="none" stroke="#000000" d="M420,470L620,550" style="-webkit-tap-highlight-color: rgba(0, 0, 0, 0);"></path><path fill="none" stroke="#000000" d="M420,470L530,630" style="-webkit-tap-highlight-color: rgba(0, 0, 0, 0);"></path><path fill="none" stroke="#000000" d="M420,470L500,730" style="-webkit-tap-highlight-color: rgba(0, 0, 0, 0);"></path><path fill="none" stroke="#000000" d="M780,470L620,550" style="-webkit-tap-highlight-color: rgba(0, 0, 0, 0);"></path><path fill="none" stroke="#000000" d="M780,470L730,630" style="-webkit-tap-highlight-color: rgba(0, 0, 0, 0);"></path><path fill="none" stroke="#000000" d="M780,470L780,830" style="-webkit-tap-highlight-color: rgba(0, 0, 0, 0);"></path><path fill="none" stroke="#000000" d="M780,830L730,630" style="-webkit-tap-highlight-color: rgba(0, 0, 0, 0);"></path><path fill="none" stroke="#000000" d="M780,830L650,710" style="-webkit-tap-highlight-color: rgba(0, 0, 0, 0);"></path><path fill="none" stroke="#000000" d="M780,830L420,830" style="-webkit-tap-highlight-color: rgba(0, 0, 0, 0);"></path><path fill="none" stroke="#000000" d="M420,830L500,730" style="-webkit-tap-highlight-color: rgba(0, 0, 0, 0);"></path><path fill="none" stroke="#000000" d="M620,550L530,630" style="-webkit-tap-highlight-color: rgba(0, 0, 0, 0);"></path><path fill="none" stroke="#000000" d="M620,550L730,630" style="-webkit-tap-highlight-color: rgba(0, 0, 0, 0);"></path><path fill="none" stroke="#000000" d="M620,550L650,710" style="-webkit-tap-highlight-color: rgba(0, 0, 0, 0);"></path><path fill="none" stroke="#000000" d="M530,630L650,710" style="-webkit-tap-highlight-color: rgba(0, 0, 0, 0);"></path><path fill="none" stroke="#000000" d="M530,630L500,730" style="-webkit-tap-highlight-color: rgba(0, 0, 0, 0);"></path><path fill="none" stroke="#000000" d="M500,730L650,710" style="-webkit-tap-highlight-color: rgba(0, 0, 0, 0);"></path><path fill="none" stroke="#000000" d="M500,730L580,830" style="-webkit-tap-highlight-color: rgba(0, 0, 0, 0);"></path><path fill="none" stroke="#000000" d="M650,710L730,630" style="-webkit-tap-highlight-color: rgba(0, 0, 0, 0);"></path><path fill="none" stroke="#000000" d="M650,710L580,830" style="-webkit-tap-highlight-color: rgba(0, 0, 0, 0);"></path><path fill="#888888" stroke="#888888" d="M620,550L530,630L650,710Z" style="-webkit-tap-highlight-color: rgba(0, 0, 0, 0);"></path><path fill="#888888" stroke="#888888" d="M620,550L650,710L730,630Z" style="-webkit-tap-highlight-color: rgba(0, 0, 0, 0);"></path><path fill="#888888" stroke="#888888" d="M530,630L500,730L650,710Z" style="-webkit-tap-highlight-color: rgba(0, 0, 0, 0);"></path><circle cx="420" cy="470" r="4" fill="#000000" stroke="#000000" style="-webkit-tap-highlight-color: rgba(0, 0, 0, 0);"></circle><circle cx="780" cy="470" r="4" fill="#000000" stroke="#000000" style="-webkit-tap-highlight-color: rgba(0, 0, 0, 0);"></circle><circle cx="780" cy="830" r="4" fill="#000000" stroke="#000000" style="-webkit-tap-highlight-color: rgba(0, 0, 0, 0);"></circle><circle cx="420" cy="830" r="4" fill="#000000" stroke="#000000" style="-webkit-tap-highlight-color: rgba(0, 0, 0, 0);"></circle><circle cx="620" cy="550" r="4" fill="#000000" stroke="#000000" style="-webkit-tap-highlight-color: rgba(0, 0, 0, 0);"></circle><circle cx="530" cy="630" r="4" fill="#000000" stroke="#000000" style="-webkit-tap-highlight-color: rgba(0, 0, 0, 0);"></circle><circle cx="500" cy="730" r="4" fill="#000000" stroke="#000000" style="-webkit-tap-highlight-color: rgba(0, 0, 0, 0);"></circle><circle cx="650" cy="710" r="4" fill="#000000" stroke="#000000" style="-webkit-tap-highlight-color: rgba(0, 0, 0, 0);"></circle><circle cx="730" cy="630" r="4" fill="#000000" stroke="#000000" style="-webkit-tap-highlight-color: rgba(0, 0, 0, 0);"></circle><circle cx="580" cy="830" r="4" fill="#000000" stroke="#000000" style="-webkit-tap-highlight-color: rgba(0, 0, 0, 0);"></circle><circle cx="600" cy="650" r="4" fill="#ff0000" stroke="#ff0000" style="-webkit-tap-highlight-color: rgba(0, 0, 0, 0);"></circle><circle cx="578.855421686747" cy="748.9156626506024" r="81.09241532292702" fill="none" stroke="#000000" stroke-dasharray="4,3,1,3" style="-webkit-tap-highlight-color: rgba(0, 0, 0, 0);"></circle><circle cx="751" cy="731" r="103.16006979447037" fill="none" stroke="#000000" stroke-dasharray="4,3,1,3" style="-webkit-tap-highlight-color: rgba(0, 0, 0, 0);"></circle><circle cx="713.5185185185185" cy="537.0370370370371" r="94.41266713041027" fill="none" stroke="#000000" stroke-dasharray="4,3,1,3" style="-webkit-tap-highlight-color: rgba(0, 0, 0, 0);"></circle><circle cx="515" cy="522.5" r="108.54146673046205" fill="none" stroke="#000000" stroke-dasharray="4,3,1,3" style="-webkit-tap-highlight-color: rgba(0, 0, 0, 0);"></circle><rect x="800" y="450" width="400" height="400" rx="0" ry="0" fill="#ffffff" stroke="#ffffff" style="-webkit-tap-highlight-color: rgba(0, 0, 0, 0);"></rect><path fill="#888888" stroke="#888888" d="M1020,550L930,630L1050,710Z" style="-webkit-tap-highlight-color: rgba(0, 0, 0, 0);"></path><rect x="800" y="450" width="400" height="400" rx="0" ry="0" fill="#ffffff" stroke="#ffffff" style="-webkit-tap-highlight-color: rgba(0, 0, 0, 0);"></rect><path fill="none" stroke="#000000" d="M820,470L1180,470" style="-webkit-tap-highlight-color: rgba(0, 0, 0, 0);"></path><path fill="none" stroke="#000000" d="M820,470L820,830" style="-webkit-tap-highlight-color: rgba(0, 0, 0, 0);"></path><path fill="none" stroke="#000000" d="M820,470L1020,550" style="-webkit-tap-highlight-color: rgba(0, 0, 0, 0);"></path><path fill="none" stroke="#000000" d="M820,470L930,630" style="-webkit-tap-highlight-color: rgba(0, 0, 0, 0);"></path><path fill="none" stroke="#000000" d="M820,470L900,730" style="-webkit-tap-highlight-color: rgba(0, 0, 0, 0);"></path><path fill="none" stroke="#000000" d="M1180,470L1020,550" style="-webkit-tap-highlight-color: rgba(0, 0, 0, 0);"></path><path fill="none" stroke="#000000" d="M1180,470L1130,630" style="-webkit-tap-highlight-color: rgba(0, 0, 0, 0);"></path><path fill="none" stroke="#000000" d="M1180,470L1180,830" style="-webkit-tap-highlight-color: rgba(0, 0, 0, 0);"></path><path fill="none" stroke="#000000" d="M1180,830L1130,630" style="-webkit-tap-highlight-color: rgba(0, 0, 0, 0);"></path><path fill="none" stroke="#000000" d="M1180,830L1050,710" style="-webkit-tap-highlight-color: rgba(0, 0, 0, 0);"></path><path fill="none" stroke="#000000" d="M1180,830L820,830" style="-webkit-tap-highlight-color: rgba(0, 0, 0, 0);"></path><path fill="none" stroke="#000000" d="M820,830L900,730" style="-webkit-tap-highlight-color: rgba(0, 0, 0, 0);"></path><path fill="none" stroke="#000000" d="M1020,550L930,630" style="-webkit-tap-highlight-color: rgba(0, 0, 0, 0);"></path><path fill="none" stroke="#000000" d="M1020,550L1130,630" style="-webkit-tap-highlight-color: rgba(0, 0, 0, 0);"></path><path fill="none" stroke="#000000" d="M930,630L900,730" style="-webkit-tap-highlight-color: rgba(0, 0, 0, 0);"></path><path fill="none" stroke="#000000" d="M900,730L1050,710" style="-webkit-tap-highlight-color: rgba(0, 0, 0, 0);"></path><path fill="none" stroke="#000000" d="M900,730L980,830" style="-webkit-tap-highlight-color: rgba(0, 0, 0, 0);"></path><path fill="none" stroke="#000000" d="M1050,710L1130,630" style="-webkit-tap-highlight-color: rgba(0, 0, 0, 0);"></path><path fill="none" stroke="#000000" d="M1050,710L980,830" style="-webkit-tap-highlight-color: rgba(0, 0, 0, 0);"></path><path fill="none" stroke="#000000" d="M1000,650L1020,550" style="-webkit-tap-highlight-color: rgba(0, 0, 0, 0);"></path><path fill="none" stroke="#000000" d="M1000,650L930,630" style="-webkit-tap-highlight-color: rgba(0, 0, 0, 0);"></path><path fill="none" stroke="#000000" d="M1000,650L900,730" style="-webkit-tap-highlight-color: rgba(0, 0, 0, 0);"></path><path fill="none" stroke="#000000" d="M1000,650L1050,710" style="-webkit-tap-highlight-color: rgba(0, 0, 0, 0);"></path><path fill="none" stroke="#000000" d="M1000,650L1130,630" style="-webkit-tap-highlight-color: rgba(0, 0, 0, 0);"></path><circle cx="820" cy="470" r="4" fill="#000000" stroke="#000000" style="-webkit-tap-highlight-color: rgba(0, 0, 0, 0);"></circle><circle cx="1180" cy="470" r="4" fill="#000000" stroke="#000000" style="-webkit-tap-highlight-color: rgba(0, 0, 0, 0);"></circle><circle cx="1180" cy="830" r="4" fill="#000000" stroke="#000000" style="-webkit-tap-highlight-color: rgba(0, 0, 0, 0);"></circle><circle cx="820" cy="830" r="4" fill="#000000" stroke="#000000" style="-webkit-tap-highlight-color: rgba(0, 0, 0, 0);"></circle><circle cx="1020" cy="550" r="4" fill="#000000" stroke="#000000" style="-webkit-tap-highlight-color: rgba(0, 0, 0, 0);"></circle><circle cx="930" cy="630" r="4" fill="#000000" stroke="#000000" style="-webkit-tap-highlight-color: rgba(0, 0, 0, 0);"></circle><circle cx="900" cy="730" r="4" fill="#000000" stroke="#000000" style="-webkit-tap-highlight-color: rgba(0, 0, 0, 0);"></circle><circle cx="1050" cy="710" r="4" fill="#000000" stroke="#000000" style="-webkit-tap-highlight-color: rgba(0, 0, 0, 0);"></circle><circle cx="1130" cy="630" r="4" fill="#000000" stroke="#000000" style="-webkit-tap-highlight-color: rgba(0, 0, 0, 0);"></circle><circle cx="980" cy="830" r="4" fill="#000000" stroke="#000000" style="-webkit-tap-highlight-color: rgba(0, 0, 0, 0);"></circle><circle cx="1000" cy="650" r="4" fill="#ff0000" stroke="#ff0000" style="-webkit-tap-highlight-color: rgba(0, 0, 0, 0);"></circle></svg>