<?xml version="1.0" encoding="utf-8" standalone="no"?>
<!DOCTYPE svg PUBLIC "-//W3C//DTD SVG 1.1//EN"
  "http://www.w3.org/Graphics/SVG/1.1/DTD/svg11.dtd">
<!-- Created with matplotlib (https://matplotlib.org/) -->
<svg height="238.84pt" version="1.1" viewBox="0 0 356.2 238.84" width="356.2pt" xmlns="http://www.w3.org/2000/svg" xmlns:xlink="http://www.w3.org/1999/xlink">
 <defs>
  <style type="text/css">
*{stroke-linecap:butt;stroke-linejoin:round;}
  </style>
 </defs>
 <g id="figure_1">
  <g id="patch_1">
   <path d="M 0 238.84 
L 356.2 238.84 
L 356.2 0 
L 0 0 
z
" style="fill:#ffffff;"/>
  </g>
  <g id="axes_1">
   <g id="patch_2">
    <path d="M 10.7 228.14 
L 345.5 228.14 
L 345.5 10.7 
L 10.7 10.7 
z
" style="fill:#ffffff;"/>
   </g>
   <g id="matplotlib.axis_1">
    <g id="xtick_1"/>
    <g id="xtick_2"/>
    <g id="xtick_3"/>
    <g id="xtick_4"/>
    <g id="xtick_5"/>
   </g>
   <g id="matplotlib.axis_2">
    <g id="ytick_1"/>
    <g id="ytick_2"/>
    <g id="ytick_3"/>
    <g id="ytick_4"/>
    <g id="ytick_5"/>
   </g>
   <g id="line2d_1">
    <path clip-path="url(#p2ee4042cd2)" d="M 25.918182 183.692143 
L 27.501189 194.579454 
L 28.840657 202.374858 
L 30.058355 208.211727 
L 31.093399 212.171363 
L 32.006672 214.86527 
L 32.798176 216.575428 
L 33.46791 217.561167 
L 34.076759 218.086382 
L 34.563838 218.250834 
L 35.050917 218.187532 
L 35.537997 217.896622 
L 36.085961 217.298142 
L 36.69481 216.298471 
L 37.425429 214.63886 
L 38.277817 212.079539 
L 39.251976 208.355439 
L 40.347904 203.188479 
L 41.565602 196.305121 
L 42.965955 187.028556 
L 44.548963 175.003712 
L 46.497279 158.383737 
L 49.11533 133.913514 
L 55.325591 75.103869 
L 57.334792 58.588522 
L 58.978685 46.818405 
L 60.379038 38.281503 
L 61.596736 32.107633 
L 62.692664 27.623116 
L 63.666822 24.533892 
L 64.519211 22.547119 
L 65.24983 21.387706 
L 65.858679 20.809547 
L 66.406643 20.592725 
L 66.893722 20.64196 
L 67.380802 20.918828 
L 67.928766 21.50158 
L 68.537615 22.483914 
L 69.268234 24.123002 
L 70.120622 26.658897 
L 71.033896 30.101543 
L 72.068939 34.875828 
L 73.286637 41.613945 
L 74.626105 50.314686 
L 76.209113 62.134965 
L 78.096545 78.021012 
L 80.531941 100.54567 
L 87.655475 167.669276 
L 89.542907 182.791748 
L 91.125914 193.808329 
L 92.526267 202.054778 
L 93.743965 207.952735 
L 94.779009 211.967263 
L 95.692282 214.711386 
L 96.483786 216.466087 
L 97.15352 217.490046 
L 97.762369 218.050281 
L 98.310333 218.250909 
L 98.797412 218.187268 
L 99.284491 217.896021 
L 99.832456 217.297162 
L 100.441305 216.297074 
L 101.171923 214.636969 
L 102.024312 212.077085 
L 102.998471 208.352362 
L 104.094399 203.184736 
L 105.312097 196.30069 
L 106.71245 187.023412 
L 108.295457 174.997881 
L 110.243774 158.377257 
L 112.861825 133.906539 
L 119.072085 75.097566 
L 121.081287 58.582965 
L 122.72518 46.81362 
L 124.125532 38.277477 
L 125.34323 32.104329 
L 126.439159 27.620503 
L 127.413317 24.531918 
L 128.265706 22.545721 
L 128.996325 21.386808 
L 129.605174 20.809071 
L 130.153138 20.592629 
L 130.640217 20.642203 
L 131.127296 20.919408 
L 131.675261 21.502539 
L 132.28411 22.485291 
L 133.014728 24.124872 
L 133.867117 26.661331 
L 134.780391 30.104562 
L 135.815434 34.879481 
L 137.033132 41.618293 
L 138.3726 50.319727 
L 139.955607 62.140711 
L 141.84304 78.027415 
L 144.278436 100.552591 
L 151.401969 167.67543 
L 153.289402 182.797159 
L 154.872409 193.812972 
L 156.272762 202.058646 
L 157.49046 207.95587 
L 158.525503 211.969738 
L 159.438777 214.713257 
L 160.230281 216.467422 
L 160.900015 217.490922 
L 161.508864 218.050736 
L 162.056828 218.250983 
L 162.543907 218.187004 
L 163.030986 217.895419 
L 163.57895 217.296181 
L 164.187799 216.295677 
L 164.918418 214.635078 
L 165.770807 212.074631 
L 166.744965 208.349285 
L 167.840894 203.180993 
L 169.058592 196.296258 
L 170.458945 187.018268 
L 172.041952 174.99205 
L 173.990269 158.370776 
L 176.60832 133.899564 
L 182.81858 75.091264 
L 184.827782 58.577408 
L 186.471674 46.808836 
L 187.872027 38.273451 
L 189.089725 32.101025 
L 190.185653 27.61789 
L 191.159812 24.529945 
L 192.012201 22.544323 
L 192.742819 21.385911 
L 193.351669 20.808595 
L 193.899633 20.592534 
L 194.386712 20.642446 
L 194.873791 20.919989 
L 195.421755 21.503499 
L 196.030604 22.486667 
L 196.761223 24.126743 
L 197.613612 26.663766 
L 198.526885 30.107582 
L 199.561929 34.883134 
L 200.779627 41.622642 
L 202.119095 50.324769 
L 203.702102 62.146458 
L 205.589534 78.033819 
L 208.02493 100.559513 
L 215.148464 167.681584 
L 217.035896 182.80257 
L 218.618904 193.817614 
L 220.019257 202.062514 
L 221.236955 207.959004 
L 222.271998 211.972213 
L 223.185272 214.715128 
L 223.976775 216.468758 
L 224.646509 217.491797 
L 225.255358 218.05119 
L 225.803322 218.251057 
L 226.290402 218.18674 
L 226.777481 217.894817 
L 227.325445 217.295201 
L 227.934294 216.294279 
L 228.664913 214.633187 
L 229.517302 212.072176 
L 230.49146 208.346208 
L 231.587388 203.17725 
L 232.805086 196.291826 
L 234.205439 187.013123 
L 235.788447 174.986218 
L 237.736764 158.364295 
L 240.354815 133.892589 
L 246.565075 75.084962 
L 248.574277 58.571851 
L 250.218169 46.804052 
L 251.618522 38.269425 
L 252.83622 32.097722 
L 253.932148 27.615278 
L 254.906307 24.527973 
L 255.758695 22.542926 
L 256.489314 21.385015 
L 257.098163 20.80812 
L 257.646127 20.592439 
L 258.133207 20.64269 
L 258.620286 20.920571 
L 259.16825 21.504459 
L 259.777099 22.488045 
L 260.507718 24.128614 
L 261.360107 26.666201 
L 262.27338 30.110602 
L 263.308424 34.886787 
L 264.526122 41.626992 
L 265.865589 50.329811 
L 267.448597 62.152205 
L 269.336029 78.040222 
L 271.771425 100.566435 
L 278.894959 167.687737 
L 280.782391 182.80798 
L 282.365399 193.822256 
L 283.765751 202.066381 
L 284.983449 207.962137 
L 286.018493 211.974687 
L 286.931766 214.716998 
L 287.72327 216.470093 
L 288.393004 217.492673 
L 289.001853 218.051644 
L 289.549817 218.251131 
L 290.036896 218.186475 
L 290.523976 217.894214 
L 291.07194 217.294219 
L 291.680789 216.292881 
L 292.411408 214.631295 
L 293.263796 212.06972 
L 294.237955 208.34313 
L 295.333883 203.173506 
L 296.551581 196.287394 
L 297.951934 187.007979 
L 299.534942 174.980387 
L 301.483258 158.357814 
L 304.101309 133.885613 
L 310.31157 75.07866 
L 312.320771 58.566294 
L 313.964664 46.799269 
L 315.365017 38.2654 
L 316.582715 32.094419 
L 317.678643 27.612666 
L 318.652801 24.526001 
L 319.50519 22.541529 
L 320.235809 21.384119 
L 320.844658 20.807645 
L 321.392622 20.592345 
L 321.879701 20.642934 
L 322.366781 20.921153 
L 322.914745 21.50542 
L 323.523594 22.489423 
L 324.254213 24.130486 
L 325.106601 26.668637 
L 326.019875 30.113623 
L 327.054918 34.890441 
L 328.272616 41.631341 
L 329.612084 50.334854 
L 330.281818 55.147857 
L 330.281818 55.147857 
" style="fill:none;stroke:#1f77b4;stroke-dasharray:1.5,2.475;stroke-dashoffset:0;stroke-width:1.5;"/>
   </g>
   <g id="line2d_2">
    <path clip-path="url(#p2ee4042cd2)" d="M 25.918182 183.692143 
L 44.940909 171.805735 
L 54.452273 82.863222 
L 63.963636 23.765291 
L 73.475 42.758894 
L 82.986364 124.337846 
L 102.009091 212.12859 
L 106.764773 186.650674 
L 111.520455 146.66891 
L 116.276136 100.808668 
L 121.031818 58.963496 
L 140.054545 62.928907 
L 144.810227 105.66159 
L 149.565909 151.36241 
L 154.321591 190.172211 
L 159.077273 213.718454 
L 168.588636 199.090197 
L 173.344318 164.07149 
L 178.1 119.42 
L 182.855682 74.76851 
L 187.611364 39.749803 
L 197.122727 25.121546 
L 201.878409 48.667789 
L 206.634091 87.47759 
L 211.389773 133.17841 
L 216.145455 175.911093 
L 235.168182 179.876504 
L 239.923864 138.031332 
L 244.679545 92.17109 
L 249.435227 52.189326 
L 254.190909 26.71141 
L 330.281818 55.147857 
" style="fill:none;"/>
    <defs>
     <path d="M 0 2 
C 0.530406 2 1.03916 1.789267 1.414214 1.414214 
C 1.789267 1.03916 2 0.530406 2 0 
C 2 -0.530406 1.789267 -1.03916 1.414214 -1.414214 
C 1.03916 -1.789267 0.530406 -2 0 -2 
C -0.530406 -2 -1.03916 -1.789267 -1.414214 -1.414214 
C -1.789267 -1.03916 -2 -0.530406 -2 0 
C -2 0.530406 -1.789267 1.03916 -1.414214 1.414214 
C -1.03916 1.789267 -0.530406 2 0 2 
z
" id="m27504d0ca3" style="stroke:#ff7f0e;"/>
    </defs>
    <g clip-path="url(#p2ee4042cd2)">
     <use style="fill:#ff7f0e;stroke:#ff7f0e;" x="25.918182" xlink:href="#m27504d0ca3" y="183.692143"/>
     <use style="fill:#ff7f0e;stroke:#ff7f0e;" x="44.940909" xlink:href="#m27504d0ca3" y="171.805735"/>
     <use style="fill:#ff7f0e;stroke:#ff7f0e;" x="54.452273" xlink:href="#m27504d0ca3" y="82.863222"/>
     <use style="fill:#ff7f0e;stroke:#ff7f0e;" x="63.963636" xlink:href="#m27504d0ca3" y="23.765291"/>
     <use style="fill:#ff7f0e;stroke:#ff7f0e;" x="73.475" xlink:href="#m27504d0ca3" y="42.758894"/>
     <use style="fill:#ff7f0e;stroke:#ff7f0e;" x="82.986364" xlink:href="#m27504d0ca3" y="124.337846"/>
     <use style="fill:#ff7f0e;stroke:#ff7f0e;" x="102.009091" xlink:href="#m27504d0ca3" y="212.12859"/>
     <use style="fill:#ff7f0e;stroke:#ff7f0e;" x="106.764773" xlink:href="#m27504d0ca3" y="186.650674"/>
     <use style="fill:#ff7f0e;stroke:#ff7f0e;" x="111.520455" xlink:href="#m27504d0ca3" y="146.66891"/>
     <use style="fill:#ff7f0e;stroke:#ff7f0e;" x="116.276136" xlink:href="#m27504d0ca3" y="100.808668"/>
     <use style="fill:#ff7f0e;stroke:#ff7f0e;" x="121.031818" xlink:href="#m27504d0ca3" y="58.963496"/>
     <use style="fill:#ff7f0e;stroke:#ff7f0e;" x="140.054545" xlink:href="#m27504d0ca3" y="62.928907"/>
     <use style="fill:#ff7f0e;stroke:#ff7f0e;" x="144.810227" xlink:href="#m27504d0ca3" y="105.66159"/>
     <use style="fill:#ff7f0e;stroke:#ff7f0e;" x="149.565909" xlink:href="#m27504d0ca3" y="151.36241"/>
     <use style="fill:#ff7f0e;stroke:#ff7f0e;" x="154.321591" xlink:href="#m27504d0ca3" y="190.172211"/>
     <use style="fill:#ff7f0e;stroke:#ff7f0e;" x="159.077273" xlink:href="#m27504d0ca3" y="213.718454"/>
     <use style="fill:#ff7f0e;stroke:#ff7f0e;" x="168.588636" xlink:href="#m27504d0ca3" y="199.090197"/>
     <use style="fill:#ff7f0e;stroke:#ff7f0e;" x="173.344318" xlink:href="#m27504d0ca3" y="164.07149"/>
     <use style="fill:#ff7f0e;stroke:#ff7f0e;" x="178.1" xlink:href="#m27504d0ca3" y="119.42"/>
     <use style="fill:#ff7f0e;stroke:#ff7f0e;" x="182.855682" xlink:href="#m27504d0ca3" y="74.76851"/>
     <use style="fill:#ff7f0e;stroke:#ff7f0e;" x="187.611364" xlink:href="#m27504d0ca3" y="39.749803"/>
     <use style="fill:#ff7f0e;stroke:#ff7f0e;" x="197.122727" xlink:href="#m27504d0ca3" y="25.121546"/>
     <use style="fill:#ff7f0e;stroke:#ff7f0e;" x="201.878409" xlink:href="#m27504d0ca3" y="48.667789"/>
     <use style="fill:#ff7f0e;stroke:#ff7f0e;" x="206.634091" xlink:href="#m27504d0ca3" y="87.47759"/>
     <use style="fill:#ff7f0e;stroke:#ff7f0e;" x="211.389773" xlink:href="#m27504d0ca3" y="133.17841"/>
     <use style="fill:#ff7f0e;stroke:#ff7f0e;" x="216.145455" xlink:href="#m27504d0ca3" y="175.911093"/>
     <use style="fill:#ff7f0e;stroke:#ff7f0e;" x="235.168182" xlink:href="#m27504d0ca3" y="179.876504"/>
     <use style="fill:#ff7f0e;stroke:#ff7f0e;" x="239.923864" xlink:href="#m27504d0ca3" y="138.031332"/>
     <use style="fill:#ff7f0e;stroke:#ff7f0e;" x="244.679545" xlink:href="#m27504d0ca3" y="92.17109"/>
     <use style="fill:#ff7f0e;stroke:#ff7f0e;" x="249.435227" xlink:href="#m27504d0ca3" y="52.189326"/>
     <use style="fill:#ff7f0e;stroke:#ff7f0e;" x="254.190909" xlink:href="#m27504d0ca3" y="26.71141"/>
     <use style="fill:#ff7f0e;stroke:#ff7f0e;" x="330.281818" xlink:href="#m27504d0ca3" y="55.147857"/>
    </g>
   </g>
   <g id="patch_3">
    <path d="M 10.7 228.14 
L 10.7 10.7 
" style="fill:none;stroke:#000000;stroke-linecap:square;stroke-linejoin:miter;stroke-width:0.8;"/>
   </g>
   <g id="patch_4">
    <path d="M 345.5 228.14 
L 345.5 10.7 
" style="fill:none;stroke:#000000;stroke-linecap:square;stroke-linejoin:miter;stroke-width:0.8;"/>
   </g>
   <g id="patch_5">
    <path d="M 10.7 228.14 
L 345.5 228.14 
" style="fill:none;stroke:#000000;stroke-linecap:square;stroke-linejoin:miter;stroke-width:0.8;"/>
   </g>
   <g id="patch_6">
    <path d="M 10.7 10.7 
L 345.5 10.7 
" style="fill:none;stroke:#000000;stroke-linecap:square;stroke-linejoin:miter;stroke-width:0.8;"/>
   </g>
  </g>
 </g>
 <defs>
  <clipPath id="p2ee4042cd2">
   <rect height="217.44" width="334.8" x="10.7" y="10.7"/>
  </clipPath>
 </defs>
</svg>
