<?xml version="1.0" encoding="utf-8" standalone="no"?>
<!DOCTYPE svg PUBLIC "-//W3C//DTD SVG 1.1//EN"
  "http://www.w3.org/Graphics/SVG/1.1/DTD/svg11.dtd">
<!-- Created with matplotlib (https://matplotlib.org/) -->
<svg height="238.84pt" version="1.1" viewBox="0 0 356.2 238.84" width="356.2pt" xmlns="http://www.w3.org/2000/svg" xmlns:xlink="http://www.w3.org/1999/xlink">
 <defs>
  <style type="text/css">
*{stroke-linecap:butt;stroke-linejoin:round;}
  </style>
 </defs>
 <g id="figure_1">
  <g id="patch_1">
   <path d="M 0 238.84 
L 356.2 238.84 
L 356.2 0 
L 0 0 
z
" style="fill:#ffffff;"/>
  </g>
  <g id="axes_1">
   <g id="patch_2">
    <path d="M 10.7 228.14 
L 345.5 228.14 
L 345.5 10.7 
L 10.7 10.7 
z
" style="fill:#ffffff;"/>
   </g>
   <g id="matplotlib.axis_1">
    <g id="xtick_1"/>
    <g id="xtick_2"/>
    <g id="xtick_3"/>
    <g id="xtick_4"/>
    <g id="xtick_5"/>
    <g id="xtick_6"/>
   </g>
   <g id="matplotlib.axis_2">
    <g id="ytick_1"/>
    <g id="ytick_2"/>
    <g id="ytick_3"/>
    <g id="ytick_4"/>
    <g id="ytick_5"/>
   </g>
   <g id="line2d_1">
    <path clip-path="url(#p337135eb08)" d="M 25.918182 116.052097 
L 25.979067 21.506945 
L 26.039952 184.705876 
L 26.100837 66.488245 
L 26.161721 211.854039 
L 26.222606 20.613179 
L 26.283491 24.489635 
L 26.344376 29.642304 
L 26.466146 212.740572 
L 26.527031 50.378898 
L 26.587916 201.977238 
L 26.648801 178.799768 
L 26.709686 62.526 
L 26.77057 202.653668 
L 26.831455 70.687187 
L 26.89234 90.022219 
L 26.953225 178.42544 
L 27.01411 62.192966 
L 27.074995 218.254412 
L 27.13588 156.696645 
L 27.196765 217.234682 
L 27.318535 28.971824 
L 27.37942 25.672002 
L 27.440304 199.102057 
L 27.501189 25.194795 
L 27.562074 158.967676 
L 27.622959 206.126769 
L 27.683844 191.453641 
L 27.805614 32.818954 
L 27.866499 217.131922 
L 27.927384 22.437918 
L 27.988269 213.242256 
L 28.049153 97.098968 
L 28.110038 25.256947 
L 28.292693 213.265031 
L 28.353578 216.414227 
L 28.414463 211.197881 
L 28.536233 116.083752 
L 28.597118 34.556068 
L 28.658003 43.539181 
L 28.779772 197.141572 
L 28.840657 39.22416 
L 28.901542 103.408839 
L 28.962427 207.590379 
L 29.023312 25.304833 
L 29.084197 177.814295 
L 29.145082 105.046605 
L 29.205967 99.220373 
L 29.266852 160.672458 
L 29.327736 69.02298 
L 29.388621 169.016685 
L 29.449506 80.177874 
L 29.510391 137.929008 
L 29.571276 132.12649 
L 29.632161 68.705036 
L 29.693046 204.498095 
L 29.753931 20.697375 
L 29.814816 194.379584 
L 29.875701 107.32714 
L 29.936585 56.629258 
L 29.99747 218.256214 
L 30.058355 61.555301 
L 30.11924 82.275012 
L 30.180125 217.615972 
L 30.301895 61.10878 
L 30.36278 213.853075 
L 30.423665 121.359116 
L 30.48455 22.776136 
L 30.606319 204.599509 
L 30.728089 42.415098 
L 30.849859 197.450623 
L 30.971629 32.376225 
L 31.093399 216.548008 
L 31.215168 23.690693 
L 31.276053 70.627997 
L 31.397823 208.940947 
L 31.519593 24.68144 
L 31.580478 56.413724 
L 31.702248 218.256293 
L 31.884902 20.910536 
L 31.945787 75.636375 
L 32.067557 218.212108 
L 32.250212 25.478571 
L 32.311097 37.820607 
L 32.493751 217.733462 
L 32.737291 24.099692 
L 32.798176 70.887635 
L 32.980831 216.204018 
L 33.22437 20.788902 
L 33.285255 39.215768 
L 33.528795 217.465202 
L 33.650565 137.56097 
L 33.833219 20.76945 
L 33.954989 86.068338 
L 34.137644 215.612236 
L 34.198529 213.46276 
L 34.381184 87.526096 
L 34.502953 23.008431 
L 34.563838 24.361671 
L 34.746493 135.489816 
L 34.929148 218.251613 
L 34.990033 208.691436 
L 35.355342 21.083102 
L 35.416227 25.382845 
L 35.598882 114.613574 
L 35.842421 217.968315 
L 35.903306 213.910578 
L 36.085961 136.920355 
L 36.390385 20.587158 
L 36.45127 25.838657 
L 36.633925 94.187856 
L 36.938349 214.94217 
L 36.999234 218.161553 
L 37.121004 198.642166 
L 37.668968 20.638005 
L 37.729853 25.003765 
L 37.912508 73.272941 
L 38.338702 213.389669 
L 38.399587 217.970729 
L 38.460472 216.98282 
L 38.582242 199.434858 
L 38.947551 80.543486 
L 39.251976 21.076165 
L 39.312861 21.155653 
L 39.434631 33.503789 
L 39.67817 94.332114 
L 40.165249 213.393429 
L 40.287019 218.146787 
L 40.408789 210.334659 
L 40.652329 164.476127 
L 41.261178 28.567377 
L 41.443832 20.773939 
L 41.565602 27.1719 
L 41.809142 63.010579 
L 42.66153 215.697455 
L 42.7833 218.197716 
L 42.90507 214.038699 
L 43.14861 188.301667 
L 43.696574 88.536486 
L 44.122768 30.48353 
L 44.366308 20.588555 
L 44.427193 21.06335 
L 44.548963 25.40154 
L 44.792502 46.107447 
L 45.279581 117.01606 
L 45.88843 198.897814 
L 46.192855 216.679056 
L 46.314625 218.256364 
L 46.37551 217.863622 
L 46.497279 214.799798 
L 46.740819 200.362339 
L 47.167013 155.458249 
L 48.202057 38.602072 
L 48.506481 23.541136 
L 48.689136 20.625431 
L 48.750021 20.671647 
L 48.871791 22.245587 
L 49.11533 30.948353 
L 49.48064 55.605563 
L 50.211259 126.835366 
L 50.941877 190.781137 
L 51.368072 212.034511 
L 51.672496 217.985961 
L 51.733381 218.239922 
L 51.794266 218.187847 
L 51.916036 217.184251 
L 52.159576 211.754951 
L 52.524885 196.071549 
L 53.072849 160.252566 
L 54.716742 44.923519 
L 55.203821 27.112625 
L 55.508245 21.718176 
L 55.6909 20.615656 
L 55.751785 20.596718 
L 55.873555 21.069682 
L 56.056209 23.017289 
L 56.360634 29.349869 
L 56.786828 43.853243 
L 57.456562 76.287044 
L 59.648419 190.501356 
L 60.257268 208.49456 
L 60.683462 215.633954 
L 60.987887 217.949053 
L 61.170541 218.250328 
L 61.292311 218.010865 
L 61.474966 217.011276 
L 61.77939 213.717698 
L 62.205585 205.986317 
L 62.753549 191.525585 
L 63.545053 164.1843 
L 66.528413 54.36347 
L 67.259032 37.151687 
L 67.867881 27.405689 
L 68.35496 22.696976 
L 68.72027 20.938282 
L 68.963809 20.584539 
L 69.085579 20.646314 
L 69.268234 21.029601 
L 69.572658 22.417854 
L 69.937968 25.254933 
L 70.425047 30.857973 
L 71.094781 41.508407 
L 71.947169 58.939177 
L 73.286637 91.67609 
L 76.026458 159.552958 
L 77.183271 182.505243 
L 78.15743 197.674989 
L 78.948933 206.941515 
L 79.679552 213.01305 
L 80.288401 216.278472 
L 80.775481 217.752832 
L 81.14079 218.218785 
L 81.38433 218.234947 
L 81.627869 218.022555 
L 81.932294 217.445497 
L 82.358488 216.079969 
L 82.906452 213.425352 
L 83.576186 208.925376 
L 84.428575 201.446493 
L 85.463618 190.191698 
L 86.803086 173.023103 
L 88.994943 141.548207 
L 92.221843 95.554208 
L 93.987505 73.602164 
L 95.448742 58.046959 
L 96.727325 46.616064 
L 97.884139 38.102337 
L 98.919182 31.96508 
L 99.89334 27.445674 
L 100.745729 24.462535 
L 101.537233 22.474819 
L 102.206967 21.358098 
L 102.754931 20.814508 
L 103.24201 20.600474 
L 103.729089 20.630575 
L 104.216169 20.895705 
L 104.764133 21.463313 
L 105.433867 22.525319 
L 106.164486 24.118287 
L 107.077759 26.698649 
L 108.112803 30.339665 
L 109.330501 35.479998 
L 110.791738 42.680478 
L 112.557401 52.57056 
L 114.871027 66.913399 
L 118.645891 91.964545 
L 123.577568 124.361562 
L 126.500044 142.060934 
L 128.996325 155.868505 
L 131.309951 167.439462 
L 133.440923 176.992402 
L 135.450125 185.010221 
L 137.337557 191.670134 
L 139.164104 197.325129 
L 140.929766 202.073509 
L 142.573658 205.882039 
L 144.156666 209.013732 
L 145.678788 211.550744 
L 147.140026 213.569037 
L 148.540379 215.138108 
L 149.879847 216.32102 
L 151.219315 217.208782 
L 152.497898 217.795066 
L 153.776481 218.139845 
L 155.055064 218.256269 
L 156.394532 218.14738 
L 157.734 217.816545 
L 159.195237 217.219077 
L 160.71736 216.352801 
L 162.361252 215.159585 
L 164.187799 213.547511 
L 166.197001 211.460961 
L 168.388858 208.853338 
L 170.824254 205.604074 
L 173.62496 201.481014 
L 176.851859 196.315259 
L 180.687608 189.735153 
L 185.619286 180.801686 
L 193.777863 165.481979 
L 203.823872 146.737445 
L 210.095017 135.510901 
L 215.635543 126.037886 
L 220.81076 117.621901 
L 225.742438 110.017172 
L 230.552345 103.002372 
L 235.301368 96.468921 
L 239.989505 90.398833 
L 244.616758 84.770436 
L 249.244011 79.492717 
L 253.871263 74.553831 
L 258.498516 69.940513 
L 263.125769 65.638589 
L 267.813906 61.582588 
L 272.562929 57.768595 
L 277.372836 54.191665 
L 282.243629 50.846013 
L 287.236191 47.688247 
L 292.289638 44.754403 
L 297.464855 42.00566 
L 302.761841 39.442135 
L 308.241483 37.037441 
L 313.903779 34.797249 
L 319.74873 32.725548 
L 325.776335 30.82474 
L 330.281818 29.548349 
L 330.281818 29.548349 
" style="fill:none;stroke:#1f77b4;stroke-dasharray:1.5,2.475;stroke-dashoffset:0;stroke-width:1.5;"/>
   </g>
   <g id="line2d_2">
    <path clip-path="url(#p337135eb08)" d="M 25.918182 116.052097 
L 27.107102 111.555988 
L 27.255717 79.130957 
L 27.311448 141.49541 
L 27.314931 44.241679 
L 27.316092 26.391908 
L 27.3904 212.028975 
L 27.404332 27.556351 
L 27.701563 31.323438 
L 27.850178 40.927178 
L 27.924485 23.50406 
L 27.929129 30.726642 
L 27.943062 200.89604 
L 27.970927 26.160603 
L 27.998793 158.208557 
L 28.0731 144.88571 
L 28.091677 163.883154 
L 28.098643 78.382354 
L 28.110254 26.112044 
L 28.128831 207.450862 
L 28.147408 94.784845 
L 28.221715 84.207938 
L 28.258869 56.605329 
L 28.279768 104.509804 
L 28.296023 218.178048 
L 28.37033 125.010504 
L 28.444638 38.370935 
L 28.593253 22.753358 
L 28.741868 27.628378 
L 28.890483 174.938904 
L 29.187713 192.210567 
L 29.224867 25.196163 
L 29.280597 210.565923 
L 29.313107 142.363613 
L 29.336328 37.126378 
L 29.484943 35.166719 
L 30.673864 48.155051 
L 35.429545 28.488001 
L 44.940909 64.919008 
L 54.452273 58.992485 
L 56.830114 45.640933 
L 58.019034 108.23528 
L 59.207955 172.241831 
L 63.963636 147.875316 
L 65.152557 100.481043 
L 66.341477 59.673283 
L 68.719318 20.940931 
L 71.097159 41.551563 
L 72.28608 66.765958 
L 75.852841 155.703295 
L 77.041761 179.970909 
L 78.230682 198.649619 
L 82.986364 212.958321 
L 85.364205 191.360806 
L 87.742045 159.845694 
L 90.119886 125.021368 
L 92.497727 91.92361 
L 94.875568 63.842088 
L 97.253409 42.527265 
L 102.009091 21.635428 
L 111.520455 46.624058 
L 116.276136 76.104435 
L 121.031818 107.900704 
L 125.7875 137.886852 
L 130.543182 163.740792 
L 140.054545 199.806525 
L 178.1 194.219612 
L 197.122727 159.176007 
L 216.145455 125.189491 
L 235.168182 96.646851 
L 254.190909 74.224838 
L 292.236364 44.784014 
L 330.281818 29.548349 
L 330.281818 29.548349 
" style="fill:none;stroke:#ff7f0e;stroke-linecap:square;"/>
    <defs>
     <path d="M 0 2 
C 0.530406 2 1.03916 1.789267 1.414214 1.414214 
C 1.789267 1.03916 2 0.530406 2 0 
C 2 -0.530406 1.789267 -1.03916 1.414214 -1.414214 
C 1.03916 -1.789267 0.530406 -2 0 -2 
C -0.530406 -2 -1.03916 -1.789267 -1.414214 -1.414214 
C -1.789267 -1.03916 -2 -0.530406 -2 0 
C -2 0.530406 -1.789267 1.03916 -1.414214 1.414214 
C -1.03916 1.789267 -0.530406 2 0 2 
z
" id="m20237d2040" style="stroke:#ff7f0e;"/>
    </defs>
    <g clip-path="url(#p337135eb08)">
     <use style="fill:#ff7f0e;stroke:#ff7f0e;" x="25.918182" xlink:href="#m20237d2040" y="116.052097"/>
     <use style="fill:#ff7f0e;stroke:#ff7f0e;" x="27.107102" xlink:href="#m20237d2040" y="111.555988"/>
     <use style="fill:#ff7f0e;stroke:#ff7f0e;" x="27.255717" xlink:href="#m20237d2040" y="79.130957"/>
     <use style="fill:#ff7f0e;stroke:#ff7f0e;" x="27.292871" xlink:href="#m20237d2040" y="104.279902"/>
     <use style="fill:#ff7f0e;stroke:#ff7f0e;" x="27.311448" xlink:href="#m20237d2040" y="141.49541"/>
     <use style="fill:#ff7f0e;stroke:#ff7f0e;" x="27.312609" xlink:href="#m20237d2040" y="105.7717"/>
     <use style="fill:#ff7f0e;stroke:#ff7f0e;" x="27.31377" xlink:href="#m20237d2040" y="71.886819"/>
     <use style="fill:#ff7f0e;stroke:#ff7f0e;" x="27.314931" xlink:href="#m20237d2040" y="44.241679"/>
     <use style="fill:#ff7f0e;stroke:#ff7f0e;" x="27.316092" xlink:href="#m20237d2040" y="26.391908"/>
     <use style="fill:#ff7f0e;stroke:#ff7f0e;" x="27.318414" xlink:href="#m20237d2040" y="27.546998"/>
     <use style="fill:#ff7f0e;stroke:#ff7f0e;" x="27.319575" xlink:href="#m20237d2040" y="46.285457"/>
     <use style="fill:#ff7f0e;stroke:#ff7f0e;" x="27.320736" xlink:href="#m20237d2040" y="74.356858"/>
     <use style="fill:#ff7f0e;stroke:#ff7f0e;" x="27.321897" xlink:href="#m20237d2040" y="108.133907"/>
     <use style="fill:#ff7f0e;stroke:#ff7f0e;" x="27.323059" xlink:href="#m20237d2040" y="143.292942"/>
     <use style="fill:#ff7f0e;stroke:#ff7f0e;" x="27.32422" xlink:href="#m20237d2040" y="175.37009"/>
     <use style="fill:#ff7f0e;stroke:#ff7f0e;" x="27.325381" xlink:href="#m20237d2040" y="200.327047"/>
     <use style="fill:#ff7f0e;stroke:#ff7f0e;" x="27.330025" xlink:href="#m20237d2040" y="187.486664"/>
     <use style="fill:#ff7f0e;stroke:#ff7f0e;" x="27.367179" xlink:href="#m20237d2040" y="195.01978"/>
     <use style="fill:#ff7f0e;stroke:#ff7f0e;" x="27.371823" xlink:href="#m20237d2040" y="198.562177"/>
     <use style="fill:#ff7f0e;stroke:#ff7f0e;" x="27.372984" xlink:href="#m20237d2040" y="174.763178"/>
     <use style="fill:#ff7f0e;stroke:#ff7f0e;" x="27.374145" xlink:href="#m20237d2040" y="144.890921"/>
     <use style="fill:#ff7f0e;stroke:#ff7f0e;" x="27.375306" xlink:href="#m20237d2040" y="112.26142"/>
     <use style="fill:#ff7f0e;stroke:#ff7f0e;" x="27.376467" xlink:href="#m20237d2040" y="80.467262"/>
     <use style="fill:#ff7f0e;stroke:#ff7f0e;" x="27.385756" xlink:href="#m20237d2040" y="110.089082"/>
     <use style="fill:#ff7f0e;stroke:#ff7f0e;" x="27.386917" xlink:href="#m20237d2040" y="142.274201"/>
     <use style="fill:#ff7f0e;stroke:#ff7f0e;" x="27.388078" xlink:href="#m20237d2040" y="171.980762"/>
     <use style="fill:#ff7f0e;stroke:#ff7f0e;" x="27.3904" xlink:href="#m20237d2040" y="212.028975"/>
     <use style="fill:#ff7f0e;stroke:#ff7f0e;" x="27.395044" xlink:href="#m20237d2040" y="177.443661"/>
     <use style="fill:#ff7f0e;stroke:#ff7f0e;" x="27.396205" xlink:href="#m20237d2040" y="148.972488"/>
     <use style="fill:#ff7f0e;stroke:#ff7f0e;" x="27.397366" xlink:href="#m20237d2040" y="117.480362"/>
     <use style="fill:#ff7f0e;stroke:#ff7f0e;" x="27.398527" xlink:href="#m20237d2040" y="86.236389"/>
     <use style="fill:#ff7f0e;stroke:#ff7f0e;" x="27.399688" xlink:href="#m20237d2040" y="58.458896"/>
     <use style="fill:#ff7f0e;stroke:#ff7f0e;" x="27.404332" xlink:href="#m20237d2040" y="27.556351"/>
     <use style="fill:#ff7f0e;stroke:#ff7f0e;" x="27.701563" xlink:href="#m20237d2040" y="31.323438"/>
     <use style="fill:#ff7f0e;stroke:#ff7f0e;" x="27.850178" xlink:href="#m20237d2040" y="40.927178"/>
     <use style="fill:#ff7f0e;stroke:#ff7f0e;" x="27.924485" xlink:href="#m20237d2040" y="23.50406"/>
     <use style="fill:#ff7f0e;stroke:#ff7f0e;" x="27.929129" xlink:href="#m20237d2040" y="30.726642"/>
     <use style="fill:#ff7f0e;stroke:#ff7f0e;" x="27.931451" xlink:href="#m20237d2040" y="50.99759"/>
     <use style="fill:#ff7f0e;stroke:#ff7f0e;" x="27.933774" xlink:href="#m20237d2040" y="79.452152"/>
     <use style="fill:#ff7f0e;stroke:#ff7f0e;" x="27.936096" xlink:href="#m20237d2040" y="112.6285"/>
     <use style="fill:#ff7f0e;stroke:#ff7f0e;" x="27.938418" xlink:href="#m20237d2040" y="146.54099"/>
     <use style="fill:#ff7f0e;stroke:#ff7f0e;" x="27.94074" xlink:href="#m20237d2040" y="177.161496"/>
     <use style="fill:#ff7f0e;stroke:#ff7f0e;" x="27.943062" xlink:href="#m20237d2040" y="200.89604"/>
     <use style="fill:#ff7f0e;stroke:#ff7f0e;" x="27.95235" xlink:href="#m20237d2040" y="190.308696"/>
     <use style="fill:#ff7f0e;stroke:#ff7f0e;" x="27.954673" xlink:href="#m20237d2040" y="163.174354"/>
     <use style="fill:#ff7f0e;stroke:#ff7f0e;" x="27.956995" xlink:href="#m20237d2040" y="131.071134"/>
     <use style="fill:#ff7f0e;stroke:#ff7f0e;" x="27.959317" xlink:href="#m20237d2040" y="97.705198"/>
     <use style="fill:#ff7f0e;stroke:#ff7f0e;" x="27.961639" xlink:href="#m20237d2040" y="66.885233"/>
     <use style="fill:#ff7f0e;stroke:#ff7f0e;" x="27.970927" xlink:href="#m20237d2040" y="26.160603"/>
     <use style="fill:#ff7f0e;stroke:#ff7f0e;" x="27.975572" xlink:href="#m20237d2040" y="66.596328"/>
     <use style="fill:#ff7f0e;stroke:#ff7f0e;" x="27.977894" xlink:href="#m20237d2040" y="96.85893"/>
     <use style="fill:#ff7f0e;stroke:#ff7f0e;" x="27.980216" xlink:href="#m20237d2040" y="129.534778"/>
     <use style="fill:#ff7f0e;stroke:#ff7f0e;" x="27.998793" xlink:href="#m20237d2040" y="158.208557"/>
     <use style="fill:#ff7f0e;stroke:#ff7f0e;" x="28.0731" xlink:href="#m20237d2040" y="144.88571"/>
     <use style="fill:#ff7f0e;stroke:#ff7f0e;" x="28.091677" xlink:href="#m20237d2040" y="163.883154"/>
     <use style="fill:#ff7f0e;stroke:#ff7f0e;" x="28.093999" xlink:href="#m20237d2040" y="135.918904"/>
     <use style="fill:#ff7f0e;stroke:#ff7f0e;" x="28.096321" xlink:href="#m20237d2040" y="106.554024"/>
     <use style="fill:#ff7f0e;stroke:#ff7f0e;" x="28.098643" xlink:href="#m20237d2040" y="78.382354"/>
     <use style="fill:#ff7f0e;stroke:#ff7f0e;" x="28.100965" xlink:href="#m20237d2040" y="53.865931"/>
     <use style="fill:#ff7f0e;stroke:#ff7f0e;" x="28.110254" xlink:href="#m20237d2040" y="26.112044"/>
     <use style="fill:#ff7f0e;stroke:#ff7f0e;" x="28.114898" xlink:href="#m20237d2040" y="59.790256"/>
     <use style="fill:#ff7f0e;stroke:#ff7f0e;" x="28.11722" xlink:href="#m20237d2040" y="85.061869"/>
     <use style="fill:#ff7f0e;stroke:#ff7f0e;" x="28.119542" xlink:href="#m20237d2040" y="113.19355"/>
     <use style="fill:#ff7f0e;stroke:#ff7f0e;" x="28.121864" xlink:href="#m20237d2040" y="141.79312"/>
     <use style="fill:#ff7f0e;stroke:#ff7f0e;" x="28.124187" xlink:href="#m20237d2040" y="168.45388"/>
     <use style="fill:#ff7f0e;stroke:#ff7f0e;" x="28.128831" xlink:href="#m20237d2040" y="207.450862"/>
     <use style="fill:#ff7f0e;stroke:#ff7f0e;" x="28.138119" xlink:href="#m20237d2040" y="196.262158"/>
     <use style="fill:#ff7f0e;stroke:#ff7f0e;" x="28.140441" xlink:href="#m20237d2040" y="175.561236"/>
     <use style="fill:#ff7f0e;stroke:#ff7f0e;" x="28.142763" xlink:href="#m20237d2040" y="150.33876"/>
     <use style="fill:#ff7f0e;stroke:#ff7f0e;" x="28.145086" xlink:href="#m20237d2040" y="122.664541"/>
     <use style="fill:#ff7f0e;stroke:#ff7f0e;" x="28.147408" xlink:href="#m20237d2040" y="94.784845"/>
     <use style="fill:#ff7f0e;stroke:#ff7f0e;" x="28.221715" xlink:href="#m20237d2040" y="84.207938"/>
     <use style="fill:#ff7f0e;stroke:#ff7f0e;" x="28.258869" xlink:href="#m20237d2040" y="56.605329"/>
     <use style="fill:#ff7f0e;stroke:#ff7f0e;" x="28.277446" xlink:href="#m20237d2040" y="80.464054"/>
     <use style="fill:#ff7f0e;stroke:#ff7f0e;" x="28.279768" xlink:href="#m20237d2040" y="104.509804"/>
     <use style="fill:#ff7f0e;stroke:#ff7f0e;" x="28.28209" xlink:href="#m20237d2040" y="129.461107"/>
     <use style="fill:#ff7f0e;stroke:#ff7f0e;" x="28.284412" xlink:href="#m20237d2040" y="153.726021"/>
     <use style="fill:#ff7f0e;stroke:#ff7f0e;" x="28.286734" xlink:href="#m20237d2040" y="175.771526"/>
     <use style="fill:#ff7f0e;stroke:#ff7f0e;" x="28.296023" xlink:href="#m20237d2040" y="218.178048"/>
     <use style="fill:#ff7f0e;stroke:#ff7f0e;" x="28.37033" xlink:href="#m20237d2040" y="125.010504"/>
     <use style="fill:#ff7f0e;stroke:#ff7f0e;" x="28.444638" xlink:href="#m20237d2040" y="38.370935"/>
     <use style="fill:#ff7f0e;stroke:#ff7f0e;" x="28.593253" xlink:href="#m20237d2040" y="22.753358"/>
     <use style="fill:#ff7f0e;stroke:#ff7f0e;" x="28.741868" xlink:href="#m20237d2040" y="27.628378"/>
     <use style="fill:#ff7f0e;stroke:#ff7f0e;" x="28.816175" xlink:href="#m20237d2040" y="77.730455"/>
     <use style="fill:#ff7f0e;stroke:#ff7f0e;" x="28.890483" xlink:href="#m20237d2040" y="174.938904"/>
     <use style="fill:#ff7f0e;stroke:#ff7f0e;" x="29.187713" xlink:href="#m20237d2040" y="192.210567"/>
     <use style="fill:#ff7f0e;stroke:#ff7f0e;" x="29.192357" xlink:href="#m20237d2040" y="172.23481"/>
     <use style="fill:#ff7f0e;stroke:#ff7f0e;" x="29.197002" xlink:href="#m20237d2040" y="148.667622"/>
     <use style="fill:#ff7f0e;stroke:#ff7f0e;" x="29.201646" xlink:href="#m20237d2040" y="123.15745"/>
     <use style="fill:#ff7f0e;stroke:#ff7f0e;" x="29.20629" xlink:href="#m20237d2040" y="97.462514"/>
     <use style="fill:#ff7f0e;stroke:#ff7f0e;" x="29.210934" xlink:href="#m20237d2040" y="73.329121"/>
     <use style="fill:#ff7f0e;stroke:#ff7f0e;" x="29.215578" xlink:href="#m20237d2040" y="52.373812"/>
     <use style="fill:#ff7f0e;stroke:#ff7f0e;" x="29.224867" xlink:href="#m20237d2040" y="25.196163"/>
     <use style="fill:#ff7f0e;stroke:#ff7f0e;" x="29.243444" xlink:href="#m20237d2040" y="45.226709"/>
     <use style="fill:#ff7f0e;stroke:#ff7f0e;" x="29.252732" xlink:href="#m20237d2040" y="86.538371"/>
     <use style="fill:#ff7f0e;stroke:#ff7f0e;" x="29.257376" xlink:href="#m20237d2040" y="111.003848"/>
     <use style="fill:#ff7f0e;stroke:#ff7f0e;" x="29.262021" xlink:href="#m20237d2040" y="135.940229"/>
     <use style="fill:#ff7f0e;stroke:#ff7f0e;" x="29.266665" xlink:href="#m20237d2040" y="159.759853"/>
     <use style="fill:#ff7f0e;stroke:#ff7f0e;" x="29.271309" xlink:href="#m20237d2040" y="180.967346"/>
     <use style="fill:#ff7f0e;stroke:#ff7f0e;" x="29.280597" xlink:href="#m20237d2040" y="210.565923"/>
     <use style="fill:#ff7f0e;stroke:#ff7f0e;" x="29.299174" xlink:href="#m20237d2040" y="201.125353"/>
     <use style="fill:#ff7f0e;stroke:#ff7f0e;" x="29.308463" xlink:href="#m20237d2040" y="165.05162"/>
     <use style="fill:#ff7f0e;stroke:#ff7f0e;" x="29.313107" xlink:href="#m20237d2040" y="142.363613"/>
     <use style="fill:#ff7f0e;stroke:#ff7f0e;" x="29.317751" xlink:href="#m20237d2040" y="118.364669"/>
     <use style="fill:#ff7f0e;stroke:#ff7f0e;" x="29.322395" xlink:href="#m20237d2040" y="94.492647"/>
     <use style="fill:#ff7f0e;stroke:#ff7f0e;" x="29.32704" xlink:href="#m20237d2040" y="72.158542"/>
     <use style="fill:#ff7f0e;stroke:#ff7f0e;" x="29.336328" xlink:href="#m20237d2040" y="37.126378"/>
     <use style="fill:#ff7f0e;stroke:#ff7f0e;" x="29.484943" xlink:href="#m20237d2040" y="35.166719"/>
     <use style="fill:#ff7f0e;stroke:#ff7f0e;" x="30.673864" xlink:href="#m20237d2040" y="48.155051"/>
     <use style="fill:#ff7f0e;stroke:#ff7f0e;" x="35.429545" xlink:href="#m20237d2040" y="28.488001"/>
     <use style="fill:#ff7f0e;stroke:#ff7f0e;" x="44.940909" xlink:href="#m20237d2040" y="64.919008"/>
     <use style="fill:#ff7f0e;stroke:#ff7f0e;" x="54.452273" xlink:href="#m20237d2040" y="58.992485"/>
     <use style="fill:#ff7f0e;stroke:#ff7f0e;" x="56.830114" xlink:href="#m20237d2040" y="45.640933"/>
     <use style="fill:#ff7f0e;stroke:#ff7f0e;" x="57.424574" xlink:href="#m20237d2040" y="74.552769"/>
     <use style="fill:#ff7f0e;stroke:#ff7f0e;" x="58.019034" xlink:href="#m20237d2040" y="108.23528"/>
     <use style="fill:#ff7f0e;stroke:#ff7f0e;" x="58.613494" xlink:href="#m20237d2040" y="142.084693"/>
     <use style="fill:#ff7f0e;stroke:#ff7f0e;" x="59.207955" xlink:href="#m20237d2040" y="172.241831"/>
     <use style="fill:#ff7f0e;stroke:#ff7f0e;" x="63.963636" xlink:href="#m20237d2040" y="147.875316"/>
     <use style="fill:#ff7f0e;stroke:#ff7f0e;" x="64.558097" xlink:href="#m20237d2040" y="123.953305"/>
     <use style="fill:#ff7f0e;stroke:#ff7f0e;" x="65.152557" xlink:href="#m20237d2040" y="100.481043"/>
     <use style="fill:#ff7f0e;stroke:#ff7f0e;" x="66.341477" xlink:href="#m20237d2040" y="59.673283"/>
     <use style="fill:#ff7f0e;stroke:#ff7f0e;" x="68.719318" xlink:href="#m20237d2040" y="20.940931"/>
     <use style="fill:#ff7f0e;stroke:#ff7f0e;" x="71.097159" xlink:href="#m20237d2040" y="41.551563"/>
     <use style="fill:#ff7f0e;stroke:#ff7f0e;" x="72.28608" xlink:href="#m20237d2040" y="66.765958"/>
     <use style="fill:#ff7f0e;stroke:#ff7f0e;" x="73.475" xlink:href="#m20237d2040" y="96.538416"/>
     <use style="fill:#ff7f0e;stroke:#ff7f0e;" x="74.66392" xlink:href="#m20237d2040" y="127.177172"/>
     <use style="fill:#ff7f0e;stroke:#ff7f0e;" x="75.852841" xlink:href="#m20237d2040" y="155.703295"/>
     <use style="fill:#ff7f0e;stroke:#ff7f0e;" x="77.041761" xlink:href="#m20237d2040" y="179.970909"/>
     <use style="fill:#ff7f0e;stroke:#ff7f0e;" x="78.230682" xlink:href="#m20237d2040" y="198.649619"/>
     <use style="fill:#ff7f0e;stroke:#ff7f0e;" x="82.986364" xlink:href="#m20237d2040" y="212.958321"/>
     <use style="fill:#ff7f0e;stroke:#ff7f0e;" x="85.364205" xlink:href="#m20237d2040" y="191.360806"/>
     <use style="fill:#ff7f0e;stroke:#ff7f0e;" x="87.742045" xlink:href="#m20237d2040" y="159.845694"/>
     <use style="fill:#ff7f0e;stroke:#ff7f0e;" x="90.119886" xlink:href="#m20237d2040" y="125.021368"/>
     <use style="fill:#ff7f0e;stroke:#ff7f0e;" x="92.497727" xlink:href="#m20237d2040" y="91.92361"/>
     <use style="fill:#ff7f0e;stroke:#ff7f0e;" x="94.875568" xlink:href="#m20237d2040" y="63.842088"/>
     <use style="fill:#ff7f0e;stroke:#ff7f0e;" x="97.253409" xlink:href="#m20237d2040" y="42.527265"/>
     <use style="fill:#ff7f0e;stroke:#ff7f0e;" x="102.009091" xlink:href="#m20237d2040" y="21.635428"/>
     <use style="fill:#ff7f0e;stroke:#ff7f0e;" x="111.520455" xlink:href="#m20237d2040" y="46.624058"/>
     <use style="fill:#ff7f0e;stroke:#ff7f0e;" x="116.276136" xlink:href="#m20237d2040" y="76.104435"/>
     <use style="fill:#ff7f0e;stroke:#ff7f0e;" x="121.031818" xlink:href="#m20237d2040" y="107.900704"/>
     <use style="fill:#ff7f0e;stroke:#ff7f0e;" x="125.7875" xlink:href="#m20237d2040" y="137.886852"/>
     <use style="fill:#ff7f0e;stroke:#ff7f0e;" x="130.543182" xlink:href="#m20237d2040" y="163.740792"/>
     <use style="fill:#ff7f0e;stroke:#ff7f0e;" x="140.054545" xlink:href="#m20237d2040" y="199.806525"/>
     <use style="fill:#ff7f0e;stroke:#ff7f0e;" x="178.1" xlink:href="#m20237d2040" y="194.219612"/>
     <use style="fill:#ff7f0e;stroke:#ff7f0e;" x="197.122727" xlink:href="#m20237d2040" y="159.176007"/>
     <use style="fill:#ff7f0e;stroke:#ff7f0e;" x="216.145455" xlink:href="#m20237d2040" y="125.189491"/>
     <use style="fill:#ff7f0e;stroke:#ff7f0e;" x="235.168182" xlink:href="#m20237d2040" y="96.646851"/>
     <use style="fill:#ff7f0e;stroke:#ff7f0e;" x="254.190909" xlink:href="#m20237d2040" y="74.224838"/>
     <use style="fill:#ff7f0e;stroke:#ff7f0e;" x="292.236364" xlink:href="#m20237d2040" y="44.784014"/>
     <use style="fill:#ff7f0e;stroke:#ff7f0e;" x="330.281818" xlink:href="#m20237d2040" y="29.548349"/>
    </g>
   </g>
   <g id="patch_3">
    <path d="M 10.7 228.14 
L 10.7 10.7 
" style="fill:none;stroke:#000000;stroke-linecap:square;stroke-linejoin:miter;stroke-width:0.8;"/>
   </g>
   <g id="patch_4">
    <path d="M 345.5 228.14 
L 345.5 10.7 
" style="fill:none;stroke:#000000;stroke-linecap:square;stroke-linejoin:miter;stroke-width:0.8;"/>
   </g>
   <g id="patch_5">
    <path d="M 10.7 228.14 
L 345.5 228.14 
" style="fill:none;stroke:#000000;stroke-linecap:square;stroke-linejoin:miter;stroke-width:0.8;"/>
   </g>
   <g id="patch_6">
    <path d="M 10.7 10.7 
L 345.5 10.7 
" style="fill:none;stroke:#000000;stroke-linecap:square;stroke-linejoin:miter;stroke-width:0.8;"/>
   </g>
  </g>
 </g>
 <defs>
  <clipPath id="p337135eb08">
   <rect height="217.44" width="334.8" x="10.7" y="10.7"/>
  </clipPath>
 </defs>
</svg>
