<?xml version="1.0" encoding="utf-8" standalone="no"?>
<!DOCTYPE svg PUBLIC "-//W3C//DTD SVG 1.1//EN"
  "http://www.w3.org/Graphics/SVG/1.1/DTD/svg11.dtd">
<!-- Created with matplotlib (https://matplotlib.org/) -->
<svg height="238.84pt" version="1.1" viewBox="0 0 356.2 238.84" width="356.2pt" xmlns="http://www.w3.org/2000/svg" xmlns:xlink="http://www.w3.org/1999/xlink">
 <defs>
  <style type="text/css">
*{stroke-linecap:butt;stroke-linejoin:round;}
  </style>
 </defs>
 <g id="figure_1">
  <g id="patch_1">
   <path d="M 0 238.84 
L 356.2 238.84 
L 356.2 0 
L 0 0 
z
" style="fill:#ffffff;"/>
  </g>
  <g id="axes_1">
   <g id="patch_2">
    <path d="M 10.7 228.14 
L 345.5 228.14 
L 345.5 10.7 
L 10.7 10.7 
z
" style="fill:#ffffff;"/>
   </g>
   <g id="matplotlib.axis_1">
    <g id="xtick_1"/>
    <g id="xtick_2"/>
    <g id="xtick_3"/>
    <g id="xtick_4"/>
    <g id="xtick_5"/>
   </g>
   <g id="matplotlib.axis_2">
    <g id="ytick_1"/>
    <g id="ytick_2"/>
    <g id="ytick_3"/>
    <g id="ytick_4"/>
    <g id="ytick_5"/>
   </g>
   <g id="line2d_1">
    <path clip-path="url(#p6c4ceaeece)" d="M 25.918182 71.269443 
L 27.744729 96.041806 
L 33.46791 175.82703 
L 34.868263 191.305963 
L 36.025076 201.802024 
L 36.999234 208.786713 
L 37.851623 213.384223 
L 38.582242 216.14084 
L 39.130206 217.469642 
L 39.617285 218.110998 
L 39.982595 218.256361 
L 40.287019 218.157297 
L 40.652329 217.774481 
L 41.078523 216.965445 
L 41.626487 215.356957 
L 42.235336 212.83222 
L 42.965955 208.806281 
L 43.818344 202.796349 
L 44.792502 194.315049 
L 45.949315 182.245452 
L 47.349668 165.219208 
L 49.2371 139.322501 
L 54.412317 66.71879 
L 55.873555 50.019997 
L 57.091253 38.540469 
L 58.126296 30.826211 
L 58.978685 26.021611 
L 59.709304 23.080217 
L 60.318153 21.485887 
L 60.805232 20.781014 
L 61.170541 20.587817 
L 61.474966 20.647005 
L 61.840275 20.982072 
L 62.26647 21.735719 
L 62.753549 23.071562 
L 63.362398 25.442666 
L 64.093017 29.290394 
L 64.945405 35.103503 
L 65.919564 43.378295 
L 67.076377 55.233822 
L 68.47673 72.054556 
L 70.303277 96.914066 
L 75.843803 174.362665 
L 77.244156 190.078109 
L 78.400969 200.80962 
L 79.375128 208.015352 
L 80.227516 212.819542 
L 80.958135 215.760571 
L 81.566984 217.354588 
L 82.054064 218.059209 
L 82.419373 218.252215 
L 82.723797 218.192869 
L 83.089107 217.857612 
L 83.515301 217.103744 
L 84.00238 215.767651 
L 84.61123 213.396242 
L 85.341848 209.548159 
L 86.194237 203.734657 
L 87.168395 195.459452 
L 88.325209 183.603497 
L 89.725561 166.78235 
L 91.552109 141.922501 
L 97.092635 64.474405 
L 98.492988 48.759426 
L 99.649801 38.028379 
L 100.623959 30.823086 
L 101.476348 26.019305 
L 102.206967 23.078642 
L 102.815816 21.484937 
L 103.302895 20.780569 
L 103.668205 20.587753 
L 103.972629 20.647258 
L 104.337938 20.982705 
L 104.764133 21.736792 
L 105.251212 23.073135 
L 105.860061 25.44485 
L 106.59068 29.293288 
L 107.443069 35.107183 
L 108.417227 43.3828 
L 109.57404 55.239184 
L 110.974393 72.060745 
L 112.80094 96.920932 
L 118.341466 174.368526 
L 119.741819 190.083039 
L 120.898632 200.813621 
L 121.872791 208.018477 
L 122.72518 212.821848 
L 123.455798 215.762145 
L 124.064647 217.355538 
L 124.551727 218.059654 
L 124.917036 218.252279 
L 125.221461 218.192616 
L 125.58677 217.856979 
L 126.012964 217.10267 
L 126.500044 215.766079 
L 127.108893 213.394058 
L 127.839512 209.545265 
L 128.6919 203.730977 
L 129.666059 195.454948 
L 130.822872 183.598135 
L 132.223225 166.776161 
L 134.049772 141.915635 
L 139.590298 64.468543 
L 140.990651 48.754496 
L 142.147464 38.024379 
L 143.121623 30.81996 
L 143.974011 26.016999 
L 144.70463 23.077068 
L 145.313479 21.483987 
L 145.800558 20.780124 
L 146.165868 20.587689 
L 146.470292 20.647511 
L 146.835602 20.983338 
L 147.261796 21.737867 
L 147.748875 23.074708 
L 148.357724 25.447034 
L 149.088343 29.296182 
L 149.940732 35.110863 
L 150.91489 43.387305 
L 152.071703 55.244547 
L 153.472056 72.066934 
L 155.298603 96.927799 
L 160.83913 174.374387 
L 162.239482 190.087969 
L 163.396296 200.817621 
L 164.370454 208.021602 
L 165.222843 212.824154 
L 165.953462 215.763719 
L 166.562311 217.356488 
L 167.04939 218.060098 
L 167.414699 218.252343 
L 167.719124 218.192362 
L 168.084433 217.856345 
L 168.510628 217.101596 
L 168.997707 215.764506 
L 169.606556 213.391873 
L 170.337175 209.54237 
L 171.189563 203.727297 
L 172.163722 195.450442 
L 173.320535 183.592772 
L 174.720888 166.769971 
L 176.547435 141.908768 
L 182.087961 64.462682 
L 183.488314 48.749566 
L 184.645127 38.020379 
L 185.619286 30.816835 
L 186.471674 26.014693 
L 187.202293 23.075494 
L 187.811142 21.483038 
L 188.298221 20.77968 
L 188.663531 20.587625 
L 188.967955 20.647764 
L 189.333265 20.983972 
L 189.759459 21.738941 
L 190.246538 23.076281 
L 190.855387 25.449219 
L 191.586006 29.299077 
L 192.438395 35.114543 
L 193.412553 43.39181 
L 194.569367 55.24991 
L 195.969719 72.073123 
L 197.796267 96.934665 
L 203.336793 174.380248 
L 204.737146 190.092899 
L 205.893959 200.82162 
L 206.868117 208.024727 
L 207.720506 212.826459 
L 208.451125 215.765292 
L 209.059974 217.357437 
L 209.547053 218.060542 
L 209.912362 218.252407 
L 210.216787 218.192108 
L 210.582096 217.855711 
L 211.008291 217.100521 
L 211.49537 215.762932 
L 212.104219 213.389688 
L 212.834838 209.539475 
L 213.687227 203.723617 
L 214.661385 195.445937 
L 215.818198 183.587409 
L 217.218551 166.763782 
L 219.045098 141.901902 
L 224.585624 64.456822 
L 225.985977 48.744637 
L 227.14279 38.01638 
L 228.116949 30.813711 
L 228.969338 26.012388 
L 229.699956 23.073921 
L 230.308805 21.482089 
L 230.795885 20.779236 
L 231.161194 20.587562 
L 231.465619 20.648019 
L 231.830928 20.984606 
L 232.257122 21.740017 
L 232.744202 23.077855 
L 233.353051 25.451405 
L 234.083669 29.301973 
L 234.936058 35.118223 
L 235.910217 43.396316 
L 237.06703 55.255273 
L 238.467383 72.079313 
L 240.29393 96.941532 
L 245.834456 174.386108 
L 247.234809 190.097828 
L 248.391622 200.82562 
L 249.36578 208.027851 
L 250.218169 212.828764 
L 250.948788 215.766865 
L 251.557637 217.358385 
L 252.044716 218.060986 
L 252.410026 218.25247 
L 252.71445 218.191854 
L 253.07976 217.855076 
L 253.505954 217.099446 
L 253.993033 215.761358 
L 254.601882 213.387502 
L 255.332501 209.536579 
L 256.18489 203.719936 
L 257.159048 195.441431 
L 258.315861 183.582045 
L 259.716214 166.757592 
L 261.542761 141.895035 
L 267.083288 64.450961 
L 268.48364 48.739707 
L 269.640454 38.012381 
L 270.614612 30.810587 
L 271.467001 26.010084 
L 272.19762 23.072349 
L 272.806469 21.48114 
L 273.293548 20.778793 
L 273.658857 20.587499 
L 273.963282 20.648273 
L 274.328591 20.985241 
L 274.754786 21.741092 
L 275.241865 23.079429 
L 275.850714 25.453591 
L 276.581333 29.304869 
L 277.433721 35.121904 
L 278.40788 43.400822 
L 279.564693 55.260637 
L 280.965046 72.085503 
L 282.791593 96.948398 
L 288.332119 174.391969 
L 289.732472 190.102757 
L 290.889285 200.829618 
L 291.863444 208.030975 
L 292.715832 212.831069 
L 293.446451 215.768438 
L 294.0553 217.359334 
L 294.542379 218.061429 
L 294.907689 218.252532 
L 295.212113 218.191599 
L 295.577423 217.854441 
L 296.003617 217.09837 
L 296.490696 215.759783 
L 297.099545 213.385316 
L 297.830164 209.533683 
L 298.682553 203.716255 
L 299.656711 195.436924 
L 300.813525 183.576682 
L 302.213877 166.751402 
L 304.040424 141.888168 
L 309.580951 64.445101 
L 310.981304 48.734779 
L 312.138117 38.008383 
L 313.112275 30.807464 
L 313.964664 26.00778 
L 314.695283 23.070776 
L 315.304132 21.480193 
L 315.791211 20.77835 
L 316.15652 20.587437 
L 316.460945 20.648529 
L 316.826254 20.985876 
L 317.252449 21.742169 
L 317.739528 23.081004 
L 318.348377 25.455777 
L 319.078996 29.307765 
L 319.931384 35.125586 
L 320.905543 43.405329 
L 322.062356 55.266 
L 323.462709 72.091694 
L 325.289256 96.955265 
L 330.281818 167.570557 
L 330.281818 167.570557 
" style="fill:none;stroke:#1f77b4;stroke-dasharray:1.5,2.475;stroke-dashoffset:0;stroke-width:1.5;"/>
   </g>
   <g id="line2d_2">
    <path clip-path="url(#p6c4ceaeece)" d="M 25.918182 71.269443 
L 28.296023 103.938156 
L 31.862784 155.165806 
L 33.051705 170.729204 
L 34.240625 184.711274 
L 35.429545 196.681096 
L 44.940909 192.882034 
L 46.12983 180.186972 
L 47.31875 165.619097 
L 49.696591 132.704698 
L 53.263352 81.612888 
L 54.452273 66.225772 
L 55.641193 52.47808 
L 56.830114 40.793508 
L 59.207955 24.979499 
L 63.963636 28.531026 
L 65.152557 36.722212 
L 66.341477 47.462109 
L 67.530398 60.419716 
L 69.908239 91.334632 
L 74.66392 159.269331 
L 75.852841 174.472395 
L 77.041761 187.978769 
L 78.230682 199.372191 
L 80.608523 214.491562 
L 82.986364 217.980978 
L 85.364205 209.413585 
L 86.553125 200.880795 
L 87.742045 189.837419 
L 88.930966 176.623808 
L 91.308807 145.36917 
L 96.064489 77.54857 
L 97.253409 62.537232 
L 98.44233 49.278996 
L 99.63125 38.182475 
L 102.009091 23.765377 
L 106.764773 30.36724 
L 107.953693 39.237325 
L 109.142614 50.578606 
L 110.331534 64.041548 
L 112.709375 95.62013 
L 117.465057 163.29239 
L 118.653977 178.104423 
L 119.842898 191.107827 
L 121.031818 201.901844 
L 130.543182 186.650614 
L 131.732102 172.945136 
L 134.109943 141.058555 
L 138.865625 73.5688 
L 140.054545 58.963551 
L 141.243466 46.221543 
L 142.432386 35.73548 
L 144.810227 22.744404 
L 149.565909 32.383273 
L 150.75483 41.914346 
L 151.94375 53.83411 
L 153.13267 67.775202 
L 155.510511 99.953685 
L 159.077273 151.362381 
L 161.455114 181.617953 
L 162.644034 194.092131 
L 163.832955 204.264947 
L 168.588636 216.921358 
L 170.966477 205.382537 
L 172.155398 195.528105 
L 173.344318 183.328054 
L 174.533239 169.158385 
L 176.91108 136.704246 
L 180.477841 85.3842 
L 181.666761 69.681615 
L 182.855682 55.511946 
L 184.044602 43.311895 
L 185.233523 33.457463 
L 187.611364 21.918642 
L 192.367045 34.575053 
L 193.555966 44.747869 
L 194.744886 57.222047 
L 195.933807 71.613139 
L 198.311648 104.326548 
L 201.878409 155.532035 
L 203.06733 171.064798 
L 204.25625 185.00589 
L 205.44517 196.925654 
L 206.634091 206.456727 
L 211.389773 216.095596 
L 213.767614 203.10452 
L 214.956534 192.618457 
L 216.145455 179.876449 
L 217.334375 165.2712 
L 219.712216 132.315037 
L 223.278977 81.249962 
L 224.467898 65.894864 
L 225.656818 52.189386 
L 235.168182 36.938156 
L 236.357102 47.732173 
L 237.546023 60.735577 
L 239.923864 91.711771 
L 244.679545 159.628769 
L 245.868466 174.798452 
L 247.057386 188.261394 
L 248.246307 199.602675 
L 249.435227 208.47276 
L 254.190909 215.074623 
L 256.56875 200.657525 
L 257.75767 189.561004 
L 258.946591 176.302768 
L 261.324432 144.989633 
L 266.080114 77.192799 
L 267.269034 62.216192 
L 268.457955 49.002581 
L 269.646875 37.959205 
L 270.835795 29.426415 
L 273.213636 20.859022 
L 275.591477 24.348438 
L 277.969318 39.467809 
L 279.158239 50.861231 
L 280.347159 64.367605 
L 282.725 96.001873 
L 287.480682 163.644313 
L 288.669602 178.420284 
L 289.858523 191.377891 
L 291.047443 202.117788 
L 292.236364 210.308974 
L 296.992045 213.860501 
L 299.369886 198.046492 
L 300.558807 186.36192 
L 301.747727 172.614228 
L 304.125568 140.674798 
L 308.88125 73.220903 
L 310.07017 58.653028 
L 311.259091 45.957966 
L 320.770455 42.158904 
L 321.959375 54.128726 
L 323.148295 68.110796 
L 325.526136 100.339262 
L 329.092898 151.734155 
L 330.281818 167.570557 
L 330.281818 167.570557 
" style="fill:none;stroke:#ff7f0e;stroke-linecap:square;"/>
    <defs>
     <path d="M 0 2 
C 0.530406 2 1.03916 1.789267 1.414214 1.414214 
C 1.789267 1.03916 2 0.530406 2 0 
C 2 -0.530406 1.789267 -1.03916 1.414214 -1.414214 
C 1.03916 -1.789267 0.530406 -2 0 -2 
C -0.530406 -2 -1.03916 -1.789267 -1.414214 -1.414214 
C -1.789267 -1.03916 -2 -0.530406 -2 0 
C -2 0.530406 -1.789267 1.03916 -1.414214 1.414214 
C -1.03916 1.789267 -0.530406 2 0 2 
z
" id="m8899ee9d23" style="stroke:#ff7f0e;"/>
    </defs>
    <g clip-path="url(#p6c4ceaeece)">
     <use style="fill:#ff7f0e;stroke:#ff7f0e;" x="25.918182" xlink:href="#m8899ee9d23" y="71.269443"/>
     <use style="fill:#ff7f0e;stroke:#ff7f0e;" x="27.107102" xlink:href="#m8899ee9d23" y="87.105845"/>
     <use style="fill:#ff7f0e;stroke:#ff7f0e;" x="28.296023" xlink:href="#m8899ee9d23" y="103.938156"/>
     <use style="fill:#ff7f0e;stroke:#ff7f0e;" x="28.890483" xlink:href="#m8899ee9d23" y="112.566429"/>
     <use style="fill:#ff7f0e;stroke:#ff7f0e;" x="29.484943" xlink:href="#m8899ee9d23" y="121.24761"/>
     <use style="fill:#ff7f0e;stroke:#ff7f0e;" x="30.673864" xlink:href="#m8899ee9d23" y="138.500738"/>
     <use style="fill:#ff7f0e;stroke:#ff7f0e;" x="31.862784" xlink:href="#m8899ee9d23" y="155.165806"/>
     <use style="fill:#ff7f0e;stroke:#ff7f0e;" x="33.051705" xlink:href="#m8899ee9d23" y="170.729204"/>
     <use style="fill:#ff7f0e;stroke:#ff7f0e;" x="34.240625" xlink:href="#m8899ee9d23" y="184.711274"/>
     <use style="fill:#ff7f0e;stroke:#ff7f0e;" x="35.429545" xlink:href="#m8899ee9d23" y="196.681096"/>
     <use style="fill:#ff7f0e;stroke:#ff7f0e;" x="44.940909" xlink:href="#m8899ee9d23" y="192.882034"/>
     <use style="fill:#ff7f0e;stroke:#ff7f0e;" x="46.12983" xlink:href="#m8899ee9d23" y="180.186972"/>
     <use style="fill:#ff7f0e;stroke:#ff7f0e;" x="47.31875" xlink:href="#m8899ee9d23" y="165.619097"/>
     <use style="fill:#ff7f0e;stroke:#ff7f0e;" x="48.50767" xlink:href="#m8899ee9d23" y="149.627387"/>
     <use style="fill:#ff7f0e;stroke:#ff7f0e;" x="49.696591" xlink:href="#m8899ee9d23" y="132.704698"/>
     <use style="fill:#ff7f0e;stroke:#ff7f0e;" x="50.291051" xlink:href="#m8899ee9d23" y="124.056535"/>
     <use style="fill:#ff7f0e;stroke:#ff7f0e;" x="50.885511" xlink:href="#m8899ee9d23" y="115.37258"/>
     <use style="fill:#ff7f0e;stroke:#ff7f0e;" x="52.074432" xlink:href="#m8899ee9d23" y="98.165202"/>
     <use style="fill:#ff7f0e;stroke:#ff7f0e;" x="53.263352" xlink:href="#m8899ee9d23" y="81.612888"/>
     <use style="fill:#ff7f0e;stroke:#ff7f0e;" x="54.452273" xlink:href="#m8899ee9d23" y="66.225772"/>
     <use style="fill:#ff7f0e;stroke:#ff7f0e;" x="55.641193" xlink:href="#m8899ee9d23" y="52.47808"/>
     <use style="fill:#ff7f0e;stroke:#ff7f0e;" x="56.830114" xlink:href="#m8899ee9d23" y="40.793508"/>
     <use style="fill:#ff7f0e;stroke:#ff7f0e;" x="59.207955" xlink:href="#m8899ee9d23" y="24.979499"/>
     <use style="fill:#ff7f0e;stroke:#ff7f0e;" x="63.963636" xlink:href="#m8899ee9d23" y="28.531026"/>
     <use style="fill:#ff7f0e;stroke:#ff7f0e;" x="65.152557" xlink:href="#m8899ee9d23" y="36.722212"/>
     <use style="fill:#ff7f0e;stroke:#ff7f0e;" x="66.341477" xlink:href="#m8899ee9d23" y="47.462109"/>
     <use style="fill:#ff7f0e;stroke:#ff7f0e;" x="67.530398" xlink:href="#m8899ee9d23" y="60.419716"/>
     <use style="fill:#ff7f0e;stroke:#ff7f0e;" x="68.719318" xlink:href="#m8899ee9d23" y="75.195687"/>
     <use style="fill:#ff7f0e;stroke:#ff7f0e;" x="69.908239" xlink:href="#m8899ee9d23" y="91.334632"/>
     <use style="fill:#ff7f0e;stroke:#ff7f0e;" x="71.097159" xlink:href="#m8899ee9d23" y="108.339156"/>
     <use style="fill:#ff7f0e;stroke:#ff7f0e;" x="72.28608" xlink:href="#m8899ee9d23" y="125.685187"/>
     <use style="fill:#ff7f0e;stroke:#ff7f0e;" x="73.475" xlink:href="#m8899ee9d23" y="142.838127"/>
     <use style="fill:#ff7f0e;stroke:#ff7f0e;" x="74.66392" xlink:href="#m8899ee9d23" y="159.269331"/>
     <use style="fill:#ff7f0e;stroke:#ff7f0e;" x="75.852841" xlink:href="#m8899ee9d23" y="174.472395"/>
     <use style="fill:#ff7f0e;stroke:#ff7f0e;" x="77.041761" xlink:href="#m8899ee9d23" y="187.978769"/>
     <use style="fill:#ff7f0e;stroke:#ff7f0e;" x="78.230682" xlink:href="#m8899ee9d23" y="199.372191"/>
     <use style="fill:#ff7f0e;stroke:#ff7f0e;" x="80.608523" xlink:href="#m8899ee9d23" y="214.491562"/>
     <use style="fill:#ff7f0e;stroke:#ff7f0e;" x="82.986364" xlink:href="#m8899ee9d23" y="217.980978"/>
     <use style="fill:#ff7f0e;stroke:#ff7f0e;" x="85.364205" xlink:href="#m8899ee9d23" y="209.413585"/>
     <use style="fill:#ff7f0e;stroke:#ff7f0e;" x="86.553125" xlink:href="#m8899ee9d23" y="200.880795"/>
     <use style="fill:#ff7f0e;stroke:#ff7f0e;" x="87.742045" xlink:href="#m8899ee9d23" y="189.837419"/>
     <use style="fill:#ff7f0e;stroke:#ff7f0e;" x="88.930966" xlink:href="#m8899ee9d23" y="176.623808"/>
     <use style="fill:#ff7f0e;stroke:#ff7f0e;" x="90.119886" xlink:href="#m8899ee9d23" y="161.647201"/>
     <use style="fill:#ff7f0e;stroke:#ff7f0e;" x="91.308807" xlink:href="#m8899ee9d23" y="145.36917"/>
     <use style="fill:#ff7f0e;stroke:#ff7f0e;" x="92.497727" xlink:href="#m8899ee9d23" y="128.291396"/>
     <use style="fill:#ff7f0e;stroke:#ff7f0e;" x="93.686648" xlink:href="#m8899ee9d23" y="110.94021"/>
     <use style="fill:#ff7f0e;stroke:#ff7f0e;" x="94.875568" xlink:href="#m8899ee9d23" y="93.850367"/>
     <use style="fill:#ff7f0e;stroke:#ff7f0e;" x="96.064489" xlink:href="#m8899ee9d23" y="77.54857"/>
     <use style="fill:#ff7f0e;stroke:#ff7f0e;" x="97.253409" xlink:href="#m8899ee9d23" y="62.537232"/>
     <use style="fill:#ff7f0e;stroke:#ff7f0e;" x="98.44233" xlink:href="#m8899ee9d23" y="49.278996"/>
     <use style="fill:#ff7f0e;stroke:#ff7f0e;" x="99.63125" xlink:href="#m8899ee9d23" y="38.182475"/>
     <use style="fill:#ff7f0e;stroke:#ff7f0e;" x="102.009091" xlink:href="#m8899ee9d23" y="23.765377"/>
     <use style="fill:#ff7f0e;stroke:#ff7f0e;" x="106.764773" xlink:href="#m8899ee9d23" y="30.36724"/>
     <use style="fill:#ff7f0e;stroke:#ff7f0e;" x="107.953693" xlink:href="#m8899ee9d23" y="39.237325"/>
     <use style="fill:#ff7f0e;stroke:#ff7f0e;" x="109.142614" xlink:href="#m8899ee9d23" y="50.578606"/>
     <use style="fill:#ff7f0e;stroke:#ff7f0e;" x="110.331534" xlink:href="#m8899ee9d23" y="64.041548"/>
     <use style="fill:#ff7f0e;stroke:#ff7f0e;" x="111.520455" xlink:href="#m8899ee9d23" y="79.211231"/>
     <use style="fill:#ff7f0e;stroke:#ff7f0e;" x="112.709375" xlink:href="#m8899ee9d23" y="95.62013"/>
     <use style="fill:#ff7f0e;stroke:#ff7f0e;" x="113.898295" xlink:href="#m8899ee9d23" y="112.762531"/>
     <use style="fill:#ff7f0e;stroke:#ff7f0e;" x="114.492756" xlink:href="#m8899ee9d23" y="121.444135"/>
     <use style="fill:#ff7f0e;stroke:#ff7f0e;" x="115.087216" xlink:href="#m8899ee9d23" y="130.110112"/>
     <use style="fill:#ff7f0e;stroke:#ff7f0e;" x="116.276136" xlink:href="#m8899ee9d23" y="147.128229"/>
     <use style="fill:#ff7f0e;stroke:#ff7f0e;" x="117.465057" xlink:href="#m8899ee9d23" y="163.29239"/>
     <use style="fill:#ff7f0e;stroke:#ff7f0e;" x="118.653977" xlink:href="#m8899ee9d23" y="178.104423"/>
     <use style="fill:#ff7f0e;stroke:#ff7f0e;" x="119.842898" xlink:href="#m8899ee9d23" y="191.107827"/>
     <use style="fill:#ff7f0e;stroke:#ff7f0e;" x="121.031818" xlink:href="#m8899ee9d23" y="201.901844"/>
     <use style="fill:#ff7f0e;stroke:#ff7f0e;" x="130.543182" xlink:href="#m8899ee9d23" y="186.650614"/>
     <use style="fill:#ff7f0e;stroke:#ff7f0e;" x="131.732102" xlink:href="#m8899ee9d23" y="172.945136"/>
     <use style="fill:#ff7f0e;stroke:#ff7f0e;" x="132.921023" xlink:href="#m8899ee9d23" y="157.590038"/>
     <use style="fill:#ff7f0e;stroke:#ff7f0e;" x="134.109943" xlink:href="#m8899ee9d23" y="141.058555"/>
     <use style="fill:#ff7f0e;stroke:#ff7f0e;" x="135.298864" xlink:href="#m8899ee9d23" y="123.860181"/>
     <use style="fill:#ff7f0e;stroke:#ff7f0e;" x="135.893324" xlink:href="#m8899ee9d23" y="115.176191"/>
     <use style="fill:#ff7f0e;stroke:#ff7f0e;" x="136.487784" xlink:href="#m8899ee9d23" y="106.524963"/>
     <use style="fill:#ff7f0e;stroke:#ff7f0e;" x="137.676705" xlink:href="#m8899ee9d23" y="89.587164"/>
     <use style="fill:#ff7f0e;stroke:#ff7f0e;" x="138.865625" xlink:href="#m8899ee9d23" y="73.5688"/>
     <use style="fill:#ff7f0e;stroke:#ff7f0e;" x="140.054545" xlink:href="#m8899ee9d23" y="58.963551"/>
     <use style="fill:#ff7f0e;stroke:#ff7f0e;" x="141.243466" xlink:href="#m8899ee9d23" y="46.221543"/>
     <use style="fill:#ff7f0e;stroke:#ff7f0e;" x="142.432386" xlink:href="#m8899ee9d23" y="35.73548"/>
     <use style="fill:#ff7f0e;stroke:#ff7f0e;" x="144.810227" xlink:href="#m8899ee9d23" y="22.744404"/>
     <use style="fill:#ff7f0e;stroke:#ff7f0e;" x="149.565909" xlink:href="#m8899ee9d23" y="32.383273"/>
     <use style="fill:#ff7f0e;stroke:#ff7f0e;" x="150.75483" xlink:href="#m8899ee9d23" y="41.914346"/>
     <use style="fill:#ff7f0e;stroke:#ff7f0e;" x="151.94375" xlink:href="#m8899ee9d23" y="53.83411"/>
     <use style="fill:#ff7f0e;stroke:#ff7f0e;" x="153.13267" xlink:href="#m8899ee9d23" y="67.775202"/>
     <use style="fill:#ff7f0e;stroke:#ff7f0e;" x="154.321591" xlink:href="#m8899ee9d23" y="83.307965"/>
     <use style="fill:#ff7f0e;stroke:#ff7f0e;" x="155.510511" xlink:href="#m8899ee9d23" y="99.953685"/>
     <use style="fill:#ff7f0e;stroke:#ff7f0e;" x="156.699432" xlink:href="#m8899ee9d23" y="117.199349"/>
     <use style="fill:#ff7f0e;stroke:#ff7f0e;" x="157.293892" xlink:href="#m8899ee9d23" y="125.881341"/>
     <use style="fill:#ff7f0e;stroke:#ff7f0e;" x="157.888352" xlink:href="#m8899ee9d23" y="134.513452"/>
     <use style="fill:#ff7f0e;stroke:#ff7f0e;" x="159.077273" xlink:href="#m8899ee9d23" y="151.362381"/>
     <use style="fill:#ff7f0e;stroke:#ff7f0e;" x="160.266193" xlink:href="#m8899ee9d23" y="167.226861"/>
     <use style="fill:#ff7f0e;stroke:#ff7f0e;" x="161.455114" xlink:href="#m8899ee9d23" y="181.617953"/>
     <use style="fill:#ff7f0e;stroke:#ff7f0e;" x="162.644034" xlink:href="#m8899ee9d23" y="194.092131"/>
     <use style="fill:#ff7f0e;stroke:#ff7f0e;" x="163.832955" xlink:href="#m8899ee9d23" y="204.264947"/>
     <use style="fill:#ff7f0e;stroke:#ff7f0e;" x="168.588636" xlink:href="#m8899ee9d23" y="216.921358"/>
     <use style="fill:#ff7f0e;stroke:#ff7f0e;" x="170.966477" xlink:href="#m8899ee9d23" y="205.382537"/>
     <use style="fill:#ff7f0e;stroke:#ff7f0e;" x="172.155398" xlink:href="#m8899ee9d23" y="195.528105"/>
     <use style="fill:#ff7f0e;stroke:#ff7f0e;" x="173.344318" xlink:href="#m8899ee9d23" y="183.328054"/>
     <use style="fill:#ff7f0e;stroke:#ff7f0e;" x="174.533239" xlink:href="#m8899ee9d23" y="169.158385"/>
     <use style="fill:#ff7f0e;stroke:#ff7f0e;" x="175.722159" xlink:href="#m8899ee9d23" y="153.4558"/>
     <use style="fill:#ff7f0e;stroke:#ff7f0e;" x="176.91108" xlink:href="#m8899ee9d23" y="136.704246"/>
     <use style="fill:#ff7f0e;stroke:#ff7f0e;" x="178.1" xlink:href="#m8899ee9d23" y="119.42"/>
     <use style="fill:#ff7f0e;stroke:#ff7f0e;" x="179.28892" xlink:href="#m8899ee9d23" y="102.135754"/>
     <use style="fill:#ff7f0e;stroke:#ff7f0e;" x="180.477841" xlink:href="#m8899ee9d23" y="85.3842"/>
     <use style="fill:#ff7f0e;stroke:#ff7f0e;" x="181.666761" xlink:href="#m8899ee9d23" y="69.681615"/>
     <use style="fill:#ff7f0e;stroke:#ff7f0e;" x="182.855682" xlink:href="#m8899ee9d23" y="55.511946"/>
     <use style="fill:#ff7f0e;stroke:#ff7f0e;" x="184.044602" xlink:href="#m8899ee9d23" y="43.311895"/>
     <use style="fill:#ff7f0e;stroke:#ff7f0e;" x="185.233523" xlink:href="#m8899ee9d23" y="33.457463"/>
     <use style="fill:#ff7f0e;stroke:#ff7f0e;" x="187.611364" xlink:href="#m8899ee9d23" y="21.918642"/>
     <use style="fill:#ff7f0e;stroke:#ff7f0e;" x="192.367045" xlink:href="#m8899ee9d23" y="34.575053"/>
     <use style="fill:#ff7f0e;stroke:#ff7f0e;" x="193.555966" xlink:href="#m8899ee9d23" y="44.747869"/>
     <use style="fill:#ff7f0e;stroke:#ff7f0e;" x="194.744886" xlink:href="#m8899ee9d23" y="57.222047"/>
     <use style="fill:#ff7f0e;stroke:#ff7f0e;" x="195.933807" xlink:href="#m8899ee9d23" y="71.613139"/>
     <use style="fill:#ff7f0e;stroke:#ff7f0e;" x="197.122727" xlink:href="#m8899ee9d23" y="87.477619"/>
     <use style="fill:#ff7f0e;stroke:#ff7f0e;" x="198.311648" xlink:href="#m8899ee9d23" y="104.326548"/>
     <use style="fill:#ff7f0e;stroke:#ff7f0e;" x="198.906108" xlink:href="#m8899ee9d23" y="112.958659"/>
     <use style="fill:#ff7f0e;stroke:#ff7f0e;" x="199.500568" xlink:href="#m8899ee9d23" y="121.640651"/>
     <use style="fill:#ff7f0e;stroke:#ff7f0e;" x="200.689489" xlink:href="#m8899ee9d23" y="138.886315"/>
     <use style="fill:#ff7f0e;stroke:#ff7f0e;" x="201.878409" xlink:href="#m8899ee9d23" y="155.532035"/>
     <use style="fill:#ff7f0e;stroke:#ff7f0e;" x="203.06733" xlink:href="#m8899ee9d23" y="171.064798"/>
     <use style="fill:#ff7f0e;stroke:#ff7f0e;" x="204.25625" xlink:href="#m8899ee9d23" y="185.00589"/>
     <use style="fill:#ff7f0e;stroke:#ff7f0e;" x="205.44517" xlink:href="#m8899ee9d23" y="196.925654"/>
     <use style="fill:#ff7f0e;stroke:#ff7f0e;" x="206.634091" xlink:href="#m8899ee9d23" y="206.456727"/>
     <use style="fill:#ff7f0e;stroke:#ff7f0e;" x="211.389773" xlink:href="#m8899ee9d23" y="216.095596"/>
     <use style="fill:#ff7f0e;stroke:#ff7f0e;" x="213.767614" xlink:href="#m8899ee9d23" y="203.10452"/>
     <use style="fill:#ff7f0e;stroke:#ff7f0e;" x="214.956534" xlink:href="#m8899ee9d23" y="192.618457"/>
     <use style="fill:#ff7f0e;stroke:#ff7f0e;" x="216.145455" xlink:href="#m8899ee9d23" y="179.876449"/>
     <use style="fill:#ff7f0e;stroke:#ff7f0e;" x="217.334375" xlink:href="#m8899ee9d23" y="165.2712"/>
     <use style="fill:#ff7f0e;stroke:#ff7f0e;" x="218.523295" xlink:href="#m8899ee9d23" y="149.252836"/>
     <use style="fill:#ff7f0e;stroke:#ff7f0e;" x="219.712216" xlink:href="#m8899ee9d23" y="132.315037"/>
     <use style="fill:#ff7f0e;stroke:#ff7f0e;" x="220.306676" xlink:href="#m8899ee9d23" y="123.663809"/>
     <use style="fill:#ff7f0e;stroke:#ff7f0e;" x="220.901136" xlink:href="#m8899ee9d23" y="114.979819"/>
     <use style="fill:#ff7f0e;stroke:#ff7f0e;" x="222.090057" xlink:href="#m8899ee9d23" y="97.781445"/>
     <use style="fill:#ff7f0e;stroke:#ff7f0e;" x="223.278977" xlink:href="#m8899ee9d23" y="81.249962"/>
     <use style="fill:#ff7f0e;stroke:#ff7f0e;" x="224.467898" xlink:href="#m8899ee9d23" y="65.894864"/>
     <use style="fill:#ff7f0e;stroke:#ff7f0e;" x="225.656818" xlink:href="#m8899ee9d23" y="52.189386"/>
     <use style="fill:#ff7f0e;stroke:#ff7f0e;" x="235.168182" xlink:href="#m8899ee9d23" y="36.938156"/>
     <use style="fill:#ff7f0e;stroke:#ff7f0e;" x="236.357102" xlink:href="#m8899ee9d23" y="47.732173"/>
     <use style="fill:#ff7f0e;stroke:#ff7f0e;" x="237.546023" xlink:href="#m8899ee9d23" y="60.735577"/>
     <use style="fill:#ff7f0e;stroke:#ff7f0e;" x="238.734943" xlink:href="#m8899ee9d23" y="75.54761"/>
     <use style="fill:#ff7f0e;stroke:#ff7f0e;" x="239.923864" xlink:href="#m8899ee9d23" y="91.711771"/>
     <use style="fill:#ff7f0e;stroke:#ff7f0e;" x="241.112784" xlink:href="#m8899ee9d23" y="108.729888"/>
     <use style="fill:#ff7f0e;stroke:#ff7f0e;" x="241.707244" xlink:href="#m8899ee9d23" y="117.395865"/>
     <use style="fill:#ff7f0e;stroke:#ff7f0e;" x="242.301705" xlink:href="#m8899ee9d23" y="126.077469"/>
     <use style="fill:#ff7f0e;stroke:#ff7f0e;" x="243.490625" xlink:href="#m8899ee9d23" y="143.21987"/>
     <use style="fill:#ff7f0e;stroke:#ff7f0e;" x="244.679545" xlink:href="#m8899ee9d23" y="159.628769"/>
     <use style="fill:#ff7f0e;stroke:#ff7f0e;" x="245.868466" xlink:href="#m8899ee9d23" y="174.798452"/>
     <use style="fill:#ff7f0e;stroke:#ff7f0e;" x="247.057386" xlink:href="#m8899ee9d23" y="188.261394"/>
     <use style="fill:#ff7f0e;stroke:#ff7f0e;" x="248.246307" xlink:href="#m8899ee9d23" y="199.602675"/>
     <use style="fill:#ff7f0e;stroke:#ff7f0e;" x="249.435227" xlink:href="#m8899ee9d23" y="208.47276"/>
     <use style="fill:#ff7f0e;stroke:#ff7f0e;" x="254.190909" xlink:href="#m8899ee9d23" y="215.074623"/>
     <use style="fill:#ff7f0e;stroke:#ff7f0e;" x="256.56875" xlink:href="#m8899ee9d23" y="200.657525"/>
     <use style="fill:#ff7f0e;stroke:#ff7f0e;" x="257.75767" xlink:href="#m8899ee9d23" y="189.561004"/>
     <use style="fill:#ff7f0e;stroke:#ff7f0e;" x="258.946591" xlink:href="#m8899ee9d23" y="176.302768"/>
     <use style="fill:#ff7f0e;stroke:#ff7f0e;" x="260.135511" xlink:href="#m8899ee9d23" y="161.29143"/>
     <use style="fill:#ff7f0e;stroke:#ff7f0e;" x="261.324432" xlink:href="#m8899ee9d23" y="144.989633"/>
     <use style="fill:#ff7f0e;stroke:#ff7f0e;" x="262.513352" xlink:href="#m8899ee9d23" y="127.89979"/>
     <use style="fill:#ff7f0e;stroke:#ff7f0e;" x="263.702273" xlink:href="#m8899ee9d23" y="110.548604"/>
     <use style="fill:#ff7f0e;stroke:#ff7f0e;" x="264.891193" xlink:href="#m8899ee9d23" y="93.47083"/>
     <use style="fill:#ff7f0e;stroke:#ff7f0e;" x="266.080114" xlink:href="#m8899ee9d23" y="77.192799"/>
     <use style="fill:#ff7f0e;stroke:#ff7f0e;" x="267.269034" xlink:href="#m8899ee9d23" y="62.216192"/>
     <use style="fill:#ff7f0e;stroke:#ff7f0e;" x="268.457955" xlink:href="#m8899ee9d23" y="49.002581"/>
     <use style="fill:#ff7f0e;stroke:#ff7f0e;" x="269.646875" xlink:href="#m8899ee9d23" y="37.959205"/>
     <use style="fill:#ff7f0e;stroke:#ff7f0e;" x="270.835795" xlink:href="#m8899ee9d23" y="29.426415"/>
     <use style="fill:#ff7f0e;stroke:#ff7f0e;" x="273.213636" xlink:href="#m8899ee9d23" y="20.859022"/>
     <use style="fill:#ff7f0e;stroke:#ff7f0e;" x="275.591477" xlink:href="#m8899ee9d23" y="24.348438"/>
     <use style="fill:#ff7f0e;stroke:#ff7f0e;" x="277.969318" xlink:href="#m8899ee9d23" y="39.467809"/>
     <use style="fill:#ff7f0e;stroke:#ff7f0e;" x="279.158239" xlink:href="#m8899ee9d23" y="50.861231"/>
     <use style="fill:#ff7f0e;stroke:#ff7f0e;" x="280.347159" xlink:href="#m8899ee9d23" y="64.367605"/>
     <use style="fill:#ff7f0e;stroke:#ff7f0e;" x="281.53608" xlink:href="#m8899ee9d23" y="79.570669"/>
     <use style="fill:#ff7f0e;stroke:#ff7f0e;" x="282.725" xlink:href="#m8899ee9d23" y="96.001873"/>
     <use style="fill:#ff7f0e;stroke:#ff7f0e;" x="283.91392" xlink:href="#m8899ee9d23" y="113.154813"/>
     <use style="fill:#ff7f0e;stroke:#ff7f0e;" x="285.102841" xlink:href="#m8899ee9d23" y="130.500844"/>
     <use style="fill:#ff7f0e;stroke:#ff7f0e;" x="286.291761" xlink:href="#m8899ee9d23" y="147.505368"/>
     <use style="fill:#ff7f0e;stroke:#ff7f0e;" x="287.480682" xlink:href="#m8899ee9d23" y="163.644313"/>
     <use style="fill:#ff7f0e;stroke:#ff7f0e;" x="288.669602" xlink:href="#m8899ee9d23" y="178.420284"/>
     <use style="fill:#ff7f0e;stroke:#ff7f0e;" x="289.858523" xlink:href="#m8899ee9d23" y="191.377891"/>
     <use style="fill:#ff7f0e;stroke:#ff7f0e;" x="291.047443" xlink:href="#m8899ee9d23" y="202.117788"/>
     <use style="fill:#ff7f0e;stroke:#ff7f0e;" x="292.236364" xlink:href="#m8899ee9d23" y="210.308974"/>
     <use style="fill:#ff7f0e;stroke:#ff7f0e;" x="296.992045" xlink:href="#m8899ee9d23" y="213.860501"/>
     <use style="fill:#ff7f0e;stroke:#ff7f0e;" x="299.369886" xlink:href="#m8899ee9d23" y="198.046492"/>
     <use style="fill:#ff7f0e;stroke:#ff7f0e;" x="300.558807" xlink:href="#m8899ee9d23" y="186.36192"/>
     <use style="fill:#ff7f0e;stroke:#ff7f0e;" x="301.747727" xlink:href="#m8899ee9d23" y="172.614228"/>
     <use style="fill:#ff7f0e;stroke:#ff7f0e;" x="302.936648" xlink:href="#m8899ee9d23" y="157.227112"/>
     <use style="fill:#ff7f0e;stroke:#ff7f0e;" x="304.125568" xlink:href="#m8899ee9d23" y="140.674798"/>
     <use style="fill:#ff7f0e;stroke:#ff7f0e;" x="305.314489" xlink:href="#m8899ee9d23" y="123.46742"/>
     <use style="fill:#ff7f0e;stroke:#ff7f0e;" x="305.908949" xlink:href="#m8899ee9d23" y="114.783465"/>
     <use style="fill:#ff7f0e;stroke:#ff7f0e;" x="306.503409" xlink:href="#m8899ee9d23" y="106.135302"/>
     <use style="fill:#ff7f0e;stroke:#ff7f0e;" x="307.69233" xlink:href="#m8899ee9d23" y="89.212613"/>
     <use style="fill:#ff7f0e;stroke:#ff7f0e;" x="308.88125" xlink:href="#m8899ee9d23" y="73.220903"/>
     <use style="fill:#ff7f0e;stroke:#ff7f0e;" x="310.07017" xlink:href="#m8899ee9d23" y="58.653028"/>
     <use style="fill:#ff7f0e;stroke:#ff7f0e;" x="311.259091" xlink:href="#m8899ee9d23" y="45.957966"/>
     <use style="fill:#ff7f0e;stroke:#ff7f0e;" x="320.770455" xlink:href="#m8899ee9d23" y="42.158904"/>
     <use style="fill:#ff7f0e;stroke:#ff7f0e;" x="321.959375" xlink:href="#m8899ee9d23" y="54.128726"/>
     <use style="fill:#ff7f0e;stroke:#ff7f0e;" x="323.148295" xlink:href="#m8899ee9d23" y="68.110796"/>
     <use style="fill:#ff7f0e;stroke:#ff7f0e;" x="324.337216" xlink:href="#m8899ee9d23" y="83.674194"/>
     <use style="fill:#ff7f0e;stroke:#ff7f0e;" x="325.526136" xlink:href="#m8899ee9d23" y="100.339262"/>
     <use style="fill:#ff7f0e;stroke:#ff7f0e;" x="326.715057" xlink:href="#m8899ee9d23" y="117.59239"/>
     <use style="fill:#ff7f0e;stroke:#ff7f0e;" x="327.903977" xlink:href="#m8899ee9d23" y="134.901844"/>
     <use style="fill:#ff7f0e;stroke:#ff7f0e;" x="329.092898" xlink:href="#m8899ee9d23" y="151.734155"/>
     <use style="fill:#ff7f0e;stroke:#ff7f0e;" x="330.281818" xlink:href="#m8899ee9d23" y="167.570557"/>
    </g>
   </g>
   <g id="patch_3">
    <path d="M 10.7 228.14 
L 10.7 10.7 
" style="fill:none;stroke:#000000;stroke-linecap:square;stroke-linejoin:miter;stroke-width:0.8;"/>
   </g>
   <g id="patch_4">
    <path d="M 345.5 228.14 
L 345.5 10.7 
" style="fill:none;stroke:#000000;stroke-linecap:square;stroke-linejoin:miter;stroke-width:0.8;"/>
   </g>
   <g id="patch_5">
    <path d="M 10.7 228.14 
L 345.5 228.14 
" style="fill:none;stroke:#000000;stroke-linecap:square;stroke-linejoin:miter;stroke-width:0.8;"/>
   </g>
   <g id="patch_6">
    <path d="M 10.7 10.7 
L 345.5 10.7 
" style="fill:none;stroke:#000000;stroke-linecap:square;stroke-linejoin:miter;stroke-width:0.8;"/>
   </g>
  </g>
 </g>
 <defs>
  <clipPath id="p6c4ceaeece">
   <rect height="217.44" width="334.8" x="10.7" y="10.7"/>
  </clipPath>
 </defs>
</svg>
