<?xml version="1.0" encoding="utf-8" standalone="no"?>
<!DOCTYPE svg PUBLIC "-//W3C//DTD SVG 1.1//EN"
  "http://www.w3.org/Graphics/SVG/1.1/DTD/svg11.dtd">
<!-- Created with matplotlib (https://matplotlib.org/) -->
<svg height="238.84pt" version="1.1" viewBox="0 0 356.2 238.84" width="356.2pt" xmlns="http://www.w3.org/2000/svg" xmlns:xlink="http://www.w3.org/1999/xlink">
 <defs>
  <style type="text/css">
*{stroke-linecap:butt;stroke-linejoin:round;}
  </style>
 </defs>
 <g id="figure_1">
  <g id="patch_1">
   <path d="M 0 238.84 
L 356.2 238.84 
L 356.2 0 
L 0 0 
z
" style="fill:#ffffff;"/>
  </g>
  <g id="axes_1">
   <g id="patch_2">
    <path d="M 10.7 228.14 
L 345.5 228.14 
L 345.5 10.7 
L 10.7 10.7 
z
" style="fill:#ffffff;"/>
   </g>
   <g id="matplotlib.axis_1">
    <g id="xtick_1"/>
    <g id="xtick_2"/>
    <g id="xtick_3"/>
    <g id="xtick_4"/>
    <g id="xtick_5"/>
   </g>
   <g id="matplotlib.axis_2">
    <g id="ytick_1"/>
    <g id="ytick_2"/>
    <g id="ytick_3"/>
    <g id="ytick_4"/>
    <g id="ytick_5"/>
   </g>
   <g id="line2d_1">
    <path clip-path="url(#p6f3a9c37ae)" d="M 25.918182 218.256364 
L 45.584006 205.333587 
L 53.133734 200.116391 
L 58.491606 196.1513 
L 62.814434 192.680035 
L 66.589298 189.363913 
L 69.998852 186.073102 
L 73.225752 182.646046 
L 76.330883 179.019597 
L 79.375128 175.122721 
L 82.480258 170.786371 
L 85.768043 165.806539 
L 89.421137 159.857702 
L 94.170159 151.661393 
L 102.450506 137.321624 
L 105.677406 132.226093 
L 108.356342 128.403686 
L 110.669969 125.4744 
L 112.80094 123.124628 
L 114.749257 121.293056 
L 116.636689 119.820894 
L 118.402351 118.718137 
L 120.107129 117.904407 
L 121.811906 117.331758 
L 123.516683 116.990259 
L 125.282346 116.865207 
L 127.108893 116.959758 
L 129.05721 117.282538 
L 131.249066 117.875855 
L 133.806232 118.805068 
L 137.337557 120.346887 
L 144.643745 123.58855 
L 147.627105 124.634687 
L 150.306041 125.33982 
L 152.802322 125.767957 
L 155.237718 125.960049 
L 157.673115 125.927283 
L 160.169396 125.666834 
L 162.726562 125.175994 
L 165.466382 124.421016 
L 168.449743 123.362272 
L 171.737528 121.955264 
L 175.512392 120.092945 
L 180.078759 117.581329 
L 185.92371 114.098688 
L 194.569367 108.663905 
L 213.139262 96.663271 
L 330.281818 20.583636 
L 330.281818 20.583636 
" style="fill:none;stroke:#1f77b4;stroke-linecap:square;stroke-width:1.5;"/>
   </g>
   <g id="patch_3">
    <path d="M 10.7 228.14 
L 10.7 10.7 
" style="fill:none;stroke:#000000;stroke-linecap:square;stroke-linejoin:miter;stroke-width:0.8;"/>
   </g>
   <g id="patch_4">
    <path d="M 345.5 228.14 
L 345.5 10.7 
" style="fill:none;stroke:#000000;stroke-linecap:square;stroke-linejoin:miter;stroke-width:0.8;"/>
   </g>
   <g id="patch_5">
    <path d="M 10.7 228.14 
L 345.5 228.14 
" style="fill:none;stroke:#000000;stroke-linecap:square;stroke-linejoin:miter;stroke-width:0.8;"/>
   </g>
   <g id="patch_6">
    <path d="M 10.7 10.7 
L 345.5 10.7 
" style="fill:none;stroke:#000000;stroke-linecap:square;stroke-linejoin:miter;stroke-width:0.8;"/>
   </g>
  </g>
 </g>
 <defs>
  <clipPath id="p6f3a9c37ae">
   <rect height="217.44" width="334.8" x="10.7" y="10.7"/>
  </clipPath>
 </defs>
</svg>
