<?xml version="1.0" encoding="utf-8" standalone="no"?>
<!DOCTYPE svg PUBLIC "-//W3C//DTD SVG 1.1//EN"
  "http://www.w3.org/Graphics/SVG/1.1/DTD/svg11.dtd">
<!-- Created with matplotlib (https://matplotlib.org/) -->
<svg height="238.84pt" version="1.1" viewBox="0 0 356.2 238.84" width="356.2pt" xmlns="http://www.w3.org/2000/svg" xmlns:xlink="http://www.w3.org/1999/xlink">
 <defs>
  <style type="text/css">
*{stroke-linecap:butt;stroke-linejoin:round;}
  </style>
 </defs>
 <g id="figure_1">
  <g id="patch_1">
   <path d="M 0 238.84 
L 356.2 238.84 
L 356.2 0 
L 0 0 
z
" style="fill:#ffffff;"/>
  </g>
  <g id="axes_1">
   <g id="patch_2">
    <path d="M 10.7 228.14 
L 345.5 228.14 
L 345.5 10.7 
L 10.7 10.7 
z
" style="fill:#ffffff;"/>
   </g>
   <g id="matplotlib.axis_1">
    <g id="xtick_1"/>
    <g id="xtick_2"/>
    <g id="xtick_3"/>
    <g id="xtick_4"/>
    <g id="xtick_5"/>
   </g>
   <g id="matplotlib.axis_2">
    <g id="ytick_1"/>
    <g id="ytick_2"/>
    <g id="ytick_3"/>
    <g id="ytick_4"/>
    <g id="ytick_5"/>
    <g id="ytick_6"/>
   </g>
   <g id="line2d_1">
    <path clip-path="url(#p5bd146b2ea)" d="M 25.918182 178.82261 
L 28.992562 172.793787 
L 32.066942 167.986719 
L 35.141322 186.935134 
L 38.215702 204.971301 
L 41.290083 195.076822 
L 44.364463 190.375299 
L 47.438843 180.135267 
L 50.513223 204.1704 
L 53.587603 159.744917 
L 56.661983 195.417182 
L 59.736364 179.323947 
L 62.810744 191.10318 
L 65.885124 194.767927 
L 68.959504 169.314927 
L 72.033884 180.224382 
L 75.108264 168.389275 
L 78.182645 151.552702 
L 81.257025 152.568348 
L 84.331405 156.764294 
L 87.405785 142.862362 
L 90.480165 97.471152 
L 93.554545 103.529321 
L 96.628926 72.414961 
L 99.703306 95.756881 
L 102.777686 71.005574 
L 105.852066 48.630051 
L 108.926446 20.583636 
L 112.000826 32.337235 
L 115.075207 39.098555 
L 118.149587 33.794981 
L 121.223967 45.171976 
L 124.298347 36.345388 
L 127.372727 52.172683 
L 130.447107 48.908983 
L 133.521488 77.272862 
L 136.595868 88.52459 
L 139.670248 106.809835 
L 142.744628 123.853677 
L 145.819008 128.213467 
L 148.893388 123.979018 
L 151.967769 160.293079 
L 155.042149 164.59417 
L 158.116529 157.756158 
L 161.190909 181.313385 
L 164.265289 166.243241 
L 167.339669 183.818859 
L 170.41405 177.284932 
L 173.48843 207.656888 
L 176.56281 186.031095 
L 179.63719 197.60786 
L 182.71157 163.422635 
L 185.78595 193.556677 
L 188.860331 195.255614 
L 191.934711 194.676644 
L 195.009091 186.704279 
L 198.083471 202.971051 
L 201.157851 218.256364 
L 204.232231 184.133902 
L 207.306612 171.653969 
L 210.380992 194.401814 
L 213.455372 181.401859 
L 216.529752 191.052187 
L 219.604132 177.56757 
L 222.678512 186.175883 
L 225.752893 195.104681 
L 228.827273 164.1283 
L 231.901653 201.784805 
L 234.976033 167.978829 
L 238.050413 194.869484 
L 241.124793 197.068338 
L 244.199174 176.857431 
L 247.273554 165.847337 
L 250.347934 195.782473 
L 253.422314 211.865445 
L 256.496694 201.098344 
L 259.571074 205.435523 
L 262.645455 180.687774 
L 265.719835 184.785837 
L 268.794215 201.199337 
L 271.868595 165.607285 
L 274.942975 184.43522 
L 278.017355 181.559667 
L 281.091736 194.877561 
L 284.166116 187.398093 
L 287.240496 180.677412 
L 290.314876 174.212408 
L 293.389256 214.10577 
L 296.463636 173.230494 
L 299.538017 191.81705 
L 302.612397 190.213833 
L 305.686777 204.122344 
L 308.761157 192.862006 
L 311.835537 180.669277 
L 314.909917 189.199845 
L 317.984298 178.528119 
L 321.058678 212.767239 
L 324.133058 184.41441 
L 327.207438 177.594397 
L 330.281818 207.922482 
" style="fill:none;stroke:#1f77b4;stroke-linecap:square;stroke-width:1.5;"/>
   </g>
   <g id="patch_3">
    <path d="M 10.7 228.14 
L 10.7 10.7 
" style="fill:none;stroke:#000000;stroke-linecap:square;stroke-linejoin:miter;stroke-width:0.8;"/>
   </g>
   <g id="patch_4">
    <path d="M 345.5 228.14 
L 345.5 10.7 
" style="fill:none;stroke:#000000;stroke-linecap:square;stroke-linejoin:miter;stroke-width:0.8;"/>
   </g>
   <g id="patch_5">
    <path d="M 10.7 228.14 
L 345.5 228.14 
" style="fill:none;stroke:#000000;stroke-linecap:square;stroke-linejoin:miter;stroke-width:0.8;"/>
   </g>
   <g id="patch_6">
    <path d="M 10.7 10.7 
L 345.5 10.7 
" style="fill:none;stroke:#000000;stroke-linecap:square;stroke-linejoin:miter;stroke-width:0.8;"/>
   </g>
  </g>
 </g>
 <defs>
  <clipPath id="p5bd146b2ea">
   <rect height="217.44" width="334.8" x="10.7" y="10.7"/>
  </clipPath>
 </defs>
</svg>
