<?xml version="1.0" encoding="utf-8" standalone="no"?>
<!DOCTYPE svg PUBLIC "-//W3C//DTD SVG 1.1//EN"
  "http://www.w3.org/Graphics/SVG/1.1/DTD/svg11.dtd">
<!-- Created with matplotlib (https://matplotlib.org/) -->
<svg height="238.84pt" version="1.1" viewBox="0 0 356.2 238.84" width="356.2pt" xmlns="http://www.w3.org/2000/svg" xmlns:xlink="http://www.w3.org/1999/xlink">
 <defs>
  <style type="text/css">
*{stroke-linecap:butt;stroke-linejoin:round;}
  </style>
 </defs>
 <g id="figure_1">
  <g id="patch_1">
   <path d="M 0 238.84 
L 356.2 238.84 
L 356.2 0 
L 0 0 
z
" style="fill:#ffffff;"/>
  </g>
  <g id="axes_1">
   <g id="patch_2">
    <path d="M 10.7 228.14 
L 345.5 228.14 
L 345.5 10.7 
L 10.7 10.7 
z
" style="fill:#ffffff;"/>
   </g>
   <g id="matplotlib.axis_1">
    <g id="xtick_1"/>
    <g id="xtick_2"/>
    <g id="xtick_3"/>
    <g id="xtick_4"/>
    <g id="xtick_5"/>
   </g>
   <g id="matplotlib.axis_2">
    <g id="ytick_1"/>
    <g id="ytick_2"/>
    <g id="ytick_3"/>
    <g id="ytick_4"/>
    <g id="ytick_5"/>
    <g id="ytick_6"/>
   </g>
   <g id="line2d_1">
    <path clip-path="url(#p40ca97aba3)" d="M 25.918182 190.215752 
L 30.673864 176.212552 
L 35.429545 156.315615 
L 36.618466 169.95341 
L 37.807386 186.955299 
L 40.185227 185.922214 
L 44.940909 165.12116 
L 47.31875 174.309051 
L 49.696591 169.767368 
L 54.452273 163.246941 
L 56.830114 181.208557 
L 59.207955 176.172333 
L 63.963636 173.946396 
L 73.475 176.763493 
L 75.852841 180.661277 
L 77.041761 159.080526 
L 78.230682 129.19979 
L 80.608523 140.393343 
L 82.986364 141.161884 
L 85.364205 130.802603 
L 87.742045 112.964067 
L 90.119886 123.402837 
L 92.497727 108.527443 
L 94.875568 78.01608 
L 96.064489 79.235712 
L 96.658949 100.994198 
L 97.253409 116.324688 
L 102.009091 85.354962 
L 106.764773 60.659827 
L 111.520455 42.568401 
L 116.276136 20.583636 
L 118.653977 31.124265 
L 121.031818 47.17487 
L 125.7875 65.669431 
L 128.165341 50.529759 
L 130.543182 48.091075 
L 135.298864 76.51743 
L 140.054545 108.014313 
L 141.243466 94.831515 
L 142.432386 98.614737 
L 144.810227 120.14085 
L 147.188068 146.114352 
L 148.376989 125.802939 
L 149.565909 117.119526 
L 150.75483 126.164205 
L 151.94375 162.770538 
L 153.13267 139.722711 
L 153.727131 157.497576 
L 154.321591 175.589974 
L 156.699432 150.926767 
L 159.077273 137.783707 
L 160.266193 176.335558 
L 161.455114 180.721565 
L 163.832955 173.347415 
L 168.588636 175.821862 
L 178.1 168.28354 
L 182.855682 161.455894 
L 185.233523 161.816119 
L 187.611364 193.351847 
L 189.989205 191.888626 
L 192.367045 176.342431 
L 197.122727 178.406645 
L 201.878409 193.061389 
L 204.25625 185.904477 
L 206.634091 174.96815 
L 209.011932 186.463069 
L 210.200852 193.308135 
L 211.389773 218.256364 
L 213.767614 183.531918 
L 214.956534 189.351874 
L 216.145455 195.798829 
L 220.901136 167.27653 
L 223.278977 171.384066 
L 224.467898 170.828407 
L 225.656818 198.597341 
L 235.168182 191.277605 
L 244.679545 186.100017 
L 254.190909 182.912361 
L 256.56875 168.68065 
L 257.75767 167.279929 
L 258.352131 163.832787 
L 258.649361 192.623747 
L 258.946591 202.834807 
L 263.702273 190.519563 
L 268.457955 176.097169 
L 270.835795 188.34114 
L 273.213636 198.663663 
L 277.969318 183.145022 
L 282.725 164.890329 
L 283.91392 173.011971 
L 285.102841 187.974703 
L 287.480682 181.686223 
L 292.236364 186.13599 
L 301.747727 178.283105 
L 306.503409 169.305202 
L 311.259091 156.76943 
L 316.014773 170.94847 
L 320.770455 182.6231 
L 325.526136 181.878851 
L 330.281818 181.135179 
" style="fill:none;stroke:#1f77b4;stroke-linecap:square;"/>
    <defs>
     <path d="M 0 2 
C 0.530406 2 1.03916 1.789267 1.414214 1.414214 
C 1.789267 1.03916 2 0.530406 2 0 
C 2 -0.530406 1.789267 -1.03916 1.414214 -1.414214 
C 1.03916 -1.789267 0.530406 -2 0 -2 
C -0.530406 -2 -1.03916 -1.789267 -1.414214 -1.414214 
C -1.789267 -1.03916 -2 -0.530406 -2 0 
C -2 0.530406 -1.789267 1.03916 -1.414214 1.414214 
C -1.03916 1.789267 -0.530406 2 0 2 
z
" id="m83a6848a71" style="stroke:#1f77b4;"/>
    </defs>
    <g clip-path="url(#p40ca97aba3)">
     <use style="fill:#1f77b4;stroke:#1f77b4;" x="25.918182" xlink:href="#m83a6848a71" y="190.215752"/>
     <use style="fill:#1f77b4;stroke:#1f77b4;" x="30.673864" xlink:href="#m83a6848a71" y="176.212552"/>
     <use style="fill:#1f77b4;stroke:#1f77b4;" x="35.429545" xlink:href="#m83a6848a71" y="156.315615"/>
     <use style="fill:#1f77b4;stroke:#1f77b4;" x="36.618466" xlink:href="#m83a6848a71" y="169.95341"/>
     <use style="fill:#1f77b4;stroke:#1f77b4;" x="37.807386" xlink:href="#m83a6848a71" y="186.955299"/>
     <use style="fill:#1f77b4;stroke:#1f77b4;" x="40.185227" xlink:href="#m83a6848a71" y="185.922214"/>
     <use style="fill:#1f77b4;stroke:#1f77b4;" x="44.940909" xlink:href="#m83a6848a71" y="165.12116"/>
     <use style="fill:#1f77b4;stroke:#1f77b4;" x="47.31875" xlink:href="#m83a6848a71" y="174.309051"/>
     <use style="fill:#1f77b4;stroke:#1f77b4;" x="49.696591" xlink:href="#m83a6848a71" y="169.767368"/>
     <use style="fill:#1f77b4;stroke:#1f77b4;" x="54.452273" xlink:href="#m83a6848a71" y="163.246941"/>
     <use style="fill:#1f77b4;stroke:#1f77b4;" x="56.830114" xlink:href="#m83a6848a71" y="181.208557"/>
     <use style="fill:#1f77b4;stroke:#1f77b4;" x="59.207955" xlink:href="#m83a6848a71" y="176.172333"/>
     <use style="fill:#1f77b4;stroke:#1f77b4;" x="63.963636" xlink:href="#m83a6848a71" y="173.946396"/>
     <use style="fill:#1f77b4;stroke:#1f77b4;" x="73.475" xlink:href="#m83a6848a71" y="176.763493"/>
     <use style="fill:#1f77b4;stroke:#1f77b4;" x="75.852841" xlink:href="#m83a6848a71" y="180.661277"/>
     <use style="fill:#1f77b4;stroke:#1f77b4;" x="77.041761" xlink:href="#m83a6848a71" y="159.080526"/>
     <use style="fill:#1f77b4;stroke:#1f77b4;" x="78.230682" xlink:href="#m83a6848a71" y="129.19979"/>
     <use style="fill:#1f77b4;stroke:#1f77b4;" x="80.608523" xlink:href="#m83a6848a71" y="140.393343"/>
     <use style="fill:#1f77b4;stroke:#1f77b4;" x="82.986364" xlink:href="#m83a6848a71" y="141.161884"/>
     <use style="fill:#1f77b4;stroke:#1f77b4;" x="85.364205" xlink:href="#m83a6848a71" y="130.802603"/>
     <use style="fill:#1f77b4;stroke:#1f77b4;" x="87.742045" xlink:href="#m83a6848a71" y="112.964067"/>
     <use style="fill:#1f77b4;stroke:#1f77b4;" x="90.119886" xlink:href="#m83a6848a71" y="123.402837"/>
     <use style="fill:#1f77b4;stroke:#1f77b4;" x="92.497727" xlink:href="#m83a6848a71" y="108.527443"/>
     <use style="fill:#1f77b4;stroke:#1f77b4;" x="94.875568" xlink:href="#m83a6848a71" y="78.01608"/>
     <use style="fill:#1f77b4;stroke:#1f77b4;" x="96.064489" xlink:href="#m83a6848a71" y="79.235712"/>
     <use style="fill:#1f77b4;stroke:#1f77b4;" x="96.658949" xlink:href="#m83a6848a71" y="100.994198"/>
     <use style="fill:#1f77b4;stroke:#1f77b4;" x="97.253409" xlink:href="#m83a6848a71" y="116.324688"/>
     <use style="fill:#1f77b4;stroke:#1f77b4;" x="102.009091" xlink:href="#m83a6848a71" y="85.354962"/>
     <use style="fill:#1f77b4;stroke:#1f77b4;" x="106.764773" xlink:href="#m83a6848a71" y="60.659827"/>
     <use style="fill:#1f77b4;stroke:#1f77b4;" x="111.520455" xlink:href="#m83a6848a71" y="42.568401"/>
     <use style="fill:#1f77b4;stroke:#1f77b4;" x="116.276136" xlink:href="#m83a6848a71" y="20.583636"/>
     <use style="fill:#1f77b4;stroke:#1f77b4;" x="118.653977" xlink:href="#m83a6848a71" y="31.124265"/>
     <use style="fill:#1f77b4;stroke:#1f77b4;" x="121.031818" xlink:href="#m83a6848a71" y="47.17487"/>
     <use style="fill:#1f77b4;stroke:#1f77b4;" x="125.7875" xlink:href="#m83a6848a71" y="65.669431"/>
     <use style="fill:#1f77b4;stroke:#1f77b4;" x="128.165341" xlink:href="#m83a6848a71" y="50.529759"/>
     <use style="fill:#1f77b4;stroke:#1f77b4;" x="130.543182" xlink:href="#m83a6848a71" y="48.091075"/>
     <use style="fill:#1f77b4;stroke:#1f77b4;" x="135.298864" xlink:href="#m83a6848a71" y="76.51743"/>
     <use style="fill:#1f77b4;stroke:#1f77b4;" x="140.054545" xlink:href="#m83a6848a71" y="108.014313"/>
     <use style="fill:#1f77b4;stroke:#1f77b4;" x="141.243466" xlink:href="#m83a6848a71" y="94.831515"/>
     <use style="fill:#1f77b4;stroke:#1f77b4;" x="142.432386" xlink:href="#m83a6848a71" y="98.614737"/>
     <use style="fill:#1f77b4;stroke:#1f77b4;" x="144.810227" xlink:href="#m83a6848a71" y="120.14085"/>
     <use style="fill:#1f77b4;stroke:#1f77b4;" x="147.188068" xlink:href="#m83a6848a71" y="146.114352"/>
     <use style="fill:#1f77b4;stroke:#1f77b4;" x="148.376989" xlink:href="#m83a6848a71" y="125.802939"/>
     <use style="fill:#1f77b4;stroke:#1f77b4;" x="149.565909" xlink:href="#m83a6848a71" y="117.119526"/>
     <use style="fill:#1f77b4;stroke:#1f77b4;" x="150.75483" xlink:href="#m83a6848a71" y="126.164205"/>
     <use style="fill:#1f77b4;stroke:#1f77b4;" x="151.94375" xlink:href="#m83a6848a71" y="162.770538"/>
     <use style="fill:#1f77b4;stroke:#1f77b4;" x="153.13267" xlink:href="#m83a6848a71" y="139.722711"/>
     <use style="fill:#1f77b4;stroke:#1f77b4;" x="153.727131" xlink:href="#m83a6848a71" y="157.497576"/>
     <use style="fill:#1f77b4;stroke:#1f77b4;" x="154.321591" xlink:href="#m83a6848a71" y="175.589974"/>
     <use style="fill:#1f77b4;stroke:#1f77b4;" x="156.699432" xlink:href="#m83a6848a71" y="150.926767"/>
     <use style="fill:#1f77b4;stroke:#1f77b4;" x="159.077273" xlink:href="#m83a6848a71" y="137.783707"/>
     <use style="fill:#1f77b4;stroke:#1f77b4;" x="160.266193" xlink:href="#m83a6848a71" y="176.335558"/>
     <use style="fill:#1f77b4;stroke:#1f77b4;" x="161.455114" xlink:href="#m83a6848a71" y="180.721565"/>
     <use style="fill:#1f77b4;stroke:#1f77b4;" x="163.832955" xlink:href="#m83a6848a71" y="173.347415"/>
     <use style="fill:#1f77b4;stroke:#1f77b4;" x="168.588636" xlink:href="#m83a6848a71" y="175.821862"/>
     <use style="fill:#1f77b4;stroke:#1f77b4;" x="178.1" xlink:href="#m83a6848a71" y="168.28354"/>
     <use style="fill:#1f77b4;stroke:#1f77b4;" x="182.855682" xlink:href="#m83a6848a71" y="161.455894"/>
     <use style="fill:#1f77b4;stroke:#1f77b4;" x="185.233523" xlink:href="#m83a6848a71" y="161.816119"/>
     <use style="fill:#1f77b4;stroke:#1f77b4;" x="187.611364" xlink:href="#m83a6848a71" y="193.351847"/>
     <use style="fill:#1f77b4;stroke:#1f77b4;" x="189.989205" xlink:href="#m83a6848a71" y="191.888626"/>
     <use style="fill:#1f77b4;stroke:#1f77b4;" x="192.367045" xlink:href="#m83a6848a71" y="176.342431"/>
     <use style="fill:#1f77b4;stroke:#1f77b4;" x="197.122727" xlink:href="#m83a6848a71" y="178.406645"/>
     <use style="fill:#1f77b4;stroke:#1f77b4;" x="201.878409" xlink:href="#m83a6848a71" y="193.061389"/>
     <use style="fill:#1f77b4;stroke:#1f77b4;" x="204.25625" xlink:href="#m83a6848a71" y="185.904477"/>
     <use style="fill:#1f77b4;stroke:#1f77b4;" x="206.634091" xlink:href="#m83a6848a71" y="174.96815"/>
     <use style="fill:#1f77b4;stroke:#1f77b4;" x="209.011932" xlink:href="#m83a6848a71" y="186.463069"/>
     <use style="fill:#1f77b4;stroke:#1f77b4;" x="210.200852" xlink:href="#m83a6848a71" y="193.308135"/>
     <use style="fill:#1f77b4;stroke:#1f77b4;" x="211.389773" xlink:href="#m83a6848a71" y="218.256364"/>
     <use style="fill:#1f77b4;stroke:#1f77b4;" x="213.767614" xlink:href="#m83a6848a71" y="183.531918"/>
     <use style="fill:#1f77b4;stroke:#1f77b4;" x="214.956534" xlink:href="#m83a6848a71" y="189.351874"/>
     <use style="fill:#1f77b4;stroke:#1f77b4;" x="216.145455" xlink:href="#m83a6848a71" y="195.798829"/>
     <use style="fill:#1f77b4;stroke:#1f77b4;" x="220.901136" xlink:href="#m83a6848a71" y="167.27653"/>
     <use style="fill:#1f77b4;stroke:#1f77b4;" x="223.278977" xlink:href="#m83a6848a71" y="171.384066"/>
     <use style="fill:#1f77b4;stroke:#1f77b4;" x="224.467898" xlink:href="#m83a6848a71" y="170.828407"/>
     <use style="fill:#1f77b4;stroke:#1f77b4;" x="225.656818" xlink:href="#m83a6848a71" y="198.597341"/>
     <use style="fill:#1f77b4;stroke:#1f77b4;" x="235.168182" xlink:href="#m83a6848a71" y="191.277605"/>
     <use style="fill:#1f77b4;stroke:#1f77b4;" x="244.679545" xlink:href="#m83a6848a71" y="186.100017"/>
     <use style="fill:#1f77b4;stroke:#1f77b4;" x="254.190909" xlink:href="#m83a6848a71" y="182.912361"/>
     <use style="fill:#1f77b4;stroke:#1f77b4;" x="256.56875" xlink:href="#m83a6848a71" y="168.68065"/>
     <use style="fill:#1f77b4;stroke:#1f77b4;" x="257.75767" xlink:href="#m83a6848a71" y="167.279929"/>
     <use style="fill:#1f77b4;stroke:#1f77b4;" x="258.352131" xlink:href="#m83a6848a71" y="163.832787"/>
     <use style="fill:#1f77b4;stroke:#1f77b4;" x="258.649361" xlink:href="#m83a6848a71" y="192.623747"/>
     <use style="fill:#1f77b4;stroke:#1f77b4;" x="258.946591" xlink:href="#m83a6848a71" y="202.834807"/>
     <use style="fill:#1f77b4;stroke:#1f77b4;" x="263.702273" xlink:href="#m83a6848a71" y="190.519563"/>
     <use style="fill:#1f77b4;stroke:#1f77b4;" x="268.457955" xlink:href="#m83a6848a71" y="176.097169"/>
     <use style="fill:#1f77b4;stroke:#1f77b4;" x="270.835795" xlink:href="#m83a6848a71" y="188.34114"/>
     <use style="fill:#1f77b4;stroke:#1f77b4;" x="273.213636" xlink:href="#m83a6848a71" y="198.663663"/>
     <use style="fill:#1f77b4;stroke:#1f77b4;" x="277.969318" xlink:href="#m83a6848a71" y="183.145022"/>
     <use style="fill:#1f77b4;stroke:#1f77b4;" x="282.725" xlink:href="#m83a6848a71" y="164.890329"/>
     <use style="fill:#1f77b4;stroke:#1f77b4;" x="283.91392" xlink:href="#m83a6848a71" y="173.011971"/>
     <use style="fill:#1f77b4;stroke:#1f77b4;" x="285.102841" xlink:href="#m83a6848a71" y="187.974703"/>
     <use style="fill:#1f77b4;stroke:#1f77b4;" x="287.480682" xlink:href="#m83a6848a71" y="181.686223"/>
     <use style="fill:#1f77b4;stroke:#1f77b4;" x="292.236364" xlink:href="#m83a6848a71" y="186.13599"/>
     <use style="fill:#1f77b4;stroke:#1f77b4;" x="301.747727" xlink:href="#m83a6848a71" y="178.283105"/>
     <use style="fill:#1f77b4;stroke:#1f77b4;" x="306.503409" xlink:href="#m83a6848a71" y="169.305202"/>
     <use style="fill:#1f77b4;stroke:#1f77b4;" x="311.259091" xlink:href="#m83a6848a71" y="156.76943"/>
     <use style="fill:#1f77b4;stroke:#1f77b4;" x="316.014773" xlink:href="#m83a6848a71" y="170.94847"/>
     <use style="fill:#1f77b4;stroke:#1f77b4;" x="320.770455" xlink:href="#m83a6848a71" y="182.6231"/>
     <use style="fill:#1f77b4;stroke:#1f77b4;" x="325.526136" xlink:href="#m83a6848a71" y="181.878851"/>
     <use style="fill:#1f77b4;stroke:#1f77b4;" x="330.281818" xlink:href="#m83a6848a71" y="181.135179"/>
    </g>
   </g>
   <g id="patch_3">
    <path d="M 10.7 228.14 
L 10.7 10.7 
" style="fill:none;stroke:#000000;stroke-linecap:square;stroke-linejoin:miter;stroke-width:0.8;"/>
   </g>
   <g id="patch_4">
    <path d="M 345.5 228.14 
L 345.5 10.7 
" style="fill:none;stroke:#000000;stroke-linecap:square;stroke-linejoin:miter;stroke-width:0.8;"/>
   </g>
   <g id="patch_5">
    <path d="M 10.7 228.14 
L 345.5 228.14 
" style="fill:none;stroke:#000000;stroke-linecap:square;stroke-linejoin:miter;stroke-width:0.8;"/>
   </g>
   <g id="patch_6">
    <path d="M 10.7 10.7 
L 345.5 10.7 
" style="fill:none;stroke:#000000;stroke-linecap:square;stroke-linejoin:miter;stroke-width:0.8;"/>
   </g>
  </g>
 </g>
 <defs>
  <clipPath id="p40ca97aba3">
   <rect height="217.44" width="334.8" x="10.7" y="10.7"/>
  </clipPath>
 </defs>
</svg>
