<?xml version="1.0" encoding="utf-8" standalone="no"?>
<!DOCTYPE svg PUBLIC "-//W3C//DTD SVG 1.1//EN"
  "http://www.w3.org/Graphics/SVG/1.1/DTD/svg11.dtd">
<!-- Created with matplotlib (https://matplotlib.org/) -->
<svg height="238.84pt" version="1.1" viewBox="0 0 356.2 238.84" width="356.2pt" xmlns="http://www.w3.org/2000/svg" xmlns:xlink="http://www.w3.org/1999/xlink">
 <defs>
  <style type="text/css">
*{stroke-linecap:butt;stroke-linejoin:round;}
  </style>
 </defs>
 <g id="figure_1">
  <g id="patch_1">
   <path d="M 0 238.84 
L 356.2 238.84 
L 356.2 0 
L 0 0 
z
" style="fill:#ffffff;"/>
  </g>
  <g id="axes_1">
   <g id="patch_2">
    <path d="M 10.7 228.14 
L 345.5 228.14 
L 345.5 10.7 
L 10.7 10.7 
z
" style="fill:#ffffff;"/>
   </g>
   <g id="matplotlib.axis_1">
    <g id="xtick_1"/>
    <g id="xtick_2"/>
    <g id="xtick_3"/>
    <g id="xtick_4"/>
    <g id="xtick_5"/>
   </g>
   <g id="matplotlib.axis_2">
    <g id="ytick_1"/>
    <g id="ytick_2"/>
    <g id="ytick_3"/>
    <g id="ytick_4"/>
    <g id="ytick_5"/>
   </g>
   <g id="line2d_1">
    <path clip-path="url(#p8b1b8ddc27)" d="M 25.918182 71.269443 
L 27.744729 96.041806 
L 33.46791 175.82703 
L 34.868263 191.305963 
L 36.025076 201.802024 
L 36.999234 208.786713 
L 37.851623 213.384223 
L 38.582242 216.14084 
L 39.130206 217.469642 
L 39.617285 218.110998 
L 39.982595 218.256361 
L 40.287019 218.157297 
L 40.652329 217.774481 
L 41.078523 216.965445 
L 41.626487 215.356957 
L 42.235336 212.83222 
L 42.965955 208.806281 
L 43.818344 202.796349 
L 44.792502 194.315049 
L 45.949315 182.245452 
L 47.349668 165.219208 
L 49.2371 139.322501 
L 54.412317 66.71879 
L 55.873555 50.019997 
L 57.091253 38.540469 
L 58.126296 30.826211 
L 58.978685 26.021611 
L 59.709304 23.080217 
L 60.318153 21.485887 
L 60.805232 20.781014 
L 61.170541 20.587817 
L 61.474966 20.647005 
L 61.840275 20.982072 
L 62.26647 21.735719 
L 62.753549 23.071562 
L 63.362398 25.442666 
L 64.093017 29.290394 
L 64.945405 35.103503 
L 65.919564 43.378295 
L 67.076377 55.233822 
L 68.47673 72.054556 
L 70.303277 96.914066 
L 75.843803 174.362665 
L 77.244156 190.078109 
L 78.400969 200.80962 
L 79.375128 208.015352 
L 80.227516 212.819542 
L 80.958135 215.760571 
L 81.566984 217.354588 
L 82.054064 218.059209 
L 82.419373 218.252215 
L 82.723797 218.192869 
L 83.089107 217.857612 
L 83.515301 217.103744 
L 84.00238 215.767651 
L 84.61123 213.396242 
L 85.341848 209.548159 
L 86.194237 203.734657 
L 87.168395 195.459452 
L 88.325209 183.603497 
L 89.725561 166.78235 
L 91.552109 141.922501 
L 97.092635 64.474405 
L 98.492988 48.759426 
L 99.649801 38.028379 
L 100.623959 30.823086 
L 101.476348 26.019305 
L 102.206967 23.078642 
L 102.815816 21.484937 
L 103.302895 20.780569 
L 103.668205 20.587753 
L 103.972629 20.647258 
L 104.337938 20.982705 
L 104.764133 21.736792 
L 105.251212 23.073135 
L 105.860061 25.44485 
L 106.59068 29.293288 
L 107.443069 35.107183 
L 108.417227 43.3828 
L 109.57404 55.239184 
L 110.974393 72.060745 
L 112.80094 96.920932 
L 118.341466 174.368526 
L 119.741819 190.083039 
L 120.898632 200.813621 
L 121.872791 208.018477 
L 122.72518 212.821848 
L 123.455798 215.762145 
L 124.064647 217.355538 
L 124.551727 218.059654 
L 124.917036 218.252279 
L 125.221461 218.192616 
L 125.58677 217.856979 
L 126.012964 217.10267 
L 126.500044 215.766079 
L 127.108893 213.394058 
L 127.839512 209.545265 
L 128.6919 203.730977 
L 129.666059 195.454948 
L 130.822872 183.598135 
L 132.223225 166.776161 
L 134.049772 141.915635 
L 139.590298 64.468543 
L 140.990651 48.754496 
L 142.147464 38.024379 
L 143.121623 30.81996 
L 143.974011 26.016999 
L 144.70463 23.077068 
L 145.313479 21.483987 
L 145.800558 20.780124 
L 146.165868 20.587689 
L 146.470292 20.647511 
L 146.835602 20.983338 
L 147.261796 21.737867 
L 147.748875 23.074708 
L 148.357724 25.447034 
L 149.088343 29.296182 
L 149.940732 35.110863 
L 150.91489 43.387305 
L 152.071703 55.244547 
L 153.472056 72.066934 
L 155.298603 96.927799 
L 160.83913 174.374387 
L 162.239482 190.087969 
L 163.396296 200.817621 
L 164.370454 208.021602 
L 165.222843 212.824154 
L 165.953462 215.763719 
L 166.562311 217.356488 
L 167.04939 218.060098 
L 167.414699 218.252343 
L 167.719124 218.192362 
L 168.084433 217.856345 
L 168.510628 217.101596 
L 168.997707 215.764506 
L 169.606556 213.391873 
L 170.337175 209.54237 
L 171.189563 203.727297 
L 172.163722 195.450442 
L 173.320535 183.592772 
L 174.720888 166.769971 
L 176.547435 141.908768 
L 182.087961 64.462682 
L 183.488314 48.749566 
L 184.645127 38.020379 
L 185.619286 30.816835 
L 186.471674 26.014693 
L 187.202293 23.075494 
L 187.811142 21.483038 
L 188.298221 20.77968 
L 188.663531 20.587625 
L 188.967955 20.647764 
L 189.333265 20.983972 
L 189.759459 21.738941 
L 190.246538 23.076281 
L 190.855387 25.449219 
L 191.586006 29.299077 
L 192.438395 35.114543 
L 193.412553 43.39181 
L 194.569367 55.24991 
L 195.969719 72.073123 
L 197.796267 96.934665 
L 203.336793 174.380248 
L 204.737146 190.092899 
L 205.893959 200.82162 
L 206.868117 208.024727 
L 207.720506 212.826459 
L 208.451125 215.765292 
L 209.059974 217.357437 
L 209.547053 218.060542 
L 209.912362 218.252407 
L 210.216787 218.192108 
L 210.582096 217.855711 
L 211.008291 217.100521 
L 211.49537 215.762932 
L 212.104219 213.389688 
L 212.834838 209.539475 
L 213.687227 203.723617 
L 214.661385 195.445937 
L 215.818198 183.587409 
L 217.218551 166.763782 
L 219.045098 141.901902 
L 224.585624 64.456822 
L 225.985977 48.744637 
L 227.14279 38.01638 
L 228.116949 30.813711 
L 228.969338 26.012388 
L 229.699956 23.073921 
L 230.308805 21.482089 
L 230.795885 20.779236 
L 231.161194 20.587562 
L 231.465619 20.648019 
L 231.830928 20.984606 
L 232.257122 21.740017 
L 232.744202 23.077855 
L 233.353051 25.451405 
L 234.083669 29.301973 
L 234.936058 35.118223 
L 235.910217 43.396316 
L 237.06703 55.255273 
L 238.467383 72.079313 
L 240.29393 96.941532 
L 245.834456 174.386108 
L 247.234809 190.097828 
L 248.391622 200.82562 
L 249.36578 208.027851 
L 250.218169 212.828764 
L 250.948788 215.766865 
L 251.557637 217.358385 
L 252.044716 218.060986 
L 252.410026 218.25247 
L 252.71445 218.191854 
L 253.07976 217.855076 
L 253.505954 217.099446 
L 253.993033 215.761358 
L 254.601882 213.387502 
L 255.332501 209.536579 
L 256.18489 203.719936 
L 257.159048 195.441431 
L 258.315861 183.582045 
L 259.716214 166.757592 
L 261.542761 141.895035 
L 267.083288 64.450961 
L 268.48364 48.739707 
L 269.640454 38.012381 
L 270.614612 30.810587 
L 271.467001 26.010084 
L 272.19762 23.072349 
L 272.806469 21.48114 
L 273.293548 20.778793 
L 273.658857 20.587499 
L 273.963282 20.648273 
L 274.328591 20.985241 
L 274.754786 21.741092 
L 275.241865 23.079429 
L 275.850714 25.453591 
L 276.581333 29.304869 
L 277.433721 35.121904 
L 278.40788 43.400822 
L 279.564693 55.260637 
L 280.965046 72.085503 
L 282.791593 96.948398 
L 288.332119 174.391969 
L 289.732472 190.102757 
L 290.889285 200.829618 
L 291.863444 208.030975 
L 292.715832 212.831069 
L 293.446451 215.768438 
L 294.0553 217.359334 
L 294.542379 218.061429 
L 294.907689 218.252532 
L 295.212113 218.191599 
L 295.577423 217.854441 
L 296.003617 217.09837 
L 296.490696 215.759783 
L 297.099545 213.385316 
L 297.830164 209.533683 
L 298.682553 203.716255 
L 299.656711 195.436924 
L 300.813525 183.576682 
L 302.213877 166.751402 
L 304.040424 141.888168 
L 309.580951 64.445101 
L 310.981304 48.734779 
L 312.138117 38.008383 
L 313.112275 30.807464 
L 313.964664 26.00778 
L 314.695283 23.070776 
L 315.304132 21.480193 
L 315.791211 20.77835 
L 316.15652 20.587437 
L 316.460945 20.648529 
L 316.826254 20.985876 
L 317.252449 21.742169 
L 317.739528 23.081004 
L 318.348377 25.455777 
L 319.078996 29.307765 
L 319.931384 35.125586 
L 320.905543 43.405329 
L 322.062356 55.266 
L 323.462709 72.091694 
L 325.289256 96.955265 
L 330.281818 167.570557 
L 330.281818 167.570557 
" style="fill:none;stroke:#1f77b4;stroke-linecap:square;stroke-width:1.5;"/>
   </g>
   <g id="patch_3">
    <path d="M 10.7 228.14 
L 10.7 10.7 
" style="fill:none;stroke:#000000;stroke-linecap:square;stroke-linejoin:miter;stroke-width:0.8;"/>
   </g>
   <g id="patch_4">
    <path d="M 345.5 228.14 
L 345.5 10.7 
" style="fill:none;stroke:#000000;stroke-linecap:square;stroke-linejoin:miter;stroke-width:0.8;"/>
   </g>
   <g id="patch_5">
    <path d="M 10.7 228.14 
L 345.5 228.14 
" style="fill:none;stroke:#000000;stroke-linecap:square;stroke-linejoin:miter;stroke-width:0.8;"/>
   </g>
   <g id="patch_6">
    <path d="M 10.7 10.7 
L 345.5 10.7 
" style="fill:none;stroke:#000000;stroke-linecap:square;stroke-linejoin:miter;stroke-width:0.8;"/>
   </g>
  </g>
 </g>
 <defs>
  <clipPath id="p8b1b8ddc27">
   <rect height="217.44" width="334.8" x="10.7" y="10.7"/>
  </clipPath>
 </defs>
</svg>
