<?xml version="1.0" encoding="utf-8" standalone="no"?>
<!DOCTYPE svg PUBLIC "-//W3C//DTD SVG 1.1//EN"
  "http://www.w3.org/Graphics/SVG/1.1/DTD/svg11.dtd">
<!-- Created with matplotlib (https://matplotlib.org/) -->
<svg height="303.378125pt" version="1.1" viewBox="0 0 310.578125 303.378125" width="310.578125pt" xmlns="http://www.w3.org/2000/svg" xmlns:xlink="http://www.w3.org/1999/xlink">
 <defs>
  <style type="text/css">
*{stroke-linecap:butt;stroke-linejoin:round;}
  </style>
 </defs>
 <g id="figure_1">
  <g id="patch_1">
   <path d="M -0 303.378125 
L 310.578125 303.378125 
L 310.578125 0 
L -0 0 
z
" style="fill:#ffffff;"/>
  </g>
  <g id="axes_1">
   <g id="patch_2">
    <path d="M 20.878125 282.5 
L 299.878125 282.5 
L 299.878125 10.7 
L 20.878125 10.7 
z
" style="fill:#ffffff;"/>
   </g>
   <g id="matplotlib.axis_1">
    <g id="xtick_1"/>
    <g id="xtick_2"/>
    <g id="xtick_3"/>
    <g id="xtick_4"/>
    <g id="xtick_5"/>
    <g id="xtick_6"/>
    <g id="text_1">
     <!-- x -->
     <defs>
      <path d="M 54.890625 54.6875 
L 35.109375 28.078125 
L 55.90625 0 
L 45.3125 0 
L 29.390625 21.484375 
L 13.484375 0 
L 2.875 0 
L 24.125 28.609375 
L 4.6875 54.6875 
L 15.28125 54.6875 
L 29.78125 35.203125 
L 44.28125 54.6875 
z
" id="DejaVuSans-120"/>
     </defs>
     <g transform="translate(157.41875 294.098437)scale(0.1 -0.1)">
      <use xlink:href="#DejaVuSans-120"/>
     </g>
    </g>
   </g>
   <g id="matplotlib.axis_2">
    <g id="ytick_1"/>
    <g id="ytick_2"/>
    <g id="ytick_3"/>
    <g id="ytick_4"/>
    <g id="ytick_5"/>
    <g id="text_2">
     <!-- y -->
     <defs>
      <path d="M 32.171875 -5.078125 
Q 28.375 -14.84375 24.75 -17.8125 
Q 21.140625 -20.796875 15.09375 -20.796875 
L 7.90625 -20.796875 
L 7.90625 -13.28125 
L 13.1875 -13.28125 
Q 16.890625 -13.28125 18.9375 -11.515625 
Q 21 -9.765625 23.484375 -3.21875 
L 25.09375 0.875 
L 2.984375 54.6875 
L 12.5 54.6875 
L 29.59375 11.921875 
L 46.6875 54.6875 
L 56.203125 54.6875 
z
" id="DejaVuSans-121"/>
     </defs>
     <g transform="translate(14.798438 149.559375)rotate(-90)scale(0.1 -0.1)">
      <use xlink:href="#DejaVuSans-121"/>
     </g>
    </g>
   </g>
   <g id="line2d_1">
    <path clip-path="url(#p9c87b102af)" d="M 33.559943 270.145455 
L 37.523011 192.500996 
L 41.48608 116.538817 
L 45.449148 57.526078 
L 49.412216 23.054545 
L 65.264489 91.001259 
L 73.190625 151.340477 
L 81.116761 191.172178 
L 96.969034 228.224016 
L 160.378125 250.784921 
L 223.787216 253.053781 
L 287.196307 254.219436 
" style="fill:none;stroke:#1f77b4;stroke-linecap:square;stroke-width:1.5;"/>
    <defs>
     <path d="M 0 3 
C 0.795609 3 1.55874 2.683901 2.12132 2.12132 
C 2.683901 1.55874 3 0.795609 3 0 
C 3 -0.795609 2.683901 -1.55874 2.12132 -2.12132 
C 1.55874 -2.683901 0.795609 -3 0 -3 
C -0.795609 -3 -1.55874 -2.683901 -2.12132 -2.12132 
C -2.683901 -1.55874 -3 -0.795609 -3 0 
C -3 0.795609 -2.683901 1.55874 -2.12132 2.12132 
C -1.55874 2.683901 -0.795609 3 0 3 
z
" id="mc42dadb632" style="stroke:#1f77b4;"/>
    </defs>
    <g clip-path="url(#p9c87b102af)">
     <use style="fill:#1f77b4;stroke:#1f77b4;" x="33.559943" xlink:href="#mc42dadb632" y="270.145455"/>
     <use style="fill:#1f77b4;stroke:#1f77b4;" x="37.523011" xlink:href="#mc42dadb632" y="192.500996"/>
     <use style="fill:#1f77b4;stroke:#1f77b4;" x="41.48608" xlink:href="#mc42dadb632" y="116.538817"/>
     <use style="fill:#1f77b4;stroke:#1f77b4;" x="45.449148" xlink:href="#mc42dadb632" y="57.526078"/>
     <use style="fill:#1f77b4;stroke:#1f77b4;" x="49.412216" xlink:href="#mc42dadb632" y="23.054545"/>
     <use style="fill:#1f77b4;stroke:#1f77b4;" x="65.264489" xlink:href="#mc42dadb632" y="91.001259"/>
     <use style="fill:#1f77b4;stroke:#1f77b4;" x="73.190625" xlink:href="#mc42dadb632" y="151.340477"/>
     <use style="fill:#1f77b4;stroke:#1f77b4;" x="81.116761" xlink:href="#mc42dadb632" y="191.172178"/>
     <use style="fill:#1f77b4;stroke:#1f77b4;" x="96.969034" xlink:href="#mc42dadb632" y="228.224016"/>
     <use style="fill:#1f77b4;stroke:#1f77b4;" x="160.378125" xlink:href="#mc42dadb632" y="250.784921"/>
     <use style="fill:#1f77b4;stroke:#1f77b4;" x="223.787216" xlink:href="#mc42dadb632" y="253.053781"/>
     <use style="fill:#1f77b4;stroke:#1f77b4;" x="287.196307" xlink:href="#mc42dadb632" y="254.219436"/>
    </g>
   </g>
   <g id="patch_3">
    <path d="M 20.878125 282.5 
L 20.878125 10.7 
" style="fill:none;stroke:#000000;stroke-linecap:square;stroke-linejoin:miter;stroke-width:0.8;"/>
   </g>
   <g id="patch_4">
    <path d="M 299.878125 282.5 
L 299.878125 10.7 
" style="fill:none;stroke:#000000;stroke-linecap:square;stroke-linejoin:miter;stroke-width:0.8;"/>
   </g>
   <g id="patch_5">
    <path d="M 20.878125 282.5 
L 299.878125 282.5 
" style="fill:none;stroke:#000000;stroke-linecap:square;stroke-linejoin:miter;stroke-width:0.8;"/>
   </g>
   <g id="patch_6">
    <path d="M 20.878125 10.7 
L 299.878125 10.7 
" style="fill:none;stroke:#000000;stroke-linecap:square;stroke-linejoin:miter;stroke-width:0.8;"/>
   </g>
  </g>
 </g>
 <defs>
  <clipPath id="p9c87b102af">
   <rect height="271.8" width="279" x="20.878125" y="10.7"/>
  </clipPath>
 </defs>
</svg>
