<?xml version="1.0" encoding="utf-8" standalone="no"?>
<!DOCTYPE svg PUBLIC "-//W3C//DTD SVG 1.1//EN"
  "http://www.w3.org/Graphics/SVG/1.1/DTD/svg11.dtd">
<!-- Created with matplotlib (https://matplotlib.org/) -->
<svg height="231.84pt" version="1.1" viewBox="0 0 349.2 231.84" width="349.2pt" xmlns="http://www.w3.org/2000/svg" xmlns:xlink="http://www.w3.org/1999/xlink">
 <defs>
  <style type="text/css">
*{stroke-linecap:butt;stroke-linejoin:round;}
  </style>
 </defs>
 <g id="figure_1">
  <g id="patch_1">
   <path d="M 0 231.84 
L 349.2 231.84 
L 349.2 0 
L 0 0 
z
" style="fill:#ffffff;"/>
  </g>
  <g id="axes_1">
   <g id="LineCollection_1">
    <path clip-path="url(#p945c05c0ba)" d="M 22.418182 115.92 
L 326.781818 115.92 
" style="fill:none;stroke:#000000;stroke-width:1.5;"/>
   </g>
   <g id="PathCollection_1">
    <defs>
     <path d="M 0 13.228757 
C 3.508307 13.228757 6.873396 11.834891 9.354143 9.354143 
C 11.834891 6.873396 13.228757 3.508307 13.228757 0 
C 13.228757 -3.508307 11.834891 -6.873396 9.354143 -9.354143 
C 6.873396 -11.834891 3.508307 -13.228757 0 -13.228757 
C -3.508307 -13.228757 -6.873396 -11.834891 -9.354143 -9.354143 
C -11.834891 -6.873396 -13.228757 -3.508307 -13.228757 0 
C -13.228757 3.508307 -11.834891 6.873396 -9.354143 9.354143 
C -6.873396 11.834891 -3.508307 13.228757 0 13.228757 
z
" id="m8edac7cdbc" style="stroke:#ffffff;"/>
    </defs>
    <g clip-path="url(#p945c05c0ba)">
     <use style="fill:#ffffff;stroke:#ffffff;" x="47.781818" xlink:href="#m8edac7cdbc" y="115.92"/>
     <use style="fill:#ffffff;stroke:#ffffff;" x="98.509091" xlink:href="#m8edac7cdbc" y="115.92"/>
     <use style="fill:#ffffff;stroke:#ffffff;" x="149.236364" xlink:href="#m8edac7cdbc" y="115.92"/>
     <use style="fill:#ffffff;stroke:#ffffff;" x="199.963636" xlink:href="#m8edac7cdbc" y="115.92"/>
     <use style="fill:#ffffff;stroke:#ffffff;" x="250.690909" xlink:href="#m8edac7cdbc" y="115.92"/>
     <use style="fill:#ffffff;stroke:#ffffff;" x="301.418182" xlink:href="#m8edac7cdbc" y="115.92"/>
    </g>
   </g>
   <g id="PathCollection_2">
    <defs>
     <path d="M 0 8.660254 
C 2.296726 8.660254 4.499694 7.747755 6.123724 6.123724 
C 7.747755 4.499694 8.660254 2.296726 8.660254 0 
C 8.660254 -2.296726 7.747755 -4.499694 6.123724 -6.123724 
C 4.499694 -7.747755 2.296726 -8.660254 0 -8.660254 
C -2.296726 -8.660254 -4.499694 -7.747755 -6.123724 -6.123724 
C -7.747755 -4.499694 -8.660254 -2.296726 -8.660254 0 
C -8.660254 2.296726 -7.747755 4.499694 -6.123724 6.123724 
C -4.499694 7.747755 -2.296726 8.660254 0 8.660254 
z
" id="m211ff3119c" style="stroke:#1f77b4;"/>
    </defs>
    <g clip-path="url(#p945c05c0ba)">
     <use style="fill:#1f77b4;stroke:#1f77b4;" x="47.781818" xlink:href="#m211ff3119c" y="115.92"/>
     <use style="fill:#1f77b4;stroke:#1f77b4;" x="98.509091" xlink:href="#m211ff3119c" y="115.92"/>
     <use style="fill:#1f77b4;stroke:#1f77b4;" x="149.236364" xlink:href="#m211ff3119c" y="115.92"/>
     <use style="fill:#1f77b4;stroke:#1f77b4;" x="199.963636" xlink:href="#m211ff3119c" y="115.92"/>
     <use style="fill:#1f77b4;stroke:#1f77b4;" x="250.690909" xlink:href="#m211ff3119c" y="115.92"/>
     <use style="fill:#1f77b4;stroke:#1f77b4;" x="301.418182" xlink:href="#m211ff3119c" y="115.92"/>
    </g>
   </g>
  </g>
 </g>
 <defs>
  <clipPath id="p945c05c0ba">
   <rect height="217.44" width="334.8" x="7.2" y="7.2"/>
  </clipPath>
 </defs>
</svg>
