<?xml version="1.0" encoding="utf-8" standalone="no"?>
<!DOCTYPE svg PUBLIC "-//W3C//DTD SVG 1.1//EN"
  "http://www.w3.org/Graphics/SVG/1.1/DTD/svg11.dtd">
<!-- Created with matplotlib (https://matplotlib.org/) -->
<svg height="360pt" version="1.1" viewBox="0 0 360 360" width="360pt" xmlns="http://www.w3.org/2000/svg" xmlns:xlink="http://www.w3.org/1999/xlink">
 <defs>
  <style type="text/css">
*{stroke-linecap:butt;stroke-linejoin:round;}
  </style>
 </defs>
 <g id="figure_1">
  <g id="patch_1">
   <path d="M 0 360 
L 360 360 
L 360 0 
L 0 0 
z
" style="fill:#ffffff;"/>
  </g>
  <g id="axes_1">
   <g id="patch_2">
    <path d="M 45 315 
L 324 315 
L 324 43.2 
L 45 43.2 
z
" style="fill:#ffffff;"/>
   </g>
   <g id="PathCollection_1">
    <defs>
     <path d="M 0 1.118034 
C 0.296506 1.118034 0.580908 1.000231 0.790569 0.790569 
C 1.000231 0.580908 1.118034 0.296506 1.118034 0 
C 1.118034 -0.296506 1.000231 -0.580908 0.790569 -0.790569 
C 0.580908 -1.000231 0.296506 -1.118034 0 -1.118034 
C -0.296506 -1.118034 -0.580908 -1.000231 -0.790569 -0.790569 
C -1.000231 -0.580908 -1.118034 -0.296506 -1.118034 0 
C -1.118034 0.296506 -1.000231 0.580908 -0.790569 0.790569 
C -0.580908 1.000231 -0.296506 1.118034 0 1.118034 
z
" id="m9698f1b7b0" style="stroke:#1f77b4;"/>
    </defs>
    <g clip-path="url(#p0640a6aefa)">
     <use style="fill:#1f77b4;stroke:#1f77b4;" x="58.253641" xlink:href="#m9698f1b7b0" y="61.451807"/>
     <use style="fill:#1f77b4;stroke:#1f77b4;" x="66.764441" xlink:href="#m9698f1b7b0" y="56.256657"/>
     <use style="fill:#1f77b4;stroke:#1f77b4;" x="73.718272" xlink:href="#m9698f1b7b0" y="61.689944"/>
     <use style="fill:#1f77b4;stroke:#1f77b4;" x="79.597651" xlink:href="#m9698f1b7b0" y="60.420198"/>
     <use style="fill:#1f77b4;stroke:#1f77b4;" x="84.690602" xlink:href="#m9698f1b7b0" y="60.305111"/>
     <use style="fill:#1f77b4;stroke:#1f77b4;" x="89.182902" xlink:href="#m9698f1b7b0" y="67.794451"/>
     <use style="fill:#1f77b4;stroke:#1f77b4;" x="96.836577" xlink:href="#m9698f1b7b0" y="65.959852"/>
     <use style="fill:#1f77b4;stroke:#1f77b4;" x="100.155232" xlink:href="#m9698f1b7b0" y="73.826054"/>
     <use style="fill:#1f77b4;stroke:#1f77b4;" x="106.034612" xlink:href="#m9698f1b7b0" y="78.739735"/>
     <use style="fill:#1f77b4;stroke:#1f77b4;" x="111.127562" xlink:href="#m9698f1b7b0" y="83.350503"/>
     <use style="fill:#1f77b4;stroke:#1f77b4;" x="117.682012" xlink:href="#m9698f1b7b0" y="88.979373"/>
     <use style="fill:#1f77b4;stroke:#1f77b4;" x="123.273538" xlink:href="#m9698f1b7b0" y="98.441352"/>
     <use style="fill:#1f77b4;stroke:#1f77b4;" x="128.149163" xlink:href="#m9698f1b7b0" y="102.810689"/>
     <use style="fill:#1f77b4;stroke:#1f77b4;" x="133.809972" xlink:href="#m9698f1b7b0" y="105.162833"/>
     <use style="fill:#1f77b4;stroke:#1f77b4;" x="139.876775" xlink:href="#m9698f1b7b0" y="108.437524"/>
     <use style="fill:#1f77b4;stroke:#1f77b4;" x="145.109691" xlink:href="#m9698f1b7b0" y="124.591905"/>
     <use style="fill:#1f77b4;stroke:#1f77b4;" x="150.567624" xlink:href="#m9698f1b7b0" y="126.129462"/>
     <use style="fill:#1f77b4;stroke:#1f77b4;" x="155.341406" xlink:href="#m9698f1b7b0" y="130.197676"/>
     <use style="fill:#1f77b4;stroke:#1f77b4;" x="160.898923" xlink:href="#m9698f1b7b0" y="136.870661"/>
     <use style="fill:#1f77b4;stroke:#1f77b4;" x="166.313736" xlink:href="#m9698f1b7b0" y="142.336526"/>
     <use style="fill:#1f77b4;stroke:#1f77b4;" x="171.546651" xlink:href="#m9698f1b7b0" y="146.563378"/>
     <use style="fill:#1f77b4;stroke:#1f77b4;" x="177.004585" xlink:href="#m9698f1b7b0" y="154.757002"/>
     <use style="fill:#1f77b4;stroke:#1f77b4;" x="182.518981" xlink:href="#m9698f1b7b0" y="166.579357"/>
     <use style="fill:#1f77b4;stroke:#1f77b4;" x="187.976915" xlink:href="#m9698f1b7b0" y="172.770852"/>
     <use style="fill:#1f77b4;stroke:#1f77b4;" x="193.307502" xlink:href="#m9698f1b7b0" y="178.46644"/>
     <use style="fill:#1f77b4;stroke:#1f77b4;" x="198.469485" xlink:href="#m9698f1b7b0" y="181.262062"/>
     <use style="fill:#1f77b4;stroke:#1f77b4;" x="203.862992" xlink:href="#m9698f1b7b0" y="187.008322"/>
     <use style="fill:#1f77b4;stroke:#1f77b4;" x="209.320926" xlink:href="#m9698f1b7b0" y="191.651768"/>
     <use style="fill:#1f77b4;stroke:#1f77b4;" x="214.572464" xlink:href="#m9698f1b7b0" y="198.866083"/>
     <use style="fill:#1f77b4;stroke:#1f77b4;" x="220.019846" xlink:href="#m9698f1b7b0" y="207.090668"/>
     <use style="fill:#1f77b4;stroke:#1f77b4;" x="225.26683" xlink:href="#m9698f1b7b0" y="211.15788"/>
     <use style="fill:#1f77b4;stroke:#1f77b4;" x="230.613009" xlink:href="#m9698f1b7b0" y="217.611122"/>
     <use style="fill:#1f77b4;stroke:#1f77b4;" x="236.02935" xlink:href="#m9698f1b7b0" y="222.361383"/>
     <use style="fill:#1f77b4;stroke:#1f77b4;" x="241.324637" xlink:href="#m9698f1b7b0" y="228.73203"/>
     <use style="fill:#1f77b4;stroke:#1f77b4;" x="246.662048" xlink:href="#m9698f1b7b0" y="234.856781"/>
     <use style="fill:#1f77b4;stroke:#1f77b4;" x="252.001533" xlink:href="#m9698f1b7b0" y="239.519144"/>
     <use style="fill:#1f77b4;stroke:#1f77b4;" x="257.360477" xlink:href="#m9698f1b7b0" y="245.576851"/>
     <use style="fill:#1f77b4;stroke:#1f77b4;" x="262.691064" xlink:href="#m9698f1b7b0" y="250.567586"/>
     <use style="fill:#1f77b4;stroke:#1f77b4;" x="268.035288" xlink:href="#m9698f1b7b0" y="256.595298"/>
     <use style="fill:#1f77b4;stroke:#1f77b4;" x="273.370956" xlink:href="#m9698f1b7b0" y="262.104015"/>
     <use style="fill:#1f77b4;stroke:#1f77b4;" x="278.704488" xlink:href="#m9698f1b7b0" y="268.234561"/>
     <use style="fill:#1f77b4;stroke:#1f77b4;" x="284.054277" xlink:href="#m9698f1b7b0" y="273.315758"/>
     <use style="fill:#1f77b4;stroke:#1f77b4;" x="289.395991" xlink:href="#m9698f1b7b0" y="279.692832"/>
     <use style="fill:#1f77b4;stroke:#1f77b4;" x="294.724643" xlink:href="#m9698f1b7b0" y="284.462726"/>
     <use style="fill:#1f77b4;stroke:#1f77b4;" x="300.061118" xlink:href="#m9698f1b7b0" y="290.06279"/>
     <use style="fill:#1f77b4;stroke:#1f77b4;" x="305.4056" xlink:href="#m9698f1b7b0" y="295.531105"/>
     <use style="fill:#1f77b4;stroke:#1f77b4;" x="310.746359" xlink:href="#m9698f1b7b0" y="301.943343"/>
    </g>
   </g>
   <g id="PathCollection_2">
    <defs>
     <path d="M 0 1.118034 
C 0.296506 1.118034 0.580908 1.000231 0.790569 0.790569 
C 1.000231 0.580908 1.118034 0.296506 1.118034 0 
C 1.118034 -0.296506 1.000231 -0.580908 0.790569 -0.790569 
C 0.580908 -1.000231 0.296506 -1.118034 0 -1.118034 
C -0.296506 -1.118034 -0.580908 -1.000231 -0.790569 -0.790569 
C -1.000231 -0.580908 -1.118034 -0.296506 -1.118034 0 
C -1.118034 0.296506 -1.000231 0.580908 -0.790569 0.790569 
C -0.580908 1.000231 -0.296506 1.118034 0 1.118034 
z
" id="mda18d6ae08" style="stroke:#ff7f0e;"/>
    </defs>
    <g clip-path="url(#p0640a6aefa)">
     <use style="fill:#ff7f0e;stroke:#ff7f0e;" x="89.182902" xlink:href="#mda18d6ae08" y="61.48396"/>
     <use style="fill:#ff7f0e;stroke:#ff7f0e;" x="111.127562" xlink:href="#mda18d6ae08" y="68.870929"/>
     <use style="fill:#ff7f0e;stroke:#ff7f0e;" x="128.149163" xlink:href="#mda18d6ae08" y="118.285999"/>
     <use style="fill:#ff7f0e;stroke:#ff7f0e;" x="142.056824" xlink:href="#mda18d6ae08" y="97.589058"/>
     <use style="fill:#ff7f0e;stroke:#ff7f0e;" x="153.815583" xlink:href="#mda18d6ae08" y="128.184257"/>
     <use style="fill:#ff7f0e;stroke:#ff7f0e;" x="164.001484" xlink:href="#mda18d6ae08" y="127.23802"/>
     <use style="fill:#ff7f0e;stroke:#ff7f0e;" x="172.986085" xlink:href="#mda18d6ae08" y="138.182795"/>
     <use style="fill:#ff7f0e;stroke:#ff7f0e;" x="181.023085" xlink:href="#mda18d6ae08" y="147.395554"/>
     <use style="fill:#ff7f0e;stroke:#ff7f0e;" x="188.293435" xlink:href="#mda18d6ae08" y="155.204812"/>
     <use style="fill:#ff7f0e;stroke:#ff7f0e;" x="194.930745" xlink:href="#mda18d6ae08" y="160.447799"/>
     <use style="fill:#ff7f0e;stroke:#ff7f0e;" x="201.036479" xlink:href="#mda18d6ae08" y="168.315053"/>
     <use style="fill:#ff7f0e;stroke:#ff7f0e;" x="206.689505" xlink:href="#mda18d6ae08" y="172.336249"/>
     <use style="fill:#ff7f0e;stroke:#ff7f0e;" x="211.952346" xlink:href="#mda18d6ae08" y="180.32059"/>
     <use style="fill:#ff7f0e;stroke:#ff7f0e;" x="216.875406" xlink:href="#mda18d6ae08" y="184.350426"/>
     <use style="fill:#ff7f0e;stroke:#ff7f0e;" x="221.499909" xlink:href="#mda18d6ae08" y="189.8761"/>
     <use style="fill:#ff7f0e;stroke:#ff7f0e;" x="225.860007" xlink:href="#mda18d6ae08" y="194.022785"/>
     <use style="fill:#ff7f0e;stroke:#ff7f0e;" x="229.984305" xlink:href="#mda18d6ae08" y="198.805224"/>
     <use style="fill:#ff7f0e;stroke:#ff7f0e;" x="233.897006" xlink:href="#mda18d6ae08" y="203.495365"/>
     <use style="fill:#ff7f0e;stroke:#ff7f0e;" x="237.618766" xlink:href="#mda18d6ae08" y="207.84242"/>
     <use style="fill:#ff7f0e;stroke:#ff7f0e;" x="241.167357" xlink:href="#mda18d6ae08" y="210.814768"/>
     <use style="fill:#ff7f0e;stroke:#ff7f0e;" x="247.804667" xlink:href="#mda18d6ae08" y="218.192527"/>
     <use style="fill:#ff7f0e;stroke:#ff7f0e;" x="250.918607" xlink:href="#mda18d6ae08" y="221.649651"/>
     <use style="fill:#ff7f0e;stroke:#ff7f0e;" x="256.789268" xlink:href="#mda18d6ae08" y="227.961483"/>
     <use style="fill:#ff7f0e;stroke:#ff7f0e;" x="259.563426" xlink:href="#mda18d6ae08" y="231.004288"/>
     <use style="fill:#ff7f0e;stroke:#ff7f0e;" x="264.826268" xlink:href="#mda18d6ae08" y="236.717459"/>
     <use style="fill:#ff7f0e;stroke:#ff7f0e;" x="269.749327" xlink:href="#mda18d6ae08" y="241.880314"/>
     <use style="fill:#ff7f0e;stroke:#ff7f0e;" x="274.373831" xlink:href="#mda18d6ae08" y="246.795762"/>
     <use style="fill:#ff7f0e;stroke:#ff7f0e;" x="278.733928" xlink:href="#mda18d6ae08" y="251.700442"/>
     <use style="fill:#ff7f0e;stroke:#ff7f0e;" x="282.858227" xlink:href="#mda18d6ae08" y="255.802963"/>
     <use style="fill:#ff7f0e;stroke:#ff7f0e;" x="286.770928" xlink:href="#mda18d6ae08" y="259.896949"/>
     <use style="fill:#ff7f0e;stroke:#ff7f0e;" x="292.287616" xlink:href="#mda18d6ae08" y="265.913173"/>
     <use style="fill:#ff7f0e;stroke:#ff7f0e;" x="295.755529" xlink:href="#mda18d6ae08" y="269.716489"/>
     <use style="fill:#ff7f0e;stroke:#ff7f0e;" x="300.678589" xlink:href="#mda18d6ae08" y="274.847866"/>
     <use style="fill:#ff7f0e;stroke:#ff7f0e;" x="305.303092" xlink:href="#mda18d6ae08" y="279.704337"/>
     <use style="fill:#ff7f0e;stroke:#ff7f0e;" x="309.66319" xlink:href="#mda18d6ae08" y="284.387398"/>
    </g>
   </g>
   <g id="matplotlib.axis_1">
    <g id="xtick_1">
     <g id="line2d_1">
      <defs>
       <path d="M 0 0 
L 0 3.5 
" id="ma79cdf769c" style="stroke:#000000;stroke-width:0.8;"/>
      </defs>
      <g>
       <use style="stroke:#000000;stroke-width:0.8;" x="93.201402" xlink:href="#ma79cdf769c" y="315"/>
      </g>
     </g>
     <g id="text_1">
      <!-- $\mathdefault{10^{1}}$ -->
      <defs>
       <path d="M 12.40625 8.296875 
L 28.515625 8.296875 
L 28.515625 63.921875 
L 10.984375 60.40625 
L 10.984375 69.390625 
L 28.421875 72.90625 
L 38.28125 72.90625 
L 38.28125 8.296875 
L 54.390625 8.296875 
L 54.390625 0 
L 12.40625 0 
z
" id="DejaVuSans-49"/>
       <path d="M 31.78125 66.40625 
Q 24.171875 66.40625 20.328125 58.90625 
Q 16.5 51.421875 16.5 36.375 
Q 16.5 21.390625 20.328125 13.890625 
Q 24.171875 6.390625 31.78125 6.390625 
Q 39.453125 6.390625 43.28125 13.890625 
Q 47.125 21.390625 47.125 36.375 
Q 47.125 51.421875 43.28125 58.90625 
Q 39.453125 66.40625 31.78125 66.40625 
z
M 31.78125 74.21875 
Q 44.046875 74.21875 50.515625 64.515625 
Q 56.984375 54.828125 56.984375 36.375 
Q 56.984375 17.96875 50.515625 8.265625 
Q 44.046875 -1.421875 31.78125 -1.421875 
Q 19.53125 -1.421875 13.0625 8.265625 
Q 6.59375 17.96875 6.59375 36.375 
Q 6.59375 54.828125 13.0625 64.515625 
Q 19.53125 74.21875 31.78125 74.21875 
z
" id="DejaVuSans-48"/>
      </defs>
      <g transform="translate(84.401402 329.598437)scale(0.1 -0.1)">
       <use transform="translate(0 0.684375)" xlink:href="#DejaVuSans-49"/>
       <use transform="translate(63.623047 0.684375)" xlink:href="#DejaVuSans-48"/>
       <use transform="translate(128.203125 38.965625)scale(0.7)" xlink:href="#DejaVuSans-49"/>
      </g>
     </g>
    </g>
    <g id="xtick_2">
     <g id="line2d_2">
      <g>
       <use style="stroke:#000000;stroke-width:0.8;" x="181.023085" xlink:href="#ma79cdf769c" y="315"/>
      </g>
     </g>
     <g id="text_2">
      <!-- $\mathdefault{10^{2}}$ -->
      <defs>
       <path d="M 19.1875 8.296875 
L 53.609375 8.296875 
L 53.609375 0 
L 7.328125 0 
L 7.328125 8.296875 
Q 12.9375 14.109375 22.625 23.890625 
Q 32.328125 33.6875 34.8125 36.53125 
Q 39.546875 41.84375 41.421875 45.53125 
Q 43.3125 49.21875 43.3125 52.78125 
Q 43.3125 58.59375 39.234375 62.25 
Q 35.15625 65.921875 28.609375 65.921875 
Q 23.96875 65.921875 18.8125 64.3125 
Q 13.671875 62.703125 7.8125 59.421875 
L 7.8125 69.390625 
Q 13.765625 71.78125 18.9375 73 
Q 24.125 74.21875 28.421875 74.21875 
Q 39.75 74.21875 46.484375 68.546875 
Q 53.21875 62.890625 53.21875 53.421875 
Q 53.21875 48.921875 51.53125 44.890625 
Q 49.859375 40.875 45.40625 35.40625 
Q 44.1875 33.984375 37.640625 27.21875 
Q 31.109375 20.453125 19.1875 8.296875 
z
" id="DejaVuSans-50"/>
      </defs>
      <g transform="translate(172.223085 329.598437)scale(0.1 -0.1)">
       <use transform="translate(0 0.765625)" xlink:href="#DejaVuSans-49"/>
       <use transform="translate(63.623047 0.765625)" xlink:href="#DejaVuSans-48"/>
       <use transform="translate(128.203125 39.046875)scale(0.7)" xlink:href="#DejaVuSans-50"/>
      </g>
     </g>
    </g>
    <g id="xtick_3">
     <g id="line2d_3">
      <g>
       <use style="stroke:#000000;stroke-width:0.8;" x="268.844768" xlink:href="#ma79cdf769c" y="315"/>
      </g>
     </g>
     <g id="text_3">
      <!-- $\mathdefault{10^{3}}$ -->
      <defs>
       <path d="M 40.578125 39.3125 
Q 47.65625 37.796875 51.625 33 
Q 55.609375 28.21875 55.609375 21.1875 
Q 55.609375 10.40625 48.1875 4.484375 
Q 40.765625 -1.421875 27.09375 -1.421875 
Q 22.515625 -1.421875 17.65625 -0.515625 
Q 12.796875 0.390625 7.625 2.203125 
L 7.625 11.71875 
Q 11.71875 9.328125 16.59375 8.109375 
Q 21.484375 6.890625 26.8125 6.890625 
Q 36.078125 6.890625 40.9375 10.546875 
Q 45.796875 14.203125 45.796875 21.1875 
Q 45.796875 27.640625 41.28125 31.265625 
Q 36.765625 34.90625 28.71875 34.90625 
L 20.21875 34.90625 
L 20.21875 43.015625 
L 29.109375 43.015625 
Q 36.375 43.015625 40.234375 45.921875 
Q 44.09375 48.828125 44.09375 54.296875 
Q 44.09375 59.90625 40.109375 62.90625 
Q 36.140625 65.921875 28.71875 65.921875 
Q 24.65625 65.921875 20.015625 65.03125 
Q 15.375 64.15625 9.8125 62.3125 
L 9.8125 71.09375 
Q 15.4375 72.65625 20.34375 73.4375 
Q 25.25 74.21875 29.59375 74.21875 
Q 40.828125 74.21875 47.359375 69.109375 
Q 53.90625 64.015625 53.90625 55.328125 
Q 53.90625 49.265625 50.4375 45.09375 
Q 46.96875 40.921875 40.578125 39.3125 
z
" id="DejaVuSans-51"/>
      </defs>
      <g transform="translate(260.044768 329.598437)scale(0.1 -0.1)">
       <use transform="translate(0 0.765625)" xlink:href="#DejaVuSans-49"/>
       <use transform="translate(63.623047 0.765625)" xlink:href="#DejaVuSans-48"/>
       <use transform="translate(128.203125 39.046875)scale(0.7)" xlink:href="#DejaVuSans-51"/>
      </g>
     </g>
    </g>
    <g id="xtick_4">
     <g id="line2d_4">
      <defs>
       <path d="M 0 0 
L 0 2 
" id="m65eca986e1" style="stroke:#000000;stroke-width:0.6;"/>
      </defs>
      <g>
       <use style="stroke:#000000;stroke-width:0.6;" x="47.281311" xlink:href="#m65eca986e1" y="315"/>
      </g>
     </g>
    </g>
    <g id="xtick_5">
     <g id="line2d_5">
      <g>
       <use style="stroke:#000000;stroke-width:0.6;" x="58.253641" xlink:href="#m65eca986e1" y="315"/>
      </g>
     </g>
    </g>
    <g id="xtick_6">
     <g id="line2d_6">
      <g>
       <use style="stroke:#000000;stroke-width:0.6;" x="66.764441" xlink:href="#m65eca986e1" y="315"/>
      </g>
     </g>
    </g>
    <g id="xtick_7">
     <g id="line2d_7">
      <g>
       <use style="stroke:#000000;stroke-width:0.6;" x="73.718272" xlink:href="#m65eca986e1" y="315"/>
      </g>
     </g>
    </g>
    <g id="xtick_8">
     <g id="line2d_8">
      <g>
       <use style="stroke:#000000;stroke-width:0.6;" x="79.597651" xlink:href="#m65eca986e1" y="315"/>
      </g>
     </g>
    </g>
    <g id="xtick_9">
     <g id="line2d_9">
      <g>
       <use style="stroke:#000000;stroke-width:0.6;" x="84.690602" xlink:href="#m65eca986e1" y="315"/>
      </g>
     </g>
    </g>
    <g id="xtick_10">
     <g id="line2d_10">
      <g>
       <use style="stroke:#000000;stroke-width:0.6;" x="89.182902" xlink:href="#m65eca986e1" y="315"/>
      </g>
     </g>
    </g>
    <g id="xtick_11">
     <g id="line2d_11">
      <g>
       <use style="stroke:#000000;stroke-width:0.6;" x="119.638363" xlink:href="#m65eca986e1" y="315"/>
      </g>
     </g>
    </g>
    <g id="xtick_12">
     <g id="line2d_12">
      <g>
       <use style="stroke:#000000;stroke-width:0.6;" x="135.102994" xlink:href="#m65eca986e1" y="315"/>
      </g>
     </g>
    </g>
    <g id="xtick_13">
     <g id="line2d_13">
      <g>
       <use style="stroke:#000000;stroke-width:0.6;" x="146.075324" xlink:href="#m65eca986e1" y="315"/>
      </g>
     </g>
    </g>
    <g id="xtick_14">
     <g id="line2d_14">
      <g>
       <use style="stroke:#000000;stroke-width:0.6;" x="154.586124" xlink:href="#m65eca986e1" y="315"/>
      </g>
     </g>
    </g>
    <g id="xtick_15">
     <g id="line2d_15">
      <g>
       <use style="stroke:#000000;stroke-width:0.6;" x="161.539954" xlink:href="#m65eca986e1" y="315"/>
      </g>
     </g>
    </g>
    <g id="xtick_16">
     <g id="line2d_16">
      <g>
       <use style="stroke:#000000;stroke-width:0.6;" x="167.419334" xlink:href="#m65eca986e1" y="315"/>
      </g>
     </g>
    </g>
    <g id="xtick_17">
     <g id="line2d_17">
      <g>
       <use style="stroke:#000000;stroke-width:0.6;" x="172.512284" xlink:href="#m65eca986e1" y="315"/>
      </g>
     </g>
    </g>
    <g id="xtick_18">
     <g id="line2d_18">
      <g>
       <use style="stroke:#000000;stroke-width:0.6;" x="177.004585" xlink:href="#m65eca986e1" y="315"/>
      </g>
     </g>
    </g>
    <g id="xtick_19">
     <g id="line2d_19">
      <g>
       <use style="stroke:#000000;stroke-width:0.6;" x="207.460046" xlink:href="#m65eca986e1" y="315"/>
      </g>
     </g>
    </g>
    <g id="xtick_20">
     <g id="line2d_20">
      <g>
       <use style="stroke:#000000;stroke-width:0.6;" x="222.924676" xlink:href="#m65eca986e1" y="315"/>
      </g>
     </g>
    </g>
    <g id="xtick_21">
     <g id="line2d_21">
      <g>
       <use style="stroke:#000000;stroke-width:0.6;" x="233.897006" xlink:href="#m65eca986e1" y="315"/>
      </g>
     </g>
    </g>
    <g id="xtick_22">
     <g id="line2d_22">
      <g>
       <use style="stroke:#000000;stroke-width:0.6;" x="242.407807" xlink:href="#m65eca986e1" y="315"/>
      </g>
     </g>
    </g>
    <g id="xtick_23">
     <g id="line2d_23">
      <g>
       <use style="stroke:#000000;stroke-width:0.6;" x="249.361637" xlink:href="#m65eca986e1" y="315"/>
      </g>
     </g>
    </g>
    <g id="xtick_24">
     <g id="line2d_24">
      <g>
       <use style="stroke:#000000;stroke-width:0.6;" x="255.241017" xlink:href="#m65eca986e1" y="315"/>
      </g>
     </g>
    </g>
    <g id="xtick_25">
     <g id="line2d_25">
      <g>
       <use style="stroke:#000000;stroke-width:0.6;" x="260.333967" xlink:href="#m65eca986e1" y="315"/>
      </g>
     </g>
    </g>
    <g id="xtick_26">
     <g id="line2d_26">
      <g>
       <use style="stroke:#000000;stroke-width:0.6;" x="264.826268" xlink:href="#m65eca986e1" y="315"/>
      </g>
     </g>
    </g>
    <g id="xtick_27">
     <g id="line2d_27">
      <g>
       <use style="stroke:#000000;stroke-width:0.6;" x="295.281728" xlink:href="#m65eca986e1" y="315"/>
      </g>
     </g>
    </g>
    <g id="xtick_28">
     <g id="line2d_28">
      <g>
       <use style="stroke:#000000;stroke-width:0.6;" x="310.746359" xlink:href="#m65eca986e1" y="315"/>
      </g>
     </g>
    </g>
    <g id="xtick_29">
     <g id="line2d_29">
      <g>
       <use style="stroke:#000000;stroke-width:0.6;" x="321.718689" xlink:href="#m65eca986e1" y="315"/>
      </g>
     </g>
    </g>
    <g id="text_4">
     <!-- Number of points -->
     <defs>
      <path d="M 9.8125 72.90625 
L 23.09375 72.90625 
L 55.421875 11.921875 
L 55.421875 72.90625 
L 64.984375 72.90625 
L 64.984375 0 
L 51.703125 0 
L 19.390625 60.984375 
L 19.390625 0 
L 9.8125 0 
z
" id="DejaVuSans-78"/>
      <path d="M 8.5 21.578125 
L 8.5 54.6875 
L 17.484375 54.6875 
L 17.484375 21.921875 
Q 17.484375 14.15625 20.5 10.265625 
Q 23.53125 6.390625 29.59375 6.390625 
Q 36.859375 6.390625 41.078125 11.03125 
Q 45.3125 15.671875 45.3125 23.6875 
L 45.3125 54.6875 
L 54.296875 54.6875 
L 54.296875 0 
L 45.3125 0 
L 45.3125 8.40625 
Q 42.046875 3.421875 37.71875 1 
Q 33.40625 -1.421875 27.6875 -1.421875 
Q 18.265625 -1.421875 13.375 4.4375 
Q 8.5 10.296875 8.5 21.578125 
z
M 31.109375 56 
z
" id="DejaVuSans-117"/>
      <path d="M 52 44.1875 
Q 55.375 50.25 60.0625 53.125 
Q 64.75 56 71.09375 56 
Q 79.640625 56 84.28125 50.015625 
Q 88.921875 44.046875 88.921875 33.015625 
L 88.921875 0 
L 79.890625 0 
L 79.890625 32.71875 
Q 79.890625 40.578125 77.09375 44.375 
Q 74.3125 48.1875 68.609375 48.1875 
Q 61.625 48.1875 57.5625 43.546875 
Q 53.515625 38.921875 53.515625 30.90625 
L 53.515625 0 
L 44.484375 0 
L 44.484375 32.71875 
Q 44.484375 40.625 41.703125 44.40625 
Q 38.921875 48.1875 33.109375 48.1875 
Q 26.21875 48.1875 22.15625 43.53125 
Q 18.109375 38.875 18.109375 30.90625 
L 18.109375 0 
L 9.078125 0 
L 9.078125 54.6875 
L 18.109375 54.6875 
L 18.109375 46.1875 
Q 21.1875 51.21875 25.484375 53.609375 
Q 29.78125 56 35.6875 56 
Q 41.65625 56 45.828125 52.96875 
Q 50 49.953125 52 44.1875 
z
" id="DejaVuSans-109"/>
      <path d="M 48.6875 27.296875 
Q 48.6875 37.203125 44.609375 42.84375 
Q 40.53125 48.484375 33.40625 48.484375 
Q 26.265625 48.484375 22.1875 42.84375 
Q 18.109375 37.203125 18.109375 27.296875 
Q 18.109375 17.390625 22.1875 11.75 
Q 26.265625 6.109375 33.40625 6.109375 
Q 40.53125 6.109375 44.609375 11.75 
Q 48.6875 17.390625 48.6875 27.296875 
z
M 18.109375 46.390625 
Q 20.953125 51.265625 25.265625 53.625 
Q 29.59375 56 35.59375 56 
Q 45.5625 56 51.78125 48.09375 
Q 58.015625 40.1875 58.015625 27.296875 
Q 58.015625 14.40625 51.78125 6.484375 
Q 45.5625 -1.421875 35.59375 -1.421875 
Q 29.59375 -1.421875 25.265625 0.953125 
Q 20.953125 3.328125 18.109375 8.203125 
L 18.109375 0 
L 9.078125 0 
L 9.078125 75.984375 
L 18.109375 75.984375 
z
" id="DejaVuSans-98"/>
      <path d="M 56.203125 29.59375 
L 56.203125 25.203125 
L 14.890625 25.203125 
Q 15.484375 15.921875 20.484375 11.0625 
Q 25.484375 6.203125 34.421875 6.203125 
Q 39.59375 6.203125 44.453125 7.46875 
Q 49.3125 8.734375 54.109375 11.28125 
L 54.109375 2.78125 
Q 49.265625 0.734375 44.1875 -0.34375 
Q 39.109375 -1.421875 33.890625 -1.421875 
Q 20.796875 -1.421875 13.15625 6.1875 
Q 5.515625 13.8125 5.515625 26.8125 
Q 5.515625 40.234375 12.765625 48.109375 
Q 20.015625 56 32.328125 56 
Q 43.359375 56 49.78125 48.890625 
Q 56.203125 41.796875 56.203125 29.59375 
z
M 47.21875 32.234375 
Q 47.125 39.59375 43.09375 43.984375 
Q 39.0625 48.390625 32.421875 48.390625 
Q 24.90625 48.390625 20.390625 44.140625 
Q 15.875 39.890625 15.1875 32.171875 
z
" id="DejaVuSans-101"/>
      <path d="M 41.109375 46.296875 
Q 39.59375 47.171875 37.8125 47.578125 
Q 36.03125 48 33.890625 48 
Q 26.265625 48 22.1875 43.046875 
Q 18.109375 38.09375 18.109375 28.8125 
L 18.109375 0 
L 9.078125 0 
L 9.078125 54.6875 
L 18.109375 54.6875 
L 18.109375 46.1875 
Q 20.953125 51.171875 25.484375 53.578125 
Q 30.03125 56 36.53125 56 
Q 37.453125 56 38.578125 55.875 
Q 39.703125 55.765625 41.0625 55.515625 
z
" id="DejaVuSans-114"/>
      <path id="DejaVuSans-32"/>
      <path d="M 30.609375 48.390625 
Q 23.390625 48.390625 19.1875 42.75 
Q 14.984375 37.109375 14.984375 27.296875 
Q 14.984375 17.484375 19.15625 11.84375 
Q 23.34375 6.203125 30.609375 6.203125 
Q 37.796875 6.203125 41.984375 11.859375 
Q 46.1875 17.53125 46.1875 27.296875 
Q 46.1875 37.015625 41.984375 42.703125 
Q 37.796875 48.390625 30.609375 48.390625 
z
M 30.609375 56 
Q 42.328125 56 49.015625 48.375 
Q 55.71875 40.765625 55.71875 27.296875 
Q 55.71875 13.875 49.015625 6.21875 
Q 42.328125 -1.421875 30.609375 -1.421875 
Q 18.84375 -1.421875 12.171875 6.21875 
Q 5.515625 13.875 5.515625 27.296875 
Q 5.515625 40.765625 12.171875 48.375 
Q 18.84375 56 30.609375 56 
z
" id="DejaVuSans-111"/>
      <path d="M 37.109375 75.984375 
L 37.109375 68.5 
L 28.515625 68.5 
Q 23.6875 68.5 21.796875 66.546875 
Q 19.921875 64.59375 19.921875 59.515625 
L 19.921875 54.6875 
L 34.71875 54.6875 
L 34.71875 47.703125 
L 19.921875 47.703125 
L 19.921875 0 
L 10.890625 0 
L 10.890625 47.703125 
L 2.296875 47.703125 
L 2.296875 54.6875 
L 10.890625 54.6875 
L 10.890625 58.5 
Q 10.890625 67.625 15.140625 71.796875 
Q 19.390625 75.984375 28.609375 75.984375 
z
" id="DejaVuSans-102"/>
      <path d="M 18.109375 8.203125 
L 18.109375 -20.796875 
L 9.078125 -20.796875 
L 9.078125 54.6875 
L 18.109375 54.6875 
L 18.109375 46.390625 
Q 20.953125 51.265625 25.265625 53.625 
Q 29.59375 56 35.59375 56 
Q 45.5625 56 51.78125 48.09375 
Q 58.015625 40.1875 58.015625 27.296875 
Q 58.015625 14.40625 51.78125 6.484375 
Q 45.5625 -1.421875 35.59375 -1.421875 
Q 29.59375 -1.421875 25.265625 0.953125 
Q 20.953125 3.328125 18.109375 8.203125 
z
M 48.6875 27.296875 
Q 48.6875 37.203125 44.609375 42.84375 
Q 40.53125 48.484375 33.40625 48.484375 
Q 26.265625 48.484375 22.1875 42.84375 
Q 18.109375 37.203125 18.109375 27.296875 
Q 18.109375 17.390625 22.1875 11.75 
Q 26.265625 6.109375 33.40625 6.109375 
Q 40.53125 6.109375 44.609375 11.75 
Q 48.6875 17.390625 48.6875 27.296875 
z
" id="DejaVuSans-112"/>
      <path d="M 9.421875 54.6875 
L 18.40625 54.6875 
L 18.40625 0 
L 9.421875 0 
z
M 9.421875 75.984375 
L 18.40625 75.984375 
L 18.40625 64.59375 
L 9.421875 64.59375 
z
" id="DejaVuSans-105"/>
      <path d="M 54.890625 33.015625 
L 54.890625 0 
L 45.90625 0 
L 45.90625 32.71875 
Q 45.90625 40.484375 42.875 44.328125 
Q 39.84375 48.1875 33.796875 48.1875 
Q 26.515625 48.1875 22.3125 43.546875 
Q 18.109375 38.921875 18.109375 30.90625 
L 18.109375 0 
L 9.078125 0 
L 9.078125 54.6875 
L 18.109375 54.6875 
L 18.109375 46.1875 
Q 21.34375 51.125 25.703125 53.5625 
Q 30.078125 56 35.796875 56 
Q 45.21875 56 50.046875 50.171875 
Q 54.890625 44.34375 54.890625 33.015625 
z
" id="DejaVuSans-110"/>
      <path d="M 18.3125 70.21875 
L 18.3125 54.6875 
L 36.8125 54.6875 
L 36.8125 47.703125 
L 18.3125 47.703125 
L 18.3125 18.015625 
Q 18.3125 11.328125 20.140625 9.421875 
Q 21.96875 7.515625 27.59375 7.515625 
L 36.8125 7.515625 
L 36.8125 0 
L 27.59375 0 
Q 17.1875 0 13.234375 3.875 
Q 9.28125 7.765625 9.28125 18.015625 
L 9.28125 47.703125 
L 2.6875 47.703125 
L 2.6875 54.6875 
L 9.28125 54.6875 
L 9.28125 70.21875 
z
" id="DejaVuSans-116"/>
      <path d="M 44.28125 53.078125 
L 44.28125 44.578125 
Q 40.484375 46.53125 36.375 47.5 
Q 32.28125 48.484375 27.875 48.484375 
Q 21.1875 48.484375 17.84375 46.4375 
Q 14.5 44.390625 14.5 40.28125 
Q 14.5 37.15625 16.890625 35.375 
Q 19.28125 33.59375 26.515625 31.984375 
L 29.59375 31.296875 
Q 39.15625 29.25 43.1875 25.515625 
Q 47.21875 21.78125 47.21875 15.09375 
Q 47.21875 7.46875 41.1875 3.015625 
Q 35.15625 -1.421875 24.609375 -1.421875 
Q 20.21875 -1.421875 15.453125 -0.5625 
Q 10.6875 0.296875 5.421875 2 
L 5.421875 11.28125 
Q 10.40625 8.6875 15.234375 7.390625 
Q 20.0625 6.109375 24.8125 6.109375 
Q 31.15625 6.109375 34.5625 8.28125 
Q 37.984375 10.453125 37.984375 14.40625 
Q 37.984375 18.0625 35.515625 20.015625 
Q 33.0625 21.96875 24.703125 23.78125 
L 21.578125 24.515625 
Q 13.234375 26.265625 9.515625 29.90625 
Q 5.8125 33.546875 5.8125 39.890625 
Q 5.8125 47.609375 11.28125 51.796875 
Q 16.75 56 26.8125 56 
Q 31.78125 56 36.171875 55.265625 
Q 40.578125 54.546875 44.28125 53.078125 
z
" id="DejaVuSans-115"/>
     </defs>
     <g transform="translate(141.060156 343.276563)scale(0.1 -0.1)">
      <use xlink:href="#DejaVuSans-78"/>
      <use x="74.804688" xlink:href="#DejaVuSans-117"/>
      <use x="138.183594" xlink:href="#DejaVuSans-109"/>
      <use x="235.595703" xlink:href="#DejaVuSans-98"/>
      <use x="299.072266" xlink:href="#DejaVuSans-101"/>
      <use x="360.595703" xlink:href="#DejaVuSans-114"/>
      <use x="401.708984" xlink:href="#DejaVuSans-32"/>
      <use x="433.496094" xlink:href="#DejaVuSans-111"/>
      <use x="494.677734" xlink:href="#DejaVuSans-102"/>
      <use x="529.882812" xlink:href="#DejaVuSans-32"/>
      <use x="561.669922" xlink:href="#DejaVuSans-112"/>
      <use x="625.146484" xlink:href="#DejaVuSans-111"/>
      <use x="686.328125" xlink:href="#DejaVuSans-105"/>
      <use x="714.111328" xlink:href="#DejaVuSans-110"/>
      <use x="777.490234" xlink:href="#DejaVuSans-116"/>
      <use x="816.699219" xlink:href="#DejaVuSans-115"/>
     </g>
    </g>
   </g>
   <g id="matplotlib.axis_2">
    <g id="ytick_1">
     <g id="line2d_30">
      <defs>
       <path d="M 0 0 
L -3.5 0 
" id="m4e59ad38e8" style="stroke:#000000;stroke-width:0.8;"/>
      </defs>
      <g>
       <use style="stroke:#000000;stroke-width:0.8;" x="45" xlink:href="#m4e59ad38e8" y="266.091098"/>
      </g>
     </g>
     <g id="text_5">
      <!-- $\mathdefault{10^{-3}}$ -->
      <defs>
       <path d="M 10.59375 35.5 
L 73.1875 35.5 
L 73.1875 27.203125 
L 10.59375 27.203125 
z
" id="DejaVuSans-8722"/>
      </defs>
      <g transform="translate(14.5 269.890317)scale(0.1 -0.1)">
       <use transform="translate(0 0.765625)" xlink:href="#DejaVuSans-49"/>
       <use transform="translate(63.623047 0.765625)" xlink:href="#DejaVuSans-48"/>
       <use transform="translate(128.203125 39.046875)scale(0.7)" xlink:href="#DejaVuSans-8722"/>
       <use transform="translate(186.855469 39.046875)scale(0.7)" xlink:href="#DejaVuSans-51"/>
      </g>
     </g>
    </g>
    <g id="ytick_2">
     <g id="line2d_31">
      <g>
       <use style="stroke:#000000;stroke-width:0.8;" x="45" xlink:href="#m4e59ad38e8" y="174.294021"/>
      </g>
     </g>
     <g id="text_6">
      <!-- $\mathdefault{10^{-2}}$ -->
      <g transform="translate(14.5 178.09324)scale(0.1 -0.1)">
       <use transform="translate(0 0.765625)" xlink:href="#DejaVuSans-49"/>
       <use transform="translate(63.623047 0.765625)" xlink:href="#DejaVuSans-48"/>
       <use transform="translate(128.203125 39.046875)scale(0.7)" xlink:href="#DejaVuSans-8722"/>
       <use transform="translate(186.855469 39.046875)scale(0.7)" xlink:href="#DejaVuSans-50"/>
      </g>
     </g>
    </g>
    <g id="ytick_3">
     <g id="line2d_32">
      <g>
       <use style="stroke:#000000;stroke-width:0.8;" x="45" xlink:href="#m4e59ad38e8" y="82.496944"/>
      </g>
     </g>
     <g id="text_7">
      <!-- $\mathdefault{10^{-1}}$ -->
      <g transform="translate(14.5 86.296163)scale(0.1 -0.1)">
       <use transform="translate(0 0.684375)" xlink:href="#DejaVuSans-49"/>
       <use transform="translate(63.623047 0.684375)" xlink:href="#DejaVuSans-48"/>
       <use transform="translate(128.203125 38.965625)scale(0.7)" xlink:href="#DejaVuSans-8722"/>
       <use transform="translate(186.855469 38.965625)scale(0.7)" xlink:href="#DejaVuSans-49"/>
      </g>
     </g>
    </g>
    <g id="ytick_4">
     <g id="line2d_33">
      <defs>
       <path d="M 0 0 
L -2 0 
" id="ma46f006a27" style="stroke:#000000;stroke-width:0.6;"/>
      </defs>
      <g>
       <use style="stroke:#000000;stroke-width:0.6;" x="45" xlink:href="#ma46f006a27" y="314.089839"/>
      </g>
     </g>
    </g>
    <g id="ytick_5">
     <g id="line2d_34">
      <g>
       <use style="stroke:#000000;stroke-width:0.6;" x="45" xlink:href="#ma46f006a27" y="302.620828"/>
      </g>
     </g>
    </g>
    <g id="ytick_6">
     <g id="line2d_35">
      <g>
       <use style="stroke:#000000;stroke-width:0.6;" x="45" xlink:href="#ma46f006a27" y="293.724772"/>
      </g>
     </g>
    </g>
    <g id="ytick_7">
     <g id="line2d_36">
      <g>
       <use style="stroke:#000000;stroke-width:0.6;" x="45" xlink:href="#ma46f006a27" y="286.456165"/>
      </g>
     </g>
    </g>
    <g id="ytick_8">
     <g id="line2d_37">
      <g>
       <use style="stroke:#000000;stroke-width:0.6;" x="45" xlink:href="#ma46f006a27" y="280.310646"/>
      </g>
     </g>
    </g>
    <g id="ytick_9">
     <g id="line2d_38">
      <g>
       <use style="stroke:#000000;stroke-width:0.6;" x="45" xlink:href="#ma46f006a27" y="274.987154"/>
      </g>
     </g>
    </g>
    <g id="ytick_10">
     <g id="line2d_39">
      <g>
       <use style="stroke:#000000;stroke-width:0.6;" x="45" xlink:href="#ma46f006a27" y="270.291502"/>
      </g>
     </g>
    </g>
    <g id="ytick_11">
     <g id="line2d_40">
      <g>
       <use style="stroke:#000000;stroke-width:0.6;" x="45" xlink:href="#ma46f006a27" y="238.457425"/>
      </g>
     </g>
    </g>
    <g id="ytick_12">
     <g id="line2d_41">
      <g>
       <use style="stroke:#000000;stroke-width:0.6;" x="45" xlink:href="#ma46f006a27" y="222.292762"/>
      </g>
     </g>
    </g>
    <g id="ytick_13">
     <g id="line2d_42">
      <g>
       <use style="stroke:#000000;stroke-width:0.6;" x="45" xlink:href="#ma46f006a27" y="210.823751"/>
      </g>
     </g>
    </g>
    <g id="ytick_14">
     <g id="line2d_43">
      <g>
       <use style="stroke:#000000;stroke-width:0.6;" x="45" xlink:href="#ma46f006a27" y="201.927695"/>
      </g>
     </g>
    </g>
    <g id="ytick_15">
     <g id="line2d_44">
      <g>
       <use style="stroke:#000000;stroke-width:0.6;" x="45" xlink:href="#ma46f006a27" y="194.659088"/>
      </g>
     </g>
    </g>
    <g id="ytick_16">
     <g id="line2d_45">
      <g>
       <use style="stroke:#000000;stroke-width:0.6;" x="45" xlink:href="#ma46f006a27" y="188.513568"/>
      </g>
     </g>
    </g>
    <g id="ytick_17">
     <g id="line2d_46">
      <g>
       <use style="stroke:#000000;stroke-width:0.6;" x="45" xlink:href="#ma46f006a27" y="183.190077"/>
      </g>
     </g>
    </g>
    <g id="ytick_18">
     <g id="line2d_47">
      <g>
       <use style="stroke:#000000;stroke-width:0.6;" x="45" xlink:href="#ma46f006a27" y="178.494425"/>
      </g>
     </g>
    </g>
    <g id="ytick_19">
     <g id="line2d_48">
      <g>
       <use style="stroke:#000000;stroke-width:0.6;" x="45" xlink:href="#ma46f006a27" y="146.660347"/>
      </g>
     </g>
    </g>
    <g id="ytick_20">
     <g id="line2d_49">
      <g>
       <use style="stroke:#000000;stroke-width:0.6;" x="45" xlink:href="#ma46f006a27" y="130.495684"/>
      </g>
     </g>
    </g>
    <g id="ytick_21">
     <g id="line2d_50">
      <g>
       <use style="stroke:#000000;stroke-width:0.6;" x="45" xlink:href="#ma46f006a27" y="119.026674"/>
      </g>
     </g>
    </g>
    <g id="ytick_22">
     <g id="line2d_51">
      <g>
       <use style="stroke:#000000;stroke-width:0.6;" x="45" xlink:href="#ma46f006a27" y="110.130618"/>
      </g>
     </g>
    </g>
    <g id="ytick_23">
     <g id="line2d_52">
      <g>
       <use style="stroke:#000000;stroke-width:0.6;" x="45" xlink:href="#ma46f006a27" y="102.862011"/>
      </g>
     </g>
    </g>
    <g id="ytick_24">
     <g id="line2d_53">
      <g>
       <use style="stroke:#000000;stroke-width:0.6;" x="45" xlink:href="#ma46f006a27" y="96.716491"/>
      </g>
     </g>
    </g>
    <g id="ytick_25">
     <g id="line2d_54">
      <g>
       <use style="stroke:#000000;stroke-width:0.6;" x="45" xlink:href="#ma46f006a27" y="91.393"/>
      </g>
     </g>
    </g>
    <g id="ytick_26">
     <g id="line2d_55">
      <g>
       <use style="stroke:#000000;stroke-width:0.6;" x="45" xlink:href="#ma46f006a27" y="86.697348"/>
      </g>
     </g>
    </g>
    <g id="ytick_27">
     <g id="line2d_56">
      <g>
       <use style="stroke:#000000;stroke-width:0.6;" x="45" xlink:href="#ma46f006a27" y="54.86327"/>
      </g>
     </g>
    </g>
    <g id="text_8">
     <!-- Error -->
     <defs>
      <path d="M 9.8125 72.90625 
L 55.90625 72.90625 
L 55.90625 64.59375 
L 19.671875 64.59375 
L 19.671875 43.015625 
L 54.390625 43.015625 
L 54.390625 34.71875 
L 19.671875 34.71875 
L 19.671875 8.296875 
L 56.78125 8.296875 
L 56.78125 0 
L 9.8125 0 
z
" id="DejaVuSans-69"/>
     </defs>
     <g transform="translate(8.420312 191.482812)rotate(-90)scale(0.1 -0.1)">
      <use xlink:href="#DejaVuSans-69"/>
      <use x="63.183594" xlink:href="#DejaVuSans-114"/>
      <use x="104.28125" xlink:href="#DejaVuSans-114"/>
      <use x="145.363281" xlink:href="#DejaVuSans-111"/>
      <use x="206.544922" xlink:href="#DejaVuSans-114"/>
     </g>
    </g>
   </g>
   <g id="line2d_57">
    <path clip-path="url(#p0640a6aefa)" d="M 181.023085 164.25382 
L 183.670499 167.06268 
L 186.317912 169.87154 
L 188.965326 172.6804 
L 191.61274 175.48926 
L 194.260154 178.29812 
L 196.907567 181.10698 
L 199.554981 183.91584 
L 202.202395 186.7247 
L 204.849809 189.533561 
L 207.497222 192.342421 
L 210.144636 195.151281 
L 212.79205 197.960141 
L 215.439464 200.769001 
L 218.086878 203.577861 
L 220.734291 206.386721 
L 223.381705 209.195581 
L 226.029119 212.004441 
L 228.676533 214.813301 
L 231.323946 217.622161 
L 233.97136 220.431022 
L 236.618774 223.239882 
L 239.266188 226.048742 
L 241.913601 228.857602 
L 244.561015 231.666462 
L 247.208429 234.475322 
L 249.855843 237.284182 
L 252.503256 240.093042 
L 255.15067 242.901902 
L 257.798084 245.710762 
L 260.445498 248.519622 
L 263.092911 251.328482 
L 265.740325 254.137343 
L 268.387739 256.946203 
L 271.035153 259.755063 
L 273.682566 262.563923 
L 276.32998 265.372783 
L 278.977394 268.181643 
L 281.624808 270.990503 
L 284.272222 273.799363 
L 286.919635 276.608223 
L 289.567049 279.417083 
L 292.214463 282.225943 
L 294.861877 285.034804 
L 297.50929 287.843664 
L 300.156704 290.652524 
L 302.804118 293.461384 
L 305.451532 296.270244 
L 308.098945 299.079104 
L 310.746359 301.887964 
" style="fill:none;stroke:#1f77b4;stroke-linecap:square;stroke-width:1.5;"/>
   </g>
   <g id="line2d_58">
    <path clip-path="url(#p0640a6aefa)" d="M 181.023085 146.718024 
L 183.670499 149.555281 
L 186.317912 152.392537 
L 188.965326 155.229794 
L 191.61274 158.06705 
L 194.260154 160.904307 
L 196.907567 163.741563 
L 199.554981 166.57882 
L 202.202395 169.416076 
L 204.849809 172.253332 
L 207.497222 175.090589 
L 210.144636 177.927845 
L 212.79205 180.765102 
L 215.439464 183.602358 
L 218.086878 186.439615 
L 220.734291 189.276871 
L 223.381705 192.114128 
L 226.029119 194.951384 
L 228.676533 197.788641 
L 231.323946 200.625897 
L 233.97136 203.463153 
L 236.618774 206.30041 
L 239.266188 209.137666 
L 241.913601 211.974923 
L 244.561015 214.812179 
L 247.208429 217.649436 
L 249.855843 220.486692 
L 252.503256 223.323949 
L 255.15067 226.161205 
L 257.798084 228.998462 
L 260.445498 231.835718 
L 263.092911 234.672974 
L 265.740325 237.510231 
L 268.387739 240.347487 
L 271.035153 243.184744 
L 273.682566 246.022 
L 276.32998 248.859257 
L 278.977394 251.696513 
L 281.624808 254.53377 
L 284.272222 257.371026 
L 286.919635 260.208283 
L 289.567049 263.045539 
L 292.214463 265.882796 
L 294.861877 268.720052 
L 297.50929 271.557308 
L 300.156704 274.394565 
L 302.804118 277.231821 
L 305.451532 280.069078 
L 308.098945 282.906334 
L 310.746359 285.743591 
" style="fill:none;stroke:#ff7f0e;stroke-linecap:square;stroke-width:1.5;"/>
   </g>
   <g id="patch_3">
    <path d="M 45 315 
L 45 43.2 
" style="fill:none;stroke:#000000;stroke-linecap:square;stroke-linejoin:miter;stroke-width:0.8;"/>
   </g>
   <g id="patch_4">
    <path d="M 324 315 
L 324 43.2 
" style="fill:none;stroke:#000000;stroke-linecap:square;stroke-linejoin:miter;stroke-width:0.8;"/>
   </g>
   <g id="patch_5">
    <path d="M 45 315 
L 324 315 
" style="fill:none;stroke:#000000;stroke-linecap:square;stroke-linejoin:miter;stroke-width:0.8;"/>
   </g>
   <g id="patch_6">
    <path d="M 45 43.2 
L 324 43.2 
" style="fill:none;stroke:#000000;stroke-linecap:square;stroke-linejoin:miter;stroke-width:0.8;"/>
   </g>
   <g id="legend_1">
    <g id="patch_7">
     <path d="M 199.446875 109.9125 
L 317 109.9125 
Q 319 109.9125 319 107.9125 
L 319 50.2 
Q 319 48.2 317 48.2 
L 199.446875 48.2 
Q 197.446875 48.2 197.446875 50.2 
L 197.446875 107.9125 
Q 197.446875 109.9125 199.446875 109.9125 
z
" style="fill:#ffffff;opacity:0.8;stroke:#cccccc;stroke-linejoin:miter;"/>
    </g>
    <g id="line2d_59">
     <path d="M 201.446875 56.298437 
L 221.446875 56.298437 
" style="fill:none;stroke:#1f77b4;stroke-linecap:square;stroke-width:1.5;"/>
    </g>
    <g id="line2d_60"/>
    <g id="text_9">
     <!-- Adaptive fit -->
     <defs>
      <path d="M 34.1875 63.1875 
L 20.796875 26.90625 
L 47.609375 26.90625 
z
M 28.609375 72.90625 
L 39.796875 72.90625 
L 67.578125 0 
L 57.328125 0 
L 50.6875 18.703125 
L 17.828125 18.703125 
L 11.1875 0 
L 0.78125 0 
z
" id="DejaVuSans-65"/>
      <path d="M 45.40625 46.390625 
L 45.40625 75.984375 
L 54.390625 75.984375 
L 54.390625 0 
L 45.40625 0 
L 45.40625 8.203125 
Q 42.578125 3.328125 38.25 0.953125 
Q 33.9375 -1.421875 27.875 -1.421875 
Q 17.96875 -1.421875 11.734375 6.484375 
Q 5.515625 14.40625 5.515625 27.296875 
Q 5.515625 40.1875 11.734375 48.09375 
Q 17.96875 56 27.875 56 
Q 33.9375 56 38.25 53.625 
Q 42.578125 51.265625 45.40625 46.390625 
z
M 14.796875 27.296875 
Q 14.796875 17.390625 18.875 11.75 
Q 22.953125 6.109375 30.078125 6.109375 
Q 37.203125 6.109375 41.296875 11.75 
Q 45.40625 17.390625 45.40625 27.296875 
Q 45.40625 37.203125 41.296875 42.84375 
Q 37.203125 48.484375 30.078125 48.484375 
Q 22.953125 48.484375 18.875 42.84375 
Q 14.796875 37.203125 14.796875 27.296875 
z
" id="DejaVuSans-100"/>
      <path d="M 34.28125 27.484375 
Q 23.390625 27.484375 19.1875 25 
Q 14.984375 22.515625 14.984375 16.5 
Q 14.984375 11.71875 18.140625 8.90625 
Q 21.296875 6.109375 26.703125 6.109375 
Q 34.1875 6.109375 38.703125 11.40625 
Q 43.21875 16.703125 43.21875 25.484375 
L 43.21875 27.484375 
z
M 52.203125 31.203125 
L 52.203125 0 
L 43.21875 0 
L 43.21875 8.296875 
Q 40.140625 3.328125 35.546875 0.953125 
Q 30.953125 -1.421875 24.3125 -1.421875 
Q 15.921875 -1.421875 10.953125 3.296875 
Q 6 8.015625 6 15.921875 
Q 6 25.140625 12.171875 29.828125 
Q 18.359375 34.515625 30.609375 34.515625 
L 43.21875 34.515625 
L 43.21875 35.40625 
Q 43.21875 41.609375 39.140625 45 
Q 35.0625 48.390625 27.6875 48.390625 
Q 23 48.390625 18.546875 47.265625 
Q 14.109375 46.140625 10.015625 43.890625 
L 10.015625 52.203125 
Q 14.9375 54.109375 19.578125 55.046875 
Q 24.21875 56 28.609375 56 
Q 40.484375 56 46.34375 49.84375 
Q 52.203125 43.703125 52.203125 31.203125 
z
" id="DejaVuSans-97"/>
      <path d="M 2.984375 54.6875 
L 12.5 54.6875 
L 29.59375 8.796875 
L 46.6875 54.6875 
L 56.203125 54.6875 
L 35.6875 0 
L 23.484375 0 
z
" id="DejaVuSans-118"/>
     </defs>
     <g transform="translate(229.446875 59.798437)scale(0.1 -0.1)">
      <use xlink:href="#DejaVuSans-65"/>
      <use x="68.392578" xlink:href="#DejaVuSans-100"/>
      <use x="131.869141" xlink:href="#DejaVuSans-97"/>
      <use x="193.148438" xlink:href="#DejaVuSans-112"/>
      <use x="256.625" xlink:href="#DejaVuSans-116"/>
      <use x="295.833984" xlink:href="#DejaVuSans-105"/>
      <use x="323.617188" xlink:href="#DejaVuSans-118"/>
      <use x="382.796875" xlink:href="#DejaVuSans-101"/>
      <use x="444.320312" xlink:href="#DejaVuSans-32"/>
      <use x="476.107422" xlink:href="#DejaVuSans-102"/>
      <use x="511.3125" xlink:href="#DejaVuSans-105"/>
      <use x="539.095703" xlink:href="#DejaVuSans-116"/>
     </g>
    </g>
    <g id="line2d_61">
     <path d="M 201.446875 70.976562 
L 221.446875 70.976562 
" style="fill:none;stroke:#ff7f0e;stroke-linecap:square;stroke-width:1.5;"/>
    </g>
    <g id="line2d_62"/>
    <g id="text_10">
     <!-- Homogeneous fit -->
     <defs>
      <path d="M 9.8125 72.90625 
L 19.671875 72.90625 
L 19.671875 43.015625 
L 55.515625 43.015625 
L 55.515625 72.90625 
L 65.375 72.90625 
L 65.375 0 
L 55.515625 0 
L 55.515625 34.71875 
L 19.671875 34.71875 
L 19.671875 0 
L 9.8125 0 
z
" id="DejaVuSans-72"/>
      <path d="M 45.40625 27.984375 
Q 45.40625 37.75 41.375 43.109375 
Q 37.359375 48.484375 30.078125 48.484375 
Q 22.859375 48.484375 18.828125 43.109375 
Q 14.796875 37.75 14.796875 27.984375 
Q 14.796875 18.265625 18.828125 12.890625 
Q 22.859375 7.515625 30.078125 7.515625 
Q 37.359375 7.515625 41.375 12.890625 
Q 45.40625 18.265625 45.40625 27.984375 
z
M 54.390625 6.78125 
Q 54.390625 -7.171875 48.1875 -13.984375 
Q 42 -20.796875 29.203125 -20.796875 
Q 24.46875 -20.796875 20.265625 -20.09375 
Q 16.0625 -19.390625 12.109375 -17.921875 
L 12.109375 -9.1875 
Q 16.0625 -11.328125 19.921875 -12.34375 
Q 23.78125 -13.375 27.78125 -13.375 
Q 36.625 -13.375 41.015625 -8.765625 
Q 45.40625 -4.15625 45.40625 5.171875 
L 45.40625 9.625 
Q 42.625 4.78125 38.28125 2.390625 
Q 33.9375 0 27.875 0 
Q 17.828125 0 11.671875 7.65625 
Q 5.515625 15.328125 5.515625 27.984375 
Q 5.515625 40.671875 11.671875 48.328125 
Q 17.828125 56 27.875 56 
Q 33.9375 56 38.28125 53.609375 
Q 42.625 51.21875 45.40625 46.390625 
L 45.40625 54.6875 
L 54.390625 54.6875 
z
" id="DejaVuSans-103"/>
     </defs>
     <g transform="translate(229.446875 74.476562)scale(0.1 -0.1)">
      <use xlink:href="#DejaVuSans-72"/>
      <use x="75.195312" xlink:href="#DejaVuSans-111"/>
      <use x="136.376953" xlink:href="#DejaVuSans-109"/>
      <use x="233.789062" xlink:href="#DejaVuSans-111"/>
      <use x="294.970703" xlink:href="#DejaVuSans-103"/>
      <use x="358.447266" xlink:href="#DejaVuSans-101"/>
      <use x="419.970703" xlink:href="#DejaVuSans-110"/>
      <use x="483.349609" xlink:href="#DejaVuSans-101"/>
      <use x="544.873047" xlink:href="#DejaVuSans-111"/>
      <use x="606.054688" xlink:href="#DejaVuSans-117"/>
      <use x="669.433594" xlink:href="#DejaVuSans-115"/>
      <use x="721.533203" xlink:href="#DejaVuSans-32"/>
      <use x="753.320312" xlink:href="#DejaVuSans-102"/>
      <use x="788.525391" xlink:href="#DejaVuSans-105"/>
      <use x="816.308594" xlink:href="#DejaVuSans-116"/>
     </g>
    </g>
    <g id="PathCollection_3">
     <g>
      <use style="fill:#1f77b4;stroke:#1f77b4;" x="211.446875" xlink:href="#m9698f1b7b0" y="86.529687"/>
     </g>
    </g>
    <g id="text_11">
     <!-- Adaptive -->
     <g transform="translate(229.446875 89.154687)scale(0.1 -0.1)">
      <use xlink:href="#DejaVuSans-65"/>
      <use x="68.392578" xlink:href="#DejaVuSans-100"/>
      <use x="131.869141" xlink:href="#DejaVuSans-97"/>
      <use x="193.148438" xlink:href="#DejaVuSans-112"/>
      <use x="256.625" xlink:href="#DejaVuSans-116"/>
      <use x="295.833984" xlink:href="#DejaVuSans-105"/>
      <use x="323.617188" xlink:href="#DejaVuSans-118"/>
      <use x="382.796875" xlink:href="#DejaVuSans-101"/>
     </g>
    </g>
    <g id="PathCollection_4">
     <g>
      <use style="fill:#ff7f0e;stroke:#ff7f0e;" x="211.446875" xlink:href="#mda18d6ae08" y="101.207812"/>
     </g>
    </g>
    <g id="text_12">
     <!-- Homogeneous -->
     <g transform="translate(229.446875 103.832812)scale(0.1 -0.1)">
      <use xlink:href="#DejaVuSans-72"/>
      <use x="75.195312" xlink:href="#DejaVuSans-111"/>
      <use x="136.376953" xlink:href="#DejaVuSans-109"/>
      <use x="233.789062" xlink:href="#DejaVuSans-111"/>
      <use x="294.970703" xlink:href="#DejaVuSans-103"/>
      <use x="358.447266" xlink:href="#DejaVuSans-101"/>
      <use x="419.970703" xlink:href="#DejaVuSans-110"/>
      <use x="483.349609" xlink:href="#DejaVuSans-101"/>
      <use x="544.873047" xlink:href="#DejaVuSans-111"/>
      <use x="606.054688" xlink:href="#DejaVuSans-117"/>
      <use x="669.433594" xlink:href="#DejaVuSans-115"/>
     </g>
    </g>
   </g>
  </g>
 </g>
 <defs>
  <clipPath id="p0640a6aefa">
   <rect height="271.8" width="279" x="45" y="43.2"/>
  </clipPath>
 </defs>
</svg>
