<?xml version="1.0" encoding="utf-8" standalone="no"?>
<!DOCTYPE svg PUBLIC "-//W3C//DTD SVG 1.1//EN"
  "http://www.w3.org/Graphics/SVG/1.1/DTD/svg11.dtd">
<!-- Created with matplotlib (https://matplotlib.org/) -->
<svg height="360pt" version="1.1" viewBox="0 0 360 360" width="360pt" xmlns="http://www.w3.org/2000/svg" xmlns:xlink="http://www.w3.org/1999/xlink">
 <defs>
  <style type="text/css">
*{stroke-linecap:butt;stroke-linejoin:round;}
  </style>
 </defs>
 <g id="figure_1">
  <g id="patch_1">
   <path d="M 0 360 
L 360 360 
L 360 0 
L 0 0 
z
" style="fill:#ffffff;"/>
  </g>
  <g id="axes_1">
   <g id="patch_2">
    <path d="M 45 315 
L 324 315 
L 324 43.2 
L 45 43.2 
z
" style="fill:#ffffff;"/>
   </g>
   <g id="matplotlib.axis_1">
    <g id="xtick_1">
     <g id="line2d_1">
      <defs>
       <path d="M 0 0 
L 0 3.5 
" id="m600af922f6" style="stroke:#000000;stroke-width:0.8;"/>
      </defs>
      <g>
       <use style="stroke:#000000;stroke-width:0.8;" x="88.257747" xlink:href="#m600af922f6" y="315"/>
      </g>
     </g>
     <g id="text_1">
      <!-- $\mathdefault{10^{1}}$ -->
      <defs>
       <path d="M 12.40625 8.296875 
L 28.515625 8.296875 
L 28.515625 63.921875 
L 10.984375 60.40625 
L 10.984375 69.390625 
L 28.421875 72.90625 
L 38.28125 72.90625 
L 38.28125 8.296875 
L 54.390625 8.296875 
L 54.390625 0 
L 12.40625 0 
z
" id="DejaVuSans-49"/>
       <path d="M 31.78125 66.40625 
Q 24.171875 66.40625 20.328125 58.90625 
Q 16.5 51.421875 16.5 36.375 
Q 16.5 21.390625 20.328125 13.890625 
Q 24.171875 6.390625 31.78125 6.390625 
Q 39.453125 6.390625 43.28125 13.890625 
Q 47.125 21.390625 47.125 36.375 
Q 47.125 51.421875 43.28125 58.90625 
Q 39.453125 66.40625 31.78125 66.40625 
z
M 31.78125 74.21875 
Q 44.046875 74.21875 50.515625 64.515625 
Q 56.984375 54.828125 56.984375 36.375 
Q 56.984375 17.96875 50.515625 8.265625 
Q 44.046875 -1.421875 31.78125 -1.421875 
Q 19.53125 -1.421875 13.0625 8.265625 
Q 6.59375 17.96875 6.59375 36.375 
Q 6.59375 54.828125 13.0625 64.515625 
Q 19.53125 74.21875 31.78125 74.21875 
z
" id="DejaVuSans-48"/>
      </defs>
      <g transform="translate(79.457747 329.598437)scale(0.1 -0.1)">
       <use transform="translate(0 0.684375)" xlink:href="#DejaVuSans-49"/>
       <use transform="translate(63.623047 0.684375)" xlink:href="#DejaVuSans-48"/>
       <use transform="translate(128.203125 38.965625)scale(0.7)" xlink:href="#DejaVuSans-49"/>
      </g>
     </g>
    </g>
    <g id="xtick_2">
     <g id="line2d_2">
      <g>
       <use style="stroke:#000000;stroke-width:0.8;" x="165.093269" xlink:href="#m600af922f6" y="315"/>
      </g>
     </g>
     <g id="text_2">
      <!-- $\mathdefault{10^{2}}$ -->
      <defs>
       <path d="M 19.1875 8.296875 
L 53.609375 8.296875 
L 53.609375 0 
L 7.328125 0 
L 7.328125 8.296875 
Q 12.9375 14.109375 22.625 23.890625 
Q 32.328125 33.6875 34.8125 36.53125 
Q 39.546875 41.84375 41.421875 45.53125 
Q 43.3125 49.21875 43.3125 52.78125 
Q 43.3125 58.59375 39.234375 62.25 
Q 35.15625 65.921875 28.609375 65.921875 
Q 23.96875 65.921875 18.8125 64.3125 
Q 13.671875 62.703125 7.8125 59.421875 
L 7.8125 69.390625 
Q 13.765625 71.78125 18.9375 73 
Q 24.125 74.21875 28.421875 74.21875 
Q 39.75 74.21875 46.484375 68.546875 
Q 53.21875 62.890625 53.21875 53.421875 
Q 53.21875 48.921875 51.53125 44.890625 
Q 49.859375 40.875 45.40625 35.40625 
Q 44.1875 33.984375 37.640625 27.21875 
Q 31.109375 20.453125 19.1875 8.296875 
z
" id="DejaVuSans-50"/>
      </defs>
      <g transform="translate(156.293269 329.598437)scale(0.1 -0.1)">
       <use transform="translate(0 0.765625)" xlink:href="#DejaVuSans-49"/>
       <use transform="translate(63.623047 0.765625)" xlink:href="#DejaVuSans-48"/>
       <use transform="translate(128.203125 39.046875)scale(0.7)" xlink:href="#DejaVuSans-50"/>
      </g>
     </g>
    </g>
    <g id="xtick_3">
     <g id="line2d_3">
      <g>
       <use style="stroke:#000000;stroke-width:0.8;" x="241.928791" xlink:href="#m600af922f6" y="315"/>
      </g>
     </g>
     <g id="text_3">
      <!-- $\mathdefault{10^{3}}$ -->
      <defs>
       <path d="M 40.578125 39.3125 
Q 47.65625 37.796875 51.625 33 
Q 55.609375 28.21875 55.609375 21.1875 
Q 55.609375 10.40625 48.1875 4.484375 
Q 40.765625 -1.421875 27.09375 -1.421875 
Q 22.515625 -1.421875 17.65625 -0.515625 
Q 12.796875 0.390625 7.625 2.203125 
L 7.625 11.71875 
Q 11.71875 9.328125 16.59375 8.109375 
Q 21.484375 6.890625 26.8125 6.890625 
Q 36.078125 6.890625 40.9375 10.546875 
Q 45.796875 14.203125 45.796875 21.1875 
Q 45.796875 27.640625 41.28125 31.265625 
Q 36.765625 34.90625 28.71875 34.90625 
L 20.21875 34.90625 
L 20.21875 43.015625 
L 29.109375 43.015625 
Q 36.375 43.015625 40.234375 45.921875 
Q 44.09375 48.828125 44.09375 54.296875 
Q 44.09375 59.90625 40.109375 62.90625 
Q 36.140625 65.921875 28.71875 65.921875 
Q 24.65625 65.921875 20.015625 65.03125 
Q 15.375 64.15625 9.8125 62.3125 
L 9.8125 71.09375 
Q 15.4375 72.65625 20.34375 73.4375 
Q 25.25 74.21875 29.59375 74.21875 
Q 40.828125 74.21875 47.359375 69.109375 
Q 53.90625 64.015625 53.90625 55.328125 
Q 53.90625 49.265625 50.4375 45.09375 
Q 46.96875 40.921875 40.578125 39.3125 
z
" id="DejaVuSans-51"/>
      </defs>
      <g transform="translate(233.128791 329.598437)scale(0.1 -0.1)">
       <use transform="translate(0 0.765625)" xlink:href="#DejaVuSans-49"/>
       <use transform="translate(63.623047 0.765625)" xlink:href="#DejaVuSans-48"/>
       <use transform="translate(128.203125 39.046875)scale(0.7)" xlink:href="#DejaVuSans-51"/>
      </g>
     </g>
    </g>
    <g id="xtick_4">
     <g id="line2d_4">
      <g>
       <use style="stroke:#000000;stroke-width:0.8;" x="318.764313" xlink:href="#m600af922f6" y="315"/>
      </g>
     </g>
     <g id="text_4">
      <!-- $\mathdefault{10^{4}}$ -->
      <defs>
       <path d="M 37.796875 64.3125 
L 12.890625 25.390625 
L 37.796875 25.390625 
z
M 35.203125 72.90625 
L 47.609375 72.90625 
L 47.609375 25.390625 
L 58.015625 25.390625 
L 58.015625 17.1875 
L 47.609375 17.1875 
L 47.609375 0 
L 37.796875 0 
L 37.796875 17.1875 
L 4.890625 17.1875 
L 4.890625 26.703125 
z
" id="DejaVuSans-52"/>
      </defs>
      <g transform="translate(309.964313 329.598437)scale(0.1 -0.1)">
       <use transform="translate(0 0.684375)" xlink:href="#DejaVuSans-49"/>
       <use transform="translate(63.623047 0.684375)" xlink:href="#DejaVuSans-48"/>
       <use transform="translate(128.203125 38.965625)scale(0.7)" xlink:href="#DejaVuSans-52"/>
      </g>
     </g>
    </g>
    <g id="xtick_5">
     <g id="line2d_5">
      <defs>
       <path d="M 0 0 
L 0 2 
" id="m259410c10d" style="stroke:#000000;stroke-width:0.6;"/>
      </defs>
      <g>
       <use style="stroke:#000000;stroke-width:0.6;" x="48.082085" xlink:href="#m259410c10d" y="315"/>
      </g>
     </g>
    </g>
    <g id="xtick_6">
     <g id="line2d_6">
      <g>
       <use style="stroke:#000000;stroke-width:0.6;" x="57.681818" xlink:href="#m259410c10d" y="315"/>
      </g>
     </g>
    </g>
    <g id="xtick_7">
     <g id="line2d_7">
      <g>
       <use style="stroke:#000000;stroke-width:0.6;" x="65.12795" xlink:href="#m259410c10d" y="315"/>
      </g>
     </g>
    </g>
    <g id="xtick_8">
     <g id="line2d_8">
      <g>
       <use style="stroke:#000000;stroke-width:0.6;" x="71.211882" xlink:href="#m259410c10d" y="315"/>
      </g>
     </g>
    </g>
    <g id="xtick_9">
     <g id="line2d_9">
      <g>
       <use style="stroke:#000000;stroke-width:0.6;" x="76.355774" xlink:href="#m259410c10d" y="315"/>
      </g>
     </g>
    </g>
    <g id="xtick_10">
     <g id="line2d_10">
      <g>
       <use style="stroke:#000000;stroke-width:0.6;" x="80.811615" xlink:href="#m259410c10d" y="315"/>
      </g>
     </g>
    </g>
    <g id="xtick_11">
     <g id="line2d_11">
      <g>
       <use style="stroke:#000000;stroke-width:0.6;" x="84.741946" xlink:href="#m259410c10d" y="315"/>
      </g>
     </g>
    </g>
    <g id="xtick_12">
     <g id="line2d_12">
      <g>
       <use style="stroke:#000000;stroke-width:0.6;" x="111.387543" xlink:href="#m259410c10d" y="315"/>
      </g>
     </g>
    </g>
    <g id="xtick_13">
     <g id="line2d_13">
      <g>
       <use style="stroke:#000000;stroke-width:0.6;" x="124.917607" xlink:href="#m259410c10d" y="315"/>
      </g>
     </g>
    </g>
    <g id="xtick_14">
     <g id="line2d_14">
      <g>
       <use style="stroke:#000000;stroke-width:0.6;" x="134.51734" xlink:href="#m259410c10d" y="315"/>
      </g>
     </g>
    </g>
    <g id="xtick_15">
     <g id="line2d_15">
      <g>
       <use style="stroke:#000000;stroke-width:0.6;" x="141.963472" xlink:href="#m259410c10d" y="315"/>
      </g>
     </g>
    </g>
    <g id="xtick_16">
     <g id="line2d_16">
      <g>
       <use style="stroke:#000000;stroke-width:0.6;" x="148.047404" xlink:href="#m259410c10d" y="315"/>
      </g>
     </g>
    </g>
    <g id="xtick_17">
     <g id="line2d_17">
      <g>
       <use style="stroke:#000000;stroke-width:0.6;" x="153.191296" xlink:href="#m259410c10d" y="315"/>
      </g>
     </g>
    </g>
    <g id="xtick_18">
     <g id="line2d_18">
      <g>
       <use style="stroke:#000000;stroke-width:0.6;" x="157.647137" xlink:href="#m259410c10d" y="315"/>
      </g>
     </g>
    </g>
    <g id="xtick_19">
     <g id="line2d_19">
      <g>
       <use style="stroke:#000000;stroke-width:0.6;" x="161.577468" xlink:href="#m259410c10d" y="315"/>
      </g>
     </g>
    </g>
    <g id="xtick_20">
     <g id="line2d_20">
      <g>
       <use style="stroke:#000000;stroke-width:0.6;" x="188.223066" xlink:href="#m259410c10d" y="315"/>
      </g>
     </g>
    </g>
    <g id="xtick_21">
     <g id="line2d_21">
      <g>
       <use style="stroke:#000000;stroke-width:0.6;" x="201.75313" xlink:href="#m259410c10d" y="315"/>
      </g>
     </g>
    </g>
    <g id="xtick_22">
     <g id="line2d_22">
      <g>
       <use style="stroke:#000000;stroke-width:0.6;" x="211.352863" xlink:href="#m259410c10d" y="315"/>
      </g>
     </g>
    </g>
    <g id="xtick_23">
     <g id="line2d_23">
      <g>
       <use style="stroke:#000000;stroke-width:0.6;" x="218.798994" xlink:href="#m259410c10d" y="315"/>
      </g>
     </g>
    </g>
    <g id="xtick_24">
     <g id="line2d_24">
      <g>
       <use style="stroke:#000000;stroke-width:0.6;" x="224.882927" xlink:href="#m259410c10d" y="315"/>
      </g>
     </g>
    </g>
    <g id="xtick_25">
     <g id="line2d_25">
      <g>
       <use style="stroke:#000000;stroke-width:0.6;" x="230.026818" xlink:href="#m259410c10d" y="315"/>
      </g>
     </g>
    </g>
    <g id="xtick_26">
     <g id="line2d_26">
      <g>
       <use style="stroke:#000000;stroke-width:0.6;" x="234.48266" xlink:href="#m259410c10d" y="315"/>
      </g>
     </g>
    </g>
    <g id="xtick_27">
     <g id="line2d_27">
      <g>
       <use style="stroke:#000000;stroke-width:0.6;" x="238.41299" xlink:href="#m259410c10d" y="315"/>
      </g>
     </g>
    </g>
    <g id="xtick_28">
     <g id="line2d_28">
      <g>
       <use style="stroke:#000000;stroke-width:0.6;" x="265.058588" xlink:href="#m259410c10d" y="315"/>
      </g>
     </g>
    </g>
    <g id="xtick_29">
     <g id="line2d_29">
      <g>
       <use style="stroke:#000000;stroke-width:0.6;" x="278.588652" xlink:href="#m259410c10d" y="315"/>
      </g>
     </g>
    </g>
    <g id="xtick_30">
     <g id="line2d_30">
      <g>
       <use style="stroke:#000000;stroke-width:0.6;" x="288.188385" xlink:href="#m259410c10d" y="315"/>
      </g>
     </g>
    </g>
    <g id="xtick_31">
     <g id="line2d_31">
      <g>
       <use style="stroke:#000000;stroke-width:0.6;" x="295.634516" xlink:href="#m259410c10d" y="315"/>
      </g>
     </g>
    </g>
    <g id="xtick_32">
     <g id="line2d_32">
      <g>
       <use style="stroke:#000000;stroke-width:0.6;" x="301.718449" xlink:href="#m259410c10d" y="315"/>
      </g>
     </g>
    </g>
    <g id="xtick_33">
     <g id="line2d_33">
      <g>
       <use style="stroke:#000000;stroke-width:0.6;" x="306.86234" xlink:href="#m259410c10d" y="315"/>
      </g>
     </g>
    </g>
    <g id="xtick_34">
     <g id="line2d_34">
      <g>
       <use style="stroke:#000000;stroke-width:0.6;" x="311.318182" xlink:href="#m259410c10d" y="315"/>
      </g>
     </g>
    </g>
    <g id="xtick_35">
     <g id="line2d_35">
      <g>
       <use style="stroke:#000000;stroke-width:0.6;" x="315.248513" xlink:href="#m259410c10d" y="315"/>
      </g>
     </g>
    </g>
    <g id="text_5">
     <!-- Number of points -->
     <defs>
      <path d="M 9.8125 72.90625 
L 23.09375 72.90625 
L 55.421875 11.921875 
L 55.421875 72.90625 
L 64.984375 72.90625 
L 64.984375 0 
L 51.703125 0 
L 19.390625 60.984375 
L 19.390625 0 
L 9.8125 0 
z
" id="DejaVuSans-78"/>
      <path d="M 8.5 21.578125 
L 8.5 54.6875 
L 17.484375 54.6875 
L 17.484375 21.921875 
Q 17.484375 14.15625 20.5 10.265625 
Q 23.53125 6.390625 29.59375 6.390625 
Q 36.859375 6.390625 41.078125 11.03125 
Q 45.3125 15.671875 45.3125 23.6875 
L 45.3125 54.6875 
L 54.296875 54.6875 
L 54.296875 0 
L 45.3125 0 
L 45.3125 8.40625 
Q 42.046875 3.421875 37.71875 1 
Q 33.40625 -1.421875 27.6875 -1.421875 
Q 18.265625 -1.421875 13.375 4.4375 
Q 8.5 10.296875 8.5 21.578125 
z
M 31.109375 56 
z
" id="DejaVuSans-117"/>
      <path d="M 52 44.1875 
Q 55.375 50.25 60.0625 53.125 
Q 64.75 56 71.09375 56 
Q 79.640625 56 84.28125 50.015625 
Q 88.921875 44.046875 88.921875 33.015625 
L 88.921875 0 
L 79.890625 0 
L 79.890625 32.71875 
Q 79.890625 40.578125 77.09375 44.375 
Q 74.3125 48.1875 68.609375 48.1875 
Q 61.625 48.1875 57.5625 43.546875 
Q 53.515625 38.921875 53.515625 30.90625 
L 53.515625 0 
L 44.484375 0 
L 44.484375 32.71875 
Q 44.484375 40.625 41.703125 44.40625 
Q 38.921875 48.1875 33.109375 48.1875 
Q 26.21875 48.1875 22.15625 43.53125 
Q 18.109375 38.875 18.109375 30.90625 
L 18.109375 0 
L 9.078125 0 
L 9.078125 54.6875 
L 18.109375 54.6875 
L 18.109375 46.1875 
Q 21.1875 51.21875 25.484375 53.609375 
Q 29.78125 56 35.6875 56 
Q 41.65625 56 45.828125 52.96875 
Q 50 49.953125 52 44.1875 
z
" id="DejaVuSans-109"/>
      <path d="M 48.6875 27.296875 
Q 48.6875 37.203125 44.609375 42.84375 
Q 40.53125 48.484375 33.40625 48.484375 
Q 26.265625 48.484375 22.1875 42.84375 
Q 18.109375 37.203125 18.109375 27.296875 
Q 18.109375 17.390625 22.1875 11.75 
Q 26.265625 6.109375 33.40625 6.109375 
Q 40.53125 6.109375 44.609375 11.75 
Q 48.6875 17.390625 48.6875 27.296875 
z
M 18.109375 46.390625 
Q 20.953125 51.265625 25.265625 53.625 
Q 29.59375 56 35.59375 56 
Q 45.5625 56 51.78125 48.09375 
Q 58.015625 40.1875 58.015625 27.296875 
Q 58.015625 14.40625 51.78125 6.484375 
Q 45.5625 -1.421875 35.59375 -1.421875 
Q 29.59375 -1.421875 25.265625 0.953125 
Q 20.953125 3.328125 18.109375 8.203125 
L 18.109375 0 
L 9.078125 0 
L 9.078125 75.984375 
L 18.109375 75.984375 
z
" id="DejaVuSans-98"/>
      <path d="M 56.203125 29.59375 
L 56.203125 25.203125 
L 14.890625 25.203125 
Q 15.484375 15.921875 20.484375 11.0625 
Q 25.484375 6.203125 34.421875 6.203125 
Q 39.59375 6.203125 44.453125 7.46875 
Q 49.3125 8.734375 54.109375 11.28125 
L 54.109375 2.78125 
Q 49.265625 0.734375 44.1875 -0.34375 
Q 39.109375 -1.421875 33.890625 -1.421875 
Q 20.796875 -1.421875 13.15625 6.1875 
Q 5.515625 13.8125 5.515625 26.8125 
Q 5.515625 40.234375 12.765625 48.109375 
Q 20.015625 56 32.328125 56 
Q 43.359375 56 49.78125 48.890625 
Q 56.203125 41.796875 56.203125 29.59375 
z
M 47.21875 32.234375 
Q 47.125 39.59375 43.09375 43.984375 
Q 39.0625 48.390625 32.421875 48.390625 
Q 24.90625 48.390625 20.390625 44.140625 
Q 15.875 39.890625 15.1875 32.171875 
z
" id="DejaVuSans-101"/>
      <path d="M 41.109375 46.296875 
Q 39.59375 47.171875 37.8125 47.578125 
Q 36.03125 48 33.890625 48 
Q 26.265625 48 22.1875 43.046875 
Q 18.109375 38.09375 18.109375 28.8125 
L 18.109375 0 
L 9.078125 0 
L 9.078125 54.6875 
L 18.109375 54.6875 
L 18.109375 46.1875 
Q 20.953125 51.171875 25.484375 53.578125 
Q 30.03125 56 36.53125 56 
Q 37.453125 56 38.578125 55.875 
Q 39.703125 55.765625 41.0625 55.515625 
z
" id="DejaVuSans-114"/>
      <path id="DejaVuSans-32"/>
      <path d="M 30.609375 48.390625 
Q 23.390625 48.390625 19.1875 42.75 
Q 14.984375 37.109375 14.984375 27.296875 
Q 14.984375 17.484375 19.15625 11.84375 
Q 23.34375 6.203125 30.609375 6.203125 
Q 37.796875 6.203125 41.984375 11.859375 
Q 46.1875 17.53125 46.1875 27.296875 
Q 46.1875 37.015625 41.984375 42.703125 
Q 37.796875 48.390625 30.609375 48.390625 
z
M 30.609375 56 
Q 42.328125 56 49.015625 48.375 
Q 55.71875 40.765625 55.71875 27.296875 
Q 55.71875 13.875 49.015625 6.21875 
Q 42.328125 -1.421875 30.609375 -1.421875 
Q 18.84375 -1.421875 12.171875 6.21875 
Q 5.515625 13.875 5.515625 27.296875 
Q 5.515625 40.765625 12.171875 48.375 
Q 18.84375 56 30.609375 56 
z
" id="DejaVuSans-111"/>
      <path d="M 37.109375 75.984375 
L 37.109375 68.5 
L 28.515625 68.5 
Q 23.6875 68.5 21.796875 66.546875 
Q 19.921875 64.59375 19.921875 59.515625 
L 19.921875 54.6875 
L 34.71875 54.6875 
L 34.71875 47.703125 
L 19.921875 47.703125 
L 19.921875 0 
L 10.890625 0 
L 10.890625 47.703125 
L 2.296875 47.703125 
L 2.296875 54.6875 
L 10.890625 54.6875 
L 10.890625 58.5 
Q 10.890625 67.625 15.140625 71.796875 
Q 19.390625 75.984375 28.609375 75.984375 
z
" id="DejaVuSans-102"/>
      <path d="M 18.109375 8.203125 
L 18.109375 -20.796875 
L 9.078125 -20.796875 
L 9.078125 54.6875 
L 18.109375 54.6875 
L 18.109375 46.390625 
Q 20.953125 51.265625 25.265625 53.625 
Q 29.59375 56 35.59375 56 
Q 45.5625 56 51.78125 48.09375 
Q 58.015625 40.1875 58.015625 27.296875 
Q 58.015625 14.40625 51.78125 6.484375 
Q 45.5625 -1.421875 35.59375 -1.421875 
Q 29.59375 -1.421875 25.265625 0.953125 
Q 20.953125 3.328125 18.109375 8.203125 
z
M 48.6875 27.296875 
Q 48.6875 37.203125 44.609375 42.84375 
Q 40.53125 48.484375 33.40625 48.484375 
Q 26.265625 48.484375 22.1875 42.84375 
Q 18.109375 37.203125 18.109375 27.296875 
Q 18.109375 17.390625 22.1875 11.75 
Q 26.265625 6.109375 33.40625 6.109375 
Q 40.53125 6.109375 44.609375 11.75 
Q 48.6875 17.390625 48.6875 27.296875 
z
" id="DejaVuSans-112"/>
      <path d="M 9.421875 54.6875 
L 18.40625 54.6875 
L 18.40625 0 
L 9.421875 0 
z
M 9.421875 75.984375 
L 18.40625 75.984375 
L 18.40625 64.59375 
L 9.421875 64.59375 
z
" id="DejaVuSans-105"/>
      <path d="M 54.890625 33.015625 
L 54.890625 0 
L 45.90625 0 
L 45.90625 32.71875 
Q 45.90625 40.484375 42.875 44.328125 
Q 39.84375 48.1875 33.796875 48.1875 
Q 26.515625 48.1875 22.3125 43.546875 
Q 18.109375 38.921875 18.109375 30.90625 
L 18.109375 0 
L 9.078125 0 
L 9.078125 54.6875 
L 18.109375 54.6875 
L 18.109375 46.1875 
Q 21.34375 51.125 25.703125 53.5625 
Q 30.078125 56 35.796875 56 
Q 45.21875 56 50.046875 50.171875 
Q 54.890625 44.34375 54.890625 33.015625 
z
" id="DejaVuSans-110"/>
      <path d="M 18.3125 70.21875 
L 18.3125 54.6875 
L 36.8125 54.6875 
L 36.8125 47.703125 
L 18.3125 47.703125 
L 18.3125 18.015625 
Q 18.3125 11.328125 20.140625 9.421875 
Q 21.96875 7.515625 27.59375 7.515625 
L 36.8125 7.515625 
L 36.8125 0 
L 27.59375 0 
Q 17.1875 0 13.234375 3.875 
Q 9.28125 7.765625 9.28125 18.015625 
L 9.28125 47.703125 
L 2.6875 47.703125 
L 2.6875 54.6875 
L 9.28125 54.6875 
L 9.28125 70.21875 
z
" id="DejaVuSans-116"/>
      <path d="M 44.28125 53.078125 
L 44.28125 44.578125 
Q 40.484375 46.53125 36.375 47.5 
Q 32.28125 48.484375 27.875 48.484375 
Q 21.1875 48.484375 17.84375 46.4375 
Q 14.5 44.390625 14.5 40.28125 
Q 14.5 37.15625 16.890625 35.375 
Q 19.28125 33.59375 26.515625 31.984375 
L 29.59375 31.296875 
Q 39.15625 29.25 43.1875 25.515625 
Q 47.21875 21.78125 47.21875 15.09375 
Q 47.21875 7.46875 41.1875 3.015625 
Q 35.15625 -1.421875 24.609375 -1.421875 
Q 20.21875 -1.421875 15.453125 -0.5625 
Q 10.6875 0.296875 5.421875 2 
L 5.421875 11.28125 
Q 10.40625 8.6875 15.234375 7.390625 
Q 20.0625 6.109375 24.8125 6.109375 
Q 31.15625 6.109375 34.5625 8.28125 
Q 37.984375 10.453125 37.984375 14.40625 
Q 37.984375 18.0625 35.515625 20.015625 
Q 33.0625 21.96875 24.703125 23.78125 
L 21.578125 24.515625 
Q 13.234375 26.265625 9.515625 29.90625 
Q 5.8125 33.546875 5.8125 39.890625 
Q 5.8125 47.609375 11.28125 51.796875 
Q 16.75 56 26.8125 56 
Q 31.78125 56 36.171875 55.265625 
Q 40.578125 54.546875 44.28125 53.078125 
z
" id="DejaVuSans-115"/>
     </defs>
     <g transform="translate(141.060156 343.276563)scale(0.1 -0.1)">
      <use xlink:href="#DejaVuSans-78"/>
      <use x="74.804688" xlink:href="#DejaVuSans-117"/>
      <use x="138.183594" xlink:href="#DejaVuSans-109"/>
      <use x="235.595703" xlink:href="#DejaVuSans-98"/>
      <use x="299.072266" xlink:href="#DejaVuSans-101"/>
      <use x="360.595703" xlink:href="#DejaVuSans-114"/>
      <use x="401.708984" xlink:href="#DejaVuSans-32"/>
      <use x="433.496094" xlink:href="#DejaVuSans-111"/>
      <use x="494.677734" xlink:href="#DejaVuSans-102"/>
      <use x="529.882812" xlink:href="#DejaVuSans-32"/>
      <use x="561.669922" xlink:href="#DejaVuSans-112"/>
      <use x="625.146484" xlink:href="#DejaVuSans-111"/>
      <use x="686.328125" xlink:href="#DejaVuSans-105"/>
      <use x="714.111328" xlink:href="#DejaVuSans-110"/>
      <use x="777.490234" xlink:href="#DejaVuSans-116"/>
      <use x="816.699219" xlink:href="#DejaVuSans-115"/>
     </g>
    </g>
   </g>
   <g id="matplotlib.axis_2">
    <g id="ytick_1">
     <g id="line2d_36">
      <defs>
       <path d="M 0 0 
L -3.5 0 
" id="m612c1c0889" style="stroke:#000000;stroke-width:0.8;"/>
      </defs>
      <g>
       <use style="stroke:#000000;stroke-width:0.8;" x="45" xlink:href="#m612c1c0889" y="300.362142"/>
      </g>
     </g>
     <g id="text_6">
      <!-- $\mathdefault{10^{-3}}$ -->
      <defs>
       <path d="M 10.59375 35.5 
L 73.1875 35.5 
L 73.1875 27.203125 
L 10.59375 27.203125 
z
" id="DejaVuSans-8722"/>
      </defs>
      <g transform="translate(14.5 304.161361)scale(0.1 -0.1)">
       <use transform="translate(0 0.765625)" xlink:href="#DejaVuSans-49"/>
       <use transform="translate(63.623047 0.765625)" xlink:href="#DejaVuSans-48"/>
       <use transform="translate(128.203125 39.046875)scale(0.7)" xlink:href="#DejaVuSans-8722"/>
       <use transform="translate(186.855469 39.046875)scale(0.7)" xlink:href="#DejaVuSans-51"/>
      </g>
     </g>
    </g>
    <g id="ytick_2">
     <g id="line2d_37">
      <g>
       <use style="stroke:#000000;stroke-width:0.8;" x="45" xlink:href="#m612c1c0889" y="193.339285"/>
      </g>
     </g>
     <g id="text_7">
      <!-- $\mathdefault{10^{-2}}$ -->
      <g transform="translate(14.5 197.138504)scale(0.1 -0.1)">
       <use transform="translate(0 0.765625)" xlink:href="#DejaVuSans-49"/>
       <use transform="translate(63.623047 0.765625)" xlink:href="#DejaVuSans-48"/>
       <use transform="translate(128.203125 39.046875)scale(0.7)" xlink:href="#DejaVuSans-8722"/>
       <use transform="translate(186.855469 39.046875)scale(0.7)" xlink:href="#DejaVuSans-50"/>
      </g>
     </g>
    </g>
    <g id="ytick_3">
     <g id="line2d_38">
      <g>
       <use style="stroke:#000000;stroke-width:0.8;" x="45" xlink:href="#m612c1c0889" y="86.316428"/>
      </g>
     </g>
     <g id="text_8">
      <!-- $\mathdefault{10^{-1}}$ -->
      <g transform="translate(14.5 90.115647)scale(0.1 -0.1)">
       <use transform="translate(0 0.684375)" xlink:href="#DejaVuSans-49"/>
       <use transform="translate(63.623047 0.684375)" xlink:href="#DejaVuSans-48"/>
       <use transform="translate(128.203125 38.965625)scale(0.7)" xlink:href="#DejaVuSans-8722"/>
       <use transform="translate(186.855469 38.965625)scale(0.7)" xlink:href="#DejaVuSans-49"/>
      </g>
     </g>
    </g>
    <g id="ytick_4">
     <g id="line2d_39">
      <defs>
       <path d="M 0 0 
L -2 0 
" id="md3f704fb59" style="stroke:#000000;stroke-width:0.6;"/>
      </defs>
      <g>
       <use style="stroke:#000000;stroke-width:0.6;" x="45" xlink:href="#md3f704fb59" y="310.733729"/>
      </g>
     </g>
    </g>
    <g id="ytick_5">
     <g id="line2d_40">
      <g>
       <use style="stroke:#000000;stroke-width:0.6;" x="45" xlink:href="#md3f704fb59" y="305.25924"/>
      </g>
     </g>
    </g>
    <g id="ytick_6">
     <g id="line2d_41">
      <g>
       <use style="stroke:#000000;stroke-width:0.6;" x="45" xlink:href="#md3f704fb59" y="268.145052"/>
      </g>
     </g>
    </g>
    <g id="ytick_7">
     <g id="line2d_42">
      <g>
       <use style="stroke:#000000;stroke-width:0.6;" x="45" xlink:href="#md3f704fb59" y="249.299263"/>
      </g>
     </g>
    </g>
    <g id="ytick_8">
     <g id="line2d_43">
      <g>
       <use style="stroke:#000000;stroke-width:0.6;" x="45" xlink:href="#md3f704fb59" y="235.927962"/>
      </g>
     </g>
    </g>
    <g id="ytick_9">
     <g id="line2d_44">
      <g>
       <use style="stroke:#000000;stroke-width:0.6;" x="45" xlink:href="#md3f704fb59" y="225.556376"/>
      </g>
     </g>
    </g>
    <g id="ytick_10">
     <g id="line2d_45">
      <g>
       <use style="stroke:#000000;stroke-width:0.6;" x="45" xlink:href="#md3f704fb59" y="217.082172"/>
      </g>
     </g>
    </g>
    <g id="ytick_11">
     <g id="line2d_46">
      <g>
       <use style="stroke:#000000;stroke-width:0.6;" x="45" xlink:href="#md3f704fb59" y="209.917336"/>
      </g>
     </g>
    </g>
    <g id="ytick_12">
     <g id="line2d_47">
      <g>
       <use style="stroke:#000000;stroke-width:0.6;" x="45" xlink:href="#md3f704fb59" y="203.710872"/>
      </g>
     </g>
    </g>
    <g id="ytick_13">
     <g id="line2d_48">
      <g>
       <use style="stroke:#000000;stroke-width:0.6;" x="45" xlink:href="#md3f704fb59" y="198.236383"/>
      </g>
     </g>
    </g>
    <g id="ytick_14">
     <g id="line2d_49">
      <g>
       <use style="stroke:#000000;stroke-width:0.6;" x="45" xlink:href="#md3f704fb59" y="161.122195"/>
      </g>
     </g>
    </g>
    <g id="ytick_15">
     <g id="line2d_50">
      <g>
       <use style="stroke:#000000;stroke-width:0.6;" x="45" xlink:href="#md3f704fb59" y="142.276406"/>
      </g>
     </g>
    </g>
    <g id="ytick_16">
     <g id="line2d_51">
      <g>
       <use style="stroke:#000000;stroke-width:0.6;" x="45" xlink:href="#md3f704fb59" y="128.905105"/>
      </g>
     </g>
    </g>
    <g id="ytick_17">
     <g id="line2d_52">
      <g>
       <use style="stroke:#000000;stroke-width:0.6;" x="45" xlink:href="#md3f704fb59" y="118.533519"/>
      </g>
     </g>
    </g>
    <g id="ytick_18">
     <g id="line2d_53">
      <g>
       <use style="stroke:#000000;stroke-width:0.6;" x="45" xlink:href="#md3f704fb59" y="110.059315"/>
      </g>
     </g>
    </g>
    <g id="ytick_19">
     <g id="line2d_54">
      <g>
       <use style="stroke:#000000;stroke-width:0.6;" x="45" xlink:href="#md3f704fb59" y="102.894479"/>
      </g>
     </g>
    </g>
    <g id="ytick_20">
     <g id="line2d_55">
      <g>
       <use style="stroke:#000000;stroke-width:0.6;" x="45" xlink:href="#md3f704fb59" y="96.688015"/>
      </g>
     </g>
    </g>
    <g id="ytick_21">
     <g id="line2d_56">
      <g>
       <use style="stroke:#000000;stroke-width:0.6;" x="45" xlink:href="#md3f704fb59" y="91.213526"/>
      </g>
     </g>
    </g>
    <g id="ytick_22">
     <g id="line2d_57">
      <g>
       <use style="stroke:#000000;stroke-width:0.6;" x="45" xlink:href="#md3f704fb59" y="54.099338"/>
      </g>
     </g>
    </g>
    <g id="text_9">
     <!-- Error -->
     <defs>
      <path d="M 9.8125 72.90625 
L 55.90625 72.90625 
L 55.90625 64.59375 
L 19.671875 64.59375 
L 19.671875 43.015625 
L 54.390625 43.015625 
L 54.390625 34.71875 
L 19.671875 34.71875 
L 19.671875 8.296875 
L 56.78125 8.296875 
L 56.78125 0 
L 9.8125 0 
z
" id="DejaVuSans-69"/>
     </defs>
     <g transform="translate(8.420312 191.482812)rotate(-90)scale(0.1 -0.1)">
      <use xlink:href="#DejaVuSans-69"/>
      <use x="63.183594" xlink:href="#DejaVuSans-114"/>
      <use x="104.28125" xlink:href="#DejaVuSans-114"/>
      <use x="145.363281" xlink:href="#DejaVuSans-111"/>
      <use x="206.544922" xlink:href="#DejaVuSans-114"/>
     </g>
    </g>
   </g>
   <g id="line2d_58">
    <path clip-path="url(#p487a80a2f7)" d="M 57.681818 113.786919 
L 65.12795 113.300883 
L 76.355774 113.735357 
L 80.811615 113.386099 
L 84.741946 113.33332 
L 91.438175 113.487445 
L 97.012644 113.429205 
L 101.78781 113.331412 
L 107.871743 113.568611 
L 113.015634 113.29889 
L 118.833675 113.684711 
L 123.786338 113.413853 
L 129.094207 112.443353 
L 134.51734 112.925997 
L 139.898736 102.338308 
L 145.745164 109.727798 
L 151.227833 111.28431 
L 156.371724 112.91095 
L 161.577468 114.919926 
L 167.037658 116.72973 
L 172.5394 117.357354 
L 177.721406 119.875754 
L 183.19022 122.267927 
L 188.555101 125.246871 
L 193.887254 126.572612 
L 199.211683 131.662587 
L 204.526611 137.13908 
L 209.903651 142.895104 
L 215.208957 152.117061 
L 220.553964 159.88057 
L 225.923233 169.386144 
L 231.243784 178.271373 
L 236.584081 187.079653 
L 241.928791 196.69812 
L 247.281776 204.251262 
L 252.603853 212.736174 
L 257.944492 220.527044 
L 263.276644 229.099644 
L 268.616074 237.837438 
L 273.954365 247.849077 
L 279.293042 255.976435 
L 284.635487 263.360571 
L 289.967091 271.107212 
L 295.305885 278.593444 
L 300.644663 286.974964 
L 305.978367 295.237278 
L 311.318182 302.645455 
" style="fill:none;"/>
    <defs>
     <path d="M 0 1.5 
C 0.397805 1.5 0.77937 1.341951 1.06066 1.06066 
C 1.341951 0.77937 1.5 0.397805 1.5 0 
C 1.5 -0.397805 1.341951 -0.77937 1.06066 -1.06066 
C 0.77937 -1.341951 0.397805 -1.5 0 -1.5 
C -0.397805 -1.5 -0.77937 -1.341951 -1.06066 -1.06066 
C -1.341951 -0.77937 -1.5 -0.397805 -1.5 0 
C -1.5 0.397805 -1.341951 0.77937 -1.06066 1.06066 
C -0.77937 1.341951 -0.397805 1.5 0 1.5 
z
" id="m7b46781273" style="stroke:#1f77b4;"/>
    </defs>
    <g clip-path="url(#p487a80a2f7)">
     <use style="fill:#1f77b4;stroke:#1f77b4;" x="57.681818" xlink:href="#m7b46781273" y="113.786919"/>
     <use style="fill:#1f77b4;stroke:#1f77b4;" x="65.12795" xlink:href="#m7b46781273" y="113.300883"/>
     <use style="fill:#1f77b4;stroke:#1f77b4;" x="76.355774" xlink:href="#m7b46781273" y="113.735357"/>
     <use style="fill:#1f77b4;stroke:#1f77b4;" x="80.811615" xlink:href="#m7b46781273" y="113.386099"/>
     <use style="fill:#1f77b4;stroke:#1f77b4;" x="84.741946" xlink:href="#m7b46781273" y="113.33332"/>
     <use style="fill:#1f77b4;stroke:#1f77b4;" x="91.438175" xlink:href="#m7b46781273" y="113.487445"/>
     <use style="fill:#1f77b4;stroke:#1f77b4;" x="97.012644" xlink:href="#m7b46781273" y="113.429205"/>
     <use style="fill:#1f77b4;stroke:#1f77b4;" x="101.78781" xlink:href="#m7b46781273" y="113.331412"/>
     <use style="fill:#1f77b4;stroke:#1f77b4;" x="107.871743" xlink:href="#m7b46781273" y="113.568611"/>
     <use style="fill:#1f77b4;stroke:#1f77b4;" x="113.015634" xlink:href="#m7b46781273" y="113.29889"/>
     <use style="fill:#1f77b4;stroke:#1f77b4;" x="118.833675" xlink:href="#m7b46781273" y="113.684711"/>
     <use style="fill:#1f77b4;stroke:#1f77b4;" x="123.786338" xlink:href="#m7b46781273" y="113.413853"/>
     <use style="fill:#1f77b4;stroke:#1f77b4;" x="129.094207" xlink:href="#m7b46781273" y="112.443353"/>
     <use style="fill:#1f77b4;stroke:#1f77b4;" x="134.51734" xlink:href="#m7b46781273" y="112.925997"/>
     <use style="fill:#1f77b4;stroke:#1f77b4;" x="139.898736" xlink:href="#m7b46781273" y="102.338308"/>
     <use style="fill:#1f77b4;stroke:#1f77b4;" x="145.745164" xlink:href="#m7b46781273" y="109.727798"/>
     <use style="fill:#1f77b4;stroke:#1f77b4;" x="151.227833" xlink:href="#m7b46781273" y="111.28431"/>
     <use style="fill:#1f77b4;stroke:#1f77b4;" x="156.371724" xlink:href="#m7b46781273" y="112.91095"/>
     <use style="fill:#1f77b4;stroke:#1f77b4;" x="161.577468" xlink:href="#m7b46781273" y="114.919926"/>
     <use style="fill:#1f77b4;stroke:#1f77b4;" x="167.037658" xlink:href="#m7b46781273" y="116.72973"/>
     <use style="fill:#1f77b4;stroke:#1f77b4;" x="172.5394" xlink:href="#m7b46781273" y="117.357354"/>
     <use style="fill:#1f77b4;stroke:#1f77b4;" x="177.721406" xlink:href="#m7b46781273" y="119.875754"/>
     <use style="fill:#1f77b4;stroke:#1f77b4;" x="183.19022" xlink:href="#m7b46781273" y="122.267927"/>
     <use style="fill:#1f77b4;stroke:#1f77b4;" x="188.555101" xlink:href="#m7b46781273" y="125.246871"/>
     <use style="fill:#1f77b4;stroke:#1f77b4;" x="193.887254" xlink:href="#m7b46781273" y="126.572612"/>
     <use style="fill:#1f77b4;stroke:#1f77b4;" x="199.211683" xlink:href="#m7b46781273" y="131.662587"/>
     <use style="fill:#1f77b4;stroke:#1f77b4;" x="204.526611" xlink:href="#m7b46781273" y="137.13908"/>
     <use style="fill:#1f77b4;stroke:#1f77b4;" x="209.903651" xlink:href="#m7b46781273" y="142.895104"/>
     <use style="fill:#1f77b4;stroke:#1f77b4;" x="215.208957" xlink:href="#m7b46781273" y="152.117061"/>
     <use style="fill:#1f77b4;stroke:#1f77b4;" x="220.553964" xlink:href="#m7b46781273" y="159.88057"/>
     <use style="fill:#1f77b4;stroke:#1f77b4;" x="225.923233" xlink:href="#m7b46781273" y="169.386144"/>
     <use style="fill:#1f77b4;stroke:#1f77b4;" x="231.243784" xlink:href="#m7b46781273" y="178.271373"/>
     <use style="fill:#1f77b4;stroke:#1f77b4;" x="236.584081" xlink:href="#m7b46781273" y="187.079653"/>
     <use style="fill:#1f77b4;stroke:#1f77b4;" x="241.928791" xlink:href="#m7b46781273" y="196.69812"/>
     <use style="fill:#1f77b4;stroke:#1f77b4;" x="247.281776" xlink:href="#m7b46781273" y="204.251262"/>
     <use style="fill:#1f77b4;stroke:#1f77b4;" x="252.603853" xlink:href="#m7b46781273" y="212.736174"/>
     <use style="fill:#1f77b4;stroke:#1f77b4;" x="257.944492" xlink:href="#m7b46781273" y="220.527044"/>
     <use style="fill:#1f77b4;stroke:#1f77b4;" x="263.276644" xlink:href="#m7b46781273" y="229.099644"/>
     <use style="fill:#1f77b4;stroke:#1f77b4;" x="268.616074" xlink:href="#m7b46781273" y="237.837438"/>
     <use style="fill:#1f77b4;stroke:#1f77b4;" x="273.954365" xlink:href="#m7b46781273" y="247.849077"/>
     <use style="fill:#1f77b4;stroke:#1f77b4;" x="279.293042" xlink:href="#m7b46781273" y="255.976435"/>
     <use style="fill:#1f77b4;stroke:#1f77b4;" x="284.635487" xlink:href="#m7b46781273" y="263.360571"/>
     <use style="fill:#1f77b4;stroke:#1f77b4;" x="289.967091" xlink:href="#m7b46781273" y="271.107212"/>
     <use style="fill:#1f77b4;stroke:#1f77b4;" x="295.305885" xlink:href="#m7b46781273" y="278.593444"/>
     <use style="fill:#1f77b4;stroke:#1f77b4;" x="300.644663" xlink:href="#m7b46781273" y="286.974964"/>
     <use style="fill:#1f77b4;stroke:#1f77b4;" x="305.978367" xlink:href="#m7b46781273" y="295.237278"/>
     <use style="fill:#1f77b4;stroke:#1f77b4;" x="311.318182" xlink:href="#m7b46781273" y="302.645455"/>
    </g>
   </g>
   <g id="line2d_59">
    <path clip-path="url(#p487a80a2f7)" d="M 84.741946 113.918033 
L 103.941412 113.731017 
L 118.833675 107.23438 
L 131.00154 113.391388 
L 141.289323 55.554545 
L 150.201006 87.389266 
L 158.061667 81.41202 
L 165.093269 107.914336 
L 171.454126 107.832052 
L 177.261134 111.970771 
L 182.603063 103.203692 
L 187.548917 107.420338 
L 192.153397 108.238023 
L 196.4606 102.120202 
L 200.506595 108.473649 
L 204.321261 113.824984 
L 207.929626 114.753372 
L 214.609044 117.983302 
L 217.71372 122.24983 
L 223.520727 125.8105 
L 228.862657 129.17257 
L 233.808511 130.883564 
L 238.41299 134.89664 
L 242.720194 143.118338 
L 246.766189 141.682401 
L 250.580855 141.092895 
L 255.922784 154.9331 
L 260.868638 155.799884 
L 265.473118 157.952537 
L 269.780321 173.077083 
L 273.826317 169.590159 
L 278.865577 178.836566 
L 283.550903 180.90068 
L 287.928766 188.880726 
L 293.025783 193.605807 
L 296.840449 199.731941 
L 302.182378 204.35632 
L 306.328959 210.143784 
L 310.987023 216.570017 
" style="fill:none;"/>
    <defs>
     <path d="M 0 1.5 
C 0.397805 1.5 0.77937 1.341951 1.06066 1.06066 
C 1.341951 0.77937 1.5 0.397805 1.5 0 
C 1.5 -0.397805 1.341951 -0.77937 1.06066 -1.06066 
C 0.77937 -1.341951 0.397805 -1.5 0 -1.5 
C -0.397805 -1.5 -0.77937 -1.341951 -1.06066 -1.06066 
C -1.341951 -0.77937 -1.5 -0.397805 -1.5 0 
C -1.5 0.397805 -1.341951 0.77937 -1.06066 1.06066 
C -0.77937 1.341951 -0.397805 1.5 0 1.5 
z
" id="mbb10461aa1" style="stroke:#ff7f0e;"/>
    </defs>
    <g clip-path="url(#p487a80a2f7)">
     <use style="fill:#ff7f0e;stroke:#ff7f0e;" x="84.741946" xlink:href="#mbb10461aa1" y="113.918033"/>
     <use style="fill:#ff7f0e;stroke:#ff7f0e;" x="103.941412" xlink:href="#mbb10461aa1" y="113.731017"/>
     <use style="fill:#ff7f0e;stroke:#ff7f0e;" x="118.833675" xlink:href="#mbb10461aa1" y="107.23438"/>
     <use style="fill:#ff7f0e;stroke:#ff7f0e;" x="131.00154" xlink:href="#mbb10461aa1" y="113.391388"/>
     <use style="fill:#ff7f0e;stroke:#ff7f0e;" x="141.289323" xlink:href="#mbb10461aa1" y="55.554545"/>
     <use style="fill:#ff7f0e;stroke:#ff7f0e;" x="150.201006" xlink:href="#mbb10461aa1" y="87.389266"/>
     <use style="fill:#ff7f0e;stroke:#ff7f0e;" x="158.061667" xlink:href="#mbb10461aa1" y="81.41202"/>
     <use style="fill:#ff7f0e;stroke:#ff7f0e;" x="165.093269" xlink:href="#mbb10461aa1" y="107.914336"/>
     <use style="fill:#ff7f0e;stroke:#ff7f0e;" x="171.454126" xlink:href="#mbb10461aa1" y="107.832052"/>
     <use style="fill:#ff7f0e;stroke:#ff7f0e;" x="177.261134" xlink:href="#mbb10461aa1" y="111.970771"/>
     <use style="fill:#ff7f0e;stroke:#ff7f0e;" x="182.603063" xlink:href="#mbb10461aa1" y="103.203692"/>
     <use style="fill:#ff7f0e;stroke:#ff7f0e;" x="187.548917" xlink:href="#mbb10461aa1" y="107.420338"/>
     <use style="fill:#ff7f0e;stroke:#ff7f0e;" x="192.153397" xlink:href="#mbb10461aa1" y="108.238023"/>
     <use style="fill:#ff7f0e;stroke:#ff7f0e;" x="196.4606" xlink:href="#mbb10461aa1" y="102.120202"/>
     <use style="fill:#ff7f0e;stroke:#ff7f0e;" x="200.506595" xlink:href="#mbb10461aa1" y="108.473649"/>
     <use style="fill:#ff7f0e;stroke:#ff7f0e;" x="204.321261" xlink:href="#mbb10461aa1" y="113.824984"/>
     <use style="fill:#ff7f0e;stroke:#ff7f0e;" x="207.929626" xlink:href="#mbb10461aa1" y="114.753372"/>
     <use style="fill:#ff7f0e;stroke:#ff7f0e;" x="214.609044" xlink:href="#mbb10461aa1" y="117.983302"/>
     <use style="fill:#ff7f0e;stroke:#ff7f0e;" x="217.71372" xlink:href="#mbb10461aa1" y="122.24983"/>
     <use style="fill:#ff7f0e;stroke:#ff7f0e;" x="223.520727" xlink:href="#mbb10461aa1" y="125.8105"/>
     <use style="fill:#ff7f0e;stroke:#ff7f0e;" x="228.862657" xlink:href="#mbb10461aa1" y="129.17257"/>
     <use style="fill:#ff7f0e;stroke:#ff7f0e;" x="233.808511" xlink:href="#mbb10461aa1" y="130.883564"/>
     <use style="fill:#ff7f0e;stroke:#ff7f0e;" x="238.41299" xlink:href="#mbb10461aa1" y="134.89664"/>
     <use style="fill:#ff7f0e;stroke:#ff7f0e;" x="242.720194" xlink:href="#mbb10461aa1" y="143.118338"/>
     <use style="fill:#ff7f0e;stroke:#ff7f0e;" x="246.766189" xlink:href="#mbb10461aa1" y="141.682401"/>
     <use style="fill:#ff7f0e;stroke:#ff7f0e;" x="250.580855" xlink:href="#mbb10461aa1" y="141.092895"/>
     <use style="fill:#ff7f0e;stroke:#ff7f0e;" x="255.922784" xlink:href="#mbb10461aa1" y="154.9331"/>
     <use style="fill:#ff7f0e;stroke:#ff7f0e;" x="260.868638" xlink:href="#mbb10461aa1" y="155.799884"/>
     <use style="fill:#ff7f0e;stroke:#ff7f0e;" x="265.473118" xlink:href="#mbb10461aa1" y="157.952537"/>
     <use style="fill:#ff7f0e;stroke:#ff7f0e;" x="269.780321" xlink:href="#mbb10461aa1" y="173.077083"/>
     <use style="fill:#ff7f0e;stroke:#ff7f0e;" x="273.826317" xlink:href="#mbb10461aa1" y="169.590159"/>
     <use style="fill:#ff7f0e;stroke:#ff7f0e;" x="278.865577" xlink:href="#mbb10461aa1" y="178.836566"/>
     <use style="fill:#ff7f0e;stroke:#ff7f0e;" x="283.550903" xlink:href="#mbb10461aa1" y="180.90068"/>
     <use style="fill:#ff7f0e;stroke:#ff7f0e;" x="287.928766" xlink:href="#mbb10461aa1" y="188.880726"/>
     <use style="fill:#ff7f0e;stroke:#ff7f0e;" x="293.025783" xlink:href="#mbb10461aa1" y="193.605807"/>
     <use style="fill:#ff7f0e;stroke:#ff7f0e;" x="296.840449" xlink:href="#mbb10461aa1" y="199.731941"/>
     <use style="fill:#ff7f0e;stroke:#ff7f0e;" x="302.182378" xlink:href="#mbb10461aa1" y="204.35632"/>
     <use style="fill:#ff7f0e;stroke:#ff7f0e;" x="306.328959" xlink:href="#mbb10461aa1" y="210.143784"/>
     <use style="fill:#ff7f0e;stroke:#ff7f0e;" x="310.987023" xlink:href="#mbb10461aa1" y="216.570017"/>
    </g>
   </g>
   <g id="patch_3">
    <path d="M 45 315 
L 45 43.2 
" style="fill:none;stroke:#000000;stroke-linecap:square;stroke-linejoin:miter;stroke-width:0.8;"/>
   </g>
   <g id="patch_4">
    <path d="M 324 315 
L 324 43.2 
" style="fill:none;stroke:#000000;stroke-linecap:square;stroke-linejoin:miter;stroke-width:0.8;"/>
   </g>
   <g id="patch_5">
    <path d="M 45 315 
L 324 315 
" style="fill:none;stroke:#000000;stroke-linecap:square;stroke-linejoin:miter;stroke-width:0.8;"/>
   </g>
   <g id="patch_6">
    <path d="M 45 43.2 
L 324 43.2 
" style="fill:none;stroke:#000000;stroke-linecap:square;stroke-linejoin:miter;stroke-width:0.8;"/>
   </g>
   <g id="legend_1">
    <g id="patch_7">
     <path d="M 212.84375 80.55625 
L 317 80.55625 
Q 319 80.55625 319 78.55625 
L 319 50.2 
Q 319 48.2 317 48.2 
L 212.84375 48.2 
Q 210.84375 48.2 210.84375 50.2 
L 210.84375 78.55625 
Q 210.84375 80.55625 212.84375 80.55625 
z
" style="fill:#ffffff;opacity:0.8;stroke:#cccccc;stroke-linejoin:miter;"/>
    </g>
    <g id="line2d_60">
     <path d="M 214.84375 56.298437 
L 234.84375 56.298437 
" style="fill:none;"/>
    </g>
    <g id="line2d_61">
     <g>
      <use style="fill:#1f77b4;stroke:#1f77b4;" x="224.84375" xlink:href="#m7b46781273" y="56.298437"/>
     </g>
    </g>
    <g id="text_10">
     <!-- Adaptive -->
     <defs>
      <path d="M 34.1875 63.1875 
L 20.796875 26.90625 
L 47.609375 26.90625 
z
M 28.609375 72.90625 
L 39.796875 72.90625 
L 67.578125 0 
L 57.328125 0 
L 50.6875 18.703125 
L 17.828125 18.703125 
L 11.1875 0 
L 0.78125 0 
z
" id="DejaVuSans-65"/>
      <path d="M 45.40625 46.390625 
L 45.40625 75.984375 
L 54.390625 75.984375 
L 54.390625 0 
L 45.40625 0 
L 45.40625 8.203125 
Q 42.578125 3.328125 38.25 0.953125 
Q 33.9375 -1.421875 27.875 -1.421875 
Q 17.96875 -1.421875 11.734375 6.484375 
Q 5.515625 14.40625 5.515625 27.296875 
Q 5.515625 40.1875 11.734375 48.09375 
Q 17.96875 56 27.875 56 
Q 33.9375 56 38.25 53.625 
Q 42.578125 51.265625 45.40625 46.390625 
z
M 14.796875 27.296875 
Q 14.796875 17.390625 18.875 11.75 
Q 22.953125 6.109375 30.078125 6.109375 
Q 37.203125 6.109375 41.296875 11.75 
Q 45.40625 17.390625 45.40625 27.296875 
Q 45.40625 37.203125 41.296875 42.84375 
Q 37.203125 48.484375 30.078125 48.484375 
Q 22.953125 48.484375 18.875 42.84375 
Q 14.796875 37.203125 14.796875 27.296875 
z
" id="DejaVuSans-100"/>
      <path d="M 34.28125 27.484375 
Q 23.390625 27.484375 19.1875 25 
Q 14.984375 22.515625 14.984375 16.5 
Q 14.984375 11.71875 18.140625 8.90625 
Q 21.296875 6.109375 26.703125 6.109375 
Q 34.1875 6.109375 38.703125 11.40625 
Q 43.21875 16.703125 43.21875 25.484375 
L 43.21875 27.484375 
z
M 52.203125 31.203125 
L 52.203125 0 
L 43.21875 0 
L 43.21875 8.296875 
Q 40.140625 3.328125 35.546875 0.953125 
Q 30.953125 -1.421875 24.3125 -1.421875 
Q 15.921875 -1.421875 10.953125 3.296875 
Q 6 8.015625 6 15.921875 
Q 6 25.140625 12.171875 29.828125 
Q 18.359375 34.515625 30.609375 34.515625 
L 43.21875 34.515625 
L 43.21875 35.40625 
Q 43.21875 41.609375 39.140625 45 
Q 35.0625 48.390625 27.6875 48.390625 
Q 23 48.390625 18.546875 47.265625 
Q 14.109375 46.140625 10.015625 43.890625 
L 10.015625 52.203125 
Q 14.9375 54.109375 19.578125 55.046875 
Q 24.21875 56 28.609375 56 
Q 40.484375 56 46.34375 49.84375 
Q 52.203125 43.703125 52.203125 31.203125 
z
" id="DejaVuSans-97"/>
      <path d="M 2.984375 54.6875 
L 12.5 54.6875 
L 29.59375 8.796875 
L 46.6875 54.6875 
L 56.203125 54.6875 
L 35.6875 0 
L 23.484375 0 
z
" id="DejaVuSans-118"/>
     </defs>
     <g transform="translate(242.84375 59.798437)scale(0.1 -0.1)">
      <use xlink:href="#DejaVuSans-65"/>
      <use x="68.392578" xlink:href="#DejaVuSans-100"/>
      <use x="131.869141" xlink:href="#DejaVuSans-97"/>
      <use x="193.148438" xlink:href="#DejaVuSans-112"/>
      <use x="256.625" xlink:href="#DejaVuSans-116"/>
      <use x="295.833984" xlink:href="#DejaVuSans-105"/>
      <use x="323.617188" xlink:href="#DejaVuSans-118"/>
      <use x="382.796875" xlink:href="#DejaVuSans-101"/>
     </g>
    </g>
    <g id="line2d_62">
     <path d="M 214.84375 70.976562 
L 234.84375 70.976562 
" style="fill:none;"/>
    </g>
    <g id="line2d_63">
     <g>
      <use style="fill:#ff7f0e;stroke:#ff7f0e;" x="224.84375" xlink:href="#mbb10461aa1" y="70.976562"/>
     </g>
    </g>
    <g id="text_11">
     <!-- Homogeneous -->
     <defs>
      <path d="M 9.8125 72.90625 
L 19.671875 72.90625 
L 19.671875 43.015625 
L 55.515625 43.015625 
L 55.515625 72.90625 
L 65.375 72.90625 
L 65.375 0 
L 55.515625 0 
L 55.515625 34.71875 
L 19.671875 34.71875 
L 19.671875 0 
L 9.8125 0 
z
" id="DejaVuSans-72"/>
      <path d="M 45.40625 27.984375 
Q 45.40625 37.75 41.375 43.109375 
Q 37.359375 48.484375 30.078125 48.484375 
Q 22.859375 48.484375 18.828125 43.109375 
Q 14.796875 37.75 14.796875 27.984375 
Q 14.796875 18.265625 18.828125 12.890625 
Q 22.859375 7.515625 30.078125 7.515625 
Q 37.359375 7.515625 41.375 12.890625 
Q 45.40625 18.265625 45.40625 27.984375 
z
M 54.390625 6.78125 
Q 54.390625 -7.171875 48.1875 -13.984375 
Q 42 -20.796875 29.203125 -20.796875 
Q 24.46875 -20.796875 20.265625 -20.09375 
Q 16.0625 -19.390625 12.109375 -17.921875 
L 12.109375 -9.1875 
Q 16.0625 -11.328125 19.921875 -12.34375 
Q 23.78125 -13.375 27.78125 -13.375 
Q 36.625 -13.375 41.015625 -8.765625 
Q 45.40625 -4.15625 45.40625 5.171875 
L 45.40625 9.625 
Q 42.625 4.78125 38.28125 2.390625 
Q 33.9375 0 27.875 0 
Q 17.828125 0 11.671875 7.65625 
Q 5.515625 15.328125 5.515625 27.984375 
Q 5.515625 40.671875 11.671875 48.328125 
Q 17.828125 56 27.875 56 
Q 33.9375 56 38.28125 53.609375 
Q 42.625 51.21875 45.40625 46.390625 
L 45.40625 54.6875 
L 54.390625 54.6875 
z
" id="DejaVuSans-103"/>
     </defs>
     <g transform="translate(242.84375 74.476562)scale(0.1 -0.1)">
      <use xlink:href="#DejaVuSans-72"/>
      <use x="75.195312" xlink:href="#DejaVuSans-111"/>
      <use x="136.376953" xlink:href="#DejaVuSans-109"/>
      <use x="233.789062" xlink:href="#DejaVuSans-111"/>
      <use x="294.970703" xlink:href="#DejaVuSans-103"/>
      <use x="358.447266" xlink:href="#DejaVuSans-101"/>
      <use x="419.970703" xlink:href="#DejaVuSans-110"/>
      <use x="483.349609" xlink:href="#DejaVuSans-101"/>
      <use x="544.873047" xlink:href="#DejaVuSans-111"/>
      <use x="606.054688" xlink:href="#DejaVuSans-117"/>
      <use x="669.433594" xlink:href="#DejaVuSans-115"/>
     </g>
    </g>
   </g>
  </g>
 </g>
 <defs>
  <clipPath id="p487a80a2f7">
   <rect height="271.8" width="279" x="45" y="43.2"/>
  </clipPath>
 </defs>
</svg>
